
<svg xmlns="http://www.w3.org/2000/svg" viewBox="0 0 518.09 378.38"><defs><style>.cls-1{fill:#4dbbee;}.cls-1,.cls-2,.cls-3,.cls-8{stroke:#fff;}.cls-1,.cls-2,.cls-8{stroke-linejoin:round;stroke-width:0.5px;}.cls-2,.cls-7{fill:#009ee6;}.cls-3,.cls-8{fill:none;}.cls-3{stroke-miterlimit:10;}.cls-4{fill:#0184bd;}.cls-5,.cls-6{fill:#fff;}.cls-5{opacity:0.5;}</style></defs><title>fonctionnalite_illu_top</title><g id="Calque_1" data-name="Calque 1"><polygon id="dessus" class="cls-1" points="459.25 208.71 346.3 328.2 80.45 193.11 79.45 188.11 192.93 68.87 458.25 203.71 459.25 208.71"/><polygon id="dessus-2" data-name="dessus" class="cls-2" points="458.25 203.71 345.61 323.17 79.45 188.11 192.93 68.87 458.25 203.71"/><polygon id="dessus-3" data-name="dessus" class="cls-1" points="457.61 198.5 345.03 318.08 79.45 184.11 77.28 171.25 190.93 51.87 456.25 186.71 457.61 198.5"/><polygon id="dessus-4" data-name="dessus" class="cls-2" points="456.25 186.71 343.03 306.08 77.45 171.11 190.93 51.87 456.25 186.71"/><polygon id="dessus-5" data-name="dessus" class="cls-1" points="455.25 180.71 342.03 300.08 76.45 165.11 75.45 158.11 188.93 38.87 454.25 173.71 455.25 180.71"/><polygon id="dessus-6" data-name="dessus" class="cls-2" points="454.25 173.71 341.03 293.08 75.45 158.11 188.93 38.87 454.25 173.71"/><line class="cls-3" x1="341.03" y1="293.08" x2="342.03" y2="300.08"/><line class="cls-3" x1="343.03" y1="306.08" x2="344.86" y2="318"/><line class="cls-3" x1="345.61" y1="323.17" x2="346.36" y2="328"/><polygon class="cls-4" points="403.03 212.42 379.09 199.85 380.65 198.17 404.78 210.67 403.03 212.42"/><polygon class="cls-5" points="403.03 212.42 379.09 199.85 379.25 199.6 403.37 212.1 403.03 212.42"/><polygon class="cls-4" points="406.49 208.67 382.55 196.1 384.11 194.42 408.24 206.92 406.49 208.67"/><polygon class="cls-5" points="406.49 208.67 382.55 196.1 382.71 195.85 406.83 208.35 406.49 208.67"/><polygon class="cls-4" points="410.34 204.87 386.4 192.31 387.97 190.62 412.09 203.12 410.34 204.87"/><polygon class="cls-5" points="410.34 204.87 386.4 192.31 386.56 192.06 410.69 204.56 410.34 204.87"/><polygon class="cls-4" points="413.72 201.19 389.78 188.62 391.34 186.94 415.47 199.44 413.72 201.19"/><polygon class="cls-5" points="413.72 201.19 389.78 188.62 389.94 188.37 414.06 200.87 413.72 201.19"/><polygon class="cls-4" points="417.47 197.44 393.53 184.87 395.09 183.19 419.22 195.69 417.47 197.44"/><polygon class="cls-5" points="417.47 197.44 393.53 184.87 393.69 184.62 417.81 197.12 417.47 197.44"/><polygon class="cls-4" points="420.78 193.69 396.84 181.12 398.4 179.44 422.53 191.94 420.78 193.69"/><polygon class="cls-5" points="420.78 193.69 396.84 181.12 397 180.87 421.12 193.37 420.78 193.69"/><polygon class="cls-4" points="424.3 189.98 400.36 177.42 401.93 175.73 426.05 188.23 424.3 189.98"/><polygon class="cls-5" points="424.3 189.98 400.36 177.42 400.52 177.17 424.64 189.67 424.3 189.98"/><polygon class="cls-4" points="427.7 186.33 403.76 173.77 405.32 172.08 429.45 184.58 427.7 186.33"/><polygon class="cls-5" points="427.7 186.33 403.76 173.77 403.91 173.52 428.04 186.02 427.7 186.33"/><polygon class="cls-4" points="431.45 182.4 407.51 169.83 409.07 168.15 433.2 180.65 431.45 182.4"/><polygon class="cls-5" points="431.45 182.4 407.51 169.83 407.66 169.58 431.79 182.08 431.45 182.4"/><polygon class="cls-4" points="434.95 178.71 411.01 166.15 412.57 164.46 436.7 176.96 434.95 178.71"/><polygon class="cls-5" points="434.95 178.71 411.01 166.15 411.16 165.9 435.29 178.4 434.95 178.71"/><polygon class="cls-4" points="180.2 98.92 156.26 86.35 157.82 84.67 181.95 97.17 180.2 98.92"/><polygon class="cls-5" points="180.2 98.92 156.26 86.35 156.41 86.1 180.54 98.6 180.2 98.92"/><polygon class="cls-4" points="183.65 95.17 159.72 82.6 161.28 80.92 185.4 93.42 183.65 95.17"/><polygon class="cls-5" points="183.65 95.17 159.72 82.6 159.87 82.35 184 94.85 183.65 95.17"/><polygon class="cls-4" points="187.51 91.37 163.57 78.81 165.13 77.12 189.26 89.62 187.51 91.37"/><polygon class="cls-5" points="187.51 91.37 163.57 78.81 163.73 78.56 187.85 91.06 187.51 91.37"/><polygon class="cls-4" points="190.88 87.69 166.95 75.12 168.51 73.44 192.63 85.94 190.88 87.69"/><polygon class="cls-5" points="190.88 87.69 166.95 75.12 167.1 74.87 191.23 87.37 190.88 87.69"/><polygon class="cls-4" points="194.63 83.94 170.7 71.37 172.26 69.69 196.38 82.19 194.63 83.94"/><polygon class="cls-5" points="194.63 83.94 170.7 71.37 170.85 71.12 194.98 83.62 194.63 83.94"/><polygon class="cls-4" points="197.95 80.19 174.01 67.62 175.57 65.94 199.7 78.44 197.95 80.19"/><polygon class="cls-5" points="197.95 80.19 174.01 67.62 174.16 67.37 198.29 79.87 197.95 80.19"/><polygon class="cls-4" points="201.47 76.48 177.53 63.92 179.09 62.23 203.22 74.73 201.47 76.48"/><polygon class="cls-5" points="201.47 76.48 177.53 63.92 177.69 63.67 201.81 76.17 201.47 76.48"/><polygon class="cls-4" points="204.86 72.83 180.93 60.27 182.49 58.58 206.61 71.08 204.86 72.83"/><polygon class="cls-5" points="204.86 72.83 180.93 60.27 181.08 60.02 205.21 72.52 204.86 72.83"/><polygon class="cls-4" points="208.61 68.89 184.68 56.33 186.24 54.65 210.36 67.14 208.61 68.89"/><polygon class="cls-5" points="208.61 68.89 184.68 56.33 184.83 56.08 208.96 68.58 208.61 68.89"/><polygon class="cls-4" points="212.11 65.21 188.18 52.65 189.74 50.96 213.86 63.46 212.11 65.21"/><polygon class="cls-5" points="212.11 65.21 188.18 52.65 188.33 52.4 212.46 64.89 212.11 65.21"/><path class="cls-6" d="M718.78,702.45c-2.49-3.5-16.91-7.58-32.22-9.12s-25.7,0-23.21,3.54c.69,1-.83,2.45,1.48,3.45-2.22-3.42,9.79-5.57,23.14-4.23s26.45,5.3,28.94,8.79a2.71,2.71,0,0,1,.24.42C719,704.61,719.63,703.64,718.78,702.45Z" transform="translate(-394.55 -525.17)"/><path class="cls-6" d="M679.46,689c.3-1.67.69-3.41,1.18-5.19,3.34-12.13,10-21.63,14.86-21.24,3.85.31,5.42,6.73,4.26,15.4-3.36,2.35-7.2,6.95-10.52,12.72,3.24-4,6.66-6.78,9.6-7.72q-.26,1.12-.58,2.27c-.53,1.92-1.15,3.78-1.82,5.55a47.08,47.08,0,0,0,3.81-8.13,5.11,5.11,0,0,1,1.56,0c3.48.68,4.69,5.26,3.67,11.58,3.43-9.57,3.31-17.21-.67-18a4.93,4.93,0,0,0-2.79.4c2.59-11.19.64-20.27-4.66-20.7-5.62-.46-12.89,9-16.23,21.13A42.59,42.59,0,0,0,679.46,689Z" transform="translate(-394.55 -525.17)"/><path class="cls-6" d="M593.8,680.58q6.29.79,9.62-2.87,4.55-5-2.89-8.64l-12.22-6-19.54,21.48,11.84,5.78q8.15,4,13.93-2.37Q598.26,683.91,593.8,680.58Zm-10.25,6.23-6.8-3.32L590,668.92l7.08,3.46q2.7,1.32,1.06,3.12-3,3.32-9.79,1.2L586,679.27l1.46.71q4.8,2.34,1.75,5.69A4.4,4.4,0,0,1,583.55,686.81Z" transform="translate(-394.55 -525.17)"/><path class="cls-6" d="M614.91,684.34q-9.54-4.66-16.55,3-7.34,8.06,3.08,13.15a39.66,39.66,0,0,0,6.94,2.74l2.87-3.15a39.14,39.14,0,0,1-6.21-2.38q-6.31-3.08-3.42-6.27l12.53,6.12Q624.44,689,614.91,684.34Zm-2.65,8.12-8-3.9q3.41-3.23,7.25-1.36Q615.61,689.2,612.27,692.47Z" transform="translate(-394.55 -525.17)"/><path class="cls-6" d="M634.72,694q-9.54-4.66-16.55,3-7.34,8.06,3.08,13.15A39.65,39.65,0,0,0,628.2,713l2.87-3.15a39.13,39.13,0,0,1-6.21-2.38q-6.31-3.08-3.42-6.27L634,707.28Q644.25,698.67,634.72,694Zm-2.64,8.12-8-3.9q3.42-3.23,7.25-1.36Q635.42,698.87,632.08,702.14Z" transform="translate(-394.55 -525.17)"/><polygon class="cls-6" points="248.67 177.56 258.25 182.24 239.56 186.99 236.83 190 251.6 197.21 254.34 194.21 244.91 189.6 263.45 184.78 266.31 181.62 251.54 174.4 248.67 177.56"/><path class="cls-6" d="M658,716l11.86-13,4.84,2.36-11.86,13q-4.67,5.14,1.71,8.25t11.06-2l11.86-13,4.83,2.36-11.86,13q-7.81,8.59-19,3.11T658,716Z" transform="translate(-394.55 -525.17)"/><path class="cls-6" d="M678.27,738.06l19.54-21.48,12.22,6q7.44,3.64,2.48,9.09-5.83,6.41-17.84,2.55l2.53-3.88q7.27,2.14,10.14-1,1.89-2.07-.81-3.39l-7.08-3.46-16.35,18Z" transform="translate(-394.55 -525.17)"/></g><g id="Calque_2" data-name="Calque 2"><path class="cls-7" d="M866.25,700.34a1.88,1.88,0,0,0,1.38-2.21,1.78,1.78,0,0,0-2-1.56,1.88,1.88,0,0,0-1.38,2.21A1.78,1.78,0,0,0,866.25,700.34Zm4-11.15a1.88,1.88,0,0,0-1.38,2.21,1.78,1.78,0,0,0,2,1.56,1.88,1.88,0,0,0,1.38-2.21A1.78,1.78,0,0,0,870.22,689.19Zm14.41,5.67a.59.59,0,0,0-.67-.52.63.63,0,0,0-.46.74.59.59,0,0,0,.67.52A.63.63,0,0,0,884.63,694.86Zm-18.87-11.31a.63.63,0,0,0,.46-.74.59.59,0,0,0-.67-.52.63.63,0,0,0-.46.74A.59.59,0,0,0,865.76,683.56Zm-5.67,21.86a.63.63,0,0,0-.46.74.59.59,0,0,0,.67.52.63.63,0,0,0,.46-.74A.59.59,0,0,0,860.09,705.42Zm6.09,1.43a1.88,1.88,0,0,0-1.38,2.21,1.78,1.78,0,0,0,2,1.56,1.88,1.88,0,0,0,1.38-2.21A1.78,1.78,0,0,0,866.18,706.84Zm18-11.24a.63.63,0,0,0-.46.74.59.59,0,0,0,.67.52.63.63,0,0,0,.46-.74A.59.59,0,0,0,884.17,695.6ZM876,702.37a.63.63,0,0,0,.46-.74.59.59,0,0,0-.67-.52.63.63,0,0,0-.46.74A.59.59,0,0,0,876,702.37Zm16.44-13.54a.63.63,0,0,0-.46.74.59.59,0,0,0,.67.52.63.63,0,0,0,.46-.74A.59.59,0,0,0,892.39,688.83ZM839.84,672a1.88,1.88,0,0,0-1.38,2.21,1.78,1.78,0,0,0,2,1.56,1.88,1.88,0,0,0,1.38-2.21A1.78,1.78,0,0,0,839.84,672ZM581.91,554.71a1.68,1.68,0,0,0-2,1.43,2,2,0,0,0,1.38,2.28,1.68,1.68,0,0,0,2-1.43A2,2,0,0,0,581.91,554.71Zm-4.59-7.6a1.68,1.68,0,0,0-2,1.43,2,2,0,0,0,1.38,2.28,1.68,1.68,0,0,0,2-1.43A2,2,0,0,0,577.31,547.11Zm7.91-10.93a.56.56,0,0,0-.68.48.66.66,0,0,0,.46.76.56.56,0,0,0,.68-.48A.66.66,0,0,0,585.23,536.17Zm-17,15.12a.56.56,0,0,0,.68-.48.66.66,0,0,0-.46-.76.56.56,0,0,0-.68.48A.66.66,0,0,0,568.23,551.29Zm20,8.89a.68.68,0,0,0,.12.89.54.54,0,0,0,.81-.09.68.68,0,0,0-.12-.89A.54.54,0,0,0,588.22,560.19Zm5.34-3.33a2,2,0,0,0,.35,2.68,1.62,1.62,0,0,0,2.44-.28,2,2,0,0,0-.35-2.68A1.62,1.62,0,0,0,593.56,556.86Zm-7.19-20.4a.56.56,0,0,0-.68.48.66.66,0,0,0,.46.76.56.56,0,0,0,.68-.48A.66.66,0,0,0,586.37,536.46Zm2.11,11.5a.66.66,0,0,0-.46-.76.56.56,0,0,0-.68.48.66.66,0,0,0,.46.76A.56.56,0,0,0,588.47,548Zm-4.9-22.52a.56.56,0,0,0-.68.48.66.66,0,0,0,.46.76.56.56,0,0,0,.68-.48A.66.66,0,0,0,583.58,525.43Zm-15.86,38a2,2,0,0,0,.35,2.68,1.62,1.62,0,0,0,2.44-.28,2.05,2.05,0,0,0-.35-2.68A1.62,1.62,0,0,0,567.72,563.41ZM432.15,705.84a2,2,0,0,0-.76-2.59,1.63,1.63,0,0,0-2.34.73,2,2,0,0,0,.76,2.59A1.63,1.63,0,0,0,432.15,705.84Zm1.77,6a1.63,1.63,0,0,0-2.34.73,2,2,0,0,0,.76,2.59,1.63,1.63,0,0,0,2.34-.73A2,2,0,0,0,433.92,711.88ZM414,697.95a.68.68,0,0,0,0,.9.54.54,0,0,0,.82,0,.68.68,0,0,0,0-.9A.54.54,0,0,0,414,697.95Zm28.24,16a.54.54,0,0,0-.78.24.68.68,0,0,0,.25.86.54.54,0,0,0,.78-.24A.68.68,0,0,0,442.21,714Zm-13.09-18.51a.68.68,0,0,0-.25-.86.54.54,0,0,0-.78.24.68.68,0,0,0,.25.86A.54.54,0,0,0,429.12,695.48Zm-5.47,1.71a1.63,1.63,0,0,0-2.34.73,2,2,0,0,0,.76,2.59,1.63,1.63,0,0,0,2.34-.73A2,2,0,0,0,423.66,697.19Zm-8.9-.16a.68.68,0,0,0,0,.9.54.54,0,0,0,.82,0,.68.68,0,0,0,0-.9A.54.54,0,0,0,414.75,697Zm7.76,13.71a.54.54,0,0,0-.78.24.68.68,0,0,0,.25.86.54.54,0,0,0,.78-.24A.68.68,0,0,0,422.51,710.74Zm-17.73-17.09a.68.68,0,0,0,0,.9.54.54,0,0,0,.82,0,.68.68,0,0,0,0-.9A.54.54,0,0,0,404.78,693.66Zm43.16-7.82a1.63,1.63,0,0,0-2.34.73,2,2,0,0,0,.76,2.59,1.63,1.63,0,0,0,2.34-.73A2,2,0,0,0,447.94,685.83ZM700.61,848.33a.54.54,0,0,0-.78.24.68.68,0,0,0,.25.86.54.54,0,0,0,.78-.24A.68.68,0,0,0,700.61,848.33Zm29.91,13a2,2,0,0,0-.76-2.59,1.63,1.63,0,0,0-2.34.73,2,2,0,0,0,.76,2.59A1.63,1.63,0,0,0,730.52,861.3Zm1.77,6a1.63,1.63,0,0,0-2.34.73,2,2,0,0,0,.76,2.59,1.63,1.63,0,0,0,2.34-.73A2,2,0,0,0,732.29,867.35Zm5.09,15.88a.54.54,0,0,0-.78.24.68.68,0,0,0,.25.86.54.54,0,0,0,.78-.24A.68.68,0,0,0,737.38,883.22Zm3.2-13.77a.54.54,0,0,0-.78.24.68.68,0,0,0,.25.86.54.54,0,0,0,.78-.24A.68.68,0,0,0,740.58,869.46Zm-13.09-18.51a.68.68,0,0,0-.25-.86.54.54,0,0,0-.78.24.68.68,0,0,0,.25.86A.54.54,0,0,0,727.48,850.95ZM722,852.66a1.63,1.63,0,0,0-2.34.73,2,2,0,0,0,.76,2.59,1.63,1.63,0,0,0,2.34-.73A2,2,0,0,0,722,852.66Zm14.33,29.95a.54.54,0,0,0-.78.24.68.68,0,0,0,.25.86.54.54,0,0,0,.78-.24A.68.68,0,0,0,736.35,882.61Zm-15.47-16.39a.54.54,0,0,0-.78.24.68.68,0,0,0,.25.86.54.54,0,0,0,.78-.24A.68.68,0,0,0,720.87,866.21Zm15.38,27.73a.54.54,0,0,0-.78.24.68.68,0,0,0,.25.86.54.54,0,0,0,.78-.24A.68.68,0,0,0,736.26,893.94Zm31.21-54.22a1.63,1.63,0,0,0-2.34.73,2,2,0,0,0,.76,2.59,1.63,1.63,0,0,0,2.34-.73A2,2,0,0,0,767.47,839.72ZM761,858.07a1.63,1.63,0,0,0-2.34.73,2,2,0,0,0,.76,2.59,1.63,1.63,0,0,0,2.34-.73A2,2,0,0,0,761,858.07ZM690.85,864a1.63,1.63,0,0,0-2.34.73,2,2,0,0,0,.76,2.59,1.63,1.63,0,0,0,2.34-.73A2,2,0,0,0,690.85,864Zm-228-137.77a1.63,1.63,0,0,0-2.34.73,2,2,0,0,0,.76,2.59,1.63,1.63,0,0,0,2.34-.73A2,2,0,0,0,462.86,726.22Zm-1-62.7a2,2,0,0,0-.76-2.59,1.63,1.63,0,0,0-2.34.73,2,2,0,0,0,.76,2.59A1.63,1.63,0,0,0,461.85,663.52Zm357.76,7.6a1.63,1.63,0,0,0-2.41.46,2,2,0,0,0,.45,2.66,1.63,1.63,0,0,0,2.41-.46A2,2,0,0,0,819.61,671.12ZM427,645.47a.54.54,0,0,0-.78.24.68.68,0,0,0,.25.86.54.54,0,0,0,.78-.24A.68.68,0,0,0,427,645.47Zm-31.38,4.46a.54.54,0,0,0-.78.24.68.68,0,0,0,.25.86.54.54,0,0,0,.78-.24A.68.68,0,0,0,395.65,649.93Zm477.35-3a.68.68,0,0,0,.15.89.54.54,0,0,0,.8-.15.68.68,0,0,0-.15-.89A.54.54,0,0,0,873,646.92ZM912.14,653a.54.54,0,0,0-.8.15.68.68,0,0,0,.15.89.54.54,0,0,0,.8-.15A.68.68,0,0,0,912.14,653ZM767.59,902.11a.54.54,0,0,0-.78.24.68.68,0,0,0,.25.86.54.54,0,0,0,.78-.24A.68.68,0,0,0,767.59,902.11Zm92.16-175.78a.63.63,0,0,0-.46.74.59.59,0,0,0,.67.52.63.63,0,0,0,.46-.74A.59.59,0,0,0,859.76,726.34Zm20-3.29a.63.63,0,0,0-.46.74.59.59,0,0,0,.67.52.63.63,0,0,0,.46-.74A.59.59,0,0,0,879.75,723ZM876,757.21a.63.63,0,0,0-.46.74.59.59,0,0,0,.67.52.63.63,0,0,0,.46-.74A.59.59,0,0,0,876,757.21Z" transform="translate(-394.55 -525.17)"/><path class="cls-8" d="M866.25,700.34a1.88,1.88,0,0,0,1.38-2.21,1.78,1.78,0,0,0-2-1.56,1.88,1.88,0,0,0-1.38,2.21A1.78,1.78,0,0,0,866.25,700.34Zm4-11.15a1.88,1.88,0,0,0-1.38,2.21,1.78,1.78,0,0,0,2,1.56,1.88,1.88,0,0,0,1.38-2.21A1.78,1.78,0,0,0,870.22,689.19Zm14.41,5.67a.59.59,0,0,0-.67-.52.63.63,0,0,0-.46.74.59.59,0,0,0,.67.52A.63.63,0,0,0,884.63,694.86Zm-18.87-11.31a.63.63,0,0,0,.46-.74.59.59,0,0,0-.67-.52.63.63,0,0,0-.46.74A.59.59,0,0,0,865.76,683.56Zm-5.67,21.86a.63.63,0,0,0-.46.74.59.59,0,0,0,.67.52.63.63,0,0,0,.46-.74A.59.59,0,0,0,860.09,705.42Zm6.09,1.43a1.88,1.88,0,0,0-1.38,2.21,1.78,1.78,0,0,0,2,1.56,1.88,1.88,0,0,0,1.38-2.21A1.78,1.78,0,0,0,866.18,706.84Zm18-11.24a.63.63,0,0,0-.46.74.59.59,0,0,0,.67.52.63.63,0,0,0,.46-.74A.59.59,0,0,0,884.17,695.6ZM876,702.37a.63.63,0,0,0,.46-.74.59.59,0,0,0-.67-.52.63.63,0,0,0-.46.74A.59.59,0,0,0,876,702.37Zm16.44-13.54a.63.63,0,0,0-.46.74.59.59,0,0,0,.67.52.63.63,0,0,0,.46-.74A.59.59,0,0,0,892.39,688.83ZM839.84,672a1.88,1.88,0,0,0-1.38,2.21,1.78,1.78,0,0,0,2,1.56,1.88,1.88,0,0,0,1.38-2.21A1.78,1.78,0,0,0,839.84,672ZM581.91,554.71a1.68,1.68,0,0,0-2,1.43,2,2,0,0,0,1.38,2.28,1.68,1.68,0,0,0,2-1.43A2,2,0,0,0,581.91,554.71Zm-4.59-7.6a1.68,1.68,0,0,0-2,1.43,2,2,0,0,0,1.38,2.28,1.68,1.68,0,0,0,2-1.43A2,2,0,0,0,577.31,547.11Zm7.91-10.93a.56.56,0,0,0-.68.48.66.66,0,0,0,.46.76.56.56,0,0,0,.68-.48A.66.66,0,0,0,585.23,536.17Zm-17,15.12a.56.56,0,0,0,.68-.48.66.66,0,0,0-.46-.76.56.56,0,0,0-.68.48A.66.66,0,0,0,568.23,551.29Zm20,8.89a.68.68,0,0,0,.12.89.54.54,0,0,0,.81-.09.68.68,0,0,0-.12-.89A.54.54,0,0,0,588.22,560.19Zm5.34-3.33a2,2,0,0,0,.35,2.68,1.62,1.62,0,0,0,2.44-.28,2,2,0,0,0-.35-2.68A1.62,1.62,0,0,0,593.56,556.86Zm-7.19-20.4a.56.56,0,0,0-.68.48.66.66,0,0,0,.46.76.56.56,0,0,0,.68-.48A.66.66,0,0,0,586.37,536.46Zm2.11,11.5a.66.66,0,0,0-.46-.76.56.56,0,0,0-.68.48.66.66,0,0,0,.46.76A.56.56,0,0,0,588.47,548Zm-4.9-22.52a.56.56,0,0,0-.68.48.66.66,0,0,0,.46.76.56.56,0,0,0,.68-.48A.66.66,0,0,0,583.58,525.43Zm-15.86,38a2,2,0,0,0,.35,2.68,1.62,1.62,0,0,0,2.44-.28,2.05,2.05,0,0,0-.35-2.68A1.62,1.62,0,0,0,567.72,563.41ZM432.15,705.84a2,2,0,0,0-.76-2.59,1.63,1.63,0,0,0-2.34.73,2,2,0,0,0,.76,2.59A1.63,1.63,0,0,0,432.15,705.84Zm1.77,6a1.63,1.63,0,0,0-2.34.73,2,2,0,0,0,.76,2.59,1.63,1.63,0,0,0,2.34-.73A2,2,0,0,0,433.92,711.88ZM414,697.95a.68.68,0,0,0,0,.9.54.54,0,0,0,.82,0,.68.68,0,0,0,0-.9A.54.54,0,0,0,414,697.95Zm28.24,16a.54.54,0,0,0-.78.24.68.68,0,0,0,.25.86.54.54,0,0,0,.78-.24A.68.68,0,0,0,442.21,714Zm-13.09-18.51a.68.68,0,0,0-.25-.86.54.54,0,0,0-.78.24.68.68,0,0,0,.25.86A.54.54,0,0,0,429.12,695.48Zm-5.47,1.71a1.63,1.63,0,0,0-2.34.73,2,2,0,0,0,.76,2.59,1.63,1.63,0,0,0,2.34-.73A2,2,0,0,0,423.66,697.19Zm-8.9-.16a.68.68,0,0,0,0,.9.54.54,0,0,0,.82,0,.68.68,0,0,0,0-.9A.54.54,0,0,0,414.75,697Zm7.76,13.71a.54.54,0,0,0-.78.24.68.68,0,0,0,.25.86.54.54,0,0,0,.78-.24A.68.68,0,0,0,422.51,710.74Zm-17.73-17.09a.68.68,0,0,0,0,.9.54.54,0,0,0,.82,0,.68.68,0,0,0,0-.9A.54.54,0,0,0,404.78,693.66Zm43.16-7.82a1.63,1.63,0,0,0-2.34.73,2,2,0,0,0,.76,2.59,1.63,1.63,0,0,0,2.34-.73A2,2,0,0,0,447.94,685.83ZM700.61,848.33a.54.54,0,0,0-.78.24.68.68,0,0,0,.25.86.54.54,0,0,0,.78-.24A.68.68,0,0,0,700.61,848.33Zm29.91,13a2,2,0,0,0-.76-2.59,1.63,1.63,0,0,0-2.34.73,2,2,0,0,0,.76,2.59A1.63,1.63,0,0,0,730.52,861.3Zm1.77,6a1.63,1.63,0,0,0-2.34.73,2,2,0,0,0,.76,2.59,1.63,1.63,0,0,0,2.34-.73A2,2,0,0,0,732.29,867.35Zm5.09,15.88a.54.54,0,0,0-.78.24.68.68,0,0,0,.25.86.54.54,0,0,0,.78-.24A.68.68,0,0,0,737.38,883.22Zm3.2-13.77a.54.54,0,0,0-.78.24.68.68,0,0,0,.25.86.54.54,0,0,0,.78-.24A.68.68,0,0,0,740.58,869.46Zm-13.09-18.51a.68.68,0,0,0-.25-.86.54.54,0,0,0-.78.24.68.68,0,0,0,.25.86A.54.54,0,0,0,727.48,850.95ZM722,852.66a1.63,1.63,0,0,0-2.34.73,2,2,0,0,0,.76,2.59,1.63,1.63,0,0,0,2.34-.73A2,2,0,0,0,722,852.66Zm14.33,29.95a.54.54,0,0,0-.78.24.68.68,0,0,0,.25.86.54.54,0,0,0,.78-.24A.68.68,0,0,0,736.35,882.61Zm-15.47-16.39a.54.54,0,0,0-.78.24.68.68,0,0,0,.25.86.54.54,0,0,0,.78-.24A.68.68,0,0,0,720.87,866.21Zm15.38,27.73a.54.54,0,0,0-.78.24.68.68,0,0,0,.25.86.54.54,0,0,0,.78-.24A.68.68,0,0,0,736.26,893.94Zm31.21-54.22a1.63,1.63,0,0,0-2.34.73,2,2,0,0,0,.76,2.59,1.63,1.63,0,0,0,2.34-.73A2,2,0,0,0,767.47,839.72ZM761,858.07a1.63,1.63,0,0,0-2.34.73,2,2,0,0,0,.76,2.59,1.63,1.63,0,0,0,2.34-.73A2,2,0,0,0,761,858.07ZM690.85,864a1.63,1.63,0,0,0-2.34.73,2,2,0,0,0,.76,2.59,1.63,1.63,0,0,0,2.34-.73A2,2,0,0,0,690.85,864Zm-228-137.77a1.63,1.63,0,0,0-2.34.73,2,2,0,0,0,.76,2.59,1.63,1.63,0,0,0,2.34-.73A2,2,0,0,0,462.86,726.22Zm-1-62.7a2,2,0,0,0-.76-2.59,1.63,1.63,0,0,0-2.34.73,2,2,0,0,0,.76,2.59A1.63,1.63,0,0,0,461.85,663.52Zm357.76,7.6a1.63,1.63,0,0,0-2.41.46,2,2,0,0,0,.45,2.66,1.63,1.63,0,0,0,2.41-.46A2,2,0,0,0,819.61,671.12ZM427,645.47a.54.54,0,0,0-.78.24.68.68,0,0,0,.25.86.54.54,0,0,0,.78-.24A.68.68,0,0,0,427,645.47Zm-31.38,4.46a.54.54,0,0,0-.78.24.68.68,0,0,0,.25.86.54.54,0,0,0,.78-.24A.68.68,0,0,0,395.65,649.93Zm477.35-3a.68.68,0,0,0,.15.89.54.54,0,0,0,.8-.15.68.68,0,0,0-.15-.89A.54.54,0,0,0,873,646.92ZM912.14,653a.54.54,0,0,0-.8.15.68.68,0,0,0,.15.89.54.54,0,0,0,.8-.15A.68.68,0,0,0,912.14,653ZM767.59,902.11a.54.54,0,0,0-.78.24.68.68,0,0,0,.25.86.54.54,0,0,0,.78-.24A.68.68,0,0,0,767.59,902.11Zm92.16-175.78a.63.63,0,0,0-.46.74.59.59,0,0,0,.67.52.63.63,0,0,0,.46-.74A.59.59,0,0,0,859.76,726.34Zm20-3.29a.63.63,0,0,0-.46.74.59.59,0,0,0,.67.52.63.63,0,0,0,.46-.74A.59.59,0,0,0,879.75,723ZM876,757.21a.63.63,0,0,0-.46.74.59.59,0,0,0,.67.52.63.63,0,0,0,.46-.74A.59.59,0,0,0,876,757.21Z" transform="translate(-394.55 -525.17)"/></g></svg>