<svg version="1" xmlns="http://www.w3.org/2000/svg" width="413.333" height="413.333" viewBox="0 0 310.000000 310.000000"><path d="M0 155v155h310V0H0v155zM59.8 23.8C74.5 29.4 92.5 47 110 73c4.2 6.2 16.4 27 17.3 29.4.3.6 2-.4 4-2.2 13.3-12.7 35.8 6.7 56.2 48.3 8.8 17.8 9.4 21.3 2.1 11-11.8-16.4-25.8-28-34.6-28.6-6.2-.4-8.7.1-11 1.9l-2.2 1.8 3.5 10.4c4.6 13.7 7.1 22.9 6.4 23.6-.3.4-1.3-1.1-2.2-3.2-4.7-11.4-9.8-22.4-11-24-1.3-1.8-1.4-1.8-2.9.1-3.9 5.3-7.5 22-7.6 35.2 0 14.8-2.6 7.3-5.1-14.7-1.4-13.2-1.4-32.1 0-40.7l1.3-7.1-7.2-10.9C97.1 73.4 76.9 55.1 63.6 55c-15.4-.1-20.2 22.5-12.6 58.9 4.6 21.6 14.2 49 25.5 72.4 8.3 17.1 6.9 16.8-4.1-.9C26.3 110.8 14.3 22 50.2 22c2.6 0 7 .8 9.6 1.8zM272 180.3c1.9.8 4.6 2.7 5.9 4.1 2 2.1 2.3 3.2 1.8 6.7-.7 5.5-1.8 6.4-5.3 4.6-14.3-7.2-52.9-3.2-95.3 9.9-43.2 13.4-79.2 32.5-99.7 52.9-12.5 12.3-16.1 20.2-11.8 26.3 1.4 2.1 1.4 2.2-.7 2.2-1.3 0-3.7-1.7-6-4.3-2-2.3-4.4-4.8-5.2-5.6-.8-.7-2.9-2.6-4.6-4.1-3.6-3.3-3.9-5.8-1.1-11.6 8.9-18.3 57.9-46.4 113.5-64.9 26.7-8.9 51.6-15.1 71.1-17.5 10.7-1.3 33.2-.5 37.4 1.3z"/></svg>