<svg xmlns="http://www.w3.org/2000/svg" viewBox="0 0 66 81">
    <path class="st0" d="M52.7 32.4l-.1-.3-.3-2-.5-2.7-.3-2-2 .4-1.5.3-.3-1.5c-.1-.5-.6-.9-1.2-.8-.5.1-.9.6-.8 1.2l.3 1.5-3.8.7-.3-1.5c-.1-.5-.6-.9-1.2-.8-.5.1-.9.6-.8 1.2l.3 1.5-3.8.7-.3-1.5c-.1-.5-.6-.9-1.2-.8-.5 0-.9.5-.8 1l.3 1.5-2.9.5-.3-1.5c-.1-.5-.6-.9-1.2-.8-.5.1-.9.6-.8 1.2l.3 1.5-3.8.7-.3-1.5c-.1-.5-.6-.9-1.2-.8-.5.1-.9.6-.8 1.2l.3 1.5-2.1.4-2 .4.3 2 .5 2.7.1.3.3 2 2.3 13.4.3 2 2-.4 27.9-5 2-.4-.3-2-2.3-13.5zm-30.7.4l2.1-.4.1.4c.1.5.5.8 1 .8h.2c.5-.1.9-.6.8-1.2l-.2-.3 3.8-.7.1.4c.1.5.5.8 1 .8h.2c.5-.1.9-.6.8-1.2V31l2.9-.5.1.4c.1.5.5.8 1 .8h.2c.5-.1.9-.6.8-1.2l-.1-.4 3.8-.7.1.4c.1.5.5.8 1 .8h.2c.5-.1.9-.6.8-1.2l-.1-.4 3.8-.7.1.4c.1.5.5.8 1 .8h.2c.5-.1.9-.6.8-1.2l-.1-.4 1.5-.3.5 2.7-27.9 5-.5-2.5zm3.2 18.4l-2.3-13.4 27.9-5L53 46.2l-27.8 5zM24.4 12c.3-.2.4-.7.2-.9-.2-.3-.6-.3-.9-.1-.3.2-.4.7-.2.9.2.3.6.3.9.1zM26 22.2c.3-.2.4-.7.1-.9-.2-.3-.6-.3-.9-.1-.3.2-.4.7-.1.9.2.3.6.3.9.1zM20.1 18.6c-.4-.6-1.3-.6-1.8-.1-.6.5-.7 1.3-.3 1.9.4.6 1.3.6 1.8.1.6-.5.8-1.3.3-1.9zM31.9 24.4c.3-.2.4-.7.2-.9-.2-.3-.6-.3-.9-.1-.3.2-.4.7-.2.9.2.3.6.3.9.1zM14.6 13c.3-.2.4-.7.1-.9-.2-.3-.6-.3-.9-.1-.3.2-.4.7-.1.9.2.3.6.3.9.1zM21.7 27.8c.6-.5.7-1.3.3-1.9-.4-.6-1.3-.6-1.8-.1-.6.5-.7 1.3-.3 1.9.4.5 1.2.5 1.8.1zM13.8 21.1c-.3.2-.4.7-.2.9.2.3.6.3.9.1.3-.2.4-.7.2-.9-.2-.3-.6-.3-.9-.1zM42.5 54.1c-.6.5-.7 1.3-.3 1.9.4.6 1.3.6 1.8.1s.7-1.3.3-1.9c-.4-.5-1.2-.6-1.8-.1zM36.7 54.1c-.3.2-.4.7-.1.9.2.3.6.3.9.1.3-.2.4-.7.1-.9-.1-.3-.6-.3-.9-.1zM51.1 55.9c-.3.2-.4.7-.1.9.2.3.6.3.9.1.3-.2.4-.7.1-.9s-.7-.4-.9-.1zM31.9 57.5c-.3.2-.4.7-.1.9.2.3.6.3.9.1.3-.2.4-.7.1-.9-.2-.3-.6-.4-.9-.1zM56.6 64.9c-.2-.3-.6-.3-.9-.1-.3.2-.4.7-.1.9.2.3.6.3.9.1.2-.2.3-.7.1-.9zM43.4 63.8c-.3.2-.4.7-.1.9.2.3.6.3.9.1.3-.2.4-.7.1-.9-.2-.3-.6-.3-.9-.1z"/>
    <path class="st0" d="M49.1 34l-4.6.8.8 4.7 4.6-.8-.8-4.7zm-3 4.4l-.5-2.7 2.7-.5.5 2.7-2.7.5zM42.3 35.2l-4.6.8.8 4.7 4.6-.8-.8-4.7zm-3 4.4l-.5-2.7 2.7-.5.5 2.7-2.7.5zM36.5 36.3l-4.6.8.8 4.7 4.6-.8-.8-4.7zm-3 4.3l-.5-2.7 2.7-.5.5 2.7-2.7.5zM29.7 37.5l-4.6.8.8 4.7 4.6-.8-.8-4.7zm-3 4.3l-.5-2.7 2.7-.5.5 2.7-2.7.5zM45.5 40.7l.8 4.7 4.6-.8-.8-4.7-4.6.8zm1.6 3.6l-.5-2.7 2.7-.5.5 2.7-2.7.5zM38.7 42l.8 4.7 4.6-.8-.8-4.7-4.6.8zm1.7 3.5l-.5-2.7 2.7-.5.4 2.7-2.6.5zM32.9 43l.8 4.7 4.6-.8-.8-4.7-4.6.8zm1.6 3.5l-.5-2.7 2.7-.5.5 2.7-2.7.5zM26.1 44.2l.8 4.7 4.6-.8-.8-4.7-4.6.8zm1.6 3.5l-.4-2.7 2.7-.5.5 2.7-2.8.5z"/>
</svg>