<svg xmlns="http://www.w3.org/2000/svg" viewBox="0 0 44 67">
    <path class="st0" d="M35.5 20.2l-3 .5-3.9.7-25 4.4v.1L7 48l32.3-5.7-3.5-22.2-.3.1zm-1.3 2.2L37 40.5l-12.1-7.4 8.7-10.6.6-.1zM19 25.2l11.5-2.1-9.3 11.3L9.1 27l9.9-1.8zm2.7 11.9l1.9-2.4 10.6 6.5-22.1 3.9 7.6-9.2 2 1.2zM5.8 27.4h.1l.2.1L18 34.8 9.1 45.6l-.4.1-2.9-18.3zM7.8 15.2c.6-.5.7-1.3.3-1.9-.4-.6-1.2-.6-1.8-.1-.6.5-.7 1.3-.3 1.9.4.5 1.2.6 1.8.1zM7.8 22.3c.4.6 1.2.7 1.8.2.6-.5.7-1.3.3-1.9-.4-.6-1.2-.6-1.8-.1-.6.5-.7 1.3-.3 1.8zM2.8 7.7c.3-.3.3-.7.1-.9-.2-.3-.6-.3-.9-.1s-.3.6-.1.9c.2.3.6.3.9.1zM12.2 6.7c.3-.2.3-.7.1-.9-.2-.3-.6-.3-.9-.1-.3.2-.3.7-.1.9.2.3.6.3.9.1zM19.3 19.1c.3-.2.3-.7.1-.9-.2-.3-.6-.3-.9-.1-.3.2-.3.7-.1.9.3.3.7.3.9.1zM2 15.8c-.3.2-.3.7-.1.9.2.3.6.3.9.1.3-.2.3-.7.1-.9-.2-.3-.6-.3-.9-.1zM13.7 16.9c.3-.2.3-.7.1-.9-.2-.3-.6-.3-.9-.1-.3.2-.3.7-.1.9.2.3.6.3.9.1zM42.9 59.6c-.2-.3-.6-.3-.9-.1-.3.2-.3.7-.1.9.2.3.6.3.9.1.3-.2.3-.6.1-.9zM19.3 52.2c-.3.2-.3.7-.1.9.2.3.6.3.9.1.3-.2.3-.7.1-.9-.2-.3-.6-.3-.9-.1zM37.6 50.6c-.3.2-.3.7-.1.9.2.3.6.3.9.1.3-.2.3-.7.1-.9-.2-.3-.6-.3-.9-.1zM29.5 48.8c-.6.5-.7 1.3-.3 1.9s1.2.6 1.8.1c.6-.5.7-1.3.3-1.9s-1.3-.6-1.8-.1zM24 48.8c-.3.2-.3.7-.1.9.2.3.6.3.9.1.3-.2.3-.7.1-.9-.3-.3-.7-.3-.9-.1zM30.4 58.5c-.3.2-.3.7-.1.9.2.3.6.3.9.1.3-.2.3-.7.1-.9-.3-.3-.7-.3-.9-.1z"/>
</svg>