<?xml version="1.0" encoding="utf-8"?>
<!-- Generator: Adobe Illustrator 21.0.2, SVG Export Plug-In . SVG Version: 6.00 Build 0)  -->
<svg version="1.1" id="Calque_1" xmlns="http://www.w3.org/2000/svg" xmlns:xlink="http://www.w3.org/1999/xlink" x="0px" y="0px"
	 viewBox="0 0 417.5 328" style="enable-background:new 0 0 417.5 328;" xml:space="preserve">
<style type="text/css">
	.st0{fill:#FFFFFF;stroke:#E1EEF5;stroke-linejoin:round;stroke-miterlimit:10;}
	.st1{fill:#EFF6FB;stroke:#E1EEF5;stroke-linecap:round;stroke-linejoin:round;stroke-miterlimit:10;}
	.st2{fill:#FBFDFE;stroke:#E1EEF5;stroke-linecap:round;stroke-linejoin:round;stroke-miterlimit:10;}
	.st3{enable-background:new    ;}
	
		.st4{opacity:0.8;fill:none;stroke:#FFFFFF;stroke-width:4;stroke-linecap:round;stroke-linejoin:round;stroke-miterlimit:10;enable-background:new    ;}
	.st5{opacity:0.4;fill:none;stroke:#009EE6;stroke-miterlimit:10;enable-background:new    ;}
	.st6{fill:#FFCE87;}
	.st7{fill:#FFD393;}
	.st8{fill:#F4C686;}
	.st9{fill:#009AE1;}
</style>
<g id="Information">
	<polygon class="st0" points="359.9,37.1 245.6,123 197.5,87 311.8,1 	"/>
	<polygon class="st1" points="359.7,51.2 245.6,136.8 245.6,123 359.7,37.4 	"/>
	<polygon class="st2" points="245.6,136.8 197.5,99.6 197.5,87 245.6,123 	"/>
	<g class="st3">
		<path d="M239.6,101l-10.5-7.9l2.5-1.9l10.5,7.9L239.6,101z"/>
		<path d="M249,94l-11.1-3.8c1.1,0.6,2.7,1.5,4.6,3l3.8,2.9l-2.2,1.7l-10.5-7.9l3.1-2.3l11.2,3.8c-1-0.5-2.6-1.4-4.2-2.7l-4.2-3.2
			l2.2-1.7l10.5,7.9L249,94z"/>
		<path d="M247.8,81.8l2.8,2.1l3.1-2.3l1.8,1.3l-3.1,2.3l4.2,3.1l-2.5,1.9l-10.5-7.9l6.2-4.7l1.5,1.5L247.8,81.8z"/>
		<path d="M265.1,74c3.4,2.6,3.7,5.5,0.8,7.7c-2.9,2.2-6.7,2-10.2-0.6c-3.4-2.6-3.7-5.4-0.8-7.7C257.9,71.2,261.7,71.4,265.1,74z
			 M258.3,79.1c2.7,2,4.4,2.2,5.8,1.2c1.4-1.1,1.1-2.4-1.6-4.4c-2.6-2-4.4-2.2-5.8-1.2C255.4,75.8,255.7,77.1,258.3,79.1z"/>
		<path d="M270.3,71.9l4,3l-2.5,1.9l-10.5-7.9l3.4-2.6c2.8-2.1,5.3-2.5,7.5-0.8c1.4,1,1.6,2.1,0.8,3.6l7.1,1.3l-2.8,2.1l-6.2-1.4
			L270.3,71.9z M269.7,69.9c1.1-0.8,1.2-1.6,0.1-2.4c-1-0.8-2-0.6-3.3,0.3l-0.9,0.7l3,2.3L269.7,69.9z"/>
		<path d="M289.2,63.8l-4.3-2.9c-1.5-1-3.1-2.2-4.3-3.2l5.7,6.7l-2.3,1.8l-9-4.2c1.6,1.1,2.9,2.1,4.4,3.2l3.9,3.2l-2.4,1.8l-9.7-8.4
			l3.1-2.3l8.7,4.1l-5.6-6.4l3.1-2.4l11.3,7.3L289.2,63.8z"/>
		<path d="M292.8,57.7l1.7,2.1l-2.6,1.9l-7.3-10.2l3-2.3l13.6,5.5l-2.6,2l-2.8-1.3L292.8,57.7z M288,51.7l3.5,4.3l2.2-1.7L288,51.7z
			"/>
		<path d="M297.1,45l8.6,6.4l-2.5,1.9l-8.6-6.4l-2.7,2l-1.9-1.4l8-6l1.7,1.6L297.1,45z"/>
		<path d="M309.5,48.6L299,40.7l2.5-1.9l10.5,7.9L309.5,48.6z"/>
		<path d="M317.7,34.6c3.4,2.6,3.7,5.5,0.8,7.7c-2.9,2.2-6.7,2-10.2-0.6c-3.4-2.6-3.7-5.4-0.8-7.7C310.4,31.8,314.2,32,317.7,34.6z
			 M310.8,39.7c2.7,2,4.4,2.2,5.8,1.2c1.4-1.1,1.1-2.4-1.6-4.4c-2.6-2-4.4-2.2-5.8-1.2C307.9,36.4,308.2,37.7,310.8,39.7z"/>
		<path d="M329.3,33.7l-11.1-3.8c1.1,0.6,2.7,1.5,4.6,3l3.8,2.9l-2.2,1.7l-10.5-7.9l3.1-2.3l11.2,3.8c-1-0.5-2.6-1.4-4.2-2.7
			l-4.2-3.2l2.2-1.7l10.5,7.9L329.3,33.7z"/>
	</g>
	
		<ellipse transform="matrix(0.9625 -0.2711 0.2711 0.9625 -21.5527 63.3712)" class="st2" cx="218.6" cy="109.7" rx="3.5" ry="3.8"/>
</g>
<g id="name">
	<polygon class="st0" points="415.9,78.4 301.6,164.3 253.5,128.3 367.8,42.4 	"/>
	<polygon class="st1" points="415.7,92.6 301.6,178.1 301.6,164.3 415.7,78.8 	"/>
	<polygon class="st2" points="301.6,178.1 253.5,140.9 253.5,128.3 301.6,164.3 	"/>
	<g class="st3">
		<path d="M324.1,116.7l-10.7-3.2c1,0.6,2.5,1.4,4.4,2.7l3.6,2.6l-2.2,1.7l-9.9-7.2l3.1-2.4l10.8,3.2c-0.9-0.5-2.4-1.3-4-2.4l-4-2.9
			l2.2-1.7l9.9,7.2L324.1,116.7z"/>
		<path d="M329.1,109.7l1.6,2l-2.6,2l-6.7-9.7l3-2.3l13.1,4.8l-2.7,2l-2.7-1.1L329.1,109.7z M324.6,104.1l3.3,4l2.2-1.7L324.6,104.1
			z"/>
		<path d="M346.3,99.6l-4-2.7c-1.5-1-2.9-2-4.1-2.9l5.2,6.3l-2.4,1.8l-8.6-3.7c1.6,1,2.8,1.9,4.1,2.9l3.7,2.9l-2.4,1.9l-9.1-7.8
			l3.2-2.4l8.3,3.7l-5.2-6l3.2-2.4l10.7,6.6L346.3,99.6z"/>
		<path d="M344.6,88.6l2.4,1.7l3.2-2.5l1.6,1.2l-3.2,2.5l2.5,1.8l4-3.1l1.7,1.2l-6.5,5l-9.9-7.2l6.5-5l1.4,1.4L344.6,88.6z"/>
	</g>
	
		<ellipse transform="matrix(0.9625 -0.2711 0.2711 0.9625 -30.7319 80.1102)" class="st2" cx="274.6" cy="151.3" rx="3.5" ry="3.8"/>
</g>
<g id="tuyau1">
	<path id="trace" class="st4" d="M195.6,209.9l9.6-6.9c1.4-1,2.3-2.6,2.3-4.4l0.3-78.1c0-1.7,0.8-3.3,2.1-4.3l8.3-6.4"/>
	<path id="bordure" class="st5" d="M196.4,211.9c0,0-1.4,0.3-2.3-1c-0.9-1.3,0-2.3,0-2.3l10.7-7.7c0.6-0.4,1-1.1,1-1.9l-0.3-78.4
		c0-2.2,1.6-5,3.1-6.1l8.5-6.4c0,0,1.4-0.7,2.4,0.6s0,2.6,0,2.6l-8.5,6.3c-0.6,0.5-1.6,2.3-1.6,3l0.3,78.4c0,2-1,4-2.6,5.2
		L196.4,211.9z"/>
</g>
<g id="Calque_6">
	<polygon class="st6" points="198.5,154.9 184.2,167.4 184.2,151.4 198.5,138.9 	"/>
	<polygon class="st7" points="198.5,138.9 215.2,138.9 215.2,154.8 198.5,154.9 	"/>
	<polygon class="st6" points="215.2,138.9 230.1,152.2 230.1,167.4 215.2,154.8 	"/>
	<path class="st8" d="M184.2,167.4h16c0,0-0.4-11.1,7.5-11.1s8.2,11.1,8.2,11.1H230l-14.8-12.6l-16.8,0.1L184.2,167.4z"/>
</g>
<g id="tuyau2">
	<path id="trace_1_" class="st4" d="M140.5,167.4l7.2-4.3c0.8-0.5,1.7-0.7,2.7-0.7c5.4-0.1,22.4-0.4,28.6-0.7
		c1.3-0.1,2.4-0.7,3.3-1.6l11.6-11.9c0.8-0.8,2-1.3,3.1-1.3l19.5-0.7c1.1,0,2.1,0.3,2.9,1l15.3,13.7c1.1,0.9,2.5,1.4,3.9,1.4
		l19.6-0.7c1,0,2-0.3,2.8-0.9l12.8-8.8"/>
	<path id="bordure_1_" class="st5" d="M141.6,169.1c0,0-1.4,0.2-2.1-0.9s0-2.5,0-2.5l7-4.3c1-0.6,2.2-1,3.4-1l29.2-0.9
		c0.5,0,1-0.2,1.4-0.6l12.4-12.3c1-1,2.3-1.5,3.7-1.6l20.4-0.9c1.3-0.1,2.6,0.4,3.5,1.3l16.2,14.5c0.3,0.2,0.6,0.4,0.9,0.3l20.7-0.7
		c0.4,0,0.8-0.1,1.1-0.3l13.9-9.3c0,0,1.3-0.5,2.2,0.8s0,2.6,0,2.6l-13.9,9.3c-0.9,0.6-2,1-3.1,1l-20.7,0.7c-1.4,0-2.7-0.4-3.7-1.4
		l-16.2-14.5c-0.2-0.2-0.4-0.3-0.7-0.2l-20.4,0.9c-0.4,0-0.8,0.2-1.1,0.5l-12.3,12.3c-1.1,1.1-2.6,1.7-4.1,1.8l-29.2,0.9
		c-0.5,0-1,0.2-1.5,0.4L141.6,169.1z"/>
</g>
<g id="title">
	<polygon class="st0" points="164.6,182.8 50.3,268.7 2.2,232.6 116.5,146.7 	"/>
	<polygon class="st1" points="164.3,196.9 50.3,282.5 50.3,268.7 164.3,183.1 	"/>
	<polygon class="st2" points="50.3,282.5 2.2,245.3 2.2,232.6 50.3,268.7 	"/>
	<g class="st3">
		<path class="st9" d="M71.6,213.9l8.5,6.4l-2.5,1.8l-8.5-6.4l-2.7,2l-1.9-1.4l7.9-6l1.6,1.6L71.6,213.9z"/>
		<path class="st9" d="M83.9,217.4l-10.4-7.8l2.5-1.8l10.4,7.8L83.9,217.4z"/>
		<path class="st9" d="M84.1,204.5l8.5,6.4l-2.5,1.8l-8.5-6.4l-2.7,2l-1.9-1.4l7.9-6l1.6,1.6L84.1,204.5z"/>
		<path class="st9" d="M101,201.7l1.7,1.7l-6.2,4.7l-10.4-7.8l2.5-1.8l8.4,6.3L101,201.7z"/>
		<path class="st9" d="M97.9,194l2.5,1.9l3.2-2.4l1.7,1.3l-3.2,2.4l2.7,2l3.9-2.9l1.8,1.3l-6.4,4.8l-10.4-7.8l6.4-4.8l1.5,1.5
			L97.9,194z"/>
	</g>
</g>
<g id="description">
	<polygon class="st0" points="219.9,225.7 105.6,311.6 57.5,275.6 171.8,189.7 	"/>
	<polygon class="st1" points="219.7,239.8 105.6,325.4 105.6,311.6 219.7,226.1 	"/>
	<polygon class="st2" points="105.6,325.4 57.5,288.2 57.5,275.6 105.6,311.6 	"/>
	<g class="st3">
		<path class="st9" d="M102.2,275.7c4.2,3.1,2.7,5.8,0.1,7.8l-3.1,2.3L88.8,278l2.9-2.2C94.5,273.8,97.9,272.5,102.2,275.7z
			 M99.9,282.7l0.8-0.6c1.5-1.1,1.8-2.4-1-4.4c-2.8-2.1-4.4-1.7-5.9-0.6l-0.8,0.6L99.9,282.7z"/>
		<path class="st9" d="M102.8,270.2l2.5,1.9l3.2-2.4l1.7,1.3l-3.2,2.4l2.7,2l3.9-2.9l1.8,1.3l-6.4,4.8l-10.4-7.8l6.4-4.8l1.5,1.5
			L102.8,270.2z"/>
		<path class="st9" d="M114.4,260.4l0.2,1.9c-1.3,0.1-2.3,0.4-3.1,1c-0.9,0.6-1,1.3-0.4,1.8c0.7,0.5,1.3,0.4,3.4-0.4
			c2.6-1,4.5-1.2,6.4,0.2c1.9,1.4,1.8,3.6-0.8,5.6c-1.8,1.3-3.7,1.8-5.4,1.8l-0.1-2c1.4-0.1,2.6-0.4,3.6-1.2c1-0.8,1.2-1.6,0.4-2.2
			s-1.5-0.5-3.5,0.2c-3,1.2-4.9,1.1-6.4,0c-1.8-1.4-1.4-3.4,0.8-5.1C111.1,260.9,112.7,260.5,114.4,260.4z"/>
		<path class="st9" d="M123.3,253.5l0.2,2c-1,0.1-1.9,0.3-2.6,0.8c-1.3,1-1.2,2.5,1.4,4.4c2.5,1.9,4.5,2,5.9,1
			c0.8-0.6,1-1.4,1.2-2.2l2.5,0.2c0,1-0.5,2.4-1.9,3.4c-2.8,2.1-6.7,2.1-10.2-0.5s-3.4-5.6-0.7-7.6
			C120.3,254,121.7,253.6,123.3,253.5z"/>
		<path class="st9" d="M132.5,254.9l4,3l-2.5,1.8l-10.4-7.8l3.4-2.5c2.8-2.1,5.3-2.4,7.4-0.8c1.4,1,1.5,2.1,0.8,3.6l7.1,1.3
			l-2.8,2.1l-6.1-1.4L132.5,254.9z M131.8,252.9c1.1-0.8,1.2-1.6,0.1-2.4c-1-0.8-2-0.6-3.2,0.3l-0.9,0.7l3,2.2L131.8,252.9z"/>
		<path class="st9" d="M143.2,252.8l-10.4-7.8l2.5-1.8l10.4,7.8L143.2,252.8z"/>
		<path class="st9" d="M148.3,238.5c2.4,1.8,1.8,3.9-0.6,5.7l-1.1,0.8l3.5,2.6l-2.5,1.8l-10.4-7.8l3.4-2.5
			C143.3,237.2,146,236.8,148.3,238.5z M145.8,240.4c-1.1-0.8-2.2-0.8-3.5,0.1l-0.9,0.7l3.4,2.5l0.9-0.7
			C146.9,242.2,147.1,241.4,145.8,240.4z"/>
		<path class="st9" d="M152.3,233.3l8.5,6.4l-2.5,1.8l-8.5-6.4l-2.7,2l-1.9-1.4l7.9-6l1.6,1.6L152.3,233.3z"/>
		<path class="st9" d="M164.6,236.8l-10.4-7.8l2.5-1.8l10.4,7.8L164.6,236.8z"/>
		<path class="st9" d="M172.6,222.9c3.4,2.5,3.7,5.4,0.8,7.6s-6.7,2-10.1-0.6c-3.4-2.5-3.7-5.4-0.8-7.6
			C165.5,220.2,169.2,220.4,172.6,222.9z M165.9,228c2.6,2,4.4,2.2,5.8,1.2c1.4-1.1,1.1-2.3-1.5-4.3s-4.4-2.2-5.8-1.1
			C162.9,224.8,163.2,226.1,165.9,228z"/>
		<path class="st9" d="M184.2,222.1l-11-3.8c1.1,0.6,2.6,1.5,4.6,2.9l3.8,2.9l-2.2,1.6l-10.4-7.8l3.1-2.3l11.1,3.7
			c-1-0.5-2.5-1.4-4.2-2.7l-4.2-3.1l2.2-1.7l10.4,7.8L184.2,222.1z"/>
	</g>
</g>
</svg>
