<?xml version="1.0" encoding="utf-8"?>
<!-- Generator: Adobe Illustrator 21.0.2, SVG Export Plug-In . SVG Version: 6.00 Build 0)  -->
<svg version="1.1" id="Calque_1" xmlns="http://www.w3.org/2000/svg" xmlns:xlink="http://www.w3.org/1999/xlink" x="0px" y="0px"
	 viewBox="0 0 398.5 352" style="enable-background:new 0 0 398.5 352;" xml:space="preserve">
<style type="text/css">
	.st0{fill:#FFFFFF;stroke:#C6DDEB;stroke-linejoin:round;stroke-miterlimit:10;}
	.st1{opacity:0.12;fill:#009EE6;enable-background:new    ;}
	.st2{fill:#FBFDFE;stroke:#C6DDEB;stroke-linejoin:round;stroke-miterlimit:10;}
	.st3{fill:#EFF6FA;stroke:#C6DDEB;stroke-linejoin:round;stroke-miterlimit:10;}
	.st4{enable-background:new    ;}
	.st5{fill:#009AE1;}
	.st6{fill:#CD1087;}
	.st7{fill:#E90094;stroke:#C6DDEB;stroke-miterlimit:10;}
	.st8{fill:#FFFFFF;}
	.st9{font-family:'FiraSans-Medium';}
	.st10{font-size:32.3302px;}
	
		.st11{opacity:0.4;fill:none;stroke:#FFFFFF;stroke-width:4;stroke-linecap:round;stroke-linejoin:round;stroke-miterlimit:10;enable-background:new    ;}
	.st12{opacity:0.4;}
	.st13{fill:none;stroke:#009EE6;stroke-miterlimit:10;}
	.st14{fill:#FFFFFF;stroke:#C6DDEB;stroke-linecap:round;stroke-linejoin:round;stroke-miterlimit:10;}
</style>
<g id="jean">
	<polygon class="st0" points="183.1,128.3 63.3,39.9 115,2.1 234.8,90.5 	"/>
	<polygon class="st1" points="183.1,204.3 63.3,115.9 115,78.1 234.8,166.5 	"/>
	<polygon class="st2" points="183.1,128.3 234.8,90.5 234.8,104.8 183.1,142.6 	"/>
	<polygon class="st3" points="183.1,142.6 63.3,54.1 63.3,39.9 183.1,128.3 	"/>
	<g class="st4">
		<path class="st5" d="M120.9,55.1l1.2-2c2.1,0.7,3.1,0.3,4.4-0.8l9.7-7.2l2.7,2l-9.8,7.3C126.3,56.6,123.5,56,120.9,55.1z"/>
		<path class="st5" d="M141.8,52.2l-2.8,2.1l3.5,2.7l-1.9,1.4l-3.5-2.7l-2.9,2.2l4.3,3.2l-2,1.5l-7.1-5.3l11.5-8.6L148,54l-2.2,1.2
			L141.8,52.2z"/>
		<path class="st5" d="M142.9,63.6l-3.1,1.4l-2.8-2.1l15-6l3.3,2.5l-8,11.2l-2.9-2.2l1.9-2.3L142.9,63.6z M151.6,59.5l-6.3,2.9
			l2.4,1.8L151.6,59.5z"/>
		<path class="st5" d="M153.5,75.2l5.6-9.2c-0.9,0.9-2.2,2.2-4.3,3.8l-4.3,3.2l-2.4-1.8l11.5-8.6l3.4,2.5l-5.5,9.3
			c0.8-0.8,2.1-2.1,3.9-3.5l4.6-3.5l2.4,1.8l-11.5,8.6L153.5,75.2z"/>
		<path class="st5" d="M177.1,77.5l-2.8,0.1c-0.1-1.1-0.6-1.9-1.5-2.6s-1.9-0.9-2.7-0.3c-0.7,0.5-0.6,1.1,0.6,2.9
			c1.5,2.2,1.8,3.8-0.3,5.4s-5.3,1.5-8.2-0.7c-2-1.5-2.7-3.1-2.7-4.5l2.9-0.1c0.1,1.2,0.6,2.2,1.7,3c1.1,0.8,2.4,1,3.2,0.3
			c0.8-0.6,0.8-1.2-0.4-2.9c-1.8-2.5-1.7-4,0.1-5.3c2-1.5,5.1-1.2,7.5,0.6C176.3,74.7,177,76,177.1,77.5z"/>
	</g>
</g>
<g id="connecteur">
	<path class="st6" d="M202.8,148.5v-18.1h-40.7v18.1c-0.1,1.7,0.5,3.5,2.1,4.6l11.7,8.8c3.9,2.9,9.2,2.9,13.1,0l11.7-8.8
		C202.3,152,203,150.2,202.8,148.5z"/>
	<path class="st7" d="M175.7,143.4l-11-8.2c-3.2-2.4-3.2-7.1,0-9.5l13.1-9.8c2.6-2,6.3-2,8.9,0l13.1,9.8c3.2,2.4,3.2,7.1,0,9.5
		l-11,8.2C185,146.3,179.6,146.3,175.7,143.4z"/>
	<text transform="matrix(0.8 -0.6 0.8 0.6 184.8938 140.9212)" class="st8 st9 st10">+</text>
	
		<ellipse transform="matrix(4.770651e-02 -0.9989 0.9989 4.770651e-02 36.9614 335.6593)" class="st7" cx="194.5" cy="148.4" rx="3.7" ry="3.1"/>
</g>
<g id="tuyau">
	<path class="st11" d="M195.3,148.6l1.9,1.3c1.8,1.2,3.6,3.4,5.1,5.7c4,6.2,6,13.4,6.2,20.8l0.2,11.4c0,0.5,0,0.9,0.1,1.4
		c0.6,8,4.9,15.2,11.4,19.9l3.5,2.6"/>
	<g class="st12">
		<path class="st13" d="M223.7,213.7c-0.4,0-0.8-0.1-1.2-0.4l-3.5-2.6c-7.2-5.2-11.6-13-12.3-21.4c0-0.5-0.1-1-0.1-1.5l-0.2-11.4
			c-0.2-7.2-2.2-14-5.9-19.7c-1.6-2.5-3.1-4.2-4.5-5.1l-1.9-1.3c-0.9-0.6-1.2-1.9-0.5-2.8c0.6-0.9,1.9-1.2,2.8-0.5l1.9,1.3
			c1.9,1.3,3.8,3.4,5.7,6.3c4.1,6.3,6.3,13.9,6.5,21.8l0.2,11.4c0,0.4,0,0.9,0.1,1.3c0.5,7.2,4.4,14,10.6,18.5l3.5,2.6
			c0.9,0.6,1.1,1.9,0.4,2.8C225,213.4,224.3,213.7,223.7,213.7z"/>
	</g>
</g>
<g id="blue">
	<polygon class="st1" points="178.7,210.9 57.6,121.1 4.5,160 125.7,249.6 	"/>
	<path class="st0" d="M162.1,139.4c0-2.4,0-4.2,0-7c-0.5-4.6,2.5-6.6,2.5-6.6l-107-80.7L4.5,84l121.2,89.6l41.6-30.4L162.1,139.4z"
		/>
	<polygon class="st14" points="125.8,173.6 167.3,143.2 167.3,157.5 125.8,187.8 	"/>
	<polygon class="st3" points="125.8,187.8 4.5,98.3 4.5,84 125.8,173.6 	"/>
	<g class="st4">
		<path class="st5" d="M82.4,105.7c-2.6,2-5.5,0.9-8.4-1.2l-3.7-2.8l11.5-8.6l3.3,2.4c3.1,2.3,4.2,4.3,2,5.9
			c-1.5,1.1-3.3,0.9-4.6,0.3C83.5,102.9,84.2,104.3,82.4,105.7z M79.7,103.5c1.2-0.9,0.8-1.8-0.4-2.7l-1.2-0.9l-3.1,2.3l1,0.7
			C77.3,104,78.4,104.4,79.7,103.5z M79.9,98.6l1,0.8c1.1,0.8,2.2,1,3.1,0.2s0.6-1.4-0.7-2.4l-0.8-0.6L79.9,98.6z"/>
		<path class="st5" d="M89.9,113.2l-2.4,1.4l-6.9-5.2l11.5-8.6l2.7,2l-9.3,7L89.9,113.2z"/>
		<path class="st5" d="M93.1,119.2c-3-2.3-2.8-4.6-0.4-6.4l7.7-5.8l2.7,2l-7.6,5.7c-1.5,1.1-1.7,2-0.4,3c1.2,0.9,2.5,0.8,4-0.3
			l7.6-5.7l2.7,2l-7.7,5.8C99.4,121.3,96.1,121.5,93.1,119.2z"/>
		<path class="st5" d="M112.1,118.7l-2.8,2.1l3.5,2.7l-1.9,1.4l-3.5-2.7l-2.9,2.2l4.3,3.2l-2,1.5l-7.1-5.3l11.5-8.6l7.1,5.3
			l-2.2,1.2L112.1,118.7z"/>
	</g>
</g>
<g id="Calque_4">
	<polygon id="ombre" class="st1" points="337.9,350 206.8,253.2 258.5,215.4 389.6,312.2 	"/>
	<polygon class="st0" points="334.4,320.5 203.2,223.7 254.9,185.9 386.1,282.7 	"/>
	<polygon class="st2" points="334.4,320.5 386.1,282.7 386.1,296.9 334.4,334.7 	"/>
	<polygon class="st3" points="334.4,334.7 203.2,237.9 203.2,223.7 334.4,320.5 	"/>
	<g class="st4">
		<path d="M257.5,230.5c-2.7,2-5.6,0.9-8.5-1.3l-3.8-2.8l11.8-8.8l3.3,2.5c3.2,2.4,4.3,4.4,2.1,6.1c-1.5,1.1-3.3,0.9-4.7,0.3
			C258.7,227.6,259.4,229.1,257.5,230.5z M254.8,228.3c1.2-0.9,0.8-1.8-0.4-2.7l-1.2-0.9l-3.2,2.4l1,0.8
			C252.3,228.7,253.5,229.2,254.8,228.3z M255,223.2l1,0.8c1.2,0.9,2.2,1,3.2,0.3s0.7-1.5-0.7-2.5l-0.8-0.6L255,223.2z"/>
		<path d="M265.2,238.1l-2.5,1.4l-7.1-5.3l11.8-8.8l2.8,2.1l-9.5,7.2L265.2,238.1z"/>
		<path d="M268.4,244.3c-3.1-2.3-2.9-4.7-0.4-6.6l7.8-5.9l2.8,2.1l-7.7,5.8c-1.5,1.1-1.7,2.1-0.4,3c1.3,1,2.5,0.8,4.1-0.3l7.7-5.8
			l2.8,2.1l-7.9,5.9C274.8,246.4,271.5,246.6,268.4,244.3z"/>
		<path d="M287.9,243.8l-2.8,2.1l3.6,2.7l-2,1.5l-3.6-2.7l-3,2.2l4.4,3.3l-2,1.5l-7.2-5.4l11.8-8.8l7.2,5.4l-2.3,1.3L287.9,243.8z"
			/>
		<path d="M284.9,260.5l1.2-2c2.1,0.7,3.1,0.3,4.5-0.8l9.9-7.4l2.8,2.1l-10,7.5C290.3,262.1,287.5,261.5,284.9,260.5z"/>
		<path d="M306.2,257.6l-2.8,2.1l3.6,2.7l-2,1.5l-3.6-2.7l-3,2.2l4.4,3.3l-2,1.5l-7.2-5.4l11.8-8.8l7.2,5.4l-2.3,1.3L306.2,257.6z"
			/>
		<path d="M307.2,269.2l-3.1,1.4l-2.9-2.2l15.3-6.2l3.4,2.5l-8.2,11.5l-3-2.2l1.9-2.4L307.2,269.2z M316.2,265.1l-6.4,3l2.5,1.9
			L316.2,265.1z"/>
		<path d="M318.1,281.1l5.7-9.4c-0.9,0.9-2.3,2.2-4.4,3.9l-4.3,3.2l-2.5-1.9l11.8-8.8l3.5,2.6l-5.6,9.4c0.8-0.8,2.1-2.1,4-3.6
			l4.7-3.6l2.5,1.9l-11.8,8.8L318.1,281.1z"/>
		<path d="M342.2,283.4l-2.8,0.2c-0.1-1.1-0.6-1.9-1.6-2.7c-1-0.7-2-0.9-2.7-0.3s-0.6,1.1,0.6,2.9c1.5,2.2,1.9,3.8-0.3,5.5
			c-2.2,1.6-5.4,1.5-8.4-0.7c-2-1.5-2.7-3.2-2.8-4.6l3-0.1c0.1,1.2,0.6,2.2,1.8,3.1c1.2,0.9,2.4,1,3.3,0.3c0.9-0.6,0.8-1.3-0.4-3
			c-1.8-2.6-1.7-4.1,0.1-5.4c2.1-1.6,5.2-1.2,7.6,0.6C341.4,280.6,342.1,281.9,342.2,283.4z"/>
	</g>
</g>
</svg>
