<?xml version="1.0" encoding="utf-8"?>
<!-- Generator: Adobe Illustrator 21.0.2, SVG Export Plug-In . SVG Version: 6.00 Build 0)  -->
<svg version="1.1" id="Calque_1" xmlns="http://www.w3.org/2000/svg" xmlns:xlink="http://www.w3.org/1999/xlink" x="0px" y="0px"
	 viewBox="0 0 381 311.4" style="enable-background:new 0 0 381 311.4;" xml:space="preserve">
<style type="text/css">
	.st0{opacity:0.12;fill:#45AFE0;enable-background:new    ;}
	.st1{fill:#FFFFFF;stroke:#C5DCEA;stroke-linejoin:round;stroke-miterlimit:10;}
	.st2{fill:#EDF5FA;stroke:#C5DCEA;stroke-linejoin:round;stroke-miterlimit:10;}
	.st3{fill:#1FDA4B;}
	.st4{fill:#0FBC37;}
	.st5{fill:none;stroke:#FFFFFF;stroke-miterlimit:10;}
	.st6{fill:#FFFFFF;}
	.st7{enable-background:new    ;}
	.st8{fill:#009EE6;}
	.st9{fill:#0FA1E7;}
	.st10{fill:#DE0C20;}
	.st11{fill:#BE091A;}
	.st12{fill:#BE0819;}
	.st13{fill:#1D1D1B;}
</style>
<g id="ombre">
	<polygon id="ombre_3_" class="st0" points="376.5,182 207.5,310.4 3.6,157.7 172.7,29.3 	"/>
</g>
<g id="sync1">
	<g id="tube">
	</g>
	<g id="box">
		<polygon id="top" class="st1" points="223.7,44.1 54.1,172.3 3.3,134.1 172.8,5.9 		"/>
		<polygon id="devant" class="st2" points="223.7,62.5 54.1,190.8 54.1,172.3 223.7,44 		"/>
		<polygon id="coté" class="st1" points="3.3,152.7 54.1,190.8 54.1,172.3 3.3,134.2 		"/>
	</g>
	<g id="connecteur">
		<polygon class="st3" points="59,142.2 34.6,160.5 10.9,142.6 34.9,124.4 		"/>
		<polygon class="st4" points="11.1,167.6 34.6,185.4 34.6,160.5 10.9,142.6 		"/>
		<polygon class="st3" points="40.7,162.1 40.8,180.7 34.6,185.3 34.6,160.5 59,142.2 59.1,148.8 		"/>
		<line id="line_3_" class="st5" x1="34.6" y1="160.2" x2="34.6" y2="186"/>
		<line class="st5" x1="10.9" y1="142.6" x2="34.6" y2="160.5"/>
		<line class="st5" x1="34.4" y1="160.5" x2="59" y2="142.2"/>
		<path id="checkl_2_" class="st6" d="M38.5,146.2v-12.8c0-0.3-0.1-0.5-0.4-0.7c-0.2-0.2-0.5-0.3-0.9-0.2c-0.4,0-0.7,0.1-0.9,0.3
			s-0.4,0.4-0.4,0.7v11.8h-6.7c-0.9,0-1.3,0.4-1.3,1c0,0.2,0.1,0.5,0.4,0.7c0.3,0.2,0.6,0.3,0.9,0.3h8c0.4,0,0.7-0.1,0.9-0.2
			C38.3,146.8,38.4,146.5,38.5,146.2L38.5,146.2z"/>
	</g>
	<g id="txt">
		<g class="st7">
			<path class="st8" d="M72.5,111.1l0.2,1.9c-1.3,0.1-2.3,0.4-3.1,1.1c-0.9,0.6-1,1.3-0.4,1.8c0.7,0.5,1.3,0.4,3.5-0.4
				c2.6-1,4.5-1.2,6.5,0.2c1.9,1.5,1.8,3.6-0.8,5.6c-1.8,1.4-3.8,1.8-5.5,1.9l-0.1-2c1.4-0.1,2.6-0.4,3.7-1.2c1-0.8,1.2-1.6,0.4-2.2
				c-0.8-0.6-1.5-0.5-3.5,0.2c-3.1,1.2-4.9,1.1-6.4,0c-1.8-1.4-1.4-3.5,0.8-5.1C69.2,111.6,70.8,111.1,72.5,111.1z"/>
			<path class="st8" d="M86.4,119.7l-1.9-1.1c1.4-1.3,1.5-2.1,0.9-3.2l-0.8,0.6l-10.4-4.2l2.5-1.9l7.9,3.8l-4.9-6l2.5-1.8l5.5,7.9
				C89,115.8,88.8,117.7,86.4,119.7z"/>
			<path class="st8" d="M92,101.7l5.8,4.4l-2.4,1.8l-5.4-4.1c-0.8-0.6-1.4-0.6-1.8-0.2c-0.5,0.4-0.6,1-0.3,1.8l5.5,4.1l-2.4,1.8
				l-8-6l2.1-1.6l1.1,0.6c-0.1-1.1,0.2-2,1.2-2.7C88.8,100.5,90.5,100.6,92,101.7z"/>
			<path class="st8" d="M98.6,94.6l0.4,1.9c-0.9,0.1-1.6,0.3-2.1,0.7c-1,0.8-0.9,1.7,0.9,3.1c1.8,1.3,3,1.3,3.9,0.6
				c0.6-0.4,0.8-0.9,0.9-1.6l2.6,0.3c-0.2,1-0.6,1.9-1.7,2.7c-2.5,1.8-5.6,1.7-8.2-0.2c-2.5-1.9-2.8-4.4-0.4-6.2
				C96,95.1,97.2,94.7,98.6,94.6z"/>
			<path class="st8" d="M113,94.8l-7.9-5.9l-0.8,2.6l-2.6-0.4l1.4-4.1l2.1-1.6l10.2,7.6L113,94.8z"/>
		</g>
		<g class="st7">
			<path class="st9" d="M166.3,48.4c1.6,1.2,1.6,2.7,0.3,3.7c-1.8,1.3-3.9,0.7-6-0.8c-2.4-1.8-2.9-3.7-1.2-5
				c0.6-0.4,1.2-0.7,1.9-0.8l0.3,0.8c-0.5,0.1-1,0.3-1.4,0.6c-1,0.8-0.6,2.1,1,3.4c-0.2-0.9,0.1-1.5,0.8-2
				C163,47.4,164.7,47.3,166.3,48.4z M165.3,49.2c-1.1-0.9-2-0.8-2.7-0.3c-0.6,0.5-0.8,1.2-0.6,1.9c1.6,1.2,2.8,1.4,3.7,0.7
				C166.6,50.9,166.4,50,165.3,49.2z"/>
			<path class="st9" d="M166.6,45c0.4,0.3,0.4,0.8,0,1.1s-1.1,0.3-1.5,0s-0.4-0.8,0-1.1C165.5,44.6,166.2,44.7,166.6,45z M170.6,48
				c0.4,0.3,0.4,0.8,0,1.1s-1.1,0.3-1.5,0s-0.4-0.8,0-1.1C169.5,47.6,170.2,47.6,170.6,48z"/>
			<path class="st9" d="M167,41.9l2.1,1.6c0.2-0.4,0.5-0.8,0.9-1.1c1.2-0.9,2.9-0.9,4.4,0.2c1.4,1.1,1.4,2.6-0.1,3.7
				c-0.9,0.7-1.9,0.9-3.1,0.9v-0.9c0.9,0,1.6-0.2,2.2-0.6c0.9-0.7,0.9-1.6-0.2-2.4c-1.1-0.8-2.1-0.7-2.8-0.1c-0.4,0.3-0.6,0.6-0.8,1
				l-0.8,0.6l-3.6-2.7l3.9-2.9l0.6,0.7L167,41.9z"/>
			<path class="st9" d="M179.9,39.2l1.8,1.3l-1,0.7l-1.8-1.3l-3.1,2.3l-0.7-0.5l-2.7-5.3l1.2-0.4l2.5,4.8l2.1-1.5l-1.9-1.5l0.9-0.6
				l1.9,1.5L180,38l0.8,0.6L179.9,39.2z"/>
		</g>
	</g>
</g>
<g id="sync2">
	<g id="tube_1_">
	</g>
	<g id="box_1_">
		<polygon id="top_2_" class="st1" points="274.5,82.2 105,210.5 54.1,172.3 223.7,44 		"/>
		<polygon id="devant_2_" class="st2" points="274.5,100.7 104.9,229 105,210.5 274.5,82.2 		"/>
		<polygon id="coté_2_" class="st1" points="54.2,190.9 104.9,229 105,210.5 54.2,172.4 		"/>
	</g>
	<g id="connecteur_1_">
		<polygon class="st10" points="109.8,180.4 85.5,198.6 61.8,180.8 85.8,162.6 		"/>
		<polygon class="st11" points="61.9,205.8 85.5,223.6 85.5,198.6 61.8,180.8 		"/>
		<polygon class="st12" points="91.6,200.3 91.7,218.8 85.5,223.5 85.5,198.6 109.8,180.4 109.9,186.9 		"/>
		<line id="line_1_" class="st5" x1="85.4" y1="198.4" x2="85.4" y2="224.1"/>
		<line class="st5" x1="61.8" y1="180.8" x2="85.5" y2="198.6"/>
		<line class="st5" x1="85.3" y1="198.7" x2="109.8" y2="180.4"/>
		<path id="picto" class="st6" d="M101.8,179.2c-0.1-0.3-0.4-0.5-0.7-0.6l-21.9-4.5c-0.4-0.1-0.7,0-1,0.2s-0.4,0.5-0.3,0.8l6,16.4
			c0.1,0.3,0.4,0.5,0.7,0.6c0.4,0.1,0.7,0,1-0.2l15.8-11.9C101.8,179.7,101.9,179.5,101.8,179.2L101.8,179.2z M80.4,176l18.3,3.8
			l-13.2,9.9L80.4,176z M88.6,181.4c0,0.2-0.1,0.4-0.3,0.6c-0.2,0.2-0.5,0.2-0.7,0.2c-0.3,0-0.5-0.1-0.7-0.2l-3.5-2.6
			c-0.2-0.2-0.3-0.3-0.3-0.6c0-0.2,0.1-0.4,0.3-0.6c0.2-0.2,0.5-0.2,0.7-0.2c0.3,0,0.5,0.1,0.7,0.2l3.5,2.6
			C88.5,181,88.6,181.2,88.6,181.4z M91,183.9c-0.2,0.2-0.6,0.3-0.9,0.3c-0.4,0-0.7-0.1-0.9-0.3s-0.4-0.4-0.4-0.7s0.1-0.5,0.4-0.7
			c0.2-0.2,0.6-0.3,0.9-0.3c0.4,0,0.7,0.1,1,0.3c0.2,0.2,0.3,0.4,0.3,0.7C91.4,183.5,91.2,183.8,91,183.9z"/>
	</g>
	<g id="txt_4_">
		<g class="st7">
			<path class="st13" d="M122.5,150l0.2,1.9c-1.3,0.1-2.3,0.4-3.1,1.1c-0.9,0.6-1,1.3-0.4,1.8c0.7,0.5,1.3,0.4,3.5-0.4
				c2.6-1,4.5-1.2,6.5,0.2c1.9,1.5,1.8,3.6-0.8,5.6c-1.8,1.4-3.8,1.8-5.5,1.9l-0.1-2c1.4-0.1,2.6-0.4,3.7-1.2c1-0.8,1.2-1.6,0.4-2.2
				c-0.8-0.6-1.5-0.5-3.5,0.2c-3.1,1.2-4.9,1.1-6.4,0c-1.8-1.4-1.4-3.5,0.8-5.1C119.1,150.6,120.7,150.1,122.5,150z"/>
			<path class="st13" d="M136.4,158.7l-1.9-1.1c1.4-1.3,1.5-2.1,0.9-3.2l-0.8,0.6l-10.4-4.2l2.5-1.9l7.9,3.8l-4.9-6l2.5-1.8l5.5,7.9
				C138.9,154.8,138.7,156.7,136.4,158.7z"/>
			<path class="st13" d="M142,140.7l5.8,4.4l-2.4,1.8l-5.4-4.1c-0.8-0.6-1.4-0.6-1.8-0.2c-0.5,0.4-0.6,1-0.3,1.8l5.5,4.1l-2.4,1.8
				l-8-6l2.1-1.6l1.1,0.6c-0.1-1.1,0.2-2,1.2-2.7C138.7,139.5,140.4,139.5,142,140.7z"/>
			<path class="st13" d="M148.5,133.6l0.4,1.9c-0.9,0.1-1.6,0.3-2.1,0.7c-1,0.8-0.9,1.7,0.9,3.1c1.8,1.3,3,1.3,3.9,0.6
				c0.6-0.4,0.8-0.9,0.9-1.6l2.6,0.3c-0.2,1-0.6,1.9-1.7,2.7c-2.5,1.8-5.6,1.7-8.2-0.2c-2.5-1.9-2.8-4.4-0.4-6.2
				C145.9,134.1,147.1,133.7,148.5,133.6z"/>
			<path class="st13" d="M159.1,125.4c1.6,1.2,2,2.7,1.7,7.2l4.2-3.1l1.6,1.5l-6.6,5l-1.7-1.3c0-5.1-0.1-6.4-1.3-7.3
				c-0.8-0.6-1.8-0.6-2.6,0c-0.7,0.6-0.9,1.2-0.8,2.2l-2.5,0.2c-0.3-1.4,0.2-2.8,1.7-3.9C154.9,124.1,157.5,124.2,159.1,125.4z"/>
		</g>
		<g class="st7">
			<path class="st10" d="M219.8,90.3l-1.2,0.5l-3.6-6.6l-3.2,2.4L211,86l4.2-3.2l0.7,0.6L219.8,90.3z"/>
			<path class="st10" d="M220.1,83.1c0.4,0.3,0.4,0.8,0,1.1s-1.1,0.3-1.5,0s-0.4-0.8,0-1.1S219.7,82.8,220.1,83.1z M224.1,86.1
				c0.4,0.3,0.4,0.8,0,1.1s-1.1,0.3-1.5,0s-0.4-0.8,0-1.1C223,85.7,223.6,85.8,224.1,86.1z"/>
			<path class="st10" d="M227.6,84.3l-6.2-4.6l-0.7,2l-1.1-0.2l0.9-2.7l0.9-0.7l7.2,5.4L227.6,84.3z"/>
			<path class="st10" d="M231.6,75.9c2.4,1.8,2.9,3.4,1.3,4.6c-1.6,1.2-3.8,0.8-6.2-1s-2.9-3.4-1.3-4.6
				C227.1,73.7,229.3,74.1,231.6,75.9z M227.8,78.7c2.1,1.6,3.4,1.9,4.3,1.2c0.9-0.7,0.6-1.7-1.6-3.3c-2.1-1.6-3.4-1.8-4.3-1.2
				C225.4,76.2,225.7,77.2,227.8,78.7z"/>
		</g>
	</g>
</g>
<g id="sync3">
	<g id="tube_3_">
	</g>
	<g id="box_2_">
		<polygon id="top_3_" class="st1" points="325.3,120.3 155.8,248.5 105,210.4 274.5,82.1 		"/>
		<polygon id="devant_3_" class="st2" points="325.4,138.8 155.8,267 155.8,248.5 325.4,120.3 		"/>
		<polygon id="coté_3_" class="st1" points="105,229 155.8,267 155.8,248.5 105,210.5 		"/>
	</g>
	<g id="connecteur_2_">
		<polygon class="st3" points="160.7,218.5 136.3,236.7 112.6,218.9 136.6,200.7 		"/>
		<polygon class="st4" points="112.7,243.8 136.3,261.7 136.3,236.7 112.6,218.9 		"/>
		<polygon class="st3" points="142.4,238.3 142.5,256.9 136.3,261.6 136.3,236.7 160.7,218.5 160.7,225 		"/>
		<line id="line_2_" class="st5" x1="136.3" y1="236.5" x2="136.3" y2="262.2"/>
		<line class="st5" x1="112.6" y1="218.9" x2="136.3" y2="236.7"/>
		<line class="st5" x1="136.1" y1="236.8" x2="160.7" y2="218.5"/>
		<path id="checkl_3_" class="st6" d="M140.1,222.5v-12.8c0-0.3-0.1-0.5-0.4-0.7c-0.2-0.2-0.5-0.3-0.9-0.2c-0.4,0-0.7,0.1-0.9,0.3
			s-0.4,0.4-0.4,0.7v11.8h-6.7c-0.9,0-1.3,0.4-1.3,1c0,0.2,0.1,0.5,0.4,0.7c0.3,0.2,0.6,0.3,0.9,0.3h8c0.4,0,0.7-0.1,0.9-0.2
			C140,223,140.1,222.8,140.1,222.5L140.1,222.5z"/>
	</g>
	<g id="txt_2_">
		<g class="st7">
			<path class="st8" d="M172.9,187.6l0.2,1.9c-1.3,0.1-2.3,0.4-3.1,1.1c-0.9,0.6-1,1.3-0.4,1.8c0.7,0.5,1.3,0.4,3.5-0.4
				c2.6-1,4.5-1.2,6.5,0.2c1.9,1.5,1.8,3.6-0.8,5.6c-1.8,1.4-3.8,1.8-5.5,1.9l-0.1-2c1.4-0.1,2.6-0.4,3.7-1.2c1-0.8,1.2-1.6,0.4-2.2
				c-0.8-0.6-1.5-0.5-3.5,0.2c-3.1,1.2-4.9,1.1-6.4,0c-1.8-1.4-1.4-3.5,0.8-5.1C169.6,188.1,171.1,187.6,172.9,187.6z"/>
			<path class="st8" d="M186.8,196.2l-1.9-1.1c1.4-1.3,1.5-2.1,0.9-3.2l-0.8,0.6l-10.4-4.2l2.5-1.9l7.9,3.8l-4.9-6l2.5-1.8l5.5,7.9
				C189.4,192.3,189.2,194.2,186.8,196.2z"/>
			<path class="st8" d="M192.4,178.2l5.8,4.4l-2.4,1.8l-5.4-4.1c-0.8-0.6-1.4-0.6-1.8-0.2c-0.5,0.4-0.6,1-0.3,1.8l5.5,4.1l-2.4,1.8
				l-8-6l2.1-1.6l1.1,0.6c-0.1-1.1,0.2-2,1.2-2.7C189.2,177,190.9,177.1,192.4,178.2z"/>
			<path class="st8" d="M199,171.1l0.4,1.9c-0.9,0.1-1.6,0.3-2.1,0.7c-1,0.8-0.9,1.7,0.9,3.1c1.8,1.3,3,1.3,3.9,0.6
				c0.6-0.4,0.8-0.9,0.9-1.6l2.6,0.3c-0.2,1-0.6,1.9-1.7,2.7c-2.5,1.8-5.6,1.7-8.2-0.2c-2.5-1.9-2.8-4.4-0.4-6.2
				C196.4,171.6,197.6,171.2,199,171.1z"/>
			<path class="st8" d="M209.1,162.8c1.2,0.9,1.3,2.1,0.4,3.3c1.4-0.8,3.2-1.1,4.8,0.1c1.7,1.3,1.8,3.4-0.8,5.3
				c-1.5,1.2-3.3,1.6-5,1.5v-1.9c1.3,0,2.2-0.2,3-0.8c0.9-0.7,1-1.6,0.1-2.3c-1.1-0.8-2-0.7-3.1,0.1l-0.8,0.6l-1.4-1.4l0.6-0.4
				c0.9-0.7,1-1.5,0.1-2.1c-0.7-0.6-1.7-0.5-2.5,0.1s-1.1,1.3-1.1,2.2l-2.5-0.1c0-1.4,0.7-2.6,2.1-3.6
				C205.3,161.7,207.7,161.7,209.1,162.8z"/>
		</g>
		<g class="st7">
			<path class="st9" d="M268.6,127.5l-1.2,0.5l-3.6-6.6l-3.2,2.4l-0.8-0.6l4.2-3.2l0.7,0.6L268.6,127.5z"/>
			<path class="st9" d="M268.9,120.2c0.4,0.3,0.4,0.8,0,1.1s-1.1,0.3-1.5,0s-0.4-0.8,0-1.1C267.8,119.9,268.5,119.9,268.9,120.2z
				 M272.9,123.2c0.4,0.3,0.4,0.8,0,1.1s-1.1,0.3-1.5,0s-0.4-0.8,0-1.1C271.8,122.9,272.5,122.9,272.9,123.2z"/>
			<path class="st9" d="M273.1,115.7c0.9,0.7,0.9,1.6,0.3,2.3c1-0.6,2.3-0.7,3.4,0.1c1.3,1,1.3,2.4-0.2,3.5c-0.9,0.6-1.9,1-3.2,0.9
				v-0.9c1,0,1.7-0.2,2.3-0.6c0.9-0.7,0.9-1.5,0-2.2c-1-0.7-1.9-0.6-2.7,0.1l-0.5,0.4l-0.6-0.7l0.4-0.3c0.7-0.5,0.9-1.3,0-1.9
				c-0.7-0.5-1.6-0.5-2.3,0.1c-0.6,0.4-0.8,0.9-0.8,1.6l-1.1-0.1c0-0.9,0.4-1.6,1.2-2.2C270.5,114.9,272.2,115,273.1,115.7z"/>
			<path class="st9" d="M278.7,111.7c1.4,1,1.5,2.4,1.5,5.7l3.3-2.4l0.7,0.7l-4.3,3.2l-0.8-0.6c-0.1-3.9-0.2-4.9-1.4-5.8
				c-0.8-0.6-1.7-0.5-2.4,0c-0.6,0.5-0.8,0.9-0.7,1.7l-1.2,0.1c-0.1-1,0.2-1.8,1.1-2.5C275.9,110.9,277.6,110.9,278.7,111.7z"/>
		</g>
	</g>
</g>
<g id="sync4">
	<g id="tube_4_">
	</g>
	<g id="box_3_">
		<polygon id="top_1_" class="st1" points="376.2,158.7 206.7,286.9 155.8,248.7 325.4,120.5 		"/>
		<polygon id="devant_1_" class="st2" points="376.2,177.2 206.7,305.4 206.7,286.9 376.2,158.7 		"/>
		<polygon id="coté_1_" class="st1" points="155.9,267.3 206.7,305.4 206.7,286.9 155.9,248.8 		"/>
	</g>
	<g id="connecteur_3_">
		<polygon class="st3" points="211.6,256.8 187.2,275.1 163.5,257.2 187.5,239 		"/>
		<polygon class="st4" points="163.6,282.2 187.2,300 187.2,275.1 163.5,257.2 		"/>
		<polygon class="st3" points="193.3,276.7 193.4,295.3 187.2,300 187.2,275.1 211.6,256.8 211.6,263.4 		"/>
		<line id="line_4_" class="st5" x1="187.2" y1="274.8" x2="187.2" y2="300.6"/>
		<line class="st5" x1="163.5" y1="257.2" x2="187.2" y2="275.1"/>
		<line class="st5" x1="187" y1="275.2" x2="211.6" y2="256.8"/>
		<path id="checkl_4_" class="st6" d="M191,260.8V248c0-0.3-0.1-0.5-0.4-0.7c-0.2-0.2-0.5-0.3-0.9-0.2c-0.4,0-0.7,0.1-0.9,0.3
			s-0.4,0.4-0.4,0.7v11.8h-6.7c-0.9,0-1.3,0.4-1.3,1c0,0.2,0.1,0.5,0.4,0.7c0.3,0.2,0.6,0.3,0.9,0.3h8c0.4,0,0.7-0.1,0.9-0.2
			C190.8,261.4,191,261.2,191,260.8L191,260.8z"/>
	</g>
	<g id="txt_3_">
		<g class="st7">
			<path class="st8" d="M225.6,225.5l0.2,1.9c-1.3,0.1-2.3,0.4-3.1,1.1c-0.9,0.6-1,1.3-0.4,1.8c0.7,0.5,1.3,0.4,3.5-0.4
				c2.6-1,4.5-1.2,6.5,0.2c1.9,1.5,1.8,3.6-0.8,5.6c-1.8,1.4-3.8,1.8-5.5,1.9l-0.1-2c1.4-0.1,2.6-0.4,3.7-1.2c1-0.8,1.2-1.6,0.4-2.2
				c-0.8-0.6-1.5-0.5-3.5,0.2c-3.1,1.2-4.9,1.1-6.4,0c-1.8-1.4-1.4-3.5,0.8-5.1C222.3,226,223.8,225.5,225.6,225.5z"/>
			<path class="st8" d="M239.5,234.1l-1.9-1.1c1.4-1.3,1.5-2.1,0.9-3.2l-0.8,0.6l-10.4-4.2l2.5-1.9l7.9,3.8l-4.9-6l2.5-1.8l5.5,7.9
				C242.1,230.2,241.9,232.1,239.5,234.1z"/>
			<path class="st8" d="M245.1,216.1l5.8,4.4l-2.4,1.8l-5.4-4.1c-0.8-0.6-1.4-0.6-1.8-0.2c-0.5,0.4-0.6,1-0.3,1.8l5.5,4.1l-2.4,1.8
				l-8-6l2.1-1.6l1.1,0.6c-0.1-1.1,0.2-2,1.2-2.7C241.9,214.9,243.6,215,245.1,216.1z"/>
			<path class="st8" d="M251.7,209l0.4,1.9c-0.9,0.1-1.6,0.3-2.1,0.7c-1,0.8-0.9,1.7,0.9,3.1c1.8,1.3,3,1.3,3.9,0.6
				c0.6-0.4,0.8-0.9,0.9-1.6l2.6,0.3c-0.2,1-0.6,1.9-1.7,2.7c-2.5,1.8-5.6,1.7-8.2-0.2c-2.5-1.9-2.8-4.4-0.4-6.2
				C249.1,209.5,250.3,209.1,251.7,209z"/>
			<path class="st8" d="M267.5,204.8l2.2,1.6l-2.3,1.7l-2.2-1.6l-4.3,3.2l-1.6-1.2l-3.8-7.2l2.8-0.9l3.3,6.1l1.9-1.4l-2.2-2l2-1.5
				l2.4,1.8l1.1-0.9l1.8,1.3L267.5,204.8z"/>
		</g>
		<g class="st7">
			<path class="st9" d="M318.6,159.4c3,2.2,2.8,3.9,0.9,6.5l-1-0.4c1.3-1.8,1.6-3.2,0.1-4.5c0.2,0.6,0,1.3-0.8,1.9
				c-1.1,0.8-2.9,0.8-4.3-0.2c-1.5-1.1-1.3-2.6-0.1-3.5C315,157.9,316.9,158.1,318.6,159.4z M317.8,160.3c-1.6-1.3-2.7-1.4-3.6-0.7
				c-0.8,0.6-0.7,1.4,0.3,2.2s2,0.8,2.7,0.2C317.9,161.6,318,161,317.8,160.3z"/>
			<path class="st9" d="M321.1,157.4c0.4,0.3,0.4,0.8,0,1.1s-1.1,0.3-1.5,0s-0.4-0.8,0-1.1S320.7,157.1,321.1,157.4z M325.1,160.4
				c0.4,0.3,0.4,0.8,0,1.1s-1.1,0.3-1.5,0s-0.4-0.8,0-1.1S324.7,160.1,325.1,160.4z"/>
			<path class="st9" d="M328.1,153.7c2.4,1.8,2.9,3.4,1.3,4.6c-1.6,1.2-3.8,0.8-6.2-1s-2.9-3.4-1.3-4.6
				C323.6,151.5,325.7,151.9,328.1,153.7z M324.3,156.5c2.1,1.6,3.4,1.9,4.3,1.2c0.9-0.7,0.6-1.7-1.6-3.3c-2.1-1.6-3.4-1.8-4.3-1.2
				C321.8,154,322.2,154.9,324.3,156.5z"/>
			<path class="st9" d="M331.6,148.4c1.4,1,1.5,2.4,1.5,5.7l3.3-2.4l0.7,0.7l-4.3,3.2L332,155c-0.1-3.9-0.2-4.9-1.4-5.8
				c-0.8-0.6-1.7-0.5-2.4,0c-0.6,0.5-0.8,0.9-0.7,1.7l-1.2,0.1c-0.1-1,0.2-1.8,1.1-2.5C328.8,147.6,330.5,147.6,331.6,148.4z"/>
		</g>
	</g>
</g>
</svg>
