<?xml version="1.0" encoding="utf-8"?>
<!-- Generator: Adobe Illustrator 21.0.2, SVG Export Plug-In . SVG Version: 6.00 Build 0)  -->
<svg version="1.1" id="Calque_1" xmlns="http://www.w3.org/2000/svg" xmlns:xlink="http://www.w3.org/1999/xlink" x="0px" y="0px"
	 viewBox="0 0 373.7 392.8" style="enable-background:new 0 0 373.7 392.8;" xml:space="preserve">
<style type="text/css">
	.st0{opacity:0.47;fill:#D0E6F2;enable-background:new    ;}
	.st1{fill:#FFFFFF;stroke:#C6DEEC;stroke-linecap:round;stroke-linejoin:round;stroke-miterlimit:10;}
	.st2{fill:#ECF4F9;stroke:#C4DBE9;stroke-linejoin:round;stroke-miterlimit:10;}
	.st3{fill:#DCECF5;}
	.st4{fill:#31BC38;}
	.st5{fill:#3ADA4B;}
	.st6{enable-background:new    ;}
	.st7{fill:#FFFFFF;}
	.st8{fill:none;stroke:#FFFFFF;stroke-miterlimit:10;}
	.st9{fill:none;stroke:#009AE1;stroke-width:3;stroke-miterlimit:10;}
	.st10{fill:none;stroke:#000000;stroke-width:3;stroke-miterlimit:10;}
	.st11{opacity:0.4;fill:#D0E6F2;enable-background:new    ;}
	.st12{fill:#FFFFFF;stroke:#C7DEEC;stroke-linejoin:round;stroke-miterlimit:10;}
	.st13{fill:#E9EDEF;}
	.st14{fill:#259AE0;}
	.st15{fill:#A6D1E7;}
	.st16{opacity:0.54;fill:#D0E6F2;enable-background:new    ;}
	.st17{fill:#070A96;}
	.st18{fill:#0F15D9;}
	.st19{fill:#FFFFFF;stroke:#C6DEEC;stroke-linejoin:round;stroke-miterlimit:10;}
	.st20{fill:#C81888;}
	.st21{fill:#E30F94;}
</style>
<g id="graphe3">
	<path id="shade" class="st0" d="M54.7,316.4l83.9-64.4l96.2,73.7L150.3,389L54.7,316.4z"/>
	<g id="rectangle">
		<path class="st1" d="M235.9,271.6l-97.9-74l-85.6,64.3l97.9,74L235.9,271.6z"/>
		<path class="st2" d="M52.4,262.1v22.8l97.9,72.1v-21L52.4,262.1z"/>
		<path class="st1" d="M235.9,271.6v20.5L150.3,357v-21L235.9,271.6z"/>
	</g>
	<path class="st3" d="M128.1,224.9l0.8,0.6l-51.2,38.4l-0.8-0.6L128.1,224.9z"/>
	<path class="st3" d="M78.5,256.4l78.3,58.8l-0.8,0.6l-78.3-58.9L78.5,256.4z"/>
	<path class="st4" d="M167.5,224.1v8.1l-27,21.9v-8L167.5,224.1z"/>
	<polygon class="st4" points="140.5,246.1 97.5,215.1 97.5,227.4 100.9,224.7 140.5,254.1 	"/>
	<path class="st5" d="M124.5,193.1l-27,22l43,31l27-22L124.5,193.1z"/>
	<g class="st6">
		<path class="st7" d="M124.1,213.3l-1.3,1l-2-1.5l-2,1.5l-1.5-1.1l2-1.5l-2-1.5l1.3-1l2,1.5l2-1.5l1.5,1.1l-2,1.5L124.1,213.3z"/>
		<path class="st7" d="M132.3,217.2c-1.5,1.1-3.5,1.3-8.8,1.2l3.8,2.9l-1.5,0.9l-5.5-4.1l1.2-0.9c6.1,0,7.7-0.1,8.9-1
			c0.8-0.6,0.8-1.4,0-1.9c-0.7-0.5-1.5-0.7-2.6-0.6l-0.2-1.4c1.6-0.2,3.1,0.1,4.3,1.1C133.7,214.5,133.6,216.2,132.3,217.2z"/>
		<path class="st7" d="M137.8,224.6c-3,2.2-5.7,2.7-7.8,1.1c-2.1-1.6-1.5-3.6,1.5-5.9c3-2.2,5.7-2.6,7.8-1.1
			C141.4,220.3,140.8,222.3,137.8,224.6z M133.2,221.1c-2.5,1.9-2.9,2.9-1.9,3.6s2.3,0.4,4.8-1.4c2.5-1.9,2.9-2.8,1.9-3.6
			S135.7,219.3,133.2,221.1z"/>
		<path class="st7" d="M136.6,231l-0.4-1.3l15.3-2.3l0.4,1.3L136.6,231z M145.7,227c-1.4,1.1-3.3,1-4.6,0c-1.3-1-1.3-2.4,0.1-3.4
			c1.4-1.1,3.3-1,4.6-0.1C147.1,224.6,147.1,226,145.7,227z M146.8,234.7c-1.4,1.1-3.3,1-4.6,0c-1.3-1-1.4-2.4,0.1-3.4
			c1.4-1.1,3.3-1,4.6,0C148.1,232.3,148.2,233.7,146.8,234.7z M142.5,224.6c-0.6,0.5-1.1,1.1-0.3,1.7c0.8,0.6,1.6,0.2,2.2-0.2
			c0.6-0.5,1.1-1.1,0.3-1.7C144,223.8,143.2,224.2,142.5,224.6z M143.6,232.3c-0.6,0.5-1.1,1.1-0.3,1.7c0.8,0.6,1.6,0.2,2.2-0.2
			c0.6-0.5,1.1-1.1,0.3-1.7C145,231.6,144.2,231.9,143.6,232.3z"/>
	</g>
	<line class="st8" x1="97.5" y1="215.1" x2="140.5" y2="246.1"/>
	<line class="st8" x1="140.5" y1="254.1" x2="140.5" y2="246"/>
	<line class="st8" x1="167.5" y1="224.1" x2="140.5" y2="246.1"/>
	<polyline class="st9" points="84.7,253.8 107.7,256.5 109.3,268.3 142,264.3 133.3,281.6 194.5,278.5 	"/>
	<polyline class="st10" points="96.5,241.6 102.7,252.3 117.3,255.1 124.5,273.1 152.8,274.5 181.3,294.1 	"/>
</g>
<g id="indicateurs">
	<g id="liste">
		<path id="shade_2_" class="st11" d="M5.9,138.5l59.4-45.1l35.6,28.9l-59.7,44.4L5.9,138.5z"/>
		<g id="rectangle_3_">
			<path class="st12" d="M101.5,68.4l-35.9-29l-60.4,45l36.2,29.2L101.5,68.4z"/>
			<path class="st2" d="M5.3,84.4v12.8l36.3,28.4l-0.1-11.9L5.3,84.4z"/>
			<path class="st12" d="M101.6,69v11.5l-60,45.1v-12L101.6,69z"/>
		</g>
		<g id="liste_1_">
			<path class="st13" d="M70.7,57.2l17.7,13.4l-2.3,1.8L68.4,59L70.7,57.2z"/>
			<path class="st13" d="M65.6,61.1l17.7,13.4L81,76.3L63.3,62.9L65.6,61.1z"/>
			<path class="st13" d="M60.5,65l17.7,13.4l-2.3,1.8L58.2,66.8L60.5,65z"/>
			<path class="st13" d="M55.4,68.8l17.7,13.4L70.7,84L53,70.6L55.4,68.8z"/>
			<path class="st13" d="M50.2,72.7l17.7,13.4l-2.3,1.8L47.9,74.5L50.2,72.7z"/>
			<path class="st13" d="M45.1,76.6L62.8,90l-2.3,1.8L42.8,78.4L45.1,76.6z"/>
			<path class="st13" d="M40,80.5l17.7,13.4l-2.3,1.8L37.7,82.3L40,80.5z"/>
			<path class="st13" d="M34.8,84.3l17.7,13.4l-2.3,1.8L32.5,86.1L34.8,84.3z"/>
			<path class="st13" d="M29.7,88.2l17.7,13.4l-2.3,1.8L27.4,90L29.7,88.2z"/>
			<path class="st14" d="M24.8,83.1c1.2,0.9,1.2,2.3,0,3.2c-1.2,0.9-3,0.9-4.2,0s-1.2-2.3,0-3.2C21.8,82.2,23.7,82.2,24.8,83.1z"/>
			<path class="st3" d="M30,79.2c1.2,0.9,1.2,2.3,0,3.2c-1.2,0.9-3,0.9-4.2,0s-1.2-2.3,0-3.2C26.9,78.3,28.8,78.3,30,79.2z"/>
			<path class="st15" d="M35.1,75.3c1.2,0.9,1.2,2.3,0,3.2c-1.2,0.9-3,0.9-4.2,0s-1.2-2.3,0-3.2C32,74.5,33.9,74.5,35.1,75.3z"/>
			<path class="st14" d="M40.2,71.5c1.2,0.9,1.2,2.3,0,3.2c-1.2,0.9-3,0.9-4.2,0s-1.2-2.3,0-3.2C37.2,70.6,39,70.6,40.2,71.5z"/>
			<path class="st14" d="M45.3,67.6c1.2,0.9,1.2,2.3,0,3.2c-1.2,0.9-3,0.9-4.2,0s-1.2-2.3,0-3.2C42.3,66.7,44.2,66.7,45.3,67.6z"/>
			<path class="st15" d="M50.5,63.7c1.2,0.9,1.2,2.3,0,3.2c-1.2,0.9-3,0.9-4.2,0s-1.2-2.3,0-3.2C47.4,62.9,49.3,62.9,50.5,63.7z"/>
			<path class="st14" d="M55.6,59.9c1.2,0.9,1.2,2.3,0,3.2c-1.2,0.9-3,0.9-4.2,0s-1.2-2.3,0-3.2C52.5,59,54.4,59,55.6,59.9z"/>
			<path class="st3" d="M60.7,56c1.2,0.9,1.2,2.3,0,3.2c-1.2,0.9-3,0.9-4.2,0s-1.2-2.3,0-3.2C57.7,55.1,59.6,55.1,60.7,56z"/>
			<path class="st14" d="M65.8,52.1c1.2,0.9,1.2,2.3,0,3.2c-1.2,0.9-3,0.9-4.2,0s-1.2-2.3,0-3.2C62.8,51.2,64.7,51.2,65.8,52.1z"/>
		</g>
	</g>
</g>
<g id="graphe2">
	<g id="barre">
		<g id="grahpe_x5F_barre">
			<path id="shade_1_" class="st16" d="M80.5,142.5l98.2-72.9L368,212.9l-98.8,71.9L80.5,142.5z"/>
			<g id="rectangle_1_">
				<path class="st1" d="M369.1,190.9L178.2,47.4l-99.8,72.8l190.9,143.5L369.1,190.9z"/>
				<path class="st2" d="M78.4,120.2V141l190.9,141.8v-19.1L78.4,120.2z"/>
				<path class="st1" d="M369.1,190.9v18.7l-99.8,73.3v-19.2L369.1,190.9z"/>
			</g>
			<g id="barres">
				<path class="st14" d="M155.5,99.4l8.3,6.2l-31.4,23.8l-8.3-6.2L155.5,99.4z"/>
				<path class="st14" d="M165,107.3l8.3,6.2l-31,23.3l-8.3-6.2L165,107.3z"/>
				<path class="st14" d="M153,131l8.3,6.2l-9.2,6.9l-8.3-6.2L153,131z"/>
				<path class="st14" d="M159.8,140.7l8.3,6.2l-6.2,4.6l-8.3-6.2L159.8,140.7z"/>
				<path class="st14" d="M185.5,136.1l8.3,6.2l-22,16.5l-8.3-6.2L185.5,136.1z"/>
				<path class="st14" d="M187,149.8l8.3,6.2l-13.7,10.3l-8.3-6.2L187,149.8z"/>
				<path class="st14" d="M193.2,159.6l8.3,6.2l-10.1,7.8l-8.3-6.2L193.2,159.6z"/>
				<path class="st14" d="M208.9,162.9l8.3,6.2L201.3,181l-8.3-6.2L208.9,162.9z"/>
				<path class="st14" d="M218.7,170.3l8.3,6.2l-15.9,11.9l-8.3-6.2L218.7,170.3z"/>
				<path class="st14" d="M221.7,182.8l8.3,6.2l-9.1,6.8l-8.3-6.2L221.7,182.8z"/>
				<path class="st14" d="M252.7,174.2l8.3,6.2l-30.3,22.7l-8.3-6.2L252.7,174.2z"/>
				<path class="st14" d="M258.9,185.3l8.3,6.2l-25.7,19.3l-8.3-6.2L258.9,185.3z"/>
				<path class="st14" d="M280.1,184.2l8.3,6.2l-37.1,27.8L243,212L280.1,184.2z"/>
				<path class="st14" d="M299.7,184.4l8.3,6.2l-46.9,34.9l-8.3-6.2L299.7,184.4z"/>
				<path class="st14" d="M309.6,191.8l8.3,6.2L271,233l-8.3-6.2L309.6,191.8z"/>
			</g>
			<path class="st3" d="M107.5,114.1l166.8,125.3l-1.5,1.1L106,115.2L107.5,114.1z"/>
			<path class="st3" d="M160.2,83.4l1.5,1.1l-53.5,40.4l-1.5-1.1L160.2,83.4z"/>
		</g>
		<g id="_x2B_14">
			<path class="st17" d="M294.6,159.8v8.8l41,31.1v-8L294.6,159.8z"/>
			<polygon class="st17" points="362.6,173.3 362.6,172.8 335.6,191.8 335.6,199.7 359.1,182.8 362.4,185.3 			"/>
			<path class="st18" d="M321.6,140.8l41,32l-27,19l-41-32L321.6,140.8z"/>
			<g class="st6">
				<path class="st7" d="M319.9,159.6l-1.3,1l-2-1.5l-2,1.5l-1.5-1.1l2-1.5l-2-1.5l1.3-1l2,1.5l2-1.5l1.5,1.1l-2,1.5L319.9,159.6z"
					/>
				<path class="st7" d="M318.6,166.1l7.2-5.4l-3.2-0.6l0.4-1.4l4.7,0.8l1.5,1.1l-8.9,6.7L318.6,166.1z"/>
				<path class="st7" d="M329.4,171.2l-2,1.5l-1.7-1.2l2-1.5l-3.8-2.8l1.2-0.9l8.4-2.5l0.9,1.5l-7.5,2.2l2,1.5l2.4-1.5l1.5,1.1
					l-2.2,1.7l1.1,0.8l-1.3,1L329.4,171.2z"/>
				<path class="st7" d="M331.3,176.4l-0.4-1.3l15.3-2.3l0.4,1.3L331.3,176.4z M340.5,172.5c-1.4,1.1-3.3,1-4.6,0s-1.3-2.4,0.1-3.4
					c1.4-1.1,3.3-1,4.6,0C341.8,170,341.9,171.4,340.5,172.5z M341.5,180.2c-1.4,1.1-3.3,1-4.6,0s-1.4-2.4,0.1-3.4
					c1.4-1.1,3.3-1,4.6,0C342.9,177.7,342.9,179.1,341.5,180.2z M337.3,170.1c-0.6,0.5-1.1,1.1-0.3,1.7s1.6,0.2,2.2-0.2
					c0.6-0.5,1.1-1.1,0.3-1.7S337.9,169.6,337.3,170.1z M338.3,177.8c-0.6,0.5-1.1,1.1-0.3,1.7s1.6,0.2,2.2-0.2
					c0.6-0.5,1.1-1.1,0.3-1.7C339.8,177,338.9,177.3,338.3,177.8z"/>
			</g>
		</g>
	</g>
	<line class="st8" x1="294.6" y1="159.8" x2="335.6" y2="191.8"/>
	<line class="st8" x1="335.6" y1="199.7" x2="335.6" y2="191.9"/>
	<line class="st8" x1="362.6" y1="172.8" x2="335.3" y2="192"/>
</g>
<g id="graphe1">
	<path id="SHADE_x2B_" class="st11" d="M195.2,95.8l23.9-20l78.1,60.4L272.7,154L195.2,95.8z"/>
	<path id="SHADE-" class="st11" d="M233.3,88.5l42.2-32.3l78.6,61.5l-41.9,29.8L233.3,88.5z"/>
	<g id="camembert">
		<g id="rectangle_2_">
			<path class="st19" d="M354.6,62.4L274.9,1.8l-81.8,61.8l79.7,60.6L354.6,62.4z"/>
			<path class="st2" d="M193.1,63.6v20.8l79.8,59.1v-19.2L193.1,63.6z"/>
			<path class="st19" d="M354.6,62.5v18.7l-81.7,62.2v-19.2L354.6,62.5z"/>
		</g>
		<g id="cercle">
			<path class="st15" d="M316.8,63c0,13.3-11.9,24.5-28.2,27.9l-9.8-28.8h37.9C316.8,62.4,316.8,62.7,316.8,63z"/>
			<path class="st14" d="M278.3,31.8c20.6,0.2,37.3,12.6,37.9,28.1h-37.9V31.8z"/>
			<path class="st3" d="M275.9,59.8l9.8,28.8c-3.3,0.7-6.8,1.1-10.3,1.1c-21.3,0-38.5-13-38.5-29s17.2-29,38.5-29c0.2,0,0.4,0,0.6,0
				L275.9,59.8L275.9,59.8z"/>
		</g>
	</g>
	<g id="_x2B_5">
		<path class="st20" d="M255.6,47.1v6.6l-25.2,21.1V68L255.6,47.1z"/>
		<polygon class="st20" points="230.4,68 200.6,46.6 200.6,49.3 200.5,57.4 203.6,55 230.4,74.8 		"/>
		<path class="st21" d="M225.9,25.8l-25.3,20.9l29.8,21.4l25.2-20.9L225.9,25.8z"/>
		<g class="st6">
			<path class="st7" d="M226.8,44.8l-1.5,1.1l-2.1-1.6L221,46l-1.6-1.2l2.2-1.7l-2.1-1.6l1.5-1.1l2.1,1.6l2.2-1.7l1.6,1.2l-2.2,1.7
				L226.8,44.8z"/>
			<path class="st7" d="M233.1,45.3l-2.4,1.8c0.7,0.2,1.4,0.5,1.8,0.8c1.6,1.2,1.6,2.9-0.3,4.4c-2,1.5-4.8,1.5-7-0.2
				c-1.4-1-1.8-2.1-1.7-3.3l2.1,0.1c-0.1,0.8,0.2,1.6,1,2.2c1.1,0.8,2.4,0.8,3.7-0.1c1.3-1,1.1-1.8,0.2-2.5
				c-0.4-0.3-0.9-0.5-1.6-0.7l-1.3-1l5.1-3.8l5.6,4.2l-1.6,0.8L233.1,45.3z"/>
		</g>
	</g>
	<line class="st8" x1="200.6" y1="46.6" x2="230.4" y2="68"/>
	<line class="st8" x1="255.6" y1="47.1" x2="230.4" y2="68"/>
	<line class="st8" x1="230.4" y1="74.8" x2="230.4" y2="68"/>
</g>
</svg>
