<?xml version="1.0" encoding="utf-8"?>
<!-- Generator: Adobe Illustrator 21.0.2, SVG Export Plug-In . SVG Version: 6.00 Build 0)  -->
<svg version="1.1" xmlns="http://www.w3.org/2000/svg" xmlns:xlink="http://www.w3.org/1999/xlink" x="0px" y="0px"
	 viewBox="0 0 455.2 384.8" style="enable-background:new 0 0 455.2 384.8;" xml:space="preserve">
<style type="text/css">
	.st0{opacity:0.54;fill-rule:evenodd;clip-rule:evenodd;fill:#D0E6F2;}
	
		.st1{fill-rule:evenodd;clip-rule:evenodd;fill:#EFF6FA;stroke:#C6DEEC;stroke-linecap:round;stroke-linejoin:round;stroke-miterlimit:10;}
	
		.st2{fill-rule:evenodd;clip-rule:evenodd;fill:#FFFFFF;stroke:#C6DEEC;stroke-linecap:round;stroke-linejoin:round;stroke-miterlimit:10;}
	.st3{fill:#FFFFFF;}
	.st4{fill:#F31E00;}
	.st5{fill:#213847;}
	.st6{fill:#EA2D00;}
	.st7{fill-rule:evenodd;clip-rule:evenodd;fill:#BE081A;stroke:#EC6A76;stroke-linejoin:round;stroke-miterlimit:10;}
	.st8{fill-rule:evenodd;clip-rule:evenodd;fill:#DE0B20;stroke:#EC6A76;stroke-linejoin:round;stroke-miterlimit:10;}
	.st9{fill:#BE081A;stroke:#EC6A76;stroke-linejoin:round;stroke-miterlimit:10;}
	.st10{opacity:0.8;fill:none;stroke:#FFFFFF;stroke-width:4;stroke-linecap:round;stroke-linejoin:round;stroke-miterlimit:10;}
	.st11{opacity:0.4;}
	.st12{fill:none;stroke:#019EE6;stroke-miterlimit:10;}
	.st13{fill:#FF9400;}
	
		.st14{fill-rule:evenodd;clip-rule:evenodd;fill:#EF9200;stroke:#FED492;stroke-linecap:round;stroke-linejoin:round;stroke-miterlimit:10;}
	
		.st15{fill-rule:evenodd;clip-rule:evenodd;fill:#FF9C00;stroke:#FED492;stroke-linecap:round;stroke-linejoin:round;stroke-miterlimit:10;}
	.st16{fill:#EF9200;stroke:#FED492;stroke-linecap:round;stroke-linejoin:round;stroke-miterlimit:10;}
	.st17{fill-rule:evenodd;clip-rule:evenodd;fill:#009EE6;stroke:#C6DEEC;stroke-linejoin:round;stroke-miterlimit:10;}
	.st18{fill-rule:evenodd;clip-rule:evenodd;fill:#2CB3EB;stroke:#C6DEEC;stroke-linejoin:round;stroke-miterlimit:10;}
	
		.st19{fill-rule:evenodd;clip-rule:evenodd;fill:#009EE6;stroke:#C6DEEC;stroke-linecap:round;stroke-linejoin:round;stroke-miterlimit:10;}
	.st20{fill:#009EE6;stroke:#C6DEEC;stroke-linejoin:round;stroke-miterlimit:10;}
	.st21{fill:#EFF6FA;stroke:#C6DEEC;stroke-miterlimit:10;}
	.st22{fill:#A7C3D5;}
	.st23{fill:none;stroke:#C6DEEC;stroke-linecap:round;stroke-linejoin:round;stroke-miterlimit:10;}
	.st24{fill-rule:evenodd;clip-rule:evenodd;fill:#DE0B20;}
	.st25{fill-rule:evenodd;clip-rule:evenodd;fill:#EF9200;}
</style>
<g id="Cdisounct_BOX">
	<g id="cdiscount">
		<path id="ombre" class="st0" d="M377.1,78.5l-63.7,48.1l7.5,5.8l-5.2,3.9l34.3,27.1l6-4.4l26.2,20.3l63.7-48.1L377.1,78.5z"/>
		<path class="st1" d="M313.8,111.7l68.5,51.7v12.7l-68.5-52.5V111.7z"/>
		<path class="st2" d="M445.9,115.9l-63.6,47.4v12.7l63.6-48.3V115.9z"/>
		<path class="st2" d="M375.9,63.2l-62.1,48.5l68.5,51.6l63.6-47.4L375.9,63.2z"/>
		<g>
			<path class="st3" d="M358.5,98.1c0.3-1.6-1.3-3.4-3.5-4.4c-2.3-0.9-4.9-0.8-6.5,0.3c-1.5,1.1-1.6,3-0.1,4.6
				c1.3,1.4,3.9,2.5,5.7,2.3c-0.1-0.5-0.2-1.1-0.3-1.6c-2.6-0.3-4-1.3-4.1-2.6c-0.1-1.2,1.3-2.1,3-2c2,0.1,3.2,1.2,3.5,3
				C356.9,97.9,357.7,98,358.5,98.1z M359.5,107c2.6-1.6,5.1-3.3,7.6-4.9c-0.5-0.4-1-0.7-1.5-1.1c-0.8,0.5-1.6,1-2.4,1.5
				c-1.1-1.6-2.6-2.8-5.1-2.7c-1.7,0-3.1,1-3.3,2.1c-0.2,1.7,1.2,2.9,3.4,3.6c0,0.2,0,0.3,0.1,0.4
				C358.6,106.3,359.1,106.6,359.5,107z M378,117c-0.2,0.1-0.3,0.3-0.5,0.4c-1.2,1.4-0.3,3.4,2,4.5c2.1,1,4.5,0.8,5.7-0.4
				c0.9-1,0.6-2.4-0.8-3.6C382.7,116.3,379.7,115.9,378,117z M394.2,132.8c0.4,0.3,0.8,0.7,1.3,0.9c0.1,0.1,0.4,0.1,0.4,0
				c1.2-0.8,2.4-1.5,3.5-2.4c1-0.7,0.8-1.6-0.2-2.6c-0.7-0.6-1.5-1.1-2.4-1.3c0-0.1,0.1-0.3,0-0.4c-0.4-0.3-0.9-0.7-1.3-1
				c-1.8,1.2-3.6,2.3-5.4,3.5c0.5,0.4,1,0.7,1.5,1.1c0.2-0.1,0.3-0.2,0.5-0.3c1-0.7,2.1-1.3,3.1-2c0.1-0.1,0.3-0.2,0.5-0.1
				c0.9,0.2,1.6,0.6,2.1,1.2c0.4,0.6,0.1,1-0.4,1.3c-0.9,0.6-1.8,1.2-2.6,1.7C394.4,132.6,394.3,132.7,394.2,132.8z M392.5,124.1
				c-1.2,0.8-2.4,1.5-3.5,2.3c-0.1,0.1-0.3,0.2-0.5,0.2c-0.9-0.2-1.7-0.6-2.1-1.2c-0.4-0.6,0-1,0.5-1.3c0.6-0.4,1.3-0.8,1.9-1.2
				c1.1-0.7,1.1-0.7-0.2-1.6c-0.2-0.2-0.4-0.2-0.6-0.1c-1.1,0.7-2.2,1.4-3.3,2.2c-0.9,0.7-0.9,1.6-0.1,2.4c0.7,0.7,1.5,1.3,2.6,1.6
				c0.1,0,0.1,0.1,0.2,0.1c-0.1,0.1-0.2,0.2-0.2,0.2c0.5,0.4,1,0.7,1.5,1.1c1.8-1.2,3.6-2.3,5.4-3.5
				C393.5,124.8,393,124.4,392.5,124.1z M373.4,110.2c-0.4-0.5-0.7-0.9-1.1-1.3c-0.7-0.7-1.4-1.2-2.5-1.6c-0.9-0.3-1.7-0.2-2.4,0.2
				c-0.6,0.4-0.7,1-0.3,1.6c0.2,0.3,0.5,0.7,0.7,1c0.3,0.3,0.6,0.7,0.8,1c0.1,0.2,0.1,0.4-0.1,0.5c-0.2,0.1-0.6,0.1-0.8,0
				c-0.4-0.2-0.7-0.4-1-0.6c-0.5-0.5-0.9-1-1.4-1.6c-0.4,0.1-0.9,0.1-1.5,0.2c0.8,1.3,1.8,2.4,3.6,3.1c0.9,0.4,1.8,0.3,2.5-0.1
				c0.8-0.4,0.9-1,0.5-1.7c-0.2-0.4-0.5-0.7-0.8-1.1c-0.3-0.3-0.6-0.6-0.8-1c-0.1-0.2-0.1-0.4,0.1-0.5c0.2-0.1,0.5,0,0.8,0
				c0.3,0.1,0.5,0.3,0.7,0.4c0.5,0.5,1,1,1.5,1.5C372.4,110.4,372.8,110.3,373.4,110.2z M406.4,131.4c-0.3-0.2-0.5-0.4-0.8-0.6
				c-0.2-0.2-0.5-0.4-0.7-0.5c-0.1,0-0.2,0-0.2,0c-0.4,0.3-0.8,0.5-1.3,0.8c-0.7,0.5-0.7,0.5-1.5-0.1c0,0-0.1,0-0.1,0
				c-0.3,0.2-0.7,0.4-1,0.7c0.1,0.1,0.2,0.2,0.3,0.3c0.5,0.3,0.4,0.5,0,0.7c-0.8,0.5-1.6,1-2.4,1.5c-0.9,0.6-0.9,1.4,0,2.1
				c0.4,0.4,1,0.7,1.5,1c0.1,0.1,0.3,0.1,0.4,0.1c0.3-0.2,0.6-0.4,0.9-0.6c-0.3-0.2-0.5-0.4-0.8-0.6c-0.6-0.4-0.7-0.8-0.2-1.1
				c0.8-0.6,1.6-1.1,2.5-1.6c0.6,0.4,1.1,0.8,1.6,1.2c0.4-0.3,0.7-0.5,1.1-0.7c-0.6-0.4-1.1-0.8-1.7-1.2
				C405,132.3,405.7,131.9,406.4,131.4z M375.7,116.5c-1.8-0.2-2.8-0.9-2.8-1.9c-0.1-0.8,0.8-1.5,2-1.4c0.6,0,1.2,0.2,1.7,0.5
				c0.7,0.4,1,1,1,1.6c0.6,0.1,1.2,0.1,1.7,0.2c0.2-1.2-0.9-2.5-2.6-3.2c-1.9-0.7-3.8-0.6-5,0.3c-1.1,0.8-1,2.3,0.1,3.5
				c1,1.1,2.8,1.8,4.1,1.6C375.8,117.3,375.7,116.9,375.7,116.5z M365.9,104.8c-1.7,1.1-3.3,2.1-5,3.2c0.5,0.4,1,0.7,1.5,1.1
				c1.7-1.1,3.3-2.1,5-3.2C366.9,105.5,366.4,105.2,365.9,104.8z M367.8,104.7c0.5,0.4,1.2,0.4,1.7,0.1c0.4-0.3,0.4-0.8,0-1.2
				c-0.5-0.4-1.3-0.4-1.7-0.1C367.3,103.8,367.3,104.3,367.8,104.7z"/>
			<path class="st4" d="M358.5,98.1c-0.8-0.1-1.6-0.2-2.3-0.3c-0.3-1.9-1.5-2.9-3.5-3c-1.7-0.1-3.1,0.8-3,2c0.1,1.4,1.5,2.3,4.1,2.6
				c0.1,0.5,0.2,1.1,0.3,1.6c-1.8,0.2-4.4-0.9-5.7-2.3c-1.4-1.6-1.4-3.5,0.1-4.6c1.6-1.1,4.2-1.2,6.5-0.3
				C357.2,94.7,358.7,96.5,358.5,98.1z"/>
			<path class="st5" d="M359.5,107c-0.5-0.3-0.9-0.6-1.3-1c-0.1-0.1,0-0.2-0.1-0.4c-2.1-0.8-3.6-1.9-3.4-3.6
				c0.2-1.2,1.6-2.1,3.3-2.1c2.5-0.1,4.1,1,5.1,2.7c0.8-0.5,1.6-1,2.4-1.5c0.5,0.4,1,0.7,1.5,1.1C364.6,103.7,362.1,105.3,359.5,107
				z M360.8,104.1c0.2-0.1,0.4-0.3,0.6-0.4c0.5-0.3,0.6-0.4,0.2-1c-0.1-0.1-0.1-0.2-0.2-0.3c-0.6-0.6-1.4-1.1-2.5-1.2
				c-0.9,0-1.6,0.3-1.9,0.8c-0.5,0.8,0.3,2,1.9,2.5c0.5,0.2,0.9,0.2,1.2-0.1C360.3,104.4,360.5,104.2,360.8,104.1z"/>
			<path class="st5" d="M378,117c1.7-1.1,4.7-0.7,6.4,0.8c1.4,1.2,1.7,2.7,0.8,3.6c-1.2,1.2-3.5,1.4-5.7,0.4c-2.3-1.1-3.2-3.1-2-4.5
				C377.7,117.3,377.9,117.1,378,117z M382.9,118.5c-1-0.8-2.5-0.9-3.4-0.3c-0.9,0.6-0.8,1.6,0.2,2.3c1,0.7,2.5,0.9,3.4,0.3
				C384,120.2,383.9,119.2,382.9,118.5z"/>
			<path class="st5" d="M394.2,132.8c0.2-0.1,0.3-0.2,0.4-0.3c0.9-0.6,1.8-1.1,2.6-1.7c0.5-0.3,0.8-0.7,0.4-1.3
				c-0.5-0.6-1.2-1-2.1-1.2c-0.2,0-0.3,0.1-0.5,0.1c-1,0.7-2.1,1.3-3.1,2c-0.1,0.1-0.3,0.2-0.5,0.3c-0.5-0.4-1-0.7-1.5-1.1
				c1.8-1.2,3.6-2.3,5.4-3.5c0.4,0.3,0.9,0.6,1.3,1c0.1,0.1,0,0.2,0,0.4c0.9,0.3,1.7,0.7,2.4,1.3c1,1,1.2,1.8,0.2,2.6
				c-1.1,0.8-2.3,1.6-3.5,2.4c-0.1,0-0.3,0-0.4,0C395,133.5,394.6,133.2,394.2,132.8z"/>
			<path class="st5" d="M392.5,124.1c0.5,0.4,1,0.7,1.5,1.1c-1.8,1.2-3.6,2.3-5.4,3.5c-0.5-0.4-1-0.7-1.5-1.1
				c0.1-0.1,0.1-0.1,0.2-0.2c-0.1,0-0.1-0.1-0.2-0.1c-1.1-0.3-2-0.9-2.6-1.6c-0.8-0.8-0.8-1.7,0.1-2.4c1.1-0.8,2.2-1.5,3.3-2.2
				c0.2-0.1,0.4-0.1,0.6,0.1c1.3,0.9,1.3,0.9,0.2,1.6c-0.6,0.4-1.3,0.8-1.9,1.2c-0.5,0.3-0.9,0.7-0.5,1.3c0.5,0.6,1.2,1,2.1,1.2
				c0.1,0,0.3-0.1,0.5-0.2C390.1,125.6,391.3,124.8,392.5,124.1z"/>
			<path class="st5" d="M373.4,110.2c-0.6,0.1-1,0.2-1.5,0.3c-0.5-0.5-1-1-1.5-1.5c-0.2-0.2-0.4-0.3-0.7-0.4c-0.2-0.1-0.6-0.1-0.8,0
				c-0.1,0.1-0.2,0.3-0.1,0.5c0.2,0.3,0.5,0.6,0.8,1c0.3,0.4,0.6,0.7,0.8,1.1c0.4,0.7,0.3,1.3-0.5,1.7c-0.7,0.4-1.6,0.4-2.5,0.1
				c-1.8-0.7-2.8-1.8-3.6-3.1c0.5-0.1,1-0.2,1.5-0.2c0.5,0.5,0.9,1.1,1.4,1.6c0.3,0.2,0.6,0.5,1,0.6c0.2,0.1,0.6,0.1,0.8,0
				c0.1-0.1,0.2-0.4,0.1-0.5c-0.2-0.4-0.5-0.7-0.8-1c-0.3-0.3-0.5-0.7-0.7-1c-0.4-0.6-0.3-1.2,0.3-1.6c0.6-0.4,1.4-0.5,2.4-0.2
				c1.1,0.3,1.8,0.9,2.5,1.6C372.7,109.3,373,109.7,373.4,110.2z"/>
			<path class="st5" d="M406.4,131.4c-0.7,0.5-1.4,0.9-2.1,1.4c0.6,0.4,1.1,0.8,1.7,1.2c-0.4,0.2-0.7,0.5-1.1,0.7
				c-0.5-0.4-1.1-0.8-1.6-1.2c-0.9,0.6-1.7,1.1-2.5,1.6c-0.5,0.4-0.4,0.7,0.2,1.1c0.2,0.2,0.5,0.3,0.8,0.6c-0.3,0.2-0.6,0.4-0.9,0.6
				c-0.1,0-0.3,0-0.4-0.1c-0.5-0.3-1.1-0.6-1.5-1c-0.9-0.8-0.8-1.6,0-2.1c0.8-0.5,1.6-1,2.4-1.5c0.4-0.2,0.5-0.4,0-0.7
				c-0.1-0.1-0.2-0.2-0.3-0.3c0.4-0.2,0.7-0.5,1-0.7c0,0,0.1,0,0.1,0c0.8,0.5,0.8,0.5,1.5,0.1c0.4-0.3,0.8-0.5,1.3-0.8
				c0,0,0.1,0,0.2,0c0.2,0.2,0.4,0.3,0.7,0.5C405.9,131,406.1,131.2,406.4,131.4z"/>
			<path class="st5" d="M375.7,116.5c0,0.4,0.1,0.8,0.1,1.2c-1.3,0.2-3.1-0.5-4.1-1.6c-1.1-1.2-1.1-2.7-0.1-3.5
				c1.2-0.9,3.1-1.1,5-0.3c1.8,0.7,2.8,2,2.6,3.2c-0.6-0.1-1.1-0.1-1.7-0.2c0-0.6-0.2-1.1-1-1.6c-0.5-0.3-1.1-0.5-1.7-0.5
				c-1.2,0-2.1,0.6-2,1.4C372.9,115.6,373.9,116.3,375.7,116.5z"/>
			<path class="st5" d="M365.9,104.8c0.5,0.4,1,0.7,1.5,1.1c-1.7,1.1-3.3,2.1-5,3.2c-0.5-0.4-1-0.7-1.5-1.1
				C362.6,107,364.2,105.9,365.9,104.8z"/>
			<path class="st6" d="M367.8,104.7c-0.5-0.4-0.5-0.9-0.1-1.2c0.4-0.3,1.2-0.2,1.7,0.1c0.4,0.3,0.5,0.9,0,1.2
				C369,105.1,368.3,105,367.8,104.7z"/>
		</g>
	</g>
	<g id="boite">
		<path class="st7" d="M316.3,134.4l33.7,26.4l0-13.4L316.3,121V134.4z"/>
		<path class="st7" d="M355.7,156.7l-5.7,4v-13.4l5.6-4L355.7,156.7z"/>
		<path class="st8" d="M355.7,143.3l-5.6,4L316.3,121l5.1-3.5L355.7,143.3z"/>
		
			<ellipse transform="matrix(0.9848 -0.1736 0.1736 0.9848 -18.3644 58.4002)" class="st9" cx="324.6" cy="134.2" rx="2.9" ry="3.3"/>
	</g>
	<g id="tube">
		<line id="contenu_tube_3_" class="st10" x1="293.3" y1="157.8" x2="323.9" y2="134.5"/>
		<g id="tube_7_" class="st11">
			<path class="st12" d="M293.2,159.8c-0.6,0-1.2-0.3-1.6-0.8c-0.7-0.9-0.5-2.1,0.4-2.8l30.7-23.3c0.9-0.7,2.1-0.5,2.8,0.4
				c0.7,0.9,0.5,2.1-0.4,2.8l-30.7,23.3C294.1,159.7,293.7,159.9,293.2,159.8z"/>
		</g>
	</g>
</g>
<g id="Amazon_BOX">
	<g id="amazon">
		<path id="ombre_1_" class="st0" d="M293.7,16.2L230,64.3l27.6,21.4l-5.3,3.9l34.3,27.1l6-4.4l6,4.6l63.7-48.1L293.7,16.2z"/>
		<path class="st1" d="M230.5,49.4L299,101v12.7l-68.5-52.5V49.4z"/>
		<path class="st2" d="M362.6,53.6L299,101v12.7l63.6-48.3V53.6z"/>
		<path class="st2" d="M292.6,0.9l-62.1,48.5L299,101l63.6-47.4L292.6,0.9z"/>
		<g id="gHTvxY.tif">
			<g>
				<path class="st3" d="M262.9,73.3c0-14.6,0-29.1,0-43.7c19.4,0,38.8,0,58.2,0c0,14.6,0,29.1,0,43.7
					C301.7,73.3,282.3,73.3,262.9,73.3z M284.5,37.7C284.5,37.7,284.5,37.7,284.5,37.7C284.5,37.7,284.5,37.7,284.5,37.7
					c0.3-0.3,0.6-0.5,0.8-0.7c0.2-0.1,0.2-0.3,0-0.4c-0.4-0.3-0.8-0.6-1.2-0.9c-0.2-0.1-0.4-0.1-0.6,0c-0.2,0.2-0.4,0.3-0.6,0.5
					c-1.1,0.8-2.1,1.6-3.2,2.4c-1.1,0.8-2.1,1.6-3.2,2.4c-0.1,0.1-0.2,0.3,0,0.4c0.4,0.3,0.9,0.7,1.3,1c0.2,0.1,0.4,0.1,0.6,0
					c0.4-0.3,0.9-0.7,1.3-1c0.7-0.5,1.4-1,2-1.5c0.5-0.4,1-0.8,1.6-1.1c0.6-0.3,1.2-0.4,1.7,0.1c0.4,0.3,0.4,0.6,0.2,1
					c-0.2,0.2-0.4,0.4-0.6,0.5c-0.4,0.3-0.9,0.7-1.3,1c-0.6,0.5-1.3,1-1.9,1.4c-0.4,0.3-0.8,0.6-1.2,0.9c-0.2,0.1-0.1,0.3,0,0.4
					c0.4,0.3,0.9,0.7,1.3,1c0.2,0.1,0.4,0.1,0.6,0c0.6-0.4,1.1-0.8,1.6-1.2c0.7-0.5,1.4-1.1,2.2-1.6c0.4-0.3,0.8-0.6,1.3-0.8
					c0.5-0.2,1.3-0.2,1.7,0.3c0.2,0.2,0.3,0.4,0.1,0.7c-0.1,0.2-0.2,0.3-0.4,0.5c-0.5,0.4-1,0.8-1.5,1.1c-1.1,0.8-2.2,1.6-3.3,2.5
					c-0.2,0.1-0.2,0.3,0,0.4c0.4,0.3,0.9,0.7,1.3,1c0.2,0.2,0.4,0.2,0.6,0c0.3-0.2,0.6-0.4,0.9-0.7c0.7-0.5,1.4-1.1,2.1-1.6
					c0.6-0.5,1.2-0.9,1.8-1.4c0.5-0.3,0.9-0.7,1.2-1.1c0.2-0.3,0.3-0.7,0.2-1.1c-0.1-0.4-0.3-0.8-0.7-1.1c-0.8-0.6-1.7-0.9-2.7-0.7
					c-0.2,0-0.4,0.1-0.7,0.1c0-0.1,0.1-0.2,0.1-0.3c0.2-0.5,0.2-0.9,0-1.4c-0.3-0.4-0.7-0.7-1.1-0.9c-0.7-0.3-1.3-0.4-2-0.2
					C284.8,37.7,284.7,37.7,284.5,37.7z M294.6,44.5c-0.7,0-1.3,0.2-1.9,0.5c-0.2,0.1-0.2,0.3-0.1,0.4c0.4,0.3,0.7,0.7,1.1,1
					c0.2,0.2,0.3,0.2,0.6,0.1c0.8-0.4,1.7-0.1,2.2,0.4c0.2,0.3,0.3,0.7,0,1c-0.2,0.2-0.5,0.4-0.8,0.7c0,0-0.1,0-0.1,0
					c-0.4-0.2-0.9-0.5-1.3-0.8c-0.6-0.4-1.2-0.7-1.9-0.8c-0.8-0.2-1.6-0.2-2.4,0.1c-0.7,0.2-1.3,0.7-1.8,1.3
					c-0.2,0.3-0.4,0.7-0.3,1.1c0.1,0.5,0.3,0.8,0.6,1.1c0.3,0.3,0.6,0.5,1,0.7c0.4,0.3,0.9,0.4,1.4,0.5c0.4,0,0.7,0,1.1,0.1
					c0,0,0.1,0.1,0.1,0.1c-0.1,0.3-0.1,0.6-0.1,1c0,0.3,0.1,0.4,0.4,0.5c0.3,0,0.6,0,0.9,0.1c0.3,0,0.7,0,1,0.1c0.2,0,0.3,0,0.3-0.2
					c0-0.1,0-0.1,0.1-0.2c0.1-0.5,0.3-0.9,0.6-1.2c0.6-0.5,1.3-0.9,1.9-1.4c0.6-0.4,1.2-0.8,1.7-1.4c0.5-0.5,0.6-1.1,0.3-1.7
					c-0.2-0.6-0.6-1-1.1-1.4c-0.4-0.3-0.9-0.6-1.4-0.9C295.9,44.7,295.3,44.5,294.6,44.5z M273.8,38.1
					C273.8,38.1,273.8,38.1,273.8,38.1c-0.1,0.4-0.2,0.7-0.1,1.1c0,0.3,0.1,0.4,0.3,0.4c0.7,0.1,1.3,0.1,2,0.1
					c0.3,0,0.4-0.1,0.4-0.4c0.1-0.4,0.2-0.8,0.6-1.1c0.7-0.5,1.4-1.1,2.1-1.6c0.5-0.4,1.1-0.8,1.6-1.3c0.3-0.4,0.5-0.8,0.4-1.3
					c-0.1-0.6-0.4-1-0.8-1.4c-0.4-0.4-0.9-0.7-1.4-1c-0.8-0.4-1.6-0.7-2.5-0.7c-0.7,0-1.3,0.2-1.9,0.5c-0.2,0.1-0.2,0.3-0.1,0.4
					c0.3,0.3,0.7,0.6,1,0.9c0.1,0.1,0.2,0.2,0.4,0.2c0.1,0,0.2,0,0.3-0.1c0.7-0.3,1.6-0.1,2.1,0.5c0.3,0.3,0.3,0.7,0,1
					c-0.2,0.2-0.5,0.4-0.8,0.6c0,0-0.1,0-0.1,0c-0.4-0.3-0.9-0.5-1.3-0.8c-0.6-0.3-1.1-0.6-1.8-0.8c-0.7-0.2-1.4-0.2-2.1-0.1
					c-0.9,0.2-1.7,0.7-2.3,1.5c-0.4,0.6-0.4,1.2,0,1.7c0.4,0.6,1,0.9,1.6,1.2c0.6,0.3,1.2,0.3,1.8,0.4
					C273.5,38.1,273.7,38.1,273.8,38.1z M315.7,61.4C315.7,61.4,315.7,61.4,315.7,61.4c0.3-0.3,0.6-0.5,1-0.8c0.2-0.1,0.2-0.3,0-0.4
					c-0.4-0.3-0.8-0.6-1.2-0.9c-0.2-0.1-0.4-0.1-0.5,0c-0.6,0.4-1.2,0.9-1.7,1.3c-1,0.7-1.9,1.4-2.9,2.1c-0.8,0.6-1.6,1.2-2.4,1.8
					c-0.1,0.1-0.1,0.3,0,0.4c0.5,0.3,0.9,0.7,1.4,1c0.2,0.1,0.4,0.1,0.6,0c0.4-0.3,0.7-0.5,1.1-0.8c0.8-0.6,1.5-1.1,2.3-1.7
					c0.5-0.4,1.1-0.8,1.7-1.1c0.5-0.2,1-0.2,1.5,0c0.4,0.2,0.6,0.7,0.3,1c-0.2,0.2-0.4,0.4-0.6,0.6c-0.4,0.3-0.8,0.6-1.2,0.9
					c-0.6,0.5-1.3,1-1.9,1.4c-0.4,0.3-0.9,0.7-1.3,1c-0.1,0.1-0.1,0.3,0,0.4c0.5,0.3,0.9,0.7,1.4,1c0.2,0.1,0.3,0.1,0.5,0
					c0.2-0.1,0.3-0.3,0.5-0.4c0.7-0.5,1.4-1,2.1-1.5c0.6-0.4,1.2-0.9,1.8-1.3c0.6-0.4,1.2-0.8,1.6-1.4c0.2-0.3,0.4-0.7,0.4-1.1
					c0-0.5-0.3-0.8-0.6-1.1c-0.8-0.8-1.8-1-2.9-0.7C316.2,61.3,316,61.3,315.7,61.4z M308.2,54.9c-0.1,0-0.3,0-0.5,0
					c-0.6,0.1-1.1,0.2-1.7,0.4c-0.5,0.2-1,0.4-1.4,0.7c-0.4,0.3-0.9,0.6-1.2,1c-0.3,0.3-0.6,0.6-0.8,1c-0.2,0.3-0.3,0.6-0.4,1
					c-0.1,0.5-0.1,0.9,0.1,1.4c0.3,0.7,0.8,1.2,1.4,1.5c0.8,0.5,1.7,0.7,2.7,0.6c1,0,1.9-0.3,2.8-0.7c0.7-0.4,1.4-0.8,2-1.4
					c0.5-0.5,1-1.1,1.2-1.8c0.1-0.4,0.1-0.8,0.1-1.2c-0.1-0.7-0.5-1.1-1-1.6C310.4,55.2,309.4,54.9,308.2,54.9z M273.8,41.2
					c0.1,0.4,0.1,0.9,0.2,1.3c0.2,0.9,0.4,1.8,0.7,2.7c0.3,0.9,0.8,1.8,1.3,2.6c0.4,0.6,0.8,1.2,1.3,1.8c0.3,0.4,0.7,0.9,1.1,1.3
					c0.3,0.3,0.5,0.5,0.8,0.8c0.3,0.3,0.6,0.5,0.9,0.8c0.5,0.4,1,0.7,1.4,1.1c0.6,0.5,1.3,0.9,1.9,1.3c0.6,0.3,1.2,0.6,1.8,0.9
					c0.9,0.4,1.9,0.8,2.8,1.2c0.6,0.2,1.3,0.4,1.9,0.6c0.5,0.2,1.1,0.3,1.6,0.4c0.6,0.1,1.3,0.2,1.9,0.3c0.2,0,0.4,0.1,0.6-0.1
					c0.1-0.1,0.1-0.3,0-0.4c-0.1-0.1-0.2-0.2-0.4-0.2c-0.7-0.3-1.4-0.5-2.1-0.7c-0.9-0.3-1.8-0.7-2.7-1.1c-0.9-0.4-1.8-0.9-2.7-1.4
					c-0.6-0.3-1.1-0.6-1.7-1c-0.6-0.4-1.2-0.8-1.8-1.3c-0.5-0.4-1-0.8-1.5-1.2c-0.4-0.3-0.8-0.7-1.1-1.1c-0.4-0.4-0.9-0.9-1.3-1.3
					c-0.3-0.4-0.7-0.7-1-1.1c-0.4-0.5-0.7-1-1.1-1.4c-0.3-0.5-0.6-0.9-0.9-1.4c-0.4-0.7-0.7-1.3-1.1-2c-0.2-0.5-0.4-1-0.6-1.5
					c-0.1-0.1-0.2-0.2-0.3-0.2C273.9,41,273.8,41,273.8,41.2z M299.3,54.8c0.4,0,0.7-0.1,1.1-0.1c0.9-0.1,1.8-0.2,2.6-0.3
					c0.8-0.1,1.6-0.2,2.4-0.3c0.2,0,0.5-0.1,0.7-0.2c0.2-0.2,0.5-0.4,0.8-0.6c0.2-0.1,0.2-0.3,0-0.4c-0.5-0.4-1.1-0.8-1.6-1.2
					c-1-0.7-1.9-1.4-2.9-2.1c-0.2-0.1-0.4-0.2-0.6,0c-0.3,0.3-0.7,0.5-1,0.8c-0.1,0.1-0.1,0.3,0,0.4c0.4,0.3,0.9,0.6,1.3,1
					c0.4,0.3,0.7,0.5,1.1,0.8c-0.1,0-0.1,0-0.1,0c-0.7,0.1-1.4,0.2-2.1,0.3c-0.5,0.1-1.1,0.1-1.6,0.2c-0.8,0.1-1.5,0.2-2.3,0.3
					c-0.3,0-0.7,0-0.9,0.2c-0.5,0.3-1,0.7-1.4,1c-0.1,0.1-0.1,0.2-0.1,0.3c0,0.1,0.1,0.1,0.2,0.1c0.2,0.1,0.5,0.1,0.7,0.2
					c0.9,0.3,1.7,0.7,2.4,1.3c0.7,0.6,1.3,1.2,1.7,2.1c0.1,0.3,0.4,0.3,0.6,0.2c0.4-0.3,0.7-0.5,1.1-0.8c0.1,0,0.1-0.1,0.1-0.2
					c0.1-0.2,0-0.3-0.1-0.4c-0.3-0.7-0.7-1.2-1.3-1.6C299.7,55.1,299.5,55,299.3,54.8z M292.8,60.3c0.3,0,0.7,0,1-0.1
					c1-0.1,2-0.5,2.9-0.9c0.4-0.2,0.7-0.4,1-0.7c0.1-0.1,0.2-0.2,0.1-0.3c-0.1-0.1-0.1-0.2-0.2-0.3c-0.2-0.2-0.4-0.5-0.7-0.7
					c-0.4-0.4-0.9-0.7-1.4-0.9c-0.5-0.2-0.9-0.5-1.4-0.6c-0.3-0.1-0.7-0.1-1-0.2c-0.1,0-0.2,0.1-0.3,0.1c0.1,0.1,0.1,0.1,0.2,0.2
					c0.5,0.3,0.9,0.6,1.4,0.9c0.5,0.3,1,0.6,1.3,1.1c0.3,0.3,0.3,0.5,0,0.7c-0.1,0.1-0.3,0.2-0.4,0.3c-0.6,0.3-1.3,0.5-1.9,0.8
					c-0.4,0.1-0.7,0.2-1.1,0.4c-0.1,0-0.1,0.1-0.2,0.1c0.1,0,0.1,0.1,0.2,0.1C292.4,60.3,292.6,60.3,292.8,60.3z"/>
				<path d="M284.5,37.7c0.2,0,0.3-0.1,0.5-0.1c0.7-0.2,1.4-0.1,2,0.2c0.5,0.2,0.9,0.5,1.1,0.9c0.3,0.4,0.2,0.9,0,1.4
					c0,0.1-0.1,0.2-0.1,0.3c0.2-0.1,0.5-0.1,0.7-0.1c1-0.1,1.9,0.1,2.7,0.7c0.3,0.3,0.6,0.6,0.7,1.1c0.1,0.4,0,0.7-0.2,1.1
					c-0.3,0.5-0.8,0.8-1.2,1.1c-0.6,0.5-1.2,0.9-1.8,1.4c-0.7,0.5-1.4,1.1-2.1,1.6c-0.3,0.2-0.6,0.4-0.9,0.7c-0.2,0.2-0.4,0.2-0.6,0
					c-0.4-0.3-0.9-0.7-1.3-1c-0.2-0.1-0.2-0.3,0-0.4c1.1-0.8,2.2-1.6,3.3-2.5c0.5-0.4,1-0.7,1.5-1.1c0.2-0.1,0.3-0.3,0.4-0.5
					c0.2-0.3,0-0.5-0.1-0.7c-0.5-0.5-1.2-0.5-1.7-0.3c-0.5,0.2-0.9,0.5-1.3,0.8c-0.7,0.5-1.4,1.1-2.2,1.6c-0.5,0.4-1.1,0.8-1.6,1.2
					c-0.2,0.1-0.4,0.1-0.6,0c-0.4-0.3-0.9-0.7-1.3-1c-0.2-0.1-0.2-0.3,0-0.4c0.4-0.3,0.8-0.6,1.2-0.9c0.6-0.5,1.3-1,1.9-1.4
					c0.4-0.3,0.9-0.7,1.3-1c0.2-0.2,0.4-0.3,0.6-0.5c0.3-0.4,0.2-0.7-0.2-1c-0.6-0.4-1.1-0.4-1.7-0.1c-0.6,0.3-1.1,0.7-1.6,1.1
					c-0.7,0.5-1.4,1-2,1.5c-0.4,0.3-0.9,0.7-1.3,1c-0.2,0.1-0.4,0.2-0.6,0c-0.5-0.3-0.9-0.7-1.3-1c-0.1-0.1-0.1-0.3,0-0.4
					c1.1-0.8,2.1-1.6,3.2-2.4c1.1-0.8,2.1-1.6,3.2-2.4c0.2-0.2,0.4-0.3,0.6-0.5c0.2-0.1,0.4-0.1,0.6,0c0.4,0.3,0.8,0.6,1.2,0.9
					c0.2,0.1,0.2,0.3,0,0.4C285.1,37.3,284.8,37.5,284.5,37.7C284.5,37.7,284.5,37.7,284.5,37.7C284.5,37.7,284.5,37.7,284.5,37.7z"
					/>
				<path d="M294.6,44.5c0.7,0,1.3,0.2,2,0.5c0.5,0.2,1,0.5,1.4,0.9c0.5,0.4,0.9,0.8,1.1,1.4c0.3,0.7,0.1,1.2-0.3,1.7
					c-0.5,0.5-1.1,0.9-1.7,1.4c-0.6,0.5-1.3,0.9-1.9,1.4c-0.4,0.3-0.6,0.7-0.6,1.2c0,0.1,0,0.1-0.1,0.2c-0.1,0.1-0.2,0.2-0.3,0.2
					c-0.3,0-0.7,0-1-0.1c-0.3,0-0.6,0-0.9-0.1c-0.3,0-0.4-0.2-0.4-0.5c0-0.3,0-0.7,0.1-1c0,0,0-0.1-0.1-0.1c-0.4,0-0.7,0-1.1-0.1
					c-0.5,0-1-0.2-1.4-0.5c-0.3-0.2-0.7-0.4-1-0.7c-0.3-0.3-0.6-0.7-0.6-1.1c0-0.4,0.1-0.8,0.3-1.1c0.5-0.6,1.1-1,1.8-1.3
					c0.8-0.3,1.6-0.3,2.4-0.1c0.7,0.2,1.3,0.5,1.9,0.8c0.4,0.3,0.9,0.5,1.3,0.8c0,0,0.1,0,0.1,0c0.3-0.2,0.5-0.4,0.8-0.7
					c0.3-0.3,0.2-0.7,0-1c-0.5-0.6-1.4-0.8-2.2-0.4c-0.2,0.1-0.4,0.1-0.6-0.1c-0.4-0.3-0.7-0.7-1.1-1c-0.1-0.1-0.1-0.3,0.1-0.4
					C293.3,44.7,293.9,44.5,294.6,44.5z M294.5,49.4c-0.5-0.4-1-0.7-1.6-0.9c-0.8-0.2-1.7,0.1-2.2,0.7c-0.1,0.2-0.2,0.4-0.1,0.6
					c0.1,0.2,0.3,0.4,0.5,0.5c0.5,0.3,1,0.3,1.6,0.1C293.3,50.3,293.9,49.8,294.5,49.4z"/>
				<path d="M273.8,38.1c-0.2,0-0.3,0-0.5,0c-0.6,0-1.2-0.1-1.8-0.4c-0.6-0.3-1.2-0.7-1.6-1.2c-0.4-0.5-0.4-1.2,0-1.7
					c0.6-0.8,1.3-1.2,2.3-1.5c0.7-0.2,1.4-0.1,2.1,0.1c0.6,0.2,1.2,0.5,1.8,0.8c0.4,0.3,0.9,0.5,1.3,0.8c0,0,0.1,0,0.1,0
					c0.3-0.2,0.5-0.4,0.8-0.6c0.3-0.3,0.3-0.7,0-1c-0.5-0.6-1.4-0.8-2.1-0.5c-0.1,0-0.2,0.1-0.3,0.1c-0.2,0-0.3-0.1-0.4-0.2
					c-0.3-0.3-0.7-0.6-1-0.9c-0.1-0.1-0.1-0.3,0.1-0.4c0.6-0.3,1.2-0.5,1.9-0.5c0.9,0,1.7,0.2,2.5,0.7c0.5,0.3,1,0.6,1.4,1
					c0.4,0.4,0.7,0.8,0.8,1.4c0.1,0.5-0.1,0.9-0.4,1.3c-0.4,0.5-1,0.9-1.6,1.3c-0.7,0.5-1.4,1.1-2.1,1.6c-0.4,0.3-0.5,0.7-0.6,1.1
					c0,0.3-0.1,0.4-0.4,0.4c-0.7,0-1.3-0.1-2-0.1c-0.3,0-0.3-0.1-0.3-0.4C273.7,38.8,273.7,38.5,273.8,38.1
					C273.8,38.1,273.8,38.1,273.8,38.1z M276.4,35.8c-0.2-0.2-0.5-0.3-0.7-0.4c-0.5-0.3-1-0.5-1.7-0.5c-0.6,0.1-1.1,0.3-1.5,0.8
					c-0.2,0.3-0.1,0.7,0.1,0.9c0.4,0.3,0.8,0.4,1.3,0.4C274.9,36.9,275.6,36.3,276.4,35.8z"/>
				<path d="M315.7,61.4c0.2-0.1,0.5-0.1,0.7-0.2c1.1-0.2,2,0,2.9,0.7c0.3,0.3,0.6,0.7,0.6,1.1c0,0.4-0.1,0.7-0.4,1.1
					c-0.4,0.6-1,0.9-1.6,1.4c-0.6,0.5-1.2,0.9-1.8,1.3c-0.7,0.5-1.4,1-2.1,1.5c-0.2,0.1-0.3,0.3-0.5,0.4c-0.2,0.1-0.3,0.1-0.5,0
					c-0.5-0.3-0.9-0.7-1.4-1c-0.1-0.1-0.1-0.3,0-0.4c0.4-0.3,0.9-0.7,1.3-1c0.6-0.5,1.3-1,1.9-1.4c0.4-0.3,0.8-0.6,1.2-0.9
					c0.2-0.2,0.4-0.4,0.6-0.6c0.3-0.4,0.1-0.8-0.3-1c-0.5-0.3-1-0.2-1.5,0c-0.7,0.2-1.2,0.7-1.7,1.1c-0.8,0.6-1.5,1.1-2.3,1.7
					c-0.4,0.3-0.7,0.5-1.1,0.8c-0.2,0.1-0.4,0.2-0.6,0c-0.5-0.3-0.9-0.7-1.4-1c-0.1-0.1-0.1-0.3,0-0.4c0.8-0.6,1.6-1.2,2.4-1.8
					c1-0.7,1.9-1.4,2.9-2.1c0.6-0.4,1.2-0.9,1.7-1.3c0.2-0.1,0.4-0.1,0.5,0c0.4,0.3,0.8,0.6,1.2,0.9c0.2,0.1,0.2,0.3,0,0.4
					C316.4,60.9,316.1,61.1,315.7,61.4C315.7,61.4,315.7,61.4,315.7,61.4z"/>
				<path d="M308.2,54.9c1.2,0,2.3,0.3,3.1,1.1c0.5,0.4,0.9,0.9,1,1.6c0.1,0.4,0.1,0.8-0.1,1.2c-0.2,0.7-0.7,1.3-1.2,1.8
					c-0.6,0.6-1.2,1-2,1.4c-0.9,0.4-1.8,0.7-2.8,0.7c-0.9,0-1.8-0.1-2.7-0.6c-0.6-0.4-1.2-0.8-1.4-1.5c-0.2-0.4-0.2-0.9-0.1-1.4
					c0.1-0.4,0.2-0.7,0.4-1c0.2-0.4,0.5-0.7,0.8-1c0.4-0.4,0.8-0.7,1.2-1c0.5-0.3,0.9-0.5,1.4-0.7c0.5-0.2,1.1-0.4,1.7-0.4
					C307.9,54.9,308.1,54.9,308.2,54.9z M305.6,60.9c0.6,0,1.2-0.2,1.7-0.6c0.5-0.3,1-0.7,1.4-1c0.5-0.4,0.9-0.7,1.2-1.2
					c0.2-0.3,0.2-0.7,0-0.9c-0.4-0.4-0.9-0.6-1.4-0.5c-0.6,0.1-1.1,0.4-1.6,0.7c-0.7,0.4-1.3,0.9-1.9,1.5c-0.2,0.2-0.5,0.5-0.6,0.8
					c-0.1,0.3-0.1,0.6,0.1,0.8C304.9,60.8,305.2,60.9,305.6,60.9z"/>
				<path class="st13" d="M273.8,41.2c0-0.2,0-0.3,0.2-0.3c0.1,0,0.3,0,0.3,0.2c0.2,0.5,0.4,1,0.6,1.5c0.3,0.7,0.7,1.3,1.1,2
					c0.3,0.5,0.6,1,0.9,1.4c0.3,0.5,0.7,1,1.1,1.4c0.3,0.4,0.6,0.8,1,1.1c0.4,0.5,0.8,0.9,1.3,1.3c0.4,0.4,0.8,0.7,1.1,1.1
					c0.5,0.4,1,0.8,1.5,1.2c0.6,0.4,1.2,0.9,1.8,1.3c0.5,0.4,1.1,0.7,1.7,1c0.9,0.5,1.8,1,2.7,1.4c0.9,0.4,1.8,0.8,2.7,1.1
					c0.7,0.3,1.4,0.5,2.1,0.7c0.1,0,0.3,0.1,0.4,0.2c0.1,0.1,0.1,0.3,0,0.4c-0.2,0.2-0.4,0.1-0.6,0.1c-0.6-0.1-1.3-0.2-1.9-0.3
					c-0.5-0.1-1.1-0.2-1.6-0.4c-0.7-0.2-1.3-0.4-1.9-0.6c-0.9-0.4-1.9-0.8-2.8-1.2c-0.6-0.3-1.2-0.6-1.8-0.9
					c-0.7-0.4-1.3-0.8-1.9-1.3c-0.5-0.4-1-0.7-1.4-1.1c-0.3-0.2-0.6-0.5-0.9-0.8c-0.3-0.3-0.6-0.5-0.8-0.8c-0.4-0.4-0.8-0.8-1.1-1.3
					c-0.4-0.6-0.9-1.2-1.3-1.8c-0.5-0.8-0.9-1.7-1.3-2.6c-0.3-0.9-0.6-1.8-0.7-2.7C273.9,42.1,273.9,41.7,273.8,41.2z"/>
				<path d="M299.3,54.8c0.2,0.2,0.4,0.4,0.7,0.5c0.5,0.5,1,1,1.3,1.6c0.1,0.1,0.1,0.3,0.1,0.4c0,0.1-0.1,0.2-0.1,0.2
					c-0.4,0.3-0.7,0.5-1.1,0.8c-0.2,0.2-0.5,0.1-0.6-0.2c-0.4-0.8-1-1.5-1.7-2.1c-0.7-0.6-1.5-1-2.4-1.3c-0.2-0.1-0.5-0.1-0.7-0.2
					c-0.1,0-0.2-0.1-0.2-0.1c0-0.1,0-0.2,0.1-0.3c0.5-0.3,0.9-0.7,1.4-1c0.3-0.2,0.6-0.2,0.9-0.2c0.8-0.1,1.5-0.2,2.3-0.3
					c0.5-0.1,1.1-0.1,1.6-0.2c0.7-0.1,1.4-0.2,2.1-0.3c0,0,0.1,0,0.1,0c-0.4-0.3-0.7-0.6-1.1-0.8c-0.4-0.3-0.9-0.6-1.3-1
					c-0.1-0.1-0.1-0.3,0-0.4c0.3-0.3,0.7-0.5,1-0.8c0.2-0.1,0.4-0.1,0.6,0c1,0.7,1.9,1.4,2.9,2.1c0.5,0.4,1.1,0.8,1.6,1.2
					c0.2,0.2,0.2,0.3,0,0.4c-0.3,0.2-0.5,0.4-0.8,0.6c-0.2,0.2-0.4,0.2-0.7,0.2c-0.8,0.1-1.6,0.2-2.4,0.3c-0.9,0.1-1.8,0.2-2.6,0.3
					C300,54.7,299.7,54.7,299.3,54.8z"/>
				<path class="st13" d="M292.8,60.3c-0.2,0-0.3,0-0.5-0.1c-0.1,0-0.1-0.1-0.2-0.1c0.1,0,0.1-0.1,0.2-0.1c0.4-0.1,0.7-0.2,1.1-0.4
					c0.6-0.3,1.3-0.5,1.9-0.8c0.2-0.1,0.3-0.2,0.4-0.3c0.3-0.3,0.3-0.4,0-0.7c-0.4-0.4-0.9-0.8-1.3-1.1c-0.5-0.3-0.9-0.6-1.4-0.9
					c-0.1,0-0.1-0.1-0.2-0.2c0.1,0,0.2-0.1,0.3-0.1c0.3,0,0.7,0.1,1,0.2c0.5,0.1,1,0.3,1.4,0.6c0.5,0.3,1,0.6,1.4,0.9
					c0.2,0.2,0.5,0.5,0.7,0.7c0.1,0.1,0.1,0.2,0.2,0.3c0.1,0.1,0,0.2-0.1,0.3c-0.3,0.3-0.7,0.5-1,0.7c-0.9,0.5-1.9,0.8-2.9,0.9
					C293.4,60.3,293.1,60.3,292.8,60.3z"/>
				<path class="st3" d="M294.5,49.4c-0.6,0.4-1.2,0.9-1.9,1.1c-0.5,0.1-1.1,0.1-1.6-0.1c-0.2-0.1-0.4-0.3-0.5-0.5
					c-0.1-0.2,0-0.4,0.1-0.6c0.5-0.6,1.4-0.9,2.2-0.7C293.5,48.7,294,49,294.5,49.4z"/>
				<path class="st3" d="M276.4,35.8c-0.7,0.6-1.4,1.1-2.4,1.2c-0.5,0-0.9,0-1.3-0.4c-0.3-0.2-0.4-0.6-0.1-0.9
					c0.4-0.5,0.9-0.8,1.5-0.8c0.6,0,1.1,0.2,1.7,0.5C275.9,35.5,276.1,35.6,276.4,35.8z"/>
				<path class="st3" d="M305.6,60.9c-0.4,0-0.7-0.1-1-0.4c-0.2-0.2-0.3-0.6-0.1-0.8c0.1-0.3,0.4-0.6,0.6-0.8c0.6-0.6,1.2-1,1.9-1.5
					c0.5-0.3,1-0.6,1.6-0.7c0.6-0.1,1.1,0,1.4,0.5c0.2,0.3,0.2,0.6,0,0.9c-0.3,0.5-0.8,0.9-1.2,1.2c-0.5,0.4-0.9,0.7-1.4,1
					C306.8,60.7,306.2,60.9,305.6,60.9z"/>
			</g>
		</g>
	</g>
	<g id="boite_1_">
		<path class="st14" d="M253.2,87.4l33.7,26.4l0-13.4L253.2,74V87.4z"/>
		<path class="st14" d="M292.6,109.7l-5.7,4v-13.4l5.6-4L292.6,109.7z"/>
		<path class="st15" d="M292.5,96.3l-5.6,4L253.2,74l5.1-3.5L292.5,96.3z"/>
		
			<ellipse transform="matrix(0.9848 -0.1736 0.1736 0.9848 -13.1907 49.8694)" class="st16" cx="278.4" cy="100.3" rx="2.9" ry="3.3"/>
	</g>
	<g id="tube_1_">
		<line id="contenu_tube_1_" class="st10" x1="247.1" y1="124" x2="277.8" y2="100.7"/>
		<g id="tube_2_" class="st11">
			<path class="st12" d="M247.1,126c-0.6,0-1.2-0.3-1.6-0.8c-0.7-0.9-0.5-2.1,0.4-2.8l30.7-23.3c0.9-0.7,2.1-0.5,2.8,0.4
				c0.7,0.9,0.5,2.1-0.4,2.8l-30.7,23.3C248,125.8,247.5,126,247.1,126z"/>
		</g>
	</g>
</g>
<g id="BeezUp_BOX">
	<path id="shade" class="st0" d="M225.6,117.8l-63.7,48.1l104,76.6l63.7-48.1L225.6,117.8z"/>
	<polygon class="st17" points="162.7,163.2 265.6,238.9 265.6,223.7 162.7,147.7 	"/>
	<polygon class="st18" points="328.7,191.9 265.6,238.9 265.6,223.7 328.7,176.5 	"/>
	<polygon class="st19" points="265.6,223.7 162.7,147.6 225,100.4 328.7,176.5 	"/>
	<g id="logo">
		<g>
			<path class="st3" d="M285,180.9c-1.2-2.6-10.2-7.1-20-10c-9.9-2.9-16.9-3.2-15.7-0.6c0.3,0.7-0.9,1.5,0.5,2.5
				c-1-2.5,7.1-2.4,15.7,0.1c8.7,2.6,16.7,6.8,17.9,9.4c0,0.1,0.1,0.2,0.1,0.3C284.9,182.3,285.4,181.8,285,180.9z"/>
			<path class="st3" d="M260.9,167.1c0.4-1.1,0.9-2.2,1.4-3.3c3.7-7.5,9.3-13,12.4-12.1c2.5,0.7,2.7,5.1,0.9,10.7
				c-2.5,1.1-5.6,3.7-8.5,7c2.6-2.2,5.2-3.6,7.3-3.9c-0.2,0.5-0.4,0.9-0.7,1.4c-0.6,1.2-1.2,2.3-1.9,3.4c1.2-1.4,2.4-3,3.5-4.9
				c0.4,0,0.7,0.1,1,0.2c2.2,0.9,2.4,4,1,8.1c3.5-5.9,4.3-10.9,1.8-11.9c-0.5-0.2-1.2-0.2-1.9-0.1c3.1-7,3-13.2-0.5-14.2
				c-3.6-1-9.6,4.3-13.3,11.8C262.2,162.2,261.3,164.8,260.9,167.1z"/>
			<path class="st3" d="M205.7,150.8c2.7,0.9,4.9,0.6,6.7-0.7c2.4-1.8,2.1-3.8-0.8-6l-7.3-5.5l-15.5,11.7l7.1,5.3
				c3.2,2.4,6.4,2.5,9.5,0.2C207.2,154.3,207.4,152.6,205.7,150.8z M198.2,153.6l-4.1-3l10.5-7.9l4.2,3.2c1.1,0.8,1.2,1.5,0.3,2.2
				c-1.6,1.2-3.8,1.1-6.6-0.4l-1.9,1.4l0.9,0.7c1.9,1.4,2,2.7,0.4,4C200.7,154.5,199.4,154.5,198.2,153.6z"/>
			<path class="st3" d="M219.1,155.9c-3.8-2.8-7.5-2.9-11.3-0.1c-3.9,2.9-3.8,5.9,0.4,9c1.6,1.2,3,2.1,4.2,2.7l2.3-1.7
				c-1.4-0.7-2.6-1.5-3.8-2.3c-2.5-1.9-3-3.4-1.5-4.5l7.5,5.6C222.1,161.6,222.9,158.7,219.1,155.9z M216.3,160.9l-4.8-3.6
				c1.8-1.1,3.4-1.1,4.9,0C218.1,158.6,218.1,159.8,216.3,160.9z"/>
			<path class="st3" d="M230.9,164.7c-3.8-2.8-7.5-2.9-11.3-0.1c-3.9,2.9-3.8,5.9,0.4,9c1.6,1.2,3,2.1,4.2,2.7l2.3-1.7
				c-1.4-0.7-2.6-1.5-3.8-2.3c-2.5-1.9-3-3.4-1.5-4.5l7.5,5.6C233.9,170.5,234.7,167.6,230.9,164.7z M228.1,169.8l-4.8-3.6
				c1.8-1.1,3.4-1.1,4.9,0C229.9,167.4,229.9,168.6,228.1,169.8z"/>
			<polygon class="st3" points="235.4,171.5 241.1,175.8 228.2,176.6 226,178.2 234.8,184.8 237,183.2 231.4,179 244.2,178.1 
				246.4,176.4 237.6,169.8 			"/>
		</g>
		<g>
			<path class="st3" d="M243.4,182.1l9.4-7.1l2.9,2.2l-9.4,7.1c-2.5,1.9-2.4,3.7,0.1,5.6c2.5,1.9,5,1.9,7.5,0.1l9.4-7.1l2.9,2.2
				l-9.4,7.1c-4.1,3.1-8.4,3-12.9-0.4C239.4,188.4,239.3,185.2,243.4,182.1z"/>
			<path class="st3" d="M253.9,199.2l15.5-11.7l7.3,5.5c3,2.2,3.1,4.3,0.5,6.3c-3.1,2.3-7.1,2.1-12-0.6l2.2-2.2
				c3,1.5,5.3,1.8,6.8,0.6c1-0.7,1-1.5-0.1-2.3l-4.2-3.2l-13,9.8L253.9,199.2z"/>
		</g>
	</g>
	
		<ellipse transform="matrix(0.9848 -0.1736 0.1736 0.9848 -30.1885 39.7498)" class="st20" cx="212.1" cy="192.4" rx="2.9" ry="3.3"/>
	<g id="tube_-_copie">
		<line id="contenu_tube_2_" class="st10" x1="168.8" y1="226.1" x2="211.4" y2="192.8"/>
		<g id="tube_4_" class="st11">
			<path class="st12" d="M168.7,228.1c-0.6,0-1.2-0.3-1.6-0.8c-0.7-0.9-0.5-2.1,0.4-2.8l42.7-33.3c0.9-0.7,2.1-0.5,2.8,0.4
				c0.7,0.9,0.5,2.1-0.4,2.8L170,227.7C169.6,228,169.2,228.1,168.7,228.1z"/>
		</g>
	</g>
</g>
<g id="tapis">
	<path id="tapis_1_" class="st21" d="M305.3,326.9L65.8,139.4L10.5,183c-1.1,1-1.9,1.6-2.6,2.7l0.1-0.1l-0.2,0.2
		c-0.1,0.3-0.3,0.5-0.4,0.8v0c-1.3,3.4,0,8,2.9,10.2l241,184.2c2,1.6,4.5,1.7,6.2,0.3l0,0l47.7-36.3
		C311.2,340.6,311.2,331.6,305.3,326.9z"/>
	<path id="coté" class="st22" d="M256.1,368.8L15,184.6c-2.9-2.2-6.3-1.2-7.7,2.2l0,0c-1.3,3.4,0,8,2.9,10.2l241,184.2
		c2.9,2.2,6.3,1.2,7.7-2.2h0C260.3,375.6,259,371,256.1,368.8z"/>
	<ellipse class="st23" cx="242.3" cy="366.7" rx="3.1" ry="4.9"/>
	<ellipse class="st23" cx="249.9" cy="372.4" rx="3.1" ry="4.9"/>
	<ellipse class="st23" cx="226.1" cy="354.1" rx="3.1" ry="4.9"/>
	<ellipse class="st23" cx="233.8" cy="359.7" rx="3.1" ry="4.9"/>
	<ellipse class="st23" cx="210" cy="341.7" rx="3.1" ry="4.9"/>
	<ellipse class="st23" cx="217.7" cy="347.4" rx="3.1" ry="4.9"/>
	<ellipse class="st23" cx="194.3" cy="329.9" rx="3.1" ry="4.9"/>
	<ellipse class="st23" cx="202" cy="335.6" rx="3.1" ry="4.9"/>
	<ellipse class="st23" cx="178.2" cy="317.6" rx="3.1" ry="4.9"/>
	<ellipse class="st23" cx="186.1" cy="323.9" rx="3.1" ry="4.9"/>
	<ellipse class="st23" cx="161.5" cy="304.7" rx="3.1" ry="4.9"/>
	<ellipse class="st23" cx="170.4" cy="311.3" rx="3.1" ry="4.9"/>
	<ellipse class="st23" cx="145.1" cy="292.3" rx="3.1" ry="4.9"/>
	<ellipse class="st23" cx="153.1" cy="298.1" rx="3.1" ry="4.9"/>
	<ellipse class="st23" cx="137" cy="285.9" rx="3.1" ry="4.9"/>
	<ellipse class="st23" cx="120.7" cy="273.7" rx="3.1" ry="4.9"/>
	<ellipse class="st23" cx="113" cy="267.3" rx="3.1" ry="4.9"/>
	<ellipse class="st23" cx="104.3" cy="260.7" rx="3.1" ry="4.9"/>
	<ellipse class="st23" cx="96.8" cy="255.3" rx="3.1" ry="4.9"/>
	<ellipse class="st23" cx="88.7" cy="249.1" rx="3.1" ry="4.9"/>
	<ellipse class="st23" cx="80.7" cy="243.2" rx="3.1" ry="4.9"/>
	<ellipse class="st23" cx="73" cy="237.4" rx="3.1" ry="4.9"/>
	<ellipse class="st23" cx="64.7" cy="231.1" rx="3.1" ry="4.9"/>
	<ellipse class="st23" cx="56.4" cy="224.6" rx="3.1" ry="4.9"/>
	<ellipse class="st23" cx="48.4" cy="218.5" rx="3.1" ry="4.9"/>
	<ellipse class="st23" cx="40.2" cy="212.1" rx="3.1" ry="4.9"/>
	<ellipse class="st23" cx="32.3" cy="206" rx="3.1" ry="4.9"/>
	<ellipse class="st23" cx="23.9" cy="200" rx="3.1" ry="4.9"/>
	<ellipse class="st23" cx="16" cy="193.7" rx="3.1" ry="4.9"/>
	<ellipse class="st23" cx="128.8" cy="279.8" rx="3.1" ry="4.9"/>
</g>
<g id="Cdiscount__carton">
	<path id="ombre_2_" class="st0" d="M69.2,155.5l-41.7,31.1L69.8,219l41.7-31.1L69.2,155.5z"/>
	<path class="st1" d="M28,142.6L70,174v42.7l-42-32.3V142.6z"/>
	<path class="st2" d="M111.6,143.6L70,174v42.7l41.6-31.3V143.6z"/>
	<path class="st2" d="M68.1,111.2L28,142.6L70,174l41.6-30.4L68.1,111.2z"/>
	<line class="st23" x1="46.2" y1="128.4" x2="88.4" y2="160.1"/>
	<line class="st23" x1="54.4" y1="122" x2="97.6" y2="153.6"/>
	<line class="st23" x1="88.6" y1="160.3" x2="88.7" y2="202.7"/>
	<line class="st23" x1="97.6" y1="153.6" x2="97.6" y2="195.6"/>
	<polygon class="st24" points="67.8,186.6 61.2,181.6 61.2,172.7 67.8,177.8 	"/>
	<g>
		<path class="st3" d="M36.7,176.3c-0.5-1.3-1.7-2.6-2.8-3.1c-1.2-0.4-2.1,0.1-2.3,1.3c-0.2,1.1,0.5,2.7,1.6,3.9c1,1,2.3,1.5,2.9,1
			c-0.2-0.4-0.5-0.9-0.7-1.3c-1.1,0.1-1.9-0.4-2.4-1.5c-0.4-1-0.3-1.9,0.4-2.1c0.8-0.2,1.6,0.5,2.3,1.9
			C36.1,176.3,36.4,176.3,36.7,176.3z M40.2,183.4c0.3-1.8,0.7-3.5,1-5.2c-0.3-0.2-0.6-0.5-0.9-0.7c-0.1,0.5-0.2,1.1-0.3,1.6
			c-1-1.2-1.9-1.9-2.8-1.4c-0.6,0.3-0.8,1.3-0.4,2.3c0.5,1.5,1.5,2.2,2.5,2.5c0.1,0.1,0.1,0.3,0.2,0.3
			C39.6,183,39.9,183.2,40.2,183.4z M50.4,188.8c0,0.1,0,0.3,0,0.4c0,1.3,1.1,2.8,2.3,3.4c1.1,0.5,1.9,0,1.9-1.2
			c0-0.9-0.6-2.1-1.6-2.9C51.9,187.6,50.7,187.7,50.4,188.8z M61.8,199.4c0.3,0.2,0.5,0.4,0.8,0.6c0.1,0,0.2,0,0.2,0
			c0.2-0.8,0.3-1.6,0.4-2.5c0.1-0.8-0.3-1.5-1-2.1c-0.5-0.4-0.9-0.6-1.3-0.7c-0.1-0.1-0.1-0.3-0.1-0.3c-0.3-0.2-0.5-0.4-0.8-0.6
			c-0.3,1.3-0.5,2.5-0.7,3.7c0.3,0.2,0.6,0.5,0.9,0.7c0-0.1,0-0.2,0.1-0.3c0.1-0.7,0.3-1.4,0.4-2.1c0-0.1,0.1-0.2,0.1-0.2
			c0.4,0,0.8,0.2,1.2,0.6c0.3,0.4,0.4,0.8,0.3,1.1c-0.1,0.6-0.2,1.2-0.4,1.8C61.9,199.2,61.9,199.3,61.8,199.4z M58.2,192.5
			c-0.2,0.8-0.3,1.6-0.5,2.4c0,0.1-0.1,0.2-0.1,0.2c-0.4,0-0.8-0.2-1.2-0.7c-0.4-0.4-0.4-0.8-0.3-1.1c0.1-0.4,0.2-0.9,0.3-1.3
			c0.2-0.8,0.1-0.8-0.6-1.3c-0.1-0.1-0.2-0.1-0.2,0c-0.1,0.8-0.3,1.5-0.4,2.3c-0.1,0.7,0.2,1.4,0.8,2c0.5,0.5,1,0.8,1.5,0.9
			c0,0,0.1,0,0.1,0c0,0.1,0,0.2,0,0.2c0.3,0.2,0.6,0.4,0.9,0.7c0.2-1.2,0.5-2.5,0.7-3.7C58.8,192.9,58.5,192.7,58.2,192.5z
			 M46.4,183.9c-0.3-0.3-0.6-0.6-0.8-0.9c-0.5-0.4-1-0.8-1.5-0.9c-0.4-0.1-0.7,0.1-0.8,0.5c-0.1,0.4,0.1,0.9,0.4,1.3
			c0.2,0.3,0.4,0.5,0.6,0.7c0.2,0.2,0.5,0.5,0.7,0.7c0.1,0.1,0.2,0.4,0.2,0.4c0,0.1-0.2,0.1-0.3,0.1c-0.2-0.1-0.4-0.2-0.6-0.4
			c-0.4-0.3-0.7-0.7-1.1-1.1c-0.1,0.1-0.3,0.3-0.5,0.4c0.7,1,1.5,1.7,2.4,2c0.5,0.2,0.8,0,0.9-0.4c0.1-0.5,0-1-0.4-1.5
			c-0.2-0.3-0.4-0.5-0.7-0.8c-0.2-0.2-0.4-0.4-0.6-0.7c-0.1-0.1-0.2-0.3-0.1-0.4c0-0.1,0.2-0.1,0.3-0.1c0.1,0,0.3,0.1,0.4,0.3
			c0.4,0.3,0.7,0.7,1.1,1C46.1,184.2,46.2,184.1,46.4,183.9z M65.8,196.4c-0.2-0.1-0.3-0.3-0.5-0.4c-0.1-0.1-0.3-0.2-0.4-0.3
			c0,0,0,0-0.1,0.1c-0.1,0.3-0.1,0.6-0.2,0.8c-0.1,0.5-0.1,0.5-0.6,0.2c0,0,0,0-0.1,0c0,0.2-0.1,0.5-0.1,0.7
			c0.1,0.1,0.1,0.1,0.2,0.2c0.3,0.2,0.3,0.3,0.3,0.6c-0.1,0.5-0.2,1.1-0.3,1.6c-0.1,0.6,0.2,1.3,0.7,1.8c0.3,0.2,0.6,0.4,0.9,0.6
			c0.1,0,0.1,0,0.2,0c0.1-0.2,0.1-0.4,0.1-0.6c-0.2-0.1-0.3-0.2-0.5-0.3c-0.4-0.3-0.5-0.5-0.5-0.9c0.1-0.6,0.2-1.1,0.3-1.7
			c0.3,0.3,0.7,0.5,1,0.8c0.1-0.3,0.1-0.5,0.2-0.8c-0.3-0.3-0.7-0.5-1-0.8C65.6,197.3,65.7,196.9,65.8,196.4z M49.4,188.8
			c-0.7,0.1-1.3-0.3-1.7-1.1c-0.3-0.7-0.2-1.3,0.2-1.5c0.2-0.1,0.5,0,0.8,0.2c0.4,0.3,0.7,0.7,0.9,1.2c0.2,0,0.5-0.1,0.7-0.1
			c-0.4-1.1-1.2-1.9-2.1-2.2c-0.9-0.3-1.6,0.1-1.7,1c-0.1,0.8,0.4,2.1,1.2,2.9c0.7,0.7,1.6,1,2,0.7
			C49.7,189.4,49.6,189.1,49.4,188.8z M41.8,180.7c-0.2,1.2-0.5,2.3-0.7,3.4c0.3,0.2,0.6,0.5,0.9,0.7c0.2-1.1,0.5-2.3,0.7-3.4
			C42.4,181.1,42.1,180.9,41.8,180.7z M42.4,180.3c0.3,0.2,0.6,0.2,0.6-0.1c0.1-0.3-0.1-0.7-0.4-1c-0.3-0.2-0.6-0.1-0.7,0.2
			C41.9,179.6,42.1,180,42.4,180.3z"/>
		<path class="st4" d="M36.7,176.3c-0.3,0-0.6,0.1-1,0.1c-0.8-1.5-1.6-2.1-2.3-1.9c-0.7,0.2-0.8,1.1-0.4,2.1
			c0.5,1.1,1.3,1.7,2.4,1.5c0.2,0.4,0.5,0.9,0.7,1.3c-0.6,0.4-1.9-0.1-2.9-1c-1.1-1.1-1.7-2.7-1.6-3.9c0.2-1.2,1.1-1.7,2.3-1.3
			C35,173.6,36.3,174.9,36.7,176.3z"/>
		<path class="st5" d="M40.2,183.4c-0.3-0.2-0.6-0.4-0.8-0.6c-0.1,0-0.1-0.2-0.2-0.3c-1-0.3-2-1-2.5-2.5c-0.4-1-0.2-2,0.4-2.3
			c0.9-0.4,1.8,0.2,2.8,1.4c0.1-0.6,0.2-1.1,0.3-1.6c0.3,0.2,0.6,0.5,0.9,0.7C40.9,180,40.5,181.7,40.2,183.4z M39.6,180.8
			c0-0.1,0.1-0.3,0.1-0.4c0.1-0.4,0.1-0.4-0.3-0.8c-0.1-0.1-0.1-0.1-0.2-0.2c-0.5-0.4-0.9-0.7-1.3-0.6c-0.3,0.1-0.5,0.5-0.4,1
			c0.1,0.8,0.8,1.6,1.6,1.8c0.2,0.1,0.4,0.1,0.4-0.2C39.6,181.1,39.6,181,39.6,180.8z"/>
		<path class="st5" d="M50.4,188.8c0.2-1.1,1.5-1.3,2.6-0.3c0.9,0.8,1.5,1.9,1.6,2.9c0,1.2-0.8,1.7-1.9,1.2
			c-1.2-0.6-2.2-2.1-2.3-3.4C50.4,189.1,50.4,189,50.4,188.8z M52.7,189.3c-0.6-0.5-1.2-0.4-1.3,0.2c-0.1,0.6,0.3,1.4,0.9,1.9
			c0.6,0.5,1.2,0.4,1.3-0.2C53.8,190.6,53.4,189.8,52.7,189.3z"/>
		<path class="st5" d="M61.8,199.4c0-0.1,0-0.2,0-0.3c0.1-0.6,0.2-1.2,0.4-1.8c0.1-0.3,0-0.7-0.3-1.1c-0.4-0.4-0.8-0.7-1.2-0.6
			c-0.1,0-0.1,0.1-0.1,0.2c-0.1,0.7-0.3,1.4-0.4,2.1c0,0.1,0,0.2-0.1,0.3c-0.3-0.2-0.6-0.5-0.9-0.7c0.2-1.2,0.5-2.5,0.7-3.7
			c0.3,0.2,0.6,0.4,0.8,0.6c0.1,0,0.1,0.2,0.1,0.3c0.4,0.1,0.9,0.3,1.3,0.7c0.7,0.6,1.1,1.3,1,2.1c-0.1,0.9-0.3,1.7-0.4,2.5
			c0,0.1-0.1,0.1-0.2,0C62.4,199.8,62.1,199.6,61.8,199.4z"/>
		<path class="st5" d="M58.2,192.5c0.3,0.2,0.6,0.5,0.9,0.7c-0.2,1.2-0.5,2.5-0.7,3.7c-0.3-0.2-0.6-0.4-0.9-0.7c0-0.1,0-0.1,0-0.2
			c0,0-0.1,0-0.1,0c-0.5-0.1-1-0.4-1.5-0.9c-0.6-0.6-0.9-1.3-0.8-2c0.1-0.8,0.3-1.6,0.4-2.3c0-0.1,0.1-0.1,0.2,0
			c0.8,0.5,0.8,0.5,0.6,1.3c-0.1,0.4-0.2,0.9-0.3,1.3c-0.1,0.4-0.1,0.7,0.3,1.1c0.4,0.5,0.8,0.7,1.2,0.7c0.1,0,0.1-0.1,0.1-0.2
			C57.8,194.1,58,193.3,58.2,192.5z"/>
		<path class="st5" d="M46.4,183.9c-0.2,0.2-0.3,0.3-0.4,0.4c-0.4-0.3-0.7-0.7-1.1-1c-0.1-0.1-0.3-0.2-0.4-0.3c-0.1,0-0.3,0-0.3,0.1
			c0,0.1,0.1,0.3,0.1,0.4c0.2,0.2,0.4,0.4,0.6,0.7c0.2,0.2,0.5,0.5,0.7,0.8c0.4,0.5,0.6,1,0.4,1.5c-0.1,0.5-0.4,0.6-0.9,0.4
			c-0.9-0.3-1.7-1-2.4-2c0.2-0.1,0.3-0.3,0.5-0.4c0.4,0.4,0.7,0.7,1.1,1.1c0.2,0.2,0.4,0.3,0.6,0.4c0.1,0,0.3,0,0.3-0.1
			c0-0.1-0.1-0.3-0.2-0.4c-0.2-0.3-0.4-0.5-0.7-0.7c-0.2-0.2-0.4-0.5-0.6-0.7c-0.4-0.5-0.5-0.9-0.4-1.3c0.1-0.4,0.4-0.6,0.8-0.5
			c0.5,0.1,1,0.5,1.5,0.9C45.8,183.3,46.1,183.6,46.4,183.9z"/>
		<path class="st5" d="M65.8,196.4c-0.1,0.5-0.2,1-0.3,1.5c0.4,0.3,0.7,0.5,1,0.8c-0.1,0.3-0.1,0.5-0.2,0.8c-0.3-0.3-0.7-0.5-1-0.8
			c-0.1,0.6-0.3,1.2-0.3,1.7c-0.1,0.4,0.1,0.6,0.5,0.9c0.1,0.1,0.3,0.2,0.5,0.3c0,0.2-0.1,0.4-0.1,0.6c0,0-0.1,0-0.2,0
			c-0.3-0.2-0.6-0.3-0.9-0.6c-0.6-0.5-0.9-1.2-0.7-1.8c0.1-0.6,0.2-1.1,0.3-1.6c0.1-0.2,0-0.4-0.3-0.6c-0.1,0-0.1-0.1-0.2-0.2
			c0-0.2,0.1-0.5,0.1-0.7c0,0,0,0,0.1,0c0.5,0.3,0.5,0.3,0.6-0.2c0.1-0.3,0.1-0.6,0.2-0.8c0,0,0,0,0.1-0.1c0.1,0.1,0.3,0.2,0.4,0.3
			C65.5,196.1,65.6,196.2,65.8,196.4z"/>
		<path class="st5" d="M49.4,188.8c0.2,0.3,0.3,0.6,0.5,0.9c-0.4,0.4-1.3,0.1-2-0.7c-0.8-0.8-1.3-2-1.2-2.9c0.1-1,0.8-1.4,1.7-1
			c0.9,0.3,1.7,1.2,2.1,2.2c-0.2,0-0.5,0.1-0.7,0.1c-0.2-0.5-0.5-0.9-0.9-1.2c-0.3-0.2-0.6-0.2-0.8-0.2c-0.4,0.1-0.5,0.8-0.2,1.5
			C48.1,188.5,48.7,188.9,49.4,188.8z"/>
		<path class="st5" d="M41.8,180.7c0.3,0.2,0.6,0.5,0.9,0.7c-0.2,1.1-0.5,2.3-0.7,3.4c-0.3-0.2-0.6-0.4-0.9-0.7
			C41.3,182.9,41.5,181.8,41.8,180.7z"/>
		<path class="st6" d="M42.4,180.3c-0.3-0.2-0.5-0.6-0.4-0.9c0.1-0.3,0.4-0.4,0.7-0.2c0.3,0.2,0.5,0.7,0.4,1
			C43,180.4,42.7,180.5,42.4,180.3z"/>
	</g>
</g>
<g id="Cdiscount__carton_1_">
	<path id="ombre_3_" class="st0" d="M245,290.5l-41.7,31.1l42.2,32.4l41.7-31.1L245,290.5z"/>
	<path class="st1" d="M203.7,277.6l42,31.4v42.7l-42-32.3V277.6z"/>
	<path class="st2" d="M287.3,278.6L245.7,309v42.7l41.6-31.3V278.6z"/>
	<path class="st2" d="M243.8,246.2l-40.1,31.5l42,31.4l41.6-30.4L243.8,246.2z"/>
	<line class="st23" x1="222" y1="263.4" x2="264.2" y2="295.1"/>
	<line class="st23" x1="230.1" y1="257" x2="273.3" y2="288.6"/>
	<line class="st23" x1="264.4" y1="295.3" x2="264.4" y2="337.7"/>
	<line class="st23" x1="273.3" y1="288.6" x2="273.3" y2="330.6"/>
	<polygon class="st24" points="243.6,321.7 237,316.6 237,307.7 243.6,312.9 	"/>
	<g>
		<path class="st3" d="M212.1,311.4c-0.5-1.3-1.7-2.6-2.8-3.1c-1.2-0.4-2.1,0.1-2.3,1.3c-0.2,1.1,0.5,2.7,1.6,3.9c1,1,2.3,1.5,2.9,1
			c-0.2-0.4-0.5-0.9-0.7-1.3c-1.1,0.1-1.9-0.4-2.4-1.5c-0.4-1-0.3-1.9,0.4-2.1c0.8-0.2,1.6,0.5,2.3,1.9
			C211.5,311.5,211.8,311.4,212.1,311.4z M215.6,318.5c0.3-1.8,0.7-3.5,1-5.2c-0.3-0.2-0.6-0.5-0.9-0.7c-0.1,0.5-0.2,1.1-0.3,1.6
			c-1-1.2-1.9-1.9-2.8-1.4c-0.6,0.3-0.8,1.3-0.4,2.3c0.5,1.5,1.5,2.2,2.5,2.5c0.1,0.1,0.1,0.3,0.2,0.3
			C215.1,318.1,215.3,318.3,215.6,318.5z M225.8,324c0,0.1,0,0.3,0,0.4c0,1.3,1.1,2.8,2.3,3.4c1.1,0.5,1.9,0,1.9-1.2
			c0-0.9-0.6-2.1-1.6-2.9C227.3,322.7,226.1,322.8,225.8,324z M237.2,334.5c0.3,0.2,0.5,0.4,0.8,0.6c0.1,0,0.2,0,0.2,0
			c0.2-0.8,0.3-1.6,0.4-2.5c0.1-0.8-0.3-1.5-1-2.1c-0.5-0.4-0.9-0.6-1.3-0.7c-0.1-0.1-0.1-0.3-0.1-0.3c-0.3-0.2-0.5-0.4-0.8-0.6
			c-0.3,1.3-0.5,2.5-0.7,3.7c0.3,0.2,0.6,0.5,0.9,0.7c0-0.1,0-0.2,0.1-0.3c0.1-0.7,0.3-1.4,0.4-2.1c0-0.1,0.1-0.2,0.1-0.2
			c0.4,0,0.8,0.2,1.2,0.6c0.3,0.4,0.4,0.8,0.3,1.1c-0.1,0.6-0.2,1.2-0.4,1.8C237.3,334.3,237.3,334.4,237.2,334.5z M233.6,327.6
			c-0.2,0.8-0.3,1.6-0.5,2.4c0,0.1-0.1,0.2-0.1,0.2c-0.4,0-0.8-0.2-1.2-0.7c-0.4-0.4-0.4-0.8-0.3-1.1c0.1-0.4,0.2-0.9,0.3-1.3
			c0.2-0.8,0.1-0.8-0.6-1.3c-0.1-0.1-0.2-0.1-0.2,0c-0.1,0.8-0.3,1.5-0.4,2.3c-0.1,0.7,0.2,1.4,0.8,2c0.5,0.5,1,0.8,1.5,0.9
			c0,0,0.1,0,0.1,0c0,0.1,0,0.2,0,0.2c0.3,0.2,0.6,0.4,0.9,0.7c0.2-1.2,0.5-2.5,0.7-3.7C234.2,328,233.9,327.8,233.6,327.6z
			 M221.8,319c-0.3-0.3-0.6-0.6-0.8-0.9c-0.5-0.4-1-0.8-1.5-0.9c-0.4-0.1-0.7,0.1-0.8,0.5c-0.1,0.4,0.1,0.9,0.4,1.3
			c0.2,0.3,0.4,0.5,0.6,0.7c0.2,0.2,0.5,0.5,0.7,0.7c0.1,0.1,0.2,0.4,0.2,0.4c0,0.1-0.2,0.1-0.3,0.1c-0.2-0.1-0.4-0.2-0.6-0.4
			c-0.4-0.3-0.7-0.7-1.1-1.1c-0.1,0.1-0.3,0.3-0.5,0.4c0.7,1,1.5,1.7,2.4,2c0.5,0.2,0.8,0,0.9-0.4c0.1-0.5,0-1-0.4-1.5
			c-0.2-0.3-0.4-0.5-0.7-0.8c-0.2-0.2-0.4-0.4-0.6-0.7c-0.1-0.1-0.2-0.3-0.1-0.4c0-0.1,0.2-0.1,0.3-0.1c0.1,0,0.3,0.1,0.4,0.3
			c0.4,0.3,0.7,0.7,1.1,1C221.5,319.3,221.6,319.2,221.8,319z M241.2,331.5c-0.2-0.1-0.3-0.3-0.5-0.4c-0.1-0.1-0.3-0.2-0.4-0.3
			c0,0,0,0-0.1,0.1c-0.1,0.3-0.1,0.6-0.2,0.8c-0.1,0.5-0.1,0.5-0.6,0.2c0,0,0,0-0.1,0c0,0.2-0.1,0.5-0.1,0.7
			c0.1,0.1,0.1,0.1,0.2,0.2c0.3,0.2,0.3,0.3,0.3,0.6c-0.1,0.5-0.2,1.1-0.3,1.6c-0.1,0.6,0.2,1.3,0.7,1.8c0.3,0.2,0.6,0.4,0.9,0.6
			c0.1,0,0.1,0,0.2,0c0.1-0.2,0.1-0.4,0.1-0.6c-0.2-0.1-0.3-0.2-0.5-0.3c-0.4-0.3-0.5-0.5-0.5-0.9c0.1-0.6,0.2-1.1,0.3-1.7
			c0.3,0.3,0.7,0.5,1,0.8c0.1-0.3,0.1-0.5,0.2-0.8c-0.3-0.3-0.7-0.5-1-0.8C241,332.5,241.1,332,241.2,331.5z M224.8,323.9
			c-0.7,0.1-1.3-0.3-1.7-1.1c-0.3-0.7-0.2-1.3,0.2-1.5c0.2-0.1,0.5,0,0.8,0.2c0.4,0.3,0.7,0.7,0.9,1.2c0.2,0,0.5-0.1,0.7-0.1
			c-0.4-1.1-1.2-1.9-2.1-2.2c-0.9-0.3-1.6,0.1-1.7,1c-0.1,0.8,0.4,2.1,1.2,2.9c0.7,0.7,1.6,1,2,0.7
			C225.1,324.6,225,324.3,224.8,323.9z M217.2,315.8c-0.2,1.2-0.5,2.3-0.7,3.4c0.3,0.2,0.6,0.5,0.9,0.7c0.2-1.1,0.5-2.3,0.7-3.4
			C217.8,316.2,217.5,316,217.2,315.8z M217.8,315.4c0.3,0.2,0.6,0.2,0.6-0.1c0.1-0.3-0.1-0.7-0.4-1c-0.3-0.2-0.6-0.1-0.7,0.2
			C217.3,314.7,217.5,315.2,217.8,315.4z"/>
		<path class="st4" d="M212.1,311.4c-0.3,0-0.6,0.1-1,0.1c-0.8-1.5-1.6-2.1-2.3-1.9c-0.7,0.2-0.8,1.1-0.4,2.1
			c0.5,1.1,1.3,1.7,2.4,1.5c0.2,0.4,0.5,0.9,0.7,1.3c-0.6,0.4-1.9-0.1-2.9-1c-1.1-1.1-1.7-2.7-1.6-3.9c0.2-1.2,1.1-1.7,2.3-1.3
			C210.4,308.7,211.7,310.1,212.1,311.4z"/>
		<path class="st5" d="M215.6,318.5c-0.3-0.2-0.6-0.4-0.8-0.6c-0.1,0-0.1-0.2-0.2-0.3c-1-0.3-2-1-2.5-2.5c-0.4-1-0.2-2,0.4-2.3
			c0.9-0.4,1.8,0.2,2.8,1.4c0.1-0.6,0.2-1.1,0.3-1.6c0.3,0.2,0.6,0.5,0.9,0.7C216.3,315.1,216,316.8,215.6,318.5z M215,316
			c0-0.1,0.1-0.3,0.1-0.4c0.1-0.4,0.1-0.4-0.3-0.8c-0.1-0.1-0.1-0.1-0.2-0.2c-0.5-0.4-0.9-0.7-1.3-0.6c-0.3,0.1-0.5,0.5-0.4,1
			c0.1,0.8,0.8,1.6,1.6,1.8c0.2,0.1,0.4,0.1,0.4-0.2C215,316.3,215,316.1,215,316z"/>
		<path class="st5" d="M225.8,324c0.2-1.1,1.5-1.3,2.6-0.3c0.9,0.8,1.5,1.9,1.6,2.9c0,1.2-0.8,1.7-1.9,1.2c-1.2-0.6-2.2-2.1-2.3-3.4
			C225.8,324.2,225.8,324.1,225.8,324z M228.1,324.4c-0.6-0.5-1.2-0.4-1.3,0.2c-0.1,0.6,0.3,1.4,0.9,1.9c0.6,0.5,1.2,0.4,1.3-0.2
			C229.2,325.7,228.8,324.9,228.1,324.4z"/>
		<path class="st5" d="M237.2,334.5c0-0.1,0-0.2,0-0.3c0.1-0.6,0.2-1.2,0.4-1.8c0.1-0.3,0-0.7-0.3-1.1c-0.4-0.4-0.8-0.7-1.2-0.6
			c-0.1,0-0.1,0.1-0.1,0.2c-0.1,0.7-0.3,1.4-0.4,2.1c0,0.1,0,0.2-0.1,0.3c-0.3-0.2-0.6-0.5-0.9-0.7c0.2-1.2,0.5-2.5,0.7-3.7
			c0.3,0.2,0.6,0.4,0.8,0.6c0.1,0,0.1,0.2,0.1,0.3c0.4,0.1,0.9,0.3,1.3,0.7c0.7,0.6,1.1,1.3,1,2.1c-0.1,0.9-0.3,1.7-0.4,2.5
			c0,0.1-0.1,0.1-0.2,0C237.8,335,237.5,334.8,237.2,334.5z"/>
		<path class="st5" d="M233.6,327.6c0.3,0.2,0.6,0.5,0.9,0.7c-0.2,1.2-0.5,2.5-0.7,3.7c-0.3-0.2-0.6-0.4-0.9-0.7c0-0.1,0-0.1,0-0.2
			c0,0-0.1,0-0.1,0c-0.5-0.1-1-0.4-1.5-0.9c-0.6-0.6-0.9-1.3-0.8-2c0.1-0.8,0.3-1.6,0.4-2.3c0-0.1,0.1-0.1,0.2,0
			c0.8,0.5,0.8,0.5,0.6,1.3c-0.1,0.4-0.2,0.9-0.3,1.3c-0.1,0.4-0.1,0.7,0.3,1.1c0.4,0.5,0.8,0.7,1.2,0.7c0.1,0,0.1-0.1,0.1-0.2
			C233.3,329.2,233.4,328.4,233.6,327.6z"/>
		<path class="st5" d="M221.8,319c-0.2,0.2-0.3,0.3-0.4,0.4c-0.4-0.3-0.7-0.7-1.1-1c-0.1-0.1-0.3-0.2-0.4-0.3c-0.1,0-0.3,0-0.3,0.1
			c0,0.1,0.1,0.3,0.1,0.4c0.2,0.2,0.4,0.4,0.6,0.7c0.2,0.2,0.5,0.5,0.7,0.8c0.4,0.5,0.6,1,0.4,1.5c-0.1,0.5-0.4,0.6-0.9,0.4
			c-0.9-0.3-1.7-1-2.4-2c0.2-0.1,0.3-0.3,0.5-0.4c0.4,0.4,0.7,0.7,1.1,1.1c0.2,0.2,0.4,0.3,0.6,0.4c0.1,0,0.3,0,0.3-0.1
			c0-0.1-0.1-0.3-0.2-0.4c-0.2-0.3-0.4-0.5-0.7-0.7c-0.2-0.2-0.4-0.5-0.6-0.7c-0.4-0.5-0.5-0.9-0.4-1.3c0.1-0.4,0.4-0.6,0.8-0.5
			c0.5,0.1,1,0.5,1.5,0.9C221.2,318.4,221.5,318.7,221.8,319z"/>
		<path class="st5" d="M241.2,331.5c-0.1,0.5-0.2,1-0.3,1.5c0.4,0.3,0.7,0.5,1,0.8c-0.1,0.3-0.1,0.5-0.2,0.8c-0.3-0.3-0.7-0.5-1-0.8
			c-0.1,0.6-0.3,1.2-0.3,1.7c-0.1,0.4,0.1,0.6,0.5,0.9c0.1,0.1,0.3,0.2,0.5,0.3c0,0.2-0.1,0.4-0.1,0.6c0,0-0.1,0-0.2,0
			c-0.3-0.2-0.6-0.3-0.9-0.6c-0.6-0.5-0.9-1.2-0.7-1.8c0.1-0.6,0.2-1.1,0.3-1.6c0.1-0.2,0-0.4-0.3-0.6c-0.1,0-0.1-0.1-0.2-0.2
			c0-0.2,0.1-0.5,0.1-0.7c0,0,0,0,0.1,0c0.5,0.3,0.5,0.3,0.6-0.2c0.1-0.3,0.1-0.6,0.2-0.8c0,0,0,0,0.1-0.1c0.1,0.1,0.3,0.2,0.4,0.3
			C240.9,331.2,241,331.4,241.2,331.5z"/>
		<path class="st5" d="M224.8,323.9c0.2,0.3,0.3,0.6,0.5,0.9c-0.4,0.4-1.3,0.1-2-0.7c-0.8-0.8-1.3-2-1.2-2.9c0.1-1,0.8-1.4,1.7-1
			c0.9,0.3,1.7,1.2,2.1,2.2c-0.2,0-0.5,0.1-0.7,0.1c-0.2-0.5-0.5-0.9-0.9-1.2c-0.3-0.2-0.6-0.2-0.8-0.2c-0.4,0.1-0.5,0.8-0.2,1.5
			C223.5,323.6,224.1,324,224.8,323.9z"/>
		<path class="st5" d="M217.2,315.8c0.3,0.2,0.6,0.5,0.9,0.7c-0.2,1.1-0.5,2.3-0.7,3.4c-0.3-0.2-0.6-0.4-0.9-0.7
			C216.7,318,216.9,316.9,217.2,315.8z"/>
		<path class="st6" d="M217.8,315.4c-0.3-0.2-0.5-0.6-0.4-0.9c0.1-0.3,0.4-0.4,0.7-0.2c0.3,0.2,0.5,0.7,0.4,1
			C218.4,315.5,218.1,315.6,217.8,315.4z"/>
	</g>
</g>
<g id="amazon__carton">
	<path id="ombre_4_" class="st0" d="M116.7,191.5L75,222.6l42.2,32.4l41.7-31.1L116.7,191.5z"/>
	<path class="st1" d="M75.5,178.6l42,31.4v42.7l-42-32.3V178.6z"/>
	<path class="st2" d="M159.1,179.6L117.5,210v42.7l41.6-31.3V179.6z"/>
	<path class="st2" d="M117,148.1l-41.5,30.5l42,31.4l41.6-30.4L117,148.1z"/>
	<line class="st23" x1="94.5" y1="165" x2="135.9" y2="196.1"/>
	<line class="st23" x1="102.8" y1="158.8" x2="145.1" y2="189.6"/>
	<line class="st23" x1="136.1" y1="196.3" x2="136.2" y2="238.7"/>
	<line class="st23" x1="145.1" y1="189.6" x2="145.1" y2="231.6"/>
	<polygon class="st25" points="115.3,222.7 108.7,217.6 108.7,208.7 115.3,213.9 	"/>
	<g id="IOkfdC.tif">
		<g>
			<path d="M88.8,215.5c0.2-0.2,0.3-0.3,0.6-0.3c0.2,0,0.4,0.1,0.5,0.2c0.2,0.1,0.4,0.3,0.5,0.4c0.2,0.2,0.3,0.4,0.4,0.6
				c0.1,0.2,0.2,0.5,0.2,0.7c0,0,0,0,0,0.1c0,0,0,0,0,0.1c0.1-0.1,0.2-0.2,0.4-0.2c0.1,0,0.3,0,0.4,0.1c0.3,0.1,0.5,0.2,0.7,0.4
				c0.2,0.2,0.4,0.4,0.5,0.7c0.1,0.1,0.1,0.3,0.2,0.4c0.1,0.1,0.1,0.3,0.1,0.4c0,0.2,0,0.4,0,0.5c0,0.3-0.1,0.6-0.1,0.9
				c0,0.3-0.1,0.5-0.1,0.8c0,0.2-0.1,0.5-0.1,0.7c0,0.2-0.1,0.5-0.1,0.7c0,0.2-0.1,0.3-0.1,0.5c0,0.1-0.1,0.1-0.2,0.1
				c-0.3-0.2-0.6-0.5-0.9-0.7c-0.1-0.1-0.1-0.2-0.1-0.4c0-0.2,0.1-0.4,0.1-0.7c0-0.2,0.1-0.5,0.1-0.7c0-0.2,0.1-0.4,0.1-0.6
				c0-0.2,0.1-0.4,0.1-0.6c0-0.2,0.1-0.4,0.1-0.6c0-0.3-0.2-0.5-0.4-0.7c-0.1-0.1-0.2-0.2-0.4-0.2c-0.1,0-0.3,0-0.3,0.2
				c-0.1,0.2-0.1,0.4-0.2,0.6c0,0.2-0.1,0.4-0.1,0.6c0,0.2-0.1,0.4-0.1,0.6c0,0.2-0.1,0.4-0.1,0.7c0,0.2-0.1,0.4-0.1,0.7
				c0,0,0,0.1-0.1,0.1c-0.1,0-0.1,0-0.1,0c-0.3-0.2-0.6-0.5-0.9-0.7c-0.1-0.1-0.2-0.2-0.1-0.4c0-0.2,0.1-0.4,0.1-0.7
				c0-0.2,0.1-0.4,0.1-0.6c0-0.2,0.1-0.4,0.1-0.7c0-0.2,0.1-0.4,0.1-0.6c0-0.2,0.1-0.5,0-0.7c0-0.3-0.2-0.5-0.4-0.7
				c-0.1,0-0.1-0.1-0.2-0.1c-0.2-0.1-0.4,0-0.5,0.2c-0.1,0.2-0.1,0.4-0.2,0.6c-0.1,0.2-0.1,0.5-0.1,0.7c0,0.2-0.1,0.4-0.1,0.6
				c0,0.2-0.1,0.4-0.1,0.6c0,0.2-0.1,0.4-0.1,0.6c0,0.1-0.1,0.1-0.2,0.1c-0.2-0.1-0.3-0.2-0.5-0.4c-0.1-0.1-0.3-0.2-0.4-0.3
				c-0.2-0.1-0.2-0.3-0.1-0.5c0-0.2,0.1-0.4,0.1-0.7c0-0.2,0.1-0.4,0.1-0.6c0-0.2,0.1-0.4,0.1-0.7c0-0.2,0.1-0.5,0.1-0.7
				c0-0.2,0.1-0.4,0.1-0.6c0-0.2,0.1-0.4,0.1-0.6c0-0.1,0.1-0.3,0.1-0.4c0-0.1,0.1-0.2,0.2-0.1c0.3,0.2,0.6,0.4,0.8,0.7
				c0.1,0.1,0.2,0.2,0.1,0.4C88.9,215.1,88.9,215.2,88.8,215.5C88.8,215.4,88.8,215.4,88.8,215.5z"/>
			<path d="M96.8,222.9c0-0.3,0.1-0.5,0-0.8c0-0.2-0.1-0.3-0.3-0.5c-0.1-0.2-0.3-0.3-0.5-0.4c-0.1,0-0.2-0.1-0.3,0
				c-0.1,0-0.1,0.1-0.1,0.2c-0.1,0.1-0.1,0.1-0.2,0c-0.3-0.2-0.5-0.5-0.8-0.7c-0.1,0-0.1-0.1-0.1-0.2c-0.1-0.1,0-0.2,0.1-0.3
				c0.1-0.1,0.1-0.2,0.2-0.2c0.1-0.1,0.3-0.1,0.5-0.1c0.2,0,0.4,0.1,0.6,0.2c0.2,0.1,0.4,0.2,0.6,0.4c0.3,0.2,0.6,0.5,0.9,0.8
				c0.2,0.2,0.4,0.4,0.5,0.7c0.2,0.3,0.3,0.6,0.3,1c0,0.2,0,0.4,0,0.6c0,0.2-0.1,0.5-0.1,0.7c0,0.2-0.1,0.5-0.1,0.7
				c0,0.3-0.1,0.6,0,0.8c0,0.2,0.1,0.3,0.2,0.5c0,0.1,0,0.1,0,0.2c0,0.1,0,0.1-0.1,0.1c-0.1,0-0.2,0-0.3,0c-0.2,0-0.3,0-0.5,0
				c-0.1,0-0.2-0.1-0.2-0.2c-0.1-0.2-0.2-0.3-0.2-0.5c0-0.1-0.1-0.2-0.1-0.3c0,0,0-0.1,0-0.1c-0.3,0.1-0.5,0.1-0.7,0
				c-0.2-0.1-0.4-0.2-0.5-0.3c-0.2-0.1-0.3-0.2-0.5-0.4c-0.2-0.2-0.4-0.4-0.5-0.7c-0.1-0.2-0.2-0.4-0.3-0.7c0-0.2-0.1-0.4-0.1-0.6
				c0-0.2,0-0.3,0.1-0.5c0-0.2,0.1-0.4,0.3-0.5c0.2-0.1,0.4-0.1,0.6-0.1c0.4,0,0.7,0.2,1,0.4C96.1,222.4,96.4,222.6,96.8,222.9
				C96.8,222.9,96.8,222.9,96.8,222.9z M95.2,223.7c0,0.1,0,0.2,0.1,0.3c0.1,0.3,0.3,0.5,0.5,0.6c0.1,0.1,0.3,0.1,0.4,0
				c0.2-0.1,0.3-0.2,0.3-0.3c0.1-0.2,0.1-0.5,0.2-0.7c0,0,0,0,0,0c-0.1-0.1-0.3-0.2-0.4-0.3c-0.2-0.1-0.4-0.2-0.6-0.3
				c-0.2,0-0.3,0.1-0.4,0.2C95.2,223.4,95.2,223.5,95.2,223.7z"/>
			<path d="M86.4,217.5c-0.2,0-0.4,0-0.5,0c-0.1,0-0.1,0-0.2,0c-0.1,0-0.2-0.1-0.3-0.2c-0.1-0.2-0.2-0.4-0.2-0.5
				c-0.1-0.1-0.1-0.2-0.1-0.4c0-0.1-0.1-0.1-0.1-0.1c-0.1,0-0.1,0-0.2,0c-0.2,0-0.5,0-0.7-0.2c-0.4-0.2-0.7-0.4-1-0.7
				c-0.2-0.2-0.3-0.4-0.4-0.6c-0.1-0.2-0.2-0.5-0.3-0.7c-0.1-0.3-0.1-0.6,0-1c0-0.1,0.1-0.3,0.2-0.4c0.1-0.1,0.2-0.1,0.4-0.2
				c0.3-0.1,0.7,0.1,0.9,0.2c0.4,0.2,0.7,0.4,1,0.6c0.1,0.1,0.2,0.1,0.3,0.2c0-0.2,0.1-0.4,0.1-0.6c0-0.2-0.1-0.3-0.2-0.5
				c-0.1-0.2-0.3-0.3-0.5-0.4c-0.1-0.1-0.3-0.1-0.4-0.1c-0.1,0-0.1,0.1-0.2,0.2c0,0,0,0.1-0.1,0.1c-0.1,0-0.1,0-0.1,0
				c-0.2-0.2-0.4-0.4-0.7-0.6c-0.1-0.1-0.1-0.1-0.2-0.2c-0.1-0.2-0.1-0.2,0-0.4c0.1-0.1,0.2-0.2,0.3-0.3c0.1-0.1,0.3-0.1,0.4-0.1
				c0.2,0,0.5,0.1,0.7,0.2c0.2,0.1,0.4,0.2,0.6,0.4c0.2,0.1,0.3,0.3,0.5,0.4c0.2,0.2,0.3,0.4,0.5,0.5c0.1,0.1,0.2,0.3,0.3,0.5
				c0.1,0.2,0.2,0.3,0.2,0.5c0.1,0.2,0.1,0.4,0.1,0.6c0,0.3-0.1,0.6-0.1,0.9c-0.1,0.3-0.1,0.6-0.2,0.9c0,0.2-0.1,0.4-0.1,0.5
				c0,0.2,0,0.4,0,0.6c0.1,0.2,0.1,0.3,0.2,0.5C86.4,217.4,86.4,217.4,86.4,217.5z M83.6,214.5C83.6,214.5,83.6,214.5,83.6,214.5
				c0,0.4,0.2,0.7,0.5,1c0.1,0.1,0.3,0.1,0.4,0.1c0.2,0,0.3-0.2,0.4-0.4c0.1-0.2,0.1-0.4,0.1-0.6c0-0.1,0-0.1-0.1-0.2
				c-0.3-0.2-0.5-0.4-0.8-0.5c-0.2-0.1-0.4,0-0.5,0.2C83.6,214.2,83.6,214.3,83.6,214.5z"/>
			<path d="M108.9,231.3c0.1-0.1,0.2-0.2,0.3-0.2c0.2-0.1,0.3-0.1,0.5-0.1c0.3,0.1,0.6,0.3,0.8,0.5c0.2,0.2,0.3,0.3,0.4,0.5
				c0.2,0.3,0.3,0.5,0.4,0.9c0.1,0.3,0.1,0.6,0,0.9c0,0.3-0.1,0.5-0.1,0.8c0,0.2-0.1,0.5-0.1,0.7c0,0.2-0.1,0.5-0.1,0.7
				c0,0.2-0.1,0.5-0.1,0.7c0,0.1,0,0.2-0.1,0.4c0,0.1,0,0.1-0.1,0.1c-0.1-0.1-0.2-0.1-0.3-0.2c-0.2-0.2-0.5-0.4-0.7-0.5
				c-0.1-0.1-0.2-0.3-0.1-0.4c0.1-0.2,0.1-0.5,0.1-0.7c0-0.2,0.1-0.4,0.1-0.6c0-0.2,0.1-0.5,0.1-0.7c0-0.2,0.1-0.4,0.1-0.5
				c0-0.2,0-0.3,0-0.5c0-0.2-0.1-0.4-0.2-0.6c-0.1-0.2-0.3-0.3-0.5-0.3c-0.1,0-0.2,0-0.3,0.1c-0.1,0.2-0.2,0.3-0.2,0.5
				c-0.1,0.4-0.2,0.9-0.2,1.3c-0.1,0.4-0.1,0.8-0.2,1.2c0,0,0,0.1,0,0.1c-0.1,0.1-0.1,0-0.2,0c-0.2-0.2-0.5-0.4-0.7-0.6
				c-0.1,0-0.1-0.1-0.2-0.1c-0.1-0.1-0.2-0.2-0.1-0.3c0.1-0.4,0.1-0.8,0.2-1.2c0.1-0.4,0.2-0.9,0.2-1.3c0.1-0.3,0.1-0.6,0.2-0.9
				c0.1-0.4,0.1-0.7,0.2-1.1c0-0.1,0.1-0.1,0.2-0.1c0.1,0.1,0.2,0.1,0.3,0.2c0.2,0.2,0.4,0.3,0.6,0.5c0.1,0.1,0.2,0.2,0.1,0.3
				C108.9,230.9,108.9,231.1,108.9,231.3z"/>
			<path d="M104,226.8c0.3,0,0.5,0.1,0.7,0.2c0.3,0.2,0.5,0.4,0.8,0.6c0.3,0.3,0.5,0.6,0.7,0.9c0.1,0.2,0.3,0.5,0.4,0.8
				c0.1,0.3,0.2,0.6,0.2,1c0,0.2,0,0.5,0,0.7c0,0.3,0,0.5-0.1,0.7c-0.1,0.3-0.2,0.5-0.4,0.8c-0.1,0.2-0.3,0.3-0.5,0.3
				c-0.4,0.1-0.7,0-1-0.2c-0.4-0.2-0.7-0.4-0.9-0.7c-0.2-0.2-0.3-0.4-0.5-0.6c-0.1-0.2-0.2-0.4-0.3-0.7c-0.1-0.3-0.2-0.6-0.3-0.9
				c0-0.2-0.1-0.4-0.1-0.7c0-0.3,0-0.5,0-0.8c0-0.2,0.1-0.5,0.2-0.7c0.1-0.3,0.3-0.5,0.5-0.7C103.7,226.9,103.8,226.8,104,226.8z
				 M104.7,228.1C104.7,228.1,104.7,228.1,104.7,228.1c-0.1,0-0.1,0-0.2,0.1c-0.2,0.1-0.2,0.3-0.3,0.5c-0.1,0.2-0.1,0.4-0.1,0.6
				c-0.1,0.4-0.1,0.7-0.1,1.1c0,0.4,0.1,0.7,0.3,1c0.1,0.1,0.2,0.2,0.4,0.3c0.1,0,0.2,0,0.3-0.1c0.1-0.1,0.2-0.2,0.2-0.4
				c0.1-0.3,0.1-0.5,0.2-0.8c0.1-0.3,0.1-0.7,0.1-1.1c0-0.2-0.1-0.4-0.2-0.6c-0.1-0.2-0.2-0.3-0.4-0.4
				C104.9,228.2,104.8,228.1,104.7,228.1z"/>
			<path class="st13" d="M99.6,230.3c0,0.1-0.1,0.1-0.2,0.1c-0.3,0-0.5-0.1-0.8-0.1c-0.2,0-0.5-0.1-0.7-0.2c-0.7-0.2-1.4-0.5-2-0.8
				c-0.5-0.2-1-0.5-1.4-0.8c-0.3-0.2-0.6-0.4-0.9-0.6c-0.3-0.2-0.6-0.4-0.8-0.6c-0.2-0.1-0.3-0.3-0.5-0.4c-0.1-0.1-0.3-0.2-0.4-0.4
				c-0.2-0.2-0.5-0.4-0.7-0.7c-0.2-0.2-0.4-0.4-0.6-0.6c-0.2-0.2-0.3-0.4-0.5-0.6c-0.2-0.2-0.4-0.5-0.6-0.7
				c-0.2-0.3-0.4-0.5-0.7-0.8c-0.2-0.2-0.3-0.4-0.5-0.6c-0.2-0.3-0.4-0.6-0.6-0.8c-0.1-0.2-0.2-0.3-0.3-0.5
				c-0.1-0.2-0.3-0.5-0.4-0.7c-0.1-0.1-0.2-0.3-0.3-0.5c-0.1-0.2-0.3-0.5-0.4-0.7c-0.1-0.1-0.1-0.3-0.2-0.4
				c-0.1-0.1-0.1-0.2-0.2-0.3c0,0,0-0.1,0-0.1c0,0,0-0.1,0-0.1c0,0,0.1,0,0.1,0c0,0,0.1,0.1,0.1,0.2c0.2,0.3,0.5,0.7,0.7,1
				c0.2,0.3,0.4,0.6,0.7,0.9c0.2,0.3,0.4,0.5,0.6,0.8c0.2,0.2,0.4,0.4,0.6,0.7c0.2,0.2,0.4,0.5,0.6,0.7c0.2,0.2,0.3,0.4,0.5,0.5
				c0.1,0.2,0.3,0.3,0.4,0.5c0.2,0.2,0.4,0.4,0.6,0.6c0.2,0.2,0.3,0.3,0.5,0.5c0.1,0.1,0.3,0.3,0.4,0.4c0.2,0.2,0.3,0.3,0.5,0.5
				c0.2,0.2,0.5,0.4,0.8,0.6c0.2,0.2,0.5,0.4,0.7,0.6c0.2,0.1,0.3,0.3,0.5,0.4c0.4,0.2,0.7,0.5,1.1,0.7c0.3,0.2,0.6,0.4,0.9,0.5
				c0.4,0.2,0.9,0.5,1.3,0.7c0.4,0.2,0.8,0.4,1.3,0.5c0.1,0.1,0.3,0.1,0.4,0.2C99.5,230,99.6,230.2,99.6,230.3z"/>
			<path d="M101,225.2c-0.2-0.2-0.4-0.3-0.6-0.5c-0.2-0.2-0.4-0.3-0.6-0.5c-0.1-0.1-0.2-0.2-0.3-0.2c-0.1-0.1-0.2-0.2-0.2-0.4
				c0-0.2,0.1-0.4,0.1-0.6c0-0.1,0.1-0.1,0.2-0.1c0.2,0.1,0.3,0.3,0.5,0.4c0.2,0.1,0.3,0.3,0.5,0.4c0.2,0.2,0.4,0.3,0.6,0.5
				c0.2,0.1,0.3,0.3,0.5,0.4c0.2,0.2,0.4,0.3,0.6,0.5c0.1,0.1,0.2,0.1,0.2,0.2c0.1,0.1,0.1,0.2,0.1,0.3c0,0.2-0.1,0.3-0.1,0.5
				c0,0.1-0.1,0.1-0.1,0.2c-0.2,0.1-0.3,0.2-0.5,0.3c-0.1,0.1-0.3,0.2-0.4,0.2c-0.1,0.1-0.3,0.1-0.4,0.2c-0.1,0.1-0.3,0.2-0.4,0.2
				c-0.1,0-0.2,0.1-0.3,0.1c0.1,0.1,0.3,0.2,0.4,0.3c0.2,0.2,0.3,0.3,0.5,0.5c0.1,0.1,0.2,0.3,0.4,0.4c0.2,0.2,0.3,0.4,0.4,0.6
				c0.1,0.1,0,0.3,0,0.4c0,0.2-0.1,0.3-0.1,0.5c0,0.1-0.1,0.1-0.2,0.1c-0.1-0.1-0.1-0.2-0.2-0.3c-0.1-0.2-0.3-0.4-0.5-0.6
				c-0.2-0.2-0.3-0.3-0.5-0.5c-0.3-0.2-0.6-0.5-0.9-0.7c-0.3-0.2-0.6-0.3-0.9-0.4c-0.1,0-0.2,0-0.3-0.1c-0.1-0.1-0.1-0.2-0.1-0.3
				c0-0.2,0.1-0.4,0.1-0.7c0-0.1,0.1-0.2,0.2-0.3c0.1-0.1,0.2-0.1,0.3-0.2c0.1-0.1,0.3-0.2,0.4-0.2c0.1-0.1,0.2-0.1,0.3-0.2
				c0.1-0.1,0.3-0.2,0.4-0.2c0.1-0.1,0.3-0.1,0.4-0.2C100.8,225.3,100.9,225.3,101,225.2z"/>
			<path class="st13" d="M100.4,230.4c0-0.2-0.1-0.3-0.2-0.4c-0.2-0.2-0.5-0.5-0.7-0.6c-0.3-0.2-0.6-0.4-0.9-0.7
				c-0.1,0-0.1-0.1-0.2-0.1c0,0-0.1-0.1-0.1-0.1c0,0,0.1-0.1,0.1-0.1c0.2,0,0.4,0.1,0.6,0.1c0.4,0.1,0.7,0.3,1,0.6
				c0.3,0.2,0.5,0.4,0.8,0.7c0.1,0.1,0.2,0.2,0.3,0.3c0.1,0.1,0.1,0.3,0.1,0.5c-0.1,0.4-0.2,0.7-0.5,0.9c-0.2,0.3-0.5,0.4-0.8,0.5
				c-0.1,0-0.2,0-0.2,0c-0.1-0.1-0.1-0.1,0-0.2c0.1-0.1,0.2-0.2,0.3-0.4c0.2-0.2,0.4-0.5,0.5-0.8
				C100.4,230.5,100.4,230.5,100.4,230.4z"/>
			<path class="st3" d="M95.2,223.7c0-0.2,0-0.4,0.1-0.5c0.1-0.1,0.2-0.2,0.4-0.2c0.2,0,0.4,0.1,0.6,0.3c0.1,0.1,0.3,0.2,0.4,0.3
				c0,0,0,0,0,0c0,0.2-0.1,0.5-0.2,0.7c0,0.2-0.2,0.3-0.3,0.3c-0.1,0-0.3,0-0.4,0c-0.3-0.1-0.4-0.3-0.5-0.6
				C95.2,223.9,95.2,223.8,95.2,223.7z"/>
			<path class="st3" d="M83.6,214.5c0-0.1,0-0.3,0.1-0.4c0.1-0.2,0.3-0.2,0.5-0.2c0.3,0.1,0.6,0.3,0.8,0.5c0.1,0.1,0.1,0.1,0.1,0.2
				c0,0.2-0.1,0.4-0.1,0.6c-0.1,0.2-0.2,0.3-0.4,0.4c-0.2,0-0.3,0-0.4-0.1C83.8,215.2,83.6,214.9,83.6,214.5
				C83.6,214.5,83.6,214.5,83.6,214.5z"/>
			<path class="st3" d="M104.7,228.1c0.1,0,0.3,0.1,0.4,0.2c0.1,0.1,0.3,0.3,0.4,0.4c0.1,0.2,0.1,0.4,0.2,0.6c0,0.4,0,0.7-0.1,1.1
				c0,0.3-0.1,0.6-0.2,0.8c0,0.1-0.1,0.3-0.2,0.4c-0.1,0.1-0.2,0.1-0.3,0.1c-0.2-0.1-0.3-0.2-0.4-0.3c-0.2-0.3-0.3-0.6-0.3-1
				c0-0.4,0-0.7,0.1-1.1c0-0.2,0.1-0.4,0.1-0.6c0.1-0.2,0.1-0.4,0.3-0.5C104.5,228.2,104.6,228.1,104.7,228.1
				C104.7,228.1,104.7,228.1,104.7,228.1z"/>
		</g>
	</g>
</g>
</svg>
