<?xml version="1.0" encoding="utf-8"?>
<!-- Generator: Adobe Illustrator 21.0.2, SVG Export Plug-In . SVG Version: 6.00 Build 0)  -->
<svg version="1.1" id="Calque_1" xmlns="http://www.w3.org/2000/svg" xmlns:xlink="http://www.w3.org/1999/xlink" x="0px" y="0px"
	 viewBox="0 0 413 361" style="enable-background:new 0 0 413 361;" xml:space="preserve">
<style type="text/css">
	.st0{opacity:0.54;fill:#D0E6F2;enable-background:new    ;}
	.st1{fill:#FFFFFF;stroke:#C6DEEC;stroke-linecap:round;stroke-linejoin:round;stroke-miterlimit:10;}
	.st2{fill:#EEF6F9;stroke:#C6DEEC;stroke-linecap:round;stroke-linejoin:round;stroke-miterlimit:10;}
	.st3{fill:#009EE6;}
	.st4{fill:#31BC36;}
	.st5{fill:#3ADA4B;}
	.st6{enable-background:new    ;}
	.st7{fill:#FFFFFF;}
	.st8{fill:none;stroke:#FFFFFF;stroke-miterlimit:10;}
	.st9{fill:#C81888;}
	.st10{fill:#E30F94;}
	.st11{fill:#BD0414;}
	.st12{fill:#DE0B20;}
	.st13{fill:#2DB3EB;stroke:#7BC6EA;stroke-linecap:round;stroke-linejoin:round;stroke-miterlimit:10;}
	.st14{fill:#269EE5;stroke:#7BC6EA;stroke-linecap:round;stroke-linejoin:round;stroke-miterlimit:10;}
	.st15{fill:#269EE5;stroke:#C7DEEC;stroke-miterlimit:10;}
	
		.st16{opacity:0.8;fill:none;stroke:#FFFFFF;stroke-width:4;stroke-linecap:round;stroke-linejoin:round;stroke-miterlimit:10;enable-background:new    ;}
	.st17{opacity:0.4;fill:none;stroke:#4BB8EB;stroke-miterlimit:10;enable-background:new    ;}
	.st18{fill:#269EE5;stroke:#C6DEEC;stroke-linecap:round;stroke-linejoin:round;stroke-miterlimit:10;}
	.st19{fill:#2DB3EB;stroke:#C6DEEC;stroke-linecap:round;stroke-linejoin:round;stroke-miterlimit:10;}
	.st20{opacity:0.2;fill:#CCE2EE;enable-background:new    ;}
	.st21{fill:#FFFFFF;stroke:#C6DEEC;stroke-width:0.75;stroke-linecap:round;stroke-linejoin:round;stroke-miterlimit:10;}
	.st22{opacity:0.4;fill:#CCE2EE;enable-background:new    ;}
	.st23{fill:#EFF6FA;stroke:#C6DEEC;stroke-width:0.75;stroke-linecap:round;stroke-linejoin:round;stroke-miterlimit:10;}
	.st24{fill:none;stroke:#009EE6;stroke-linecap:round;stroke-miterlimit:10;}
</style>
<g id="manette_1_">
	<g id="boite3">
		<path class="st0" d="M156.1,17.3l64.8,49.8l-47.5,35.5l-64.8-49.8L156.1,17.3z"/>
		<path class="st1" d="M156.3,1.3l64.8,49.8l-48.2,34.6L108,35.9L156.3,1.3z"/>
		<path class="st2" d="M221.1,51.1l-48.2,34.5V100l48.2-35.6V51.1z"/>
		<path class="st1" d="M108,35.9l64.8,49.8V100L108,49.4V35.9z"/>
	</g>
	<g id="manette">
		<path class="st3" d="M163.8,31.6l-6.5,4.7l-3.7-2.8c-0.3-0.2-0.8-0.2-1.1,0s-0.3,0.6,0,0.8l3.7,2.8l-6.5,4.7c-3,2.1-3,5.7-0.1,7.9
			l5.3,4l3.2,2.4l2.6,2c1.5,1.1,3.8,1.2,5.3,0.1l0.9-0.6c1.1-0.8,1.4-2,0.8-3.1l-1.5-2.8c-0.4-0.6-0.2-1.4,0.5-1.8l7.5-5.4
			c0.7-0.5,1.6-0.6,2.5-0.3l3.7,1.2c1.4,0.5,3.1,0.3,4.2-0.5l0.9-0.6c1.5-1.1,1.5-2.8,0.1-4l-2.6-2l-3.2-2.4l-5.3-4
			C171.5,29.5,166.7,29.4,163.8,31.6z M178.6,36.5l3.2,2.4l2.6,2c0.9,0.7,0.9,1.7,0,2.4l-0.9,0.6c-0.7,0.5-1.6,0.6-2.5,0.3l-3.7-1.2
			c-1.4-0.5-3-0.3-4.2,0.5l-7.5,5.4c-1.1,0.8-1.4,2-0.8,3.1l1.5,2.8c0.4,0.6,0.2,1.4-0.5,1.8l-0.9,0.6c-0.9,0.6-2.3,0.6-3.2,0
			l-2.6-2l-3.2-2.4l-5.3-4c-2.3-1.8-2.3-4.6,0.1-6.3l14-10.1c2.4-1.7,6.2-1.7,8.5,0.1L178.6,36.5z"/>
		<path class="st3" d="M158.8,44.6l-1.6,1.2l-1.6-1.2c-0.3-0.2-0.8-0.2-1.1,0s-0.3,0.6,0,0.8l1.6,1.2l-1.6,1.2
			c-0.3,0.2-0.3,0.6,0,0.8c0.3,0.2,0.8,0.2,1.1,0l1.6-1.2l1.6,1.2c0.3,0.2,0.8,0.2,1.1,0s0.3-0.6,0-0.8l-1.6-1.2l1.6-1.2
			c0.3-0.2,0.3-0.6,0-0.8C159.6,44.4,159.1,44.4,158.8,44.6z"/>
		<path class="st3" d="M168.5,35.2c-0.9-0.7-2.3-0.7-3.2,0c-0.9,0.6-0.9,1.7,0,2.4c0.9,0.7,2.3,0.7,3.2,0S169.4,35.9,168.5,35.2z
			 M167.4,36.8c-0.3,0.2-0.8,0.2-1.1,0s-0.3-0.6,0-0.8c0.3-0.2,0.8-0.2,1.1,0S167.7,36.6,167.4,36.8z"/>
		<path class="st3" d="M171.7,36.8c-0.9,0.6-0.9,1.7,0,2.4c0.9,0.7,2.3,0.7,3.2,0c0.9-0.6,0.9-1.7,0-2.4
			C174,36.2,172.6,36.2,171.7,36.8z M173.8,38.5c-0.3,0.2-0.8,0.2-1.1,0s-0.3-0.6,0-0.8c0.3-0.2,0.8-0.2,1.1,0
			C174.1,37.9,174.1,38.2,173.8,38.5z"/>
		<path class="st3" d="M165.2,44.7l-1.1,0.8c-0.3,0.2-0.3,0.6,0,0.8c0.3,0.2,0.8,0.2,1.1,0l1.1-0.8c0.3-0.2,0.3-0.6,0-0.8
			C166,44.5,165.5,44.5,165.2,44.7z"/>
		<path class="st3" d="M168.4,42.3l-1.1,0.8c-0.3,0.2-0.3,0.6,0,0.8c0.3,0.2,0.8,0.2,1.1,0l1.1-0.8c0.3-0.2,0.3-0.6,0-0.8
			S168.7,42.1,168.4,42.3z"/>
	</g>
	<g id="_x33_">
		<path class="st4" d="M143.3,29.4v4l-15.1,10.9v-3.7L143.3,29.4z"/>
		<polygon class="st4" points="128.3,40.6 111.8,27.7 111.8,30.1 111.7,32.6 112.8,31.9 128.3,44.3 		"/>
		<path class="st5" d="M126.8,16.5l-15.1,11.2l16.5,12.9l15.1-11.2L126.8,16.5z"/>
		<g class="st6">
			<path class="st7" d="M127.2,25.5c1.1,0.8,1.1,1.8,0.3,2.8c1.2-0.7,2.7-0.9,4,0.1c1.5,1.1,1.5,2.8-0.5,4.3c-1.2,0.9-2.5,1.3-4,1.2
				l0.1-1.4c1.1,0,1.9-0.2,2.6-0.7c0.9-0.7,1-1.5,0.1-2.2c-1-0.8-1.9-0.6-2.9,0.1l-0.7,0.5l-1-1l0.5-0.3c0.8-0.6,0.9-1.4,0.1-2
				c-0.7-0.5-1.6-0.5-2.4,0.1c-0.7,0.5-0.9,1.1-1,1.9l-1.7-0.1c0-1.1,0.6-2.1,1.6-2.8C124.1,24.6,126,24.6,127.2,25.5z"/>
		</g>
	</g>
	<line class="st8" x1="111.8" y1="27.7" x2="128.3" y2="40.6"/>
	<line class="st8" x1="128.3" y1="44.3" x2="128.3" y2="40.5"/>
	<line class="st8" x1="143.3" y1="29.4" x2="128.3" y2="40.5"/>
</g>
<g id="calvier">
	<g id="boite1">
		<path class="st0" d="M102.5,55.6l64.8,49.8l-47.5,35.5L55,91.1L102.5,55.6z"/>
		<path class="st1" d="M102.8,39.6l64.8,49.8L119.4,124L54.6,74.2L102.8,39.6z"/>
		<path class="st2" d="M167.6,89.4L119.4,124v14.2l48.2-35.5L167.6,89.4L167.6,89.4z"/>
		<path class="st1" d="M54.5,74.2l64.8,49.8v14.2L54.5,87.5V74.2z"/>
	</g>
	<g id="clavier">
		<path class="st3" d="M115.2,68.1l-9.4,6.7l-1.4-1.1c-0.3-0.2-0.3-0.5,0-0.7l1-0.7c0.8-0.6,0.8-1.6,0.1-2.2l-2.8-2.3
			c-0.3-0.2-0.7-0.2-1,0s-0.3,0.5,0,0.7l2.8,2.3c0.3,0.2,0.3,0.5,0,0.7l-1,0.7c-0.8,0.6-0.8,1.6-0.1,2.2l1.4,1.1l-10.4,7.4
			c-0.8,0.6-0.8,1.6-0.1,2.2l12.3,9.8c0.8,0.6,2.1,0.7,2.9,0.1l20.7-14.8c0.8-0.6,0.8-1.6,0.1-2.2L118,68.2
			C117.3,67.6,116,67.6,115.2,68.1z M129.4,78.8c0.3,0.2,0.3,0.5,0,0.7l-20.7,14.8c-0.3,0.2-0.7,0.2-1,0l-12.3-9.8
			c-0.3-0.2-0.3-0.5,0-0.7L116.1,69c0.3-0.2,0.7-0.2,1,0L129.4,78.8z"/>
		<path class="st3" d="M102.2,83.2l-2,1.4c-0.3,0.2-0.3,0.5,0,0.7l1.9,1.5c0.3,0.2,0.7,0.2,1,0l2-1.4c0.3-0.2,0.3-0.5,0-0.7
			l-1.9-1.5C102.9,83,102.5,83,102.2,83.2z M103.6,85l-1,0.7l-0.9-0.8l1-0.7L103.6,85z"/>
		<path class="st3" d="M108,83.3l2-1.4c0.3-0.2,0.3-0.5,0-0.7l-1.9-1.5c-0.3-0.2-0.7-0.2-1,0l-2,1.4c-0.3,0.2-0.3,0.5,0,0.7l1.9,1.5
			C107.3,83.5,107.8,83.5,108,83.3z M106.6,81.5l1-0.7l0.9,0.8l-1,0.7L106.6,81.5z"/>
		<path class="st3" d="M112.1,76.1l-2,1.4c-0.3,0.2-0.3,0.5,0,0.7l1.9,1.5c0.3,0.2,0.7,0.2,1,0l2-1.4c0.3-0.2,0.3-0.5,0-0.7
			l-1.9-1.5C112.8,75.9,112.4,75.9,112.1,76.1z M113.5,78l-1,0.7l-0.9-0.8l1-0.7L113.5,78z"/>
		<path class="st3" d="M117,72.6l-2,1.4c-0.3,0.2-0.3,0.5,0,0.7l1.9,1.5c0.3,0.2,0.7,0.2,1,0l2-1.4c0.3-0.2,0.3-0.5,0-0.7l-1.9-1.5
			C117.7,72.4,117.3,72.4,117,72.6z M118.4,74.4l-1,0.7l-0.9-0.8l1-0.7L118.4,74.4z"/>
		<path class="st3" d="M107,86.9l-2,1.4c-0.3,0.2-0.3,0.5,0,0.7l1.9,1.5c0.3,0.2,0.7,0.2,1,0l2-1.4c0.3-0.2,0.3-0.5,0-0.7l-1.9-1.5
			C107.7,86.8,107.2,86.8,107,86.9z M108.4,88.8l-1,0.7l-0.9-0.8l1-0.7L108.4,88.8z"/>
		<path class="st3" d="M116.8,79.9l-6.9,4.9c-0.3,0.2-0.3,0.5,0,0.7l1.9,1.5c0.3,0.2,0.7,0.2,1,0l6.9-4.9c0.3-0.2,0.3-0.5,0-0.7
			l-1.9-1.5C117.5,79.7,117.1,79.7,116.8,79.9z M118.2,81.8l-5.9,4.2l-0.9-0.8l5.9-4.2L118.2,81.8z"/>
		<path class="st3" d="M121.8,76.4l-2,1.4c-0.3,0.2-0.3,0.5,0,0.7l1.9,1.5c0.3,0.2,0.7,0.2,1,0l2-1.4c0.3-0.2,0.3-0.5,0-0.7
			l-1.9-1.5C122.5,76.2,122,76.2,121.8,76.4z M123.2,78.2l-1,0.7l-0.9-0.8l1-0.7L123.2,78.2z"/>
	</g>
	<g id="_x31_">
		<path class="st9" d="M89.8,68v3.9l-15,11v-3.7L89.8,68z"/>
		<polygon class="st9" points="74.8,83 74.7,79.2 58.2,66.3 58.2,67 58.2,67 58.2,70.9 59.1,70.2 		"/>
		<path class="st10" d="M73.3,55.1L58.2,66.3l16.5,12.9L89.8,68L73.3,55.1z"/>
		<g class="st6">
			<path class="st7" d="M77.7,70.3l-6.9-5.2L70,67.4l-1.8-0.3l1.1-3.4l1.4-1.1l8.6,6.4L77.7,70.3z"/>
		</g>
	</g>
	<line class="st8" x1="58" y1="66.2" x2="74.8" y2="79.3"/>
	<line class="st8" x1="74.8" y1="83" x2="74.8" y2="79.3"/>
	<line class="st8" x1="90.1" y1="67.9" x2="74.8" y2="79.3"/>
</g>
<g id="gamebay">
	<g id="boite5">
		<path class="st0" d="M50,94.9l64.8,49.8l-47.5,35.5L2.5,130.4L50,94.9z"/>
		<path class="st1" d="M50.2,78.9l64.8,49.8l-48.2,34.6L2,113.4L50.2,78.9z"/>
		<path class="st2" d="M115.1,128.6l-48.3,34.6v14.1l48.3-35.5V128.6z"/>
		<path class="st1" d="M2,113.4l64.8,49.8v14.1L2,127V113.4z"/>
	</g>
	<g id="GB">
		<path class="st3" d="M53.8,105l-14.3,10.4c-1.4,1-1.4,2.7,0,3.8l20.4,15.4c1.4,1.1,3.7,1.1,5.1,0.1l14.3-10.4c1.4-1,1.4-2.7,0-3.8
			L58.9,105C57.5,104,55.2,103.9,53.8,105z M78.3,121.2c0.8,0.6,0.8,1.7,0,2.3L64,133.8c-0.8,0.6-2.2,0.6-3.1,0l-20.4-15.4
			c-0.8-0.6-0.8-1.7,0-2.3l14.3-10.4c0.8-0.6,2.2-0.6,3.1,0L78.3,121.2z"/>
		<path class="st3" d="M55.3,108.4l-11.2,8.1c-0.6,0.4-0.6,1.1,0,1.5l8.2,6.2c0.6,0.4,1.5,0.4,2,0l11.2-8.1c0.6-0.4,0.6-1.1,0-1.5
			l-8.2-6.2C56.8,108,55.9,108,55.3,108.4z M64.5,115.3l-11.2,8.1l-8.2-6.2l11.2-8.1L64.5,115.3z"/>
		<path class="st3" d="M63,125.5l-1.5,1.1l-1.5-1.2c-0.3-0.2-0.7-0.2-1,0s-0.3,0.5,0,0.8l1.5,1.2l-1.5,1.1c-0.3,0.2-0.3,0.5,0,0.8
			s0.7,0.2,1,0l1.5-1.1l1.5,1.2c0.3,0.2,0.7,0.2,1,0s0.3-0.5,0-0.8l-1.5-1.2l1.5-1.1c0.3-0.2,0.3-0.5,0-0.8S63.3,125.3,63,125.5z"/>
		<path class="st3" d="M68.6,122.9c-0.6,0.4-0.6,1.1,0,1.5s1.5,0.4,2,0c0.6-0.4,0.6-1.1,0-1.5C70.1,122.5,69.2,122.5,68.6,122.9z"/>
		<path class="st3" d="M68.6,118.4c-0.6,0.4-0.6,1.1,0,1.5s1.5,0.4,2,0s0.6-1.1,0-1.5C70.1,118,69.2,118,68.6,118.4z"/>
	</g>
	<g id="_x35_">
		<path class="st11" d="M38.3,106.6v4l-15.1,11v-3.8L38.3,106.6z"/>
		<polygon class="st11" points="23.2,117.8 6.7,104.9 6.6,109.5 7.6,108.8 23.2,121.6 		"/>
		<path class="st12" d="M21.7,93.7L6.6,104.9l16.5,12.9l15.1-11.2L21.7,93.7z"/>
	</g>
	<g class="st6">
		<path class="st7" d="M18.2,104.8l2.1,1.6c0.2-0.5,0.6-0.9,1-1.2c1.4-1.1,3.5-1.1,5.2,0.2c1.8,1.3,1.7,3.2-0.2,4.6
			c-1.2,0.9-2.5,1.2-3.9,1.1l0.1-1.4c1,0.1,1.8-0.1,2.5-0.7c1-0.7,0.9-1.6-0.2-2.5c-1.2-0.9-2.2-0.8-3-0.2c-0.4,0.3-0.6,0.6-0.8,1.1
			l-1.2,0.9l-4.5-3.4l5-3.7l1,1.1L18.2,104.8z"/>
	</g>
	<line class="st8" x1="6.5" y1="104.8" x2="23.1" y2="117.7"/>
	<line class="st8" x1="23" y1="121.7" x2="23.1" y2="117.7"/>
	<line class="st8" x1="38.2" y1="106.5" x2="23.1" y2="117.7"/>
</g>
<g id="presse_1_">
	<g id="presse">
		<path class="st13" d="M180,98.8l-51.9,36.8v13.7L180,112V98.8z"/>
		<path class="st13" d="M120.8,130.3l7.3,5.3v13.7l-7.1-5.4L120.8,130.3z"/>
		<path class="st14" d="M172.3,93.8l7.7,5l-51.9,36.8l-7.3-5.3L172.3,93.8z"/>
	</g>
	<path class="st15" d="M150.8,122.9c1.7,0,3.2,1.6,3.2,3.5s-1.3,3.5-3.1,3.5c-1.7,0-3.2-1.6-3.2-3.5
		C147.7,124.4,149.1,122.9,150.8,122.9z"/>
	<path class="st15" d="M158.8,116.4c1.7,0,3.2,1.6,3.2,3.5s-1.3,3.5-3.1,3.5c-1.7,0-3.2-1.6-3.2-3.5S157.1,116.4,158.8,116.4z"/>
</g>
<g id="tuyau2_1_">
	<g id="tuyau_1_">
		<g id="_x32__1_">
			<line class="st16" x1="151.1" y1="126.5" x2="210" y2="165.7"/>
			<path class="st17" d="M210,167.7c-0.4,0-0.8-0.1-1.1-0.3L150,128.1c-0.9-0.6-1.2-1.9-0.6-2.8c0.6-0.9,1.9-1.2,2.8-0.6l58.9,39.2
				c0.9,0.6,1.2,1.9,0.6,2.8C211.3,167.4,210.6,167.7,210,167.7z"/>
		</g>
		<g id="_x31__1_">
			<line class="st16" x1="159.1" y1="119.9" x2="218" y2="159.1"/>
			<path class="st17" d="M218,161.1c-0.4,0-0.8-0.1-1.1-0.3L158,121.6c-0.9-0.6-1.2-1.9-0.6-2.8c0.6-0.9,1.9-1.2,2.8-0.6l58.9,39.2
				c0.9,0.6,1.2,1.9,0.6,2.8C219.3,160.8,218.6,161.1,218,161.1z"/>
		</g>
	</g>
</g>
<g id="beezup">
	<g id="boite-beezup">
		<path id="shade" class="st0" d="M235.5,124.2l64.5,49l-104,76.6l-64.5-49L235.5,124.2z"/>
		<path class="st18" d="M300.8,152.6l-104.9,76.6v17.3l104.9-76.6V152.6z"/>
		<path class="st19" d="M132.1,181.1l63.7,48.1v17.3l-63.7-49.2V181.1z"/>
		<path class="st18" d="M237.1,104.5l63.7,48.1l-104.9,76.6l-63.7-48.1L237.1,104.5z"/>
		<path class="st15" d="M247.6,197.1c1.7,0,3.2,1.6,3.2,3.5s-1.3,3.5-3.1,3.5c-1.7,0-3.2-1.6-3.2-3.5
			C244.5,198.6,245.9,197.1,247.6,197.1z"/>
		<path class="st15" d="M255.6,190.6c1.7,0,3.2,1.6,3.2,3.5s-1.3,3.5-3.1,3.5c-1.7,0-3.2-1.6-3.2-3.5
			C252.5,192.2,253.9,190.6,255.6,190.6z"/>
	</g>
	<g id="logo">
		<path class="st7" d="M240.7,137.7c-3.5,0.9-9.5,7.6-13.5,14.9c-3.9,7.4-4.3,12.6-0.8,11.7c1-0.2,2,0.6,3.3-0.4
			c-3.4,0.8-3.2-5.3,0.2-11.7c3.5-6.5,9.1-12.5,12.6-13.4c0.1,0,0.3-0.1,0.4-0.1C242.6,137.8,241.9,137.4,240.7,137.7z"/>
		<path class="st7" d="M222.3,155.7c-1.4-0.3-2.9-0.7-4.4-1.1c-10.1-2.8-17.3-6.9-16.2-9.3c0.9-1.9,6.8-2,14.3-0.6
			c1.5,1.9,4.9,4.2,9.4,6.4c-3-2-4.8-3.9-5.2-5.4c0.6,0.2,1.3,0.3,1.9,0.5c1.6,0.4,3.1,0.9,4.6,1.4c-1.9-0.9-4.1-1.8-6.5-2.6
			c0-0.3,0.1-0.5,0.3-0.8c1.2-1.6,5.4-1.8,10.8-0.7c-7.8-2.6-14.6-3.2-15.9-1.4c-0.3,0.4-0.3,0.9-0.1,1.4c-9.4-2.3-17.7-2.2-19,0.3
			c-1.4,2.7,5.7,7.2,15.8,9.9C215.7,154.8,219.2,155.4,222.3,155.7z"/>
		<path class="st7" d="M200.4,196.9c1.2-2,0.9-3.7-0.9-5c-2.4-1.8-5.1-1.6-8.1,0.6l-7.3,5.4l15.6,11.6l7.1-5.3
			c3.3-2.4,3.3-4.8,0.3-7.1C205.1,195.8,202.8,195.7,200.4,196.9z M204.1,202.5l-4.1,3l-10.6-7.9l4.2-3.1c1.1-0.8,2.1-0.9,2.9-0.2
			c1.6,1.2,1.4,2.8-0.6,4.9l1.9,1.4l0.9-0.6c1.9-1.4,3.7-1.5,5.3-0.3C205.4,200.6,205.4,201.6,204.1,202.5z"/>
		<path class="st7" d="M207.3,186.9c-3.8,2.8-3.8,5.6-0.1,8.4c3.9,2.9,7.9,2.8,12.1-0.3c1.6-1.2,2.8-2.2,3.6-3.1l-2.3-1.7
			c-0.9,1-2,2-3.1,2.8c-2.5,1.9-4.5,2.2-6.1,1.1l7.5-5.6C214.9,184.6,211.1,184.1,207.3,186.9z M214,189l-4.8,3.6
			c-1.5-1.3-1.5-2.5,0-3.7C210.8,187.6,212.4,187.7,214,189z"/>
		<path class="st7" d="M219.1,178.1c-3.8,2.8-3.8,5.6-0.1,8.4c3.9,2.9,7.9,2.8,12.1-0.3c1.6-1.2,2.8-2.2,3.6-3.1l-2.3-1.7
			c-0.9,1-2,2-3.1,2.8c-2.5,1.9-4.5,2.2-6.1,1.1l7.5-5.6C226.8,175.8,222.9,175.3,219.1,178.1z M225.8,180.2l-4.8,3.6
			c-1.5-1.3-1.5-2.5,0-3.7C222.7,178.8,224.3,178.9,225.8,180.2z"/>
		<path class="st7" d="M228.2,174.8l5.7-4.3l1,9.6l2.2,1.6l8.8-6.6l-2.2-1.6l-5.6,4.2l-1.1-9.5l-2.3-1.7l-8.8,6.6L228.2,174.8z"/>
		<path class="st7" d="M242.4,168.7l-9.5-7l2.9-2.1l9.5,7c2.5,1.8,5,1.8,7.5-0.1c2.5-1.9,2.6-3.8,0.1-5.6l-9.5-7l2.9-2.1l9.5,7
			c4.2,3.1,4,6.3-0.5,9.6C250.8,171.7,246.5,171.8,242.4,168.7z"/>
		<path class="st7" d="M265.2,160.9l-15.6-11.6l7.3-5.4c3-2.2,5.8-2.3,8.4-0.4c3.1,2.3,2.8,5.3-0.8,9l-3-1.6
			c2.1-2.2,2.3-3.9,0.8-5.1c-1-0.7-2-0.7-3.1,0.1L255,149l13.1,9.7L265.2,160.9z"/>
	</g>
</g>
<g id="tuyau1">
	<g id="tuyau">
		<g id="_x32_">
			<line class="st16" x1="248.3" y1="200.7" x2="307.2" y2="240"/>
			<path class="st17" d="M307.2,242c-0.4,0-0.8-0.1-1.1-0.3l-58.9-39.2c-0.9-0.6-1.2-1.9-0.6-2.8c0.6-0.9,1.9-1.2,2.8-0.6l58.9,39.2
				c0.9,0.6,1.2,1.9,0.6,2.8C308.5,241.7,307.9,242,307.2,242z"/>
		</g>
		<g id="_x31__2_">
			<line class="st16" x1="256.3" y1="194.2" x2="315.2" y2="233.4"/>
			<path class="st17" d="M315.2,235.4c-0.4,0-0.8-0.1-1.1-0.3l-58.9-39.2c-0.9-0.6-1.2-1.9-0.6-2.8c0.6-0.9,1.9-1.2,2.8-0.6
				l58.9,39.2c0.9,0.6,1.2,1.9,0.6,2.8C316.5,235.1,315.9,235.4,315.2,235.4z"/>
		</g>
	</g>
</g>
<g id="etagère_1_">
	<path id="shade_2_" class="st20" d="M367.2,225.9l40.8,32.8l-135.2,95.6L232,321.5L367.2,225.9z"/>
	<path id="bas" class="st21" d="M367.2,199.9l40.8,32.8l-135.2,95.6L232,295.4L367.2,199.9z"/>
	<path id="shade_1_" class="st22" d="M360.1,193.9l40.8,32.8l-128.1,89.6l-33.1-26.5l9.5-6.8l-6.8-6.2L360.1,193.9z"/>
	<path id="cote-bas-long" class="st23" d="M407.3,231.8l-134.5,95.6l-0.2,4.2l134.5-95.5L407.3,231.8z"/>
	<path id="cote-bas" class="st21" d="M232.8,294.6l40.8,32.8l-0.2,4.2l-40.8-32.7L232.8,294.6z"/>
	<path id="poteau-haute" class="st21" d="M360.1,237.6v-82l7-5.7v82L360.1,237.6z M363.1,234l1-0.8V232l-1,0.8V234z M364.1,155.8
		l-1,0.8v1.2l1-0.8V155.8z M364.1,160l-1,0.8v1.2l1-0.8V160z M364.1,164.3l-1,0.8v1.2l1-0.8V164.3z M363.1,169.3v1.2l1-0.8v-1.2
		L363.1,169.3z M364.1,172.7l-1,0.8v1.2l1-0.8V172.7z M364.1,177l-1,0.8v1.2l1-0.8V177z M363.1,182v1.2l1-0.8v-1.2L363.1,182z
		 M364.1,185.4l-1,0.8v1.2l1-0.8V185.4z M364.1,189.7l-1,0.8v1.2l1-0.8V189.7z M363.1,194.7v1.2l1-0.8v-1.2L363.1,194.7z
		 M364.1,198.2l-1,0.8v1.2l1-0.8V198.2z M364.1,202.4l-1,0.8v1.2l1-0.8V202.4z M363.1,207.4v1.2l1-0.8v-1.2L363.1,207.4z
		 M364.1,210.9l-1,0.8v1.2l1-0.8V210.9z M364.1,215.1l-1,0.8v1.2l1-0.8V215.1z M363.1,220.1v1.2l1-0.8v-1.2L363.1,220.1z
		 M364.1,223.6l-1,0.8v1.2l1-0.8V223.6z M364.1,227.8l-1,0.8v1.2l1-0.8V227.8z"/>
	<path id="poteau-haut" class="st21" d="M367.1,232v-82l6.7,5.7v82L367.1,232z M370,233.3l0.9,0.8v-1.2l-0.9-0.8V233.3z
		 M370.9,156.7l-0.9-0.8v1.2l0.9,0.8V156.7z M371,160.9l-1-0.8v1.2l1,0.8V160.9z M371,165.1l-1-0.8v1.2l1,0.8V165.1z M370,168.6v1.2
		l0.9,0.8v-1.2L370,168.6z M371,173.6l-1-0.8v1.2l1,0.8V173.6z M371,177.8l-1-0.8v1.2l1,0.8V177.8z M370,181.3v1.2l0.9,0.8v-1.2
		L370,181.3z M371,186.3l-1-0.8v1.2l1,0.8V186.3z M371,190.6l-1-0.8v1.2l1,0.8V190.6z M370,194v1.2l0.9,0.8v-1.2L370,194z M371,199
		l-1-0.8v1.2l1,0.8V199z M371,203.3l-1-0.8v1.2l1,0.8V203.3z M370,206.7v1.2l0.9,0.8v-1.2L370,206.7z M371,211.7l-1-0.8v1.2l1,0.8
		V211.7z M371,216l-1-0.8v1.2l1,0.8V216z M370,219.4v1.2l0.9,0.8v-1.2L370,219.4z M371,224.4l-1-0.8v1.2l1,0.8V224.4z M371,228.7
		l-1-0.8v1.2l1,0.8V228.7z"/>
	<path id="haut1" class="st21" d="M367.2,176.9l40.8,32.8l-135.2,95.6L232,272.4L367.2,176.9z"/>
	<path id="haut2" class="st23" d="M407.3,208.8l-134.5,95.6l-0.2,4.2l134.5-95.5L407.3,208.8z"/>
	<path id="cote-haut" class="st21" d="M232.8,271.6l40.8,32.8l-0.2,4.2l-40.8-32.7L232.8,271.6z"/>
	<path id="poteau-gauche_1_" class="st21" d="M232.1,322.6v-82l7-5.7v82L232.1,322.6z M235.1,319l1-0.8V317l-1,0.8V319z
		 M236.1,240.8l-1,0.8v1.2l1-0.8V240.8z M236.1,245l-1,0.8v1.2l1-0.8V245z M236.1,249.3l-1,0.8v1.2l1-0.8V249.3z M235.1,254.3v1.2
		l1-0.8v-1.2L235.1,254.3z M236.1,257.7l-1,0.8v1.2l1-0.8V257.7z M236.1,262l-1,0.8v1.2l1-0.8V262z M235.1,267v1.2l1-0.8v-1.2
		L235.1,267z M236.1,270.4l-1,0.8v1.2l1-0.8V270.4z M236.1,274.7l-1,0.8v1.2l1-0.8V274.7z M235.1,279.7v1.2l1-0.8v-1.2L235.1,279.7z
		 M236.1,283.2l-1,0.8v1.2l1-0.8V283.2z M236.1,287.4l-1,0.8v1.2l1-0.8V287.4z M235.1,292.4v1.2l1-0.8v-1.2L235.1,292.4z
		 M236.1,295.9l-1,0.8v1.2l1-0.8V295.9z M236.1,300.1l-1,0.8v1.2l1-0.8V300.1z M235.1,305.1v1.2l1-0.8v-1.2L235.1,305.1z
		 M236.1,308.6l-1,0.8v1.2l1-0.8V308.6z M236.1,312.8l-1,0.8v1.2l1-0.8V312.8z"/>
	<path id="poteau-gauche" class="st21" d="M232.2,323v-82l6.7,5.7v82L232.2,323z M235.1,324.3l0.9,0.8v-1.2l-0.9-0.8V324.3z
		 M236.1,247.7l-0.9-0.8v1.2l0.9,0.8V247.7z M236.1,251.9l-1-0.8v1.2l1,0.8V251.9z M236.1,256.1l-1-0.8v1.2l1,0.8V256.1z
		 M235.1,259.6v1.2l0.9,0.8v-1.2L235.1,259.6z M236.1,264.6l-1-0.8v1.2l1,0.8V264.6z M236.1,268.8l-1-0.8v1.2l1,0.8V268.8z
		 M235.1,272.3v1.2l0.9,0.8v-1.2L235.1,272.3z M236.1,277.3l-1-0.8v1.2l1,0.8V277.3z M236.1,281.6l-1-0.8v1.2l1,0.8V281.6z
		 M235.1,285v1.2l0.9,0.8v-1.2L235.1,285z M236.1,290l-1-0.8v1.2l1,0.8V290z M236.1,294.3l-1-0.8v1.2l1,0.8V294.3z M235.1,297.7v1.2
		l0.9,0.8v-1.2L235.1,297.7z M236.1,302.7l-1-0.8v1.2l1,0.8V302.7z M236.1,307l-1-0.8v1.2l1,0.8V307z M235.1,310.4v1.2l0.9,0.8v-1.2
		L235.1,310.4z M236.1,315.4l-1-0.8v1.2l1,0.8V315.4z M236.1,319.7l-1-0.8v1.2l1,0.8V319.7z"/>
	<path id="poteau-droite" class="st21" d="M402.2,259v-82l6.7,5.7v82L402.2,259z M405.1,260.3l0.9,0.8v-1.2l-0.9-0.8V260.3z
		 M406.1,183.7l-0.9-0.8v1.2l0.9,0.8V183.7z M406.1,187.9l-1-0.8v1.2l1,0.8V187.9z M406.1,192.1l-1-0.8v1.2l1,0.8V192.1z
		 M405.1,195.6v1.2l0.9,0.8v-1.2L405.1,195.6z M406.1,200.6l-1-0.8v1.2l1,0.8V200.6z M406.1,204.8l-1-0.8v1.2l1,0.8V204.8z
		 M405.1,208.3v1.2l0.9,0.8v-1.2L405.1,208.3z M406.1,213.3l-1-0.8v1.2l1,0.8V213.3z M406.1,217.6l-1-0.8v1.2l1,0.8V217.6z
		 M405.1,221v1.2l0.9,0.8v-1.2L405.1,221z M406.1,226l-1-0.8v1.2l1,0.8V226z M406.1,230.3l-1-0.8v1.2l1,0.8V230.3z M405.1,233.7v1.2
		l0.9,0.8v-1.2L405.1,233.7z M406.1,238.7l-1-0.8v1.2l1,0.8V238.7z M406.1,243l-1-0.8v1.2l1,0.8V243z M405.1,246.4v1.2l0.9,0.8v-1.2
		L405.1,246.4z M406.1,251.4l-1-0.8v1.2l1,0.8V251.4z M406.1,255.7l-1-0.8v1.2l1,0.8V255.7z"/>
	<path id="poteau-droite_1_" class="st21" d="M402.2,270.3v-82l7-5.7v82L402.2,270.3z M405.2,266.7l1-0.8v-1.2l-1,0.8V266.7z
		 M406.2,188.6l-1,0.8v1.2l1-0.8V188.6z M406.2,192.8l-1,0.8v1.2l1-0.8V192.8z M406.2,197l-1,0.8v1.2l1-0.8V197z M405.2,202.1v1.2
		l1-0.8v-1.2L405.2,202.1z M406.2,205.5l-1,0.8v1.2l1-0.8V205.5z M406.2,209.7l-1,0.8v1.2l1-0.8V209.7z M405.2,214.8v1.2l1-0.8V214
		L405.2,214.8z M406.2,218.2l-1,0.8v1.2l1-0.8V218.2z M406.2,222.4l-1,0.8v1.2l1-0.8V222.4z M405.2,227.5v1.2l1-0.8v-1.2
		L405.2,227.5z M406.2,230.9l-1,0.8v1.2l1-0.8V230.9z M406.2,235.1l-1,0.8v1.2l1-0.8V235.1z M405.2,240.2v1.2l1-0.8v-1.2
		L405.2,240.2z M406.2,243.6l-1,0.8v1.2l1-0.8V243.6z M406.2,247.8l-1,0.8v1.2l1-0.8V247.8z M405.2,252.9v1.2l1-0.8v-1.2
		L405.2,252.9z M406.2,256.3l-1,0.8v1.2l1-0.8V256.3z M406.2,260.5l-1,0.8v1.2l1-0.8V260.5z"/>
	<g id="objet">
		<g id="manette_3_">
			<g id="manette_2_">
				<path class="st3" d="M360.3,197.9l-6.5,4.7l-1.4-0.9c-0.3-0.2-0.8-0.2-1.1,0c-0.3,0.2-0.3,0.6,0,0.8l1.4,0.9l-6.5,4.7
					c-3,2.1-3,5.7-0.1,7.9l5.3,4l3.2,2.4l2.6,2c1.5,1.1,3.8,1.2,5.3,0.1l0.9-0.6c1.1-0.8,1.4-2,0.8-3.1l-1.5-2.8
					c-0.4-0.6-0.2-1.4,0.5-1.8l7.5-5.4c0.7-0.5,1.6-0.6,2.5-0.3l3.7,1.2c1.4,0.5,3.1,0.3,4.2-0.5l0.9-0.6c1.5-1.1,1.5-2.8,0.1-4
					l-2.6-2l-3.2-2.4l-5.3-4C368,195.9,363.3,195.8,360.3,197.9z M375.1,202.9l3.2,2.4l2.6,2c0.9,0.7,0.9,1.7,0,2.4l-0.9,0.6
					c-0.7,0.5-1.6,0.6-2.5,0.3l-3.7-1.2c-1.4-0.5-3-0.3-4.2,0.5l-7.5,5.4c-1.1,0.8-1.4,2-0.8,3.1l1.5,2.8c0.4,0.6,0.2,1.4-0.5,1.8
					l-0.9,0.6c-0.9,0.6-2.3,0.6-3.2,0l-2.6-2l-3.2-2.4l-5.3-4c-2.3-1.8-2.3-4.6,0.1-6.3l14-10.1c2.4-1.7,6.2-1.7,8.5,0.1
					L375.1,202.9z"/>
			</g>
			<g>
				<path class="st7" d="M362.9,199.4c-0.3,0.2-0.3,0.6,0,0.8s0.8,0.2,1.1,0s0.3-0.6,0-0.8C363.6,199.2,363.2,199.2,362.9,199.4z"/>
				<path class="st7" d="M369.2,201.1c-0.3,0.2-0.3,0.6,0,0.8s0.8,0.2,1.1,0c0.3-0.2,0.3-0.6,0-0.8
					C370,200.9,369.5,200.9,369.2,201.1z"/>
				<path class="st7" d="M380.9,204.4l-2.6-2l-3.2-2.4l-5.3-4c-2.3-1.8-6.1-1.8-8.5-0.1l-14,10.1c-2.4,1.7-2.4,4.6-0.1,6.3l5.3,4
					l3.2,2.4l2.6,2c0.9,0.7,2.3,0.7,3.2,0l0.9-0.6c0.7-0.5,0.9-1.2,0.5-1.8l-1.5-2.8c-0.6-1.1-0.3-2.3,0.8-3.1l7.5-5.4
					c1.1-0.8,2.7-1,4.2-0.5l3.7,1.2c0.9,0.3,1.8,0.2,2.5-0.3l0.9-0.6C381.8,206.2,381.8,205.1,380.9,204.4z M356.3,211.2
					c0.3,0.2,0.3,0.6,0,0.8s-0.8,0.2-1.1,0l-1.6-1.2L352,212c-0.3,0.2-0.8,0.2-1.1,0s-0.3-0.6,0-0.8l1.6-1.2l-1.6-1.2
					c-0.3-0.2-0.3-0.6,0-0.8s0.8-0.2,1.1,0l1.6,1.2l1.6-1.2c0.3-0.2,0.8-0.2,1.1,0c0.3,0.2,0.3,0.6,0,0.8l-1.6,1.2L356.3,211.2z
					 M362.7,208.9l-1.1,0.8c-0.3,0.2-0.8,0.2-1.1,0c-0.3-0.2-0.3-0.6,0-0.8l1.1-0.8c0.3-0.2,0.8-0.2,1.1,0
					C363,208.3,363,208.7,362.7,208.9z M361.8,201c-0.9-0.7-0.9-1.7,0-2.4c0.9-0.6,2.3-0.6,3.2,0c0.9,0.7,0.9,1.7,0,2.4
					S362.7,201.6,361.8,201z M366,206.6l-1.1,0.8c-0.3,0.2-0.8,0.2-1.1,0c-0.3-0.2-0.3-0.6,0-0.8l1.1-0.8c0.3-0.2,0.8-0.2,1.1,0
					C366.3,206,366.3,206.4,366,206.6z M371.4,202.7c-0.9,0.6-2.3,0.6-3.2,0c-0.9-0.7-0.9-1.7,0-2.4s2.3-0.6,3.2,0
					C372.3,201,372.2,202,371.4,202.7z"/>
				<path class="st3" d="M382,203.6l-2.6-2l-3.2-2.4l-5.3-4c-2.9-2.2-7.7-2.3-10.7-0.2l-6.5,4.7l-3.7-2.8c-0.3-0.2-0.8-0.2-1.1,0
					c-0.3,0.2-0.3,0.6,0,0.8l3.7,2.8l-6.5,4.7c-3,2.1-3,5.7-0.1,7.9l5.3,4l3.2,2.4l2.6,2c1.5,1.1,3.8,1.2,5.3,0.1l0.9-0.6
					c1.1-0.8,1.4-2,0.8-3.1l-1.5-2.8c-0.4-0.6-0.2-1.4,0.5-1.8l7.5-5.4c0.7-0.5,1.6-0.6,2.5-0.3l3.7,1.2c1.4,0.5,3.1,0.3,4.2-0.5
					l0.9-0.6C383.4,206.5,383.5,204.7,382,203.6z M380.9,206.8l-0.9,0.6c-0.7,0.5-1.6,0.6-2.5,0.3l-3.7-1.2c-1.4-0.5-3-0.3-4.2,0.5
					l-7.5,5.4c-1.1,0.8-1.4,2-0.8,3.1l1.5,2.8c0.4,0.6,0.2,1.4-0.5,1.8l-0.9,0.6c-0.9,0.6-2.3,0.6-3.2,0l-2.6-2l-3.2-2.4l-5.3-4
					c-2.3-1.8-2.3-4.6,0.1-6.3l14-10.1c2.4-1.7,6.2-1.7,8.5,0.1l5.3,4l3.2,2.4l2.6,2C381.8,205.1,381.8,206.1,380.9,206.8z"/>
				<path class="st3" d="M356.4,208c-0.3-0.2-0.8-0.2-1.1,0l-1.6,1.2l-1.6-1.2c-0.3-0.2-0.8-0.2-1.1,0c-0.3,0.2-0.3,0.6,0,0.8
					l1.6,1.2l-1.6,1.2c-0.3,0.2-0.3,0.6,0,0.8s0.8,0.2,1.1,0l1.6-1.2l1.6,1.2c0.3,0.2,0.8,0.2,1.1,0c0.3-0.2,0.3-0.6,0-0.8l-1.6-1.2
					l1.6-1.2C356.6,208.6,356.6,208.2,356.4,208z"/>
				<path class="st3" d="M365,198.6c-0.9-0.7-2.3-0.7-3.2,0c-0.9,0.6-0.9,1.7,0,2.4s2.3,0.7,3.2,0
					C365.9,200.4,365.9,199.3,365,198.6z M363.9,200.2c-0.3,0.2-0.8,0.2-1.1,0c-0.3-0.2-0.3-0.6,0-0.8s0.8-0.2,1.1,0
					C364.2,199.6,364.2,200,363.9,200.2z"/>
				<path class="st3" d="M371.4,200.3c-0.9-0.7-2.3-0.7-3.2,0s-0.9,1.7,0,2.4s2.3,0.7,3.2,0C372.2,202,372.3,201,371.4,200.3z
					 M370.3,201.9c-0.3,0.2-0.8,0.2-1.1,0c-0.3-0.2-0.3-0.6,0-0.8s0.8-0.2,1.1,0C370.6,201.3,370.6,201.7,370.3,201.9z"/>
				<path class="st3" d="M361.7,208.1l-1.1,0.8c-0.3,0.2-0.3,0.6,0,0.8s0.8,0.2,1.1,0l1.1-0.8c0.3-0.2,0.3-0.6,0-0.8
					C362.5,207.9,362,207.9,361.7,208.1z"/>
				<path class="st3" d="M364.9,205.8l-1.1,0.8c-0.3,0.2-0.3,0.6,0,0.8s0.8,0.2,1.1,0l1.1-0.8c0.3-0.2,0.3-0.6,0-0.8
					S365.2,205.5,364.9,205.8z"/>
			</g>
			<line class="st24" x1="344.5" y1="208.9" x2="344.5" y2="212"/>
			<line class="st24" x1="364.1" y1="218.9" x2="364.1" y2="222"/>
			<line class="st24" x1="382.6" y1="205.7" x2="382.6" y2="208.6"/>
		</g>
		<g id="clavier_1_">
			<polygon class="st7" points="321.2,232.3 320.3,231.5 319.3,232.2 320.2,233 			"/>
			<polygon class="st7" points="319.1,239.6 320,240.3 325.9,236.1 325,235.3 			"/>
			<polygon class="st7" points="314.1,243.1 315.1,243.8 316.1,243.1 315.1,242.4 			"/>
			<path class="st3" d="M302.2,240.1c-0.8,0.6-0.8,1.6-0.1,2.2l12.3,9.8c0.8,0.6,2.1,0.7,2.9,0.1l20.7-14.8c0.8-0.6,0.8-1.6,0.1-2.2
				l-12.3-9.8c-0.8-0.6-2.1-0.7-2.9-0.1 M337.1,236.7l-20.7,14.8c-0.3,0.2-0.7,0.2-1,0l-12.3-9.8c-0.3-0.2-0.3-0.5,0-0.7l20.7-14.8
				c0.3-0.2,0.7-0.2,1,0l12.3,9.8C337.4,236.1,337.4,236.5,337.1,236.7z"/>
			<polygon class="st7" points="328.9,232.5 329.9,233.3 330.9,232.5 329.9,231.8 			"/>
			<polygon class="st7" points="326.1,228.8 325.2,228 324.2,228.7 325.1,229.5 			"/>
			<polygon class="st7" points="316.3,235.8 315.3,235.1 314.3,235.8 315.3,236.5 			"/>
			<path class="st7" d="M324.8,223.2c-0.3-0.2-0.7-0.2-1,0L303.2,238c-0.3,0.2-0.3,0.5,0,0.7l12.3,9.8c0.3,0.2,0.7,0.2,1,0
				l20.7-14.8c0.3-0.2,0.3-0.5,0-0.7L324.8,223.2z M322.8,228.3l2-1.4c0.3-0.2,0.7-0.2,1,0l1.9,1.5c0.3,0.2,0.3,0.5,0,0.7l-2,1.4
				c-0.3,0.2-0.7,0.2-1,0l-1.9-1.5C322.5,228.8,322.5,228.5,322.8,228.3z M317.8,231.8l2-1.4c0.3-0.2,0.7-0.2,1,0l1.9,1.5
				c0.3,0.2,0.3,0.5,0,0.7l-2,1.4c-0.3,0.2-0.7,0.2-1,0l-1.9-1.5C317.5,232.4,317.6,232,317.8,231.8z M312.9,235.4l2-1.4
				c0.3-0.2,0.7-0.2,1,0l1.9,1.5c0.3,0.2,0.3,0.5,0,0.7l-2,1.4c-0.3,0.2-0.7,0.2-1,0l-1.9-1.5C312.6,235.9,312.6,235.6,312.9,235.4z
				 M309.8,241.1l-1.9-1.5c-0.3-0.2-0.3-0.5,0-0.7l2-1.4c0.3-0.2,0.7-0.2,1,0l1.9,1.5c0.3,0.2,0.3,0.5,0,0.7l-2,1.4
				C310.5,241.4,310.1,241.3,309.8,241.1z M317.5,243.5l-2,1.4c-0.3,0.2-0.7,0.2-1,0l-1.9-1.5c-0.3-0.2-0.3-0.5,0-0.7l2-1.4
				c0.3-0.2,0.7-0.2,1,0l1.9,1.5C317.8,243,317.8,243.3,317.5,243.5z M327.4,236.5l-6.9,4.9c-0.3,0.2-0.7,0.2-1,0l-1.9-1.5
				c-0.3-0.2-0.3-0.5,0-0.7l6.9-4.9c0.3-0.2,0.7-0.2,1,0l1.9,1.5C327.7,236,327.6,236.3,327.4,236.5z M332.3,233l-2,1.4
				c-0.3,0.2-0.7,0.2-1,0l-1.9-1.5c-0.3-0.2-0.3-0.5,0-0.7l2-1.4c0.3-0.2,0.7-0.2,1,0l1.9,1.5C332.6,232.4,332.6,232.8,332.3,233z"
				/>
			<polygon class="st7" points="309.4,239.3 310.4,240.1 311.3,239.3 310.4,238.6 			"/>
			<path class="st3" d="M338.1,232.4l-12.3-9.8c-0.8-0.6-2.1-0.7-2.9-0.1l-9.4,6.7l-1.4-1.1c-0.3-0.2-0.3-0.5,0-0.7l1-0.7
				c0.8-0.6,0.8-1.6,0.1-2.2l-2.8-2.3c-0.3-0.2-0.7-0.2-1,0s-0.3,0.5,0,0.7l2.8,2.3c0.3,0.2,0.3,0.5,0,0.7l-1,0.7
				c-0.8,0.6-0.8,1.6-0.1,2.2l1.4,1.1l-10.4,7.4c-0.8,0.6-0.8,1.6-0.1,2.2l12.3,9.8c0.8,0.6,2.1,0.7,2.9,0.1l20.7-14.8
				C338.9,234,338.9,233,338.1,232.4z M337.1,233.8l-20.7,14.8c-0.3,0.2-0.7,0.2-1,0l-12.3-9.8c-0.3-0.2-0.3-0.5,0-0.7l20.7-14.8
				c0.3-0.2,0.7-0.2,1,0l12.3,9.8C337.4,233.3,337.4,233.6,337.1,233.8z"/>
			<path class="st3" d="M312.8,239l-1.9-1.5c-0.3-0.2-0.7-0.2-1,0l-2,1.4c-0.3,0.2-0.3,0.5,0,0.7l1.9,1.5c0.3,0.2,0.7,0.2,1,0l2-1.4
				C313.1,239.6,313.1,239.2,312.8,239z M310.4,240.1l-0.9-0.8l1-0.7l0.9,0.8L310.4,240.1z"/>
			<path class="st3" d="M314.8,237.6c0.3,0.2,0.7,0.2,1,0l2-1.4c0.3-0.2,0.3-0.5,0-0.7l-1.9-1.5c-0.3-0.2-0.7-0.2-1,0l-2,1.4
				c-0.3,0.2-0.3,0.5,0,0.7L314.8,237.6z M315.3,235.1l0.9,0.8l-1,0.7l-0.9-0.8L315.3,235.1z"/>
			<path class="st3" d="M319.7,234.1c0.3,0.2,0.7,0.2,1,0l2-1.4c0.3-0.2,0.3-0.5,0-0.7l-1.9-1.5c-0.3-0.2-0.7-0.2-1,0l-2,1.4
				c-0.3,0.2-0.3,0.5,0,0.7L319.7,234.1z M320.3,231.5l0.9,0.8l-1,0.7l-0.9-0.8L320.3,231.5z"/>
			<path class="st3" d="M324.6,230.6c0.3,0.2,0.7,0.2,1,0l2-1.4c0.3-0.2,0.3-0.5,0-0.7l-1.9-1.5c-0.3-0.2-0.7-0.2-1,0l-2,1.4
				c-0.3,0.2-0.3,0.5,0,0.7L324.6,230.6z M325.2,228l0.9,0.8l-1,0.7l-0.9-0.8L325.2,228z"/>
			<path class="st3" d="M315.6,241.3c-0.3-0.2-0.7-0.2-1,0l-2,1.4c-0.3,0.2-0.3,0.5,0,0.7l1.9,1.5c0.3,0.2,0.7,0.2,1,0l2-1.4
				c0.3-0.2,0.3-0.5,0-0.7L315.6,241.3z M315.1,243.8l-0.9-0.8l1-0.7l0.9,0.8L315.1,243.8z"/>
			<path class="st3" d="M325.5,234.2c-0.3-0.2-0.7-0.2-1,0l-6.9,4.9c-0.3,0.2-0.3,0.5,0,0.7l1.9,1.5c0.3,0.2,0.7,0.2,1,0l6.9-4.9
				c0.3-0.2,0.3-0.5,0-0.7L325.5,234.2z M320,240.3l-0.9-0.8l5.9-4.2l0.9,0.8L320,240.3z"/>
			<path class="st3" d="M330.4,230.7c-0.3-0.2-0.7-0.2-1,0l-2,1.4c-0.3,0.2-0.3,0.5,0,0.7l1.9,1.5c0.3,0.2,0.7,0.2,1,0l2-1.4
				c0.3-0.2,0.3-0.5,0-0.7L330.4,230.7z M329.9,233.3l-0.9-0.8l1-0.7l0.9,0.8L329.9,233.3z"/>
			<line class="st24" x1="302.1" y1="238.4" x2="302.1" y2="241.4"/>
			<line class="st24" x1="338.2" y1="233.6" x2="338.2" y2="236.4"/>
		</g>
		<g id="gameboy_2_">
			<g id="gameboy_1_">
				<path class="st7" d="M300,269.9l-20.4-15.4c-0.8-0.6-2.2-0.7-3.1,0l-14.3,10.4c-0.8,0.6-0.8,1.6,0,2.3l20.4,15.4
					c0.8,0.6,2.2,0.7,3.1,0l14.3-10.4C300.8,271.6,300.8,270.6,300,269.9z M285.7,277.3c0.3,0.2,0.3,0.6,0,0.8c-0.3,0.2-0.7,0.2-1,0
					l-1.5-1.2l-1.5,1.1c-0.3,0.2-0.7,0.2-1,0s-0.3-0.6,0-0.8l1.5-1.1l-1.5-1.2c-0.3-0.2-0.3-0.6,0-0.8c0.3-0.2,0.7-0.2,1,0l1.5,1.2
					l1.5-1.1c0.3-0.2,0.7-0.2,1,0s0.3,0.6,0,0.8l-1.5,1.1L285.7,277.3z M287.2,264.8L276,273c-0.6,0.4-1.5,0.4-2,0l-8.2-6.2
					c-0.6-0.4-0.6-1.1,0-1.5l11.2-8.1c0.6-0.4,1.5-0.4,2,0l8.2,6.2C287.8,263.8,287.8,264.4,287.2,264.8z M292.3,273.2
					c-0.6,0.4-1.5,0.4-2,0c-0.6-0.4-0.6-1.1,0-1.5s1.5-0.4,2,0C292.9,272.1,292.9,272.8,292.3,273.2z M292.3,268.7
					c-0.6,0.4-1.5,0.4-2,0c-0.6-0.4-0.6-1.1,0-1.5s1.5-0.4,2,0C292.9,267.6,292.9,268.3,292.3,268.7z"/>
				<polygon class="st7" points="266.8,266 275,272.2 286.2,264.1 278,257.9 				"/>
				<path class="st3" d="M301,269.2l-20.4-15.4c-1.4-1.1-3.7-1.1-5.1-0.1l-14.3,10.4c-1.4,1-1.4,2.7,0,3.8l20.4,15.4
					c1.4,1.1,3.7,1.1,5.1,0.1L301,273C302.4,271.9,302.4,270.2,301,269.2z M300,272.2l-14.3,10.4c-0.8,0.6-2.2,0.6-3.1,0l-20.4-15.4
					c-0.8-0.6-0.8-1.7,0-2.3l14.3-10.4c0.8-0.6,2.2-0.6,3.1,0l20.4,15.4C300.8,270.6,300.8,271.6,300,272.2z"/>
				<path class="st3" d="M279.1,257.2c-0.6-0.4-1.5-0.4-2,0l-11.2,8.1c-0.6,0.4-0.6,1.1,0,1.5l8.2,6.2c0.6,0.4,1.5,0.4,2,0l11.2-8.1
					c0.6-0.4,0.6-1.1,0-1.5L279.1,257.2z M275,272.2l-8.2-6.2l11.2-8.1l8.2,6.2L275,272.2z"/>
				<path class="st3" d="M285.7,274.2c-0.3-0.2-0.7-0.2-1,0l-1.5,1.1l-1.5-1.2c-0.3-0.2-0.7-0.2-1,0s-0.3,0.5,0,0.8l1.5,1.2
					l-1.5,1.1c-0.3,0.2-0.3,0.5,0,0.8c0.3,0.2,0.7,0.2,1,0l1.5-1.1l1.5,1.2c0.3,0.2,0.7,0.2,1,0s0.3-0.5,0-0.8l-1.5-1.2l1.5-1.1
					C286,274.8,286,274.5,285.7,274.2z"/>
				<path class="st3" d="M290.3,271.7c-0.6,0.4-0.6,1.1,0,1.5s1.5,0.4,2,0c0.6-0.4,0.6-1.1,0-1.5
					C291.8,271.3,290.9,271.3,290.3,271.7z"/>
				<path class="st3" d="M290.3,267.1c-0.6,0.4-0.6,1.1,0,1.5s1.5,0.4,2,0c0.6-0.4,0.6-1.1,0-1.5
					C291.8,266.7,290.9,266.7,290.3,267.1z"/>
			</g>
			<g id="gameboy">
				<path class="st7" d="M300,266.8l-20.4-15.4c-0.8-0.6-2.2-0.7-3.1,0l-14.3,10.4c-0.8,0.6-0.8,1.6,0,2.3l20.4,15.4
					c0.8,0.6,2.2,0.7,3.1,0l14.3-10.4C300.8,268.5,300.8,267.5,300,266.8z M285.7,274.2c0.3,0.2,0.3,0.6,0,0.8c-0.3,0.2-0.7,0.2-1,0
					l-1.5-1.2l-1.5,1.1c-0.3,0.2-0.7,0.2-1,0s-0.3-0.6,0-0.8l1.5-1.1l-1.5-1.2c-0.3-0.2-0.3-0.6,0-0.8c0.3-0.2,0.7-0.2,1,0l1.5,1.2
					l1.5-1.1c0.3-0.2,0.7-0.2,1,0s0.3,0.6,0,0.8l-1.5,1.1L285.7,274.2z M287.2,261.8l-11.2,8.1c-0.6,0.4-1.5,0.4-2,0l-8.2-6.2
					c-0.6-0.4-0.6-1.1,0-1.5l11.2-8.1c0.6-0.4,1.5-0.4,2,0l8.2,6.2C287.8,260.7,287.8,261.3,287.2,261.8z M292.3,270.1
					c-0.6,0.4-1.5,0.4-2,0c-0.6-0.4-0.6-1.1,0-1.5s1.5-0.4,2,0C292.9,269,292.9,269.7,292.3,270.1z M292.3,265.6
					c-0.6,0.4-1.5,0.4-2,0c-0.6-0.4-0.6-1.1,0-1.5s1.5-0.4,2,0C292.9,264.5,292.9,265.2,292.3,265.6z"/>
				<polygon class="st7" points="266.8,263 275,269.1 286.2,261 278,254.8 				"/>
				<path class="st3" d="M301,266.1l-20.4-15.4c-1.4-1.1-3.7-1.1-5.1-0.1L261.2,261c-1.4,1-1.4,2.7,0,3.8l20.4,15.4
					c1.4,1.1,3.7,1.1,5.1,0.1l14.3-10.4C302.4,268.9,302.4,267.2,301,266.1z M300,269.1l-14.3,10.4c-0.8,0.6-2.2,0.6-3.1,0
					L262.2,264c-0.8-0.6-0.8-1.7,0-2.3l14.3-10.4c0.8-0.6,2.2-0.6,3.1,0l20.4,15.4C300.8,267.5,300.8,268.5,300,269.1z"/>
				<path class="st3" d="M279.1,254.1c-0.6-0.4-1.5-0.4-2,0l-11.2,8.1c-0.6,0.4-0.6,1.1,0,1.5l8.2,6.2c0.6,0.4,1.5,0.4,2,0l11.2-8.1
					c0.6-0.4,0.6-1.1,0-1.5L279.1,254.1z M275,269.1l-8.2-6.2l11.2-8.1l8.2,6.2L275,269.1z"/>
				<path class="st3" d="M285.7,271.2c-0.3-0.2-0.7-0.2-1,0l-1.5,1.1l-1.5-1.2c-0.3-0.2-0.7-0.2-1,0s-0.3,0.5,0,0.8l1.5,1.2
					l-1.5,1.1c-0.3,0.2-0.3,0.5,0,0.8c0.3,0.2,0.7,0.2,1,0l1.5-1.1l1.5,1.2c0.3,0.2,0.7,0.2,1,0s0.3-0.5,0-0.8l-1.5-1.2l1.5-1.1
					C286,271.7,286,271.4,285.7,271.2z"/>
				<path class="st3" d="M290.3,268.6c-0.6,0.4-0.6,1.1,0,1.5s1.5,0.4,2,0c0.6-0.4,0.6-1.1,0-1.5
					C291.8,268.2,290.9,268.2,290.3,268.6z"/>
				<path class="st3" d="M290.3,264.1c-0.6,0.4-0.6,1.1,0,1.5s1.5,0.4,2,0c0.6-0.4,0.6-1.1,0-1.5
					C291.8,263.7,290.9,263.7,290.3,264.1z"/>
			</g>
			<line class="st24" x1="260.6" y1="263.1" x2="260.6" y2="266"/>
			<line class="st24" x1="301.6" y1="267.9" x2="301.6" y2="270.9"/>
		</g>
	</g>
	<path id="poteau-bas_1_" class="st21" d="M275.8,357.7v-82l7-5.7v82L275.8,357.7z M278.8,354.1l1-0.8v-1.2l-1,0.8V354.1z
		 M279.8,275.9l-1,0.8v1.2l1-0.8V275.9z M279.8,280.2l-1,0.8v1.2l1-0.8V280.2z M279.8,284.4l-1,0.8v1.2l1-0.8V284.4z M278.8,289.4
		v1.2l1-0.8v-1.2L278.8,289.4z M279.8,292.9l-1,0.8v1.2l1-0.8V292.9z M279.8,297.1l-1,0.8v1.2l1-0.8V297.1z M278.8,302.1v1.2l1-0.8
		v-1.2L278.8,302.1z M279.8,305.6l-1,0.8v1.2l1-0.8V305.6z M279.8,309.8l-1,0.8v1.2l1-0.8V309.8z M278.8,314.8v1.2l1-0.8V314
		L278.8,314.8z M279.8,318.3l-1,0.8v1.2l1-0.8V318.3z M279.8,322.5l-1,0.8v1.2l1-0.8V322.5z M278.8,327.6v1.2l1-0.8v-1.2
		L278.8,327.6z M279.8,331l-1,0.8v1.2l1-0.8V331z M279.8,335.2l-1,0.8v1.2l1-0.8V335.2z M278.8,340.3v1.2l1-0.8v-1.2L278.8,340.3z
		 M279.8,343.7l-1,0.8v1.2l1-0.8V343.7z M279.8,347.9l-1,0.8v1.2l1-0.8V347.9z"/>
	<path id="poteau-bas" class="st21" d="M269.2,352v-82l6.7,5.7v82L269.2,352z M272.1,353.3l0.9,0.8v-1.2l-0.9-0.8V353.3z
		 M273.1,276.7l-0.9-0.8v1.2l0.9,0.8V276.7z M273.1,280.9l-1-0.8v1.2l1,0.8V280.9z M273.1,285.1l-1-0.8v1.2l1,0.8V285.1z
		 M272.1,288.6v1.2l0.9,0.8v-1.2L272.1,288.6z M273.1,293.6l-1-0.8v1.2l1,0.8V293.6z M273.1,297.8l-1-0.8v1.2l1,0.8V297.8z
		 M272.1,301.3v1.2l0.9,0.8v-1.2L272.1,301.3z M273.1,306.3l-1-0.8v1.2l1,0.8V306.3z M273.1,310.6l-1-0.8v1.2l1,0.8V310.6z
		 M272.1,314v1.2l0.9,0.8v-1.2L272.1,314z M273.1,319l-1-0.8v1.2l1,0.8V319z M273.1,323.3l-1-0.8v1.2l1,0.8V323.3z M272.1,326.7v1.2
		l0.9,0.8v-1.2L272.1,326.7z M273.1,331.7l-1-0.8v1.2l1,0.8V331.7z M273.1,336l-1-0.8v1.2l1,0.8V336z M272.1,339.4v1.2l0.9,0.8v-1.2
		L272.1,339.4z M273.1,344.4l-1-0.8v1.2l1,0.8V344.4z M273.1,348.7l-1-0.8v1.2l1,0.8V348.7z"/>
</g>
</svg>
