<?xml version="1.0" encoding="utf-8"?>
<!-- Generator: Adobe Illustrator 21.0.2, SVG Export Plug-In . SVG Version: 6.00 Build 0)  -->
<svg version="1.1" xmlns="http://www.w3.org/2000/svg" xmlns:xlink="http://www.w3.org/1999/xlink" x="0px" y="0px"
	 viewBox="0 0 922.3 752.8" style="enable-background:new 0 0 922.3 752.8;" xml:space="preserve">
<style type="text/css">
	.st0{opacity:0.47;fill:#D0E6F2;}
	.st1{fill:#FFFFFF;stroke:#C6DEEC;stroke-linecap:round;stroke-linejoin:round;stroke-miterlimit:10;}
	.st2{fill:#ECF4F9;stroke:#C4DBE9;stroke-linejoin:round;stroke-miterlimit:10;}
	.st3{fill:#DCECF5;}
	.st4{fill:#31BC38;}
	.st5{fill:#3ADA4B;}
	.st6{fill:#FFFFFF;}
	.st7{font-family:'FiraSans-Medium';}
	.st8{font-size:16.5px;}
	.st9{fill:none;stroke:#FFFFFF;stroke-miterlimit:10;}
	.st10{fill:none;stroke:#009AE1;stroke-width:3;stroke-miterlimit:10;}
	.st11{fill:none;stroke:#000000;stroke-width:3;stroke-miterlimit:10;}
	.st12{opacity:0.4;fill:#D0E6F2;}
	.st13{fill:#FFFFFF;stroke:#C7DEEC;stroke-linejoin:round;stroke-miterlimit:10;}
	.st14{fill:#E9EDEF;}
	.st15{fill:#259AE0;}
	.st16{fill:#A6D1E7;}
	.st17{opacity:0.54;fill:#D0E6F2;}
	.st18{fill:#070A96;}
	.st19{fill:#0F15D9;}
	.st20{fill:#FFFFFF;stroke:#C6DEEC;stroke-linejoin:round;stroke-miterlimit:10;}
	.st21{fill:#C81888;}
	.st22{fill:#E30F94;}
	.st23{font-size:18px;}
</style>
<g id="graphe3">
	<path id="shade" class="st0" d="M329,520.4l83.9-64.4l96.2,73.7l-84.5,63.3L329,520.4z"/>
	<g id="rectangle">
		<path class="st1" d="M510.2,475.6l-97.9-74l-85.6,64.3l97.9,74L510.2,475.6z"/>
		<path class="st2" d="M326.7,466.1v22.8l97.9,72.1v-21L326.7,466.1z"/>
		<path class="st1" d="M510.2,475.6v20.5L424.6,561v-21L510.2,475.6z"/>
	</g>
	<path class="st3" d="M402.4,428.9l0.8,0.6L352,467.9l-0.8-0.6L402.4,428.9z"/>
	<path class="st3" d="M352.8,460.4l78.3,58.8l-0.8,0.6L352,460.9L352.8,460.4z"/>
	<path class="st4" d="M441.8,428.1v8.1l-27,21.9v-8L441.8,428.1z"/>
	<polygon class="st4" points="414.8,450.1 371.8,419.1 371.8,431.4 375.2,428.7 414.8,458.1 	"/>
	<path class="st5" d="M398.8,397.1l-27,22l43,31l27-22L398.8,397.1z"/>
	<text transform="matrix(0.8 0.6 -0.8 0.6 387.2395 416.5397)" class="st6 st7 st8">+20%</text>
	<line class="st9" x1="371.8" y1="419.1" x2="414.8" y2="450.1"/>
	<line class="st9" x1="414.8" y1="458.1" x2="414.8" y2="450"/>
	<line class="st9" x1="441.8" y1="428.1" x2="414.8" y2="450.1"/>
	<polyline class="st10" points="359,457.8 382,460.5 383.6,472.3 416.3,468.3 407.6,485.6 468.8,482.5 	"/>
	<polyline class="st11" points="370.8,445.6 377,456.3 391.6,459.1 398.8,477.1 427.1,478.5 455.6,498.1 	"/>
</g>
<g id="indicateurs">
	<g id="liste">
		<path id="shade_2_" class="st12" d="M280.2,342.5l59.4-45.1l35.6,28.9l-59.7,44.4L280.2,342.5z"/>
		<g id="rectangle_3_">
			<path class="st13" d="M375.8,272.4l-35.9-29l-60.4,45l36.2,29.2L375.8,272.4z"/>
			<path class="st2" d="M279.6,288.4v12.8l36.3,28.4l-0.1-11.9L279.6,288.4z"/>
			<path class="st13" d="M375.9,273v11.5l-60,45.1l0-12L375.9,273z"/>
		</g>
		<g id="liste_1_">
			<path class="st14" d="M345,261.2l17.7,13.4l-2.3,1.8L342.7,263L345,261.2z"/>
			<path class="st14" d="M339.9,265.1l17.7,13.4l-2.3,1.8l-17.7-13.4L339.9,265.1z"/>
			<path class="st14" d="M334.8,269l17.7,13.4l-2.3,1.8l-17.7-13.4L334.8,269z"/>
			<path class="st14" d="M329.7,272.8l17.7,13.4L345,288l-17.7-13.4L329.7,272.8z"/>
			<path class="st14" d="M324.5,276.7l17.7,13.4l-2.3,1.8l-17.7-13.4L324.5,276.7z"/>
			<path class="st14" d="M319.4,280.6l17.7,13.4l-2.3,1.8l-17.7-13.4L319.4,280.6z"/>
			<path class="st14" d="M314.3,284.5l17.7,13.4l-2.3,1.8l-17.7-13.4L314.3,284.5z"/>
			<path class="st14" d="M309.1,288.3l17.7,13.4l-2.3,1.8l-17.7-13.4L309.1,288.3z"/>
			<path class="st14" d="M304,292.2l17.7,13.4l-2.3,1.8L301.7,294L304,292.2z"/>
			<path class="st15" d="M299.1,287.1c1.2,0.9,1.2,2.3,0,3.2c-1.2,0.9-3,0.9-4.2,0c-1.2-0.9-1.2-2.3,0-3.2
				C296.1,286.2,298,286.2,299.1,287.1z"/>
			<path class="st3" d="M304.3,283.2c1.2,0.9,1.2,2.3,0,3.2c-1.2,0.9-3,0.9-4.2,0c-1.2-0.9-1.2-2.3,0-3.2
				C301.2,282.3,303.1,282.3,304.3,283.2z"/>
			<path class="st16" d="M309.4,279.3c1.2,0.9,1.2,2.3,0,3.2c-1.2,0.9-3,0.9-4.2,0c-1.2-0.9-1.2-2.3,0-3.2
				C306.3,278.5,308.2,278.5,309.4,279.3z"/>
			<path class="st15" d="M314.5,275.5c1.2,0.9,1.2,2.3,0,3.2c-1.2,0.9-3,0.9-4.2,0c-1.2-0.9-1.2-2.3,0-3.2
				C311.5,274.6,313.3,274.6,314.5,275.5z"/>
			<path class="st15" d="M319.6,271.6c1.2,0.9,1.2,2.3,0,3.2c-1.2,0.9-3,0.9-4.2,0c-1.2-0.9-1.2-2.3,0-3.2
				C316.6,270.7,318.5,270.7,319.6,271.6z"/>
			<path class="st16" d="M324.8,267.7c1.2,0.9,1.2,2.3,0,3.2c-1.2,0.9-3,0.9-4.2,0c-1.2-0.9-1.2-2.3,0-3.2
				C321.7,266.9,323.6,266.9,324.8,267.7z"/>
			<path class="st15" d="M329.9,263.9c1.2,0.9,1.2,2.3,0,3.2c-1.2,0.9-3,0.9-4.2,0c-1.2-0.9-1.2-2.3,0-3.2
				C326.8,263,328.7,263,329.9,263.9z"/>
			<path class="st3" d="M335,260c1.2,0.9,1.2,2.3,0,3.2c-1.2,0.9-3,0.9-4.2,0c-1.2-0.9-1.2-2.3,0-3.2C332,259.1,333.9,259.1,335,260
				z"/>
			<path class="st15" d="M340.1,256.1c1.2,0.9,1.2,2.3,0,3.2c-1.2,0.9-3,0.9-4.2,0c-1.2-0.9-1.2-2.3,0-3.2
				C337.1,255.2,339,255.2,340.1,256.1z"/>
		</g>
	</g>
</g>
<g id="graphe2">
	<g id="barre">
		<g id="grahpe_x5F_barre">
			<path id="shade_1_" class="st17" d="M354.8,346.5l98.2-72.9l189.3,143.3l-98.8,71.9L354.8,346.5z"/>
			<g id="rectangle_1_">
				<path class="st1" d="M643.4,394.9L452.5,251.4l-99.8,72.8l190.9,143.5L643.4,394.9z"/>
				<path class="st2" d="M352.7,324.2V345l190.9,141.8l0-19.1L352.7,324.2z"/>
				<path class="st1" d="M643.4,394.9v18.7l-99.8,73.3v-19.2L643.4,394.9z"/>
			</g>
			<g id="barres">
				<path class="st15" d="M429.8,303.4l8.3,6.2l-31.4,23.8l-8.3-6.2L429.8,303.4z"/>
				<path class="st15" d="M439.3,311.3l8.3,6.2l-31,23.3l-8.3-6.2L439.3,311.3z"/>
				<path class="st15" d="M427.3,335l8.3,6.2l-9.2,6.9l-8.3-6.2L427.3,335z"/>
				<path class="st15" d="M434.1,344.7l8.3,6.2l-6.2,4.6l-8.3-6.2L434.1,344.7z"/>
				<path class="st15" d="M459.8,340.1l8.3,6.2l-22,16.5l-8.3-6.2L459.8,340.1z"/>
				<path class="st15" d="M461.3,353.8l8.3,6.2l-13.7,10.3l-8.3-6.2L461.3,353.8z"/>
				<path class="st15" d="M467.5,363.6l8.3,6.2l-10.1,7.8l-8.3-6.2L467.5,363.6z"/>
				<path class="st15" d="M483.2,366.9l8.3,6.2l-15.9,11.9l-8.3-6.2L483.2,366.9z"/>
				<path class="st15" d="M493,374.3l8.3,6.2l-15.9,11.9l-8.3-6.2L493,374.3z"/>
				<path class="st15" d="M496,386.8l8.3,6.2l-9.1,6.8l-8.3-6.2L496,386.8z"/>
				<path class="st15" d="M527,378.2l8.3,6.2l-30.3,22.7l-8.3-6.2L527,378.2z"/>
				<path class="st15" d="M533.2,389.3l8.3,6.2l-25.7,19.3l-8.3-6.2L533.2,389.3z"/>
				<path class="st15" d="M554.4,388.2l8.3,6.2l-37.1,27.8l-8.3-6.2L554.4,388.2z"/>
				<path class="st15" d="M574,388.4l8.3,6.2l-46.9,34.9l-8.3-6.2L574,388.4z"/>
				<path class="st15" d="M583.9,395.8l8.3,6.2L545.3,437l-8.3-6.2L583.9,395.8z"/>
			</g>
			<path class="st3" d="M381.8,318.1l166.8,125.3l-1.5,1.1L380.3,319.2L381.8,318.1z"/>
			<path class="st3" d="M434.5,287.4l1.5,1.1l-53.5,40.4l-1.5-1.1L434.5,287.4z"/>
		</g>
		<g id="_x2B_14">
			<path class="st18" d="M568.9,363.8v8.8l41,31.1v-8L568.9,363.8z"/>
			<polygon class="st18" points="636.9,377.3 636.9,376.8 609.9,395.8 609.9,403.7 633.4,386.8 636.7,389.3 			"/>
			<path class="st19" d="M595.9,344.8l41,32l-27,19l-41-32L595.9,344.8z"/>
			<text transform="matrix(0.8 0.6 -0.8 0.6 583.0353 362.7738)" class="st6 st7 st8">+14%</text>
		</g>
	</g>
	<line class="st9" x1="568.9" y1="363.8" x2="609.9" y2="395.8"/>
	<line class="st9" x1="609.9" y1="403.7" x2="609.9" y2="395.9"/>
	<line class="st9" x1="636.9" y1="376.8" x2="609.6" y2="396"/>
</g>
<g id="graphe1">
	<path id="SHADE_x2B_" class="st12" d="M469.5,299.8l23.9-20l78.1,60.4l-24.5,17.8L469.5,299.8z"/>
	<path id="SHADE-" class="st12" d="M507.6,292.5l42.2-32.3l78.6,61.5l-41.9,29.8L507.6,292.5z"/>
	<g id="camembert">
		<g id="rectangle_2_">
			<path class="st20" d="M628.9,266.4l-79.7-60.6l-81.8,61.8l79.7,60.6L628.9,266.4z"/>
			<path class="st2" d="M467.4,267.6v20.8l79.8,59.1v-19.2L467.4,267.6z"/>
			<path class="st20" d="M628.9,266.5v18.7l-81.7,62.2v-19.2L628.9,266.5z"/>
		</g>
		<g id="cercle">
			<path class="st16" d="M591.1,267c0,13.3-11.9,24.5-28.2,27.9l-9.8-28.8h37.9C591.1,266.4,591.1,266.7,591.1,267z"/>
			<path class="st15" d="M552.6,235.8c20.6,0.2,37.3,12.6,37.9,28.1h-37.9V235.8z"/>
			<path class="st3" d="M550.2,263.8l9.8,28.8c-3.3,0.7-6.8,1.1-10.3,1.1c-21.3,0-38.5-13-38.5-29c0-16,17.2-29,38.5-29
				c0.2,0,0.4,0,0.6,0V263.8z"/>
		</g>
	</g>
	<g id="_x2B_5">
		<path class="st21" d="M529.9,251.1v6.6l-25.2,21.1V272L529.9,251.1z"/>
		<polygon class="st21" points="504.7,272 474.9,250.6 474.9,253.3 474.8,261.4 477.9,259 504.7,278.8 		"/>
		<path class="st22" d="M500.2,229.8l-25.3,20.9l29.8,21.4l25.2-20.9L500.2,229.8z"/>
		<text transform="matrix(0.8 0.6 -0.8 0.6 488.9664 247.9516)" class="st6 st7 st23">+5</text>
	</g>
	<line class="st9" x1="474.9" y1="250.6" x2="504.7" y2="272"/>
	<line class="st9" x1="529.9" y1="251.1" x2="504.7" y2="272"/>
	<line class="st9" x1="504.7" y1="278.8" x2="504.7" y2="272"/>
</g>
</svg>
