<?xml version="1.0" encoding="utf-8"?>
<!-- Generator: Adobe Illustrator 21.0.2, SVG Export Plug-In . SVG Version: 6.00 Build 0)  -->
<svg version="1.1" xmlns="http://www.w3.org/2000/svg" xmlns:xlink="http://www.w3.org/1999/xlink" x="0px" y="0px"
	 viewBox="0 0 1417 1417" style="enable-background:new 0 0 1417 1417;" xml:space="preserve">
<style type="text/css">
	.st0{opacity:0.12;fill:#45AFE0;}
	.st1{opacity:0.8;fill:none;stroke:#FFFFFF;stroke-width:4;stroke-linecap:round;stroke-linejoin:round;stroke-miterlimit:10;}
	.st2{opacity:0.4;}
	.st3{fill:none;stroke:#019EE6;stroke-miterlimit:10;}
	.st4{fill:#FFFFFF;stroke:#C5DCEA;stroke-linejoin:round;stroke-miterlimit:10;}
	.st5{fill:#EDF5FA;stroke:#C5DCEA;stroke-linejoin:round;stroke-miterlimit:10;}
	.st6{fill:#1FDA4B;}
	.st7{fill:#0FBC37;}
	.st8{fill:none;stroke:#FFFFFF;stroke-miterlimit:10;}
	.st9{fill:#FFFFFF;}
	.st10{fill:#0096E0;}
	.st11{fill-rule:evenodd;clip-rule:evenodd;fill:#0096E0;}
	.st12{fill:#DE0C20;}
	.st13{fill:#BD0314;}
</style>
<g id="sofa">
	<polygon id="ombre_3_" class="st0" points="630,652.1 543.5,717.5 489.6,677.3 576.2,611.9 	"/>
	<g id="tube_-_copie">
		<line id="contenu_tube_3_" class="st1" x1="600.7" y1="602.4" x2="729.3" y2="505.1"/>
		<g id="tube_7_" class="st2">
			<path class="st3" d="M600.6,604.4c-0.6,0-1.2-0.3-1.6-0.8c-0.7-0.9-0.5-2.1,0.4-2.8l128.7-97.3c0.9-0.7,2.1-0.5,2.8,0.4
				c0.7,0.9,0.5,2.1-0.4,2.8L601.9,604C601.5,604.3,601.1,604.5,600.6,604.4z"/>
		</g>
	</g>
	<g id="box_3_">
		<polygon class="st4" points="630,612.8 543.5,678.2 489.6,638 576.2,572.6 		"/>
		<polygon class="st5" points="630,631.3 543.4,696.7 543.5,678.2 630,612.8 		"/>
		<polygon class="st4" points="489.7,656.6 543.4,696.7 543.5,678.2 489.7,638.1 		"/>
	</g>
	<g id="connecteur_-_copie">
		<polygon class="st6" points="545.3,646.2 521,664.4 497.3,646.6 521.3,628.3 		"/>
		<polygon class="st7" points="497.4,671.5 521,689.4 521,664.4 497.3,646.6 		"/>
		<polygon class="st6" points="527.1,666 527.2,684.6 521,689.3 521,664.4 545.3,646.2 545.4,652.7 		"/>
		<line id="line_3_" class="st8" x1="520.9" y1="664.1" x2="520.9" y2="689.9"/>
		<line class="st8" x1="497.3" y1="646.6" x2="521" y2="664.4"/>
		<line class="st8" x1="520.8" y1="664.5" x2="545.3" y2="646.2"/>
		<path id="checkl_2_" class="st9" d="M524.8,650.1l0-12.8c0-0.3-0.1-0.5-0.4-0.7c-0.2-0.2-0.5-0.3-0.9-0.2c-0.4,0-0.7,0.1-0.9,0.3
			c-0.2,0.2-0.4,0.4-0.4,0.7l0,11.8h-6.7c-0.9,0-1.3,0.4-1.3,1c0,0.2,0.1,0.5,0.4,0.7c0.3,0.2,0.6,0.3,0.9,0.3l8,0
			c0.4,0,0.7-0.1,0.9-0.2C524.6,650.7,524.7,650.5,524.8,650.1L524.8,650.1z"/>
	</g>
	<g id="picto_4_">
		<g>
			<path class="st10" d="M566.3,610.3c0.4-0.3,0.4-0.8,0-1.1c-0.4-0.3-1-0.3-1.4,0c-0.4,0.3-0.4,0.8,0,1.1
				C565.3,610.6,565.9,610.6,566.3,610.3z M560.9,614.5c0.4-0.3,0.4-0.8,0-1.1c-0.4-0.3-1-0.3-1.4,0c-0.4,0.3-0.4,0.8,0,1.1
				C559.9,614.8,560.5,614.8,560.9,614.5z M570.5,613.5c0.4-0.3,0.4-0.8,0-1.1c-0.4-0.3-1-0.3-1.4,0c-0.4,0.3-0.4,0.8,0,1.1
				C569.5,613.8,570.1,613.8,570.5,613.5z M565,617.7c0.4-0.3,0.4-0.8,0-1.1c-0.4-0.3-1-0.3-1.4,0c-0.4,0.3-0.4,0.8,0,1.1
				C564,617.9,564.7,617.9,565,617.7z M589.9,618.9l-1.3-1c1.3-2.7,0.6-5.8-2.3-8l-0.1-0.1c2-2,1.7-4.9-0.7-6.8
				c-2.1-1.6-5.2-2-7.7-1.1c-6.3-2.4-13.9-1.6-18.9,2.2l-6,4.6c-5.1,3.9-6.1,9.7-2.9,14.4c-1.1,1.9-0.6,4.2,1.5,5.8
				c2.5,1.9,6.2,2.1,8.9,0.6l0.1,0.1c2.9,2.2,7,2.8,10.5,1.8l1.3,1c0.4,0.3,1,0.3,1.4,0c0.4-0.3,0.4-0.8,0-1.1l-0.8-0.6
				c0.5-0.3,1-0.6,1.5-0.9l12.3-9.3c0.5-0.4,0.9-0.7,1.2-1.1l0.8,0.6c0.4,0.3,1,0.3,1.4,0C590.3,619.7,590.2,619.2,589.9,618.9z
				 M551.3,621.8c-2.2-4-1.1-8.7,3-11.9l6-4.6c4.2-3.2,10.3-4,15.6-2.3c0,0,0,0-0.1,0c-2.6,2-2.6,5.3,0.1,7.4l3.5,2.7
				c0.8,0.6,0.8,1.5,0,2.1l-12.3,9.3c-0.8,0.6-2,0.6-2.8,0l-3.5-2.7C558.3,619.8,554,619.7,551.3,621.8
				C551.3,621.8,551.3,621.8,551.3,621.8z M585,619.4l-12.3,9.3c-3,2.3-7.9,2.2-11-0.1l-0.1-0.1l-1.2-0.9l-1.3,0.8
				c-1.9,1.1-4.6,0.9-6.3-0.4c-1.9-1.5-2-3.8-0.1-5.3c1.9-1.4,5-1.4,6.9,0.1l3.5,2.7c1.5,1.2,4,1.2,5.5,0.1l12.3-9.3
				c1.5-1.1,1.5-3-0.1-4.2l-3.5-2.7c-1.9-1.5-2-3.8-0.1-5.3c1.9-1.4,5-1.4,6.9,0.1c1.7,1.3,1.9,3.4,0.5,4.8l-1,1l1.2,0.9l0.1,0.1
				C588,613.4,588.1,617.1,585,619.4z"/>
		</g>
	</g>
</g>
<g id="lamp">
	<polygon id="ombre_1_" class="st0" points="691,698.1 604.5,763.5 550.6,723.3 637.2,657.9 	"/>
	<g id="tube_4_">
		<line id="contenu_tube_2_" class="st1" x1="661.7" y1="654.4" x2="790.3" y2="557.1"/>
		<g id="tube_5_" class="st2">
			<path class="st3" d="M661.6,656.4c-0.6,0-1.2-0.3-1.6-0.8c-0.7-0.9-0.5-2.1,0.4-2.8l128.7-97.3c0.9-0.7,2.1-0.5,2.8,0.4
				c0.7,0.9,0.5,2.1-0.4,2.8L662.9,656C662.5,656.3,662.1,656.5,661.6,656.4z"/>
		</g>
	</g>
	<g id="box_2_">
		<polygon class="st4" points="691,664.8 604.5,730.2 550.6,690 637.2,624.6 		"/>
		<polygon class="st5" points="691,683.3 604.4,748.7 604.5,730.2 691,664.8 		"/>
		<polygon class="st4" points="550.7,708.6 604.4,748.7 604.5,730.2 550.7,690.1 		"/>
	</g>
	<g id="connecteur_2_">
		<polygon class="st6" points="606.3,698.2 582,716.4 558.3,698.6 582.3,680.3 		"/>
		<polygon class="st7" points="558.4,723.5 582,741.4 582,716.4 558.3,698.6 		"/>
		<polygon class="st6" points="588.1,718 588.2,736.6 582,741.3 582,716.4 606.3,698.2 606.4,704.7 		"/>
		<line id="line_2_" class="st8" x1="581.9" y1="716.1" x2="581.9" y2="741.9"/>
		<line class="st8" x1="558.3" y1="698.6" x2="582" y2="716.4"/>
		<line class="st8" x1="581.8" y1="716.5" x2="606.3" y2="698.2"/>
		<path id="checkl_1_" class="st9" d="M585.8,702.1l0-12.8c0-0.3-0.1-0.5-0.4-0.7c-0.2-0.2-0.5-0.3-0.9-0.2c-0.4,0-0.7,0.1-0.9,0.3
			c-0.2,0.2-0.4,0.4-0.4,0.7l0,11.8h-6.7c-0.9,0-1.3,0.4-1.3,1c0,0.2,0.1,0.5,0.4,0.7c0.3,0.2,0.6,0.3,0.9,0.3l8,0
			c0.4,0,0.7-0.1,0.9-0.2C585.6,702.7,585.7,702.5,585.8,702.1L585.8,702.1z"/>
	</g>
	<g id="picto_2_">
		<g>
			<path class="st11" d="M656,671.7l-1.9-1.5l0.6-0.5c1.1-0.8,1.1-2.1,0-2.9l-12.9-9.8c-1.1-0.8-2.8-0.8-3.9,0l-9.7,7.3l-6.5-4.9
				l2.6-2l3.2,2.4c0.4,0.3,0.9,0.3,1.3,0c0.4-0.3,0.4-0.7,0-1l-3.2-2.4l2.6-2c-3.6-2.7-9.4-2.7-12.9,0l-1.3,1
				c-3.6,2.7-3.6,7.1,0,9.8l6.5-4.9l6.5,4.9l-9.7,7.3c-1.1,0.8-1.1,2.1,0,2.9l5.8,4.4l1.3,1l5.8,4.4c1.1,0.8,2.8,0.8,3.9,0l0.6-0.5
				l1.9,1.5c0.4,0.3,0.9,0.3,1.3,0c0.4-0.3,0.4-0.7,0-1l-1.9-1.5l16.8-12.7l1.9,1.5c0.4,0.3,0.9,0.3,1.3,0
				C656.4,672.4,656.4,672,656,671.7z M619.2,659.5l-5,3.8c-1.7-2.1-1.3-4.9,1.1-6.7l1.3-1c2.4-1.8,6.1-2.1,8.9-0.9l-5,3.8
				L619.2,659.5z M618.5,674.7c-0.4-0.3-0.4-0.7,0-1l9.7-7.3l1.3-1l9.7-7.3c0.4-0.3,0.9-0.3,1.3,0l5.8,4.4l-22,16.6L618.5,674.7z
				 M653.5,668.8l-20.7,15.7c-0.4,0.3-0.9,0.3-1.3,0l-5.8-4.4l22-16.6l5.8,4.4C653.8,668.1,653.8,668.5,653.5,668.8z M634,665.9
				l-5.2,3.9c-0.4,0.3-0.4,0.7,0,1c0.4,0.3,0.9,0.3,1.3,0l5.2-3.9c0.4-0.3,0.4-0.7,0-1C635,665.6,634.4,665.6,634,665.9z
				 M641.8,671.7l-5.2,3.9c-0.4,0.3-0.4,0.7,0,1c0.4,0.3,0.9,0.3,1.3,0l5.2-3.9c0.4-0.3,0.4-0.7,0-1
				C642.7,671.4,642.2,671.4,641.8,671.7z"/>
		</g>
	</g>
</g>
<g id="flower">
	<polygon id="ombre_5_" class="st0" points="752.7,744.3 666.1,809.7 612.3,769.5 698.8,704.1 	"/>
	<g id="tube_2_">
	</g>
	<g id="box_1_">
		<polygon class="st4" points="752.7,713 666.1,778.4 612.3,738.2 698.8,672.8 		"/>
		<polygon class="st5" points="752.7,731.5 666.1,796.9 666.1,778.4 752.7,713 		"/>
		<polygon class="st4" points="612.3,756.8 666.1,796.9 666.1,778.4 612.3,738.3 		"/>
	</g>
	<g id="connecteur_1_">
		<polygon class="st12" points="668,746.4 643.6,764.6 619.9,746.8 643.9,728.5 		"/>
		<polygon class="st13" points="620.1,771.7 643.6,789.6 643.6,764.6 619.9,746.8 		"/>
		<polygon class="st13" points="649.7,766.2 649.8,784.8 643.6,789.5 643.6,764.6 668,746.4 668,752.9 		"/>
		<line id="line_1_" class="st8" x1="643.6" y1="764.3" x2="643.6" y2="790.1"/>
		<line class="st8" x1="619.9" y1="746.8" x2="643.6" y2="764.6"/>
		<line class="st8" x1="643.4" y1="764.7" x2="668" y2="746.4"/>
		<path class="st9" d="M645.7,745.1l-0.6-6.3c-0.1-0.7-0.6-1-1.4-1c-0.9,0.1-1.3,0.5-1.3,1.2l0.5,6.3l-7.8,0.7
			c-0.9,0.1-1.3,0.5-1.3,1.2c0.1,0.7,0.5,1,1.4,1l7.8-0.7l0.6,6.3c0.1,0.7,0.6,1,1.4,1c0.4,0,0.7-0.2,0.9-0.4
			c0.2-0.2,0.3-0.5,0.3-0.8l-0.5-6.3l7.8-0.7c0.4,0,0.7-0.2,1-0.4c0.2-0.2,0.3-0.5,0.3-0.8c-0.1-0.7-0.5-1-1.4-1L645.7,745.1z"/>
	</g>
	<path id="picto_6_" class="st10" d="M703.2,713.5c0-3.5-4.8-6.4-4.8-6.4s-0.4,0.2-0.9,0.6c-1.4,1-3.8,3.2-3.8,5.7
		c0,0.4,0.1,0.8,0.2,1.2l-4.1-3c1.4-1.1,3.5-3.1,3.4-5.4c0-3.5-4.8-6.4-4.8-6.4s-0.4,0.2-0.9,0.6c-1.4,1-3.8,3.2-3.8,5.7
		c0,0.4,0.1,0.8,0.2,1.2l-4.7-3.5c-0.3-0.3-0.9-0.3-1.2,0c-0.3,0.2-0.3,0.7,0,0.9l4.7,3.5c-0.5-0.1-1-0.1-1.6-0.1
		c-3.4,0-6.3,1.8-7.6,2.8c-0.5,0.4-0.8,0.7-0.8,0.7s3.8,3.5,8.6,3.6c3.1,0,5.9-1.5,7.3-2.6l4.1,3c-0.5-0.1-1-0.1-1.6-0.1
		c-3.4,0-6.3,1.8-7.6,2.8c-0.5,0.4-0.8,0.7-0.8,0.7s3.8,3.5,8.6,3.6c3.1,0,5.9-1.5,7.3-2.6l2.5,1.8l-6.1,4.5l0.6,0.5
		c3.8,2.8,9.8,2.8,13.5,0.1c3.7-2.7,3.6-7.2-0.1-10l-0.6-0.5l-6.1,4.5l-2.5-1.8C701.1,717.8,703.2,715.8,703.2,713.5z M707.8,725.8
		c-2.8,2.1-7.3,2.2-10.4,0.4l10.9-8.1C710.7,720.4,710.6,723.7,707.8,725.8z M701.4,713.4c0,1.5-1.1,2.8-2.1,3.8l-0.1-7.6
		C700.3,710.6,701.4,712,701.4,713.4z M695.4,713.4c0-1.5,1.1-2.8,2.1-3.8l0.1,7.6C696.6,716.2,695.5,714.9,695.4,713.4z
		 M691.5,706.1c0,1.5-1.1,2.8-2.1,3.8l-0.1-7.6C690.4,703.3,691.5,704.7,691.5,706.1z M685.6,706.1c0-1.5,1.1-2.8,2.1-3.8l0.1,7.6
		C686.7,708.9,685.6,707.5,685.6,706.1z M686.4,710.9l-10.2-0.1c1.3-0.7,3.1-1.6,5.1-1.5C683.2,709.3,685,710.1,686.4,710.9z
		 M676.1,712.1l10.2,0.1c-1.3,0.7-3.1,1.6-5.1,1.5C679.3,713.7,677.5,712.9,676.1,712.1z M696.2,718.2l-10.2-0.1
		c1.3-0.7,3.1-1.6,5.1-1.5C693.1,716.6,694.9,717.5,696.2,718.2z M686,719.5l10.2,0.1c-1.3,0.7-3.1,1.6-5.1,1.5
		C689.2,721.1,687.4,720.3,686,719.5z"/>
</g>
<g id="bed">
	<polygon id="ombre_2_" class="st0" points="810.7,788.3 724.1,853.7 670.3,813.5 756.8,748.1 	"/>
	<g id="tube_1_">
		<line id="contenu_tube" class="st1" x1="781.3" y1="756.6" x2="910" y2="659.3"/>
		<g id="tube" class="st2">
			<path class="st3" d="M781.3,758.6c-0.6,0-1.2-0.3-1.6-0.8c-0.7-0.9-0.5-2.1,0.4-2.8l128.7-97.3c0.9-0.7,2.1-0.5,2.8,0.4
				c0.7,0.9,0.5,2.1-0.4,2.8l-128.7,97.3C782.2,758.5,781.7,758.7,781.3,758.6z"/>
		</g>
	</g>
	<g id="box">
		<polygon class="st4" points="810.7,767 724.1,832.4 670.3,792.2 756.8,726.8 		"/>
		<polygon class="st5" points="810.7,785.5 724.1,850.9 724.1,832.4 810.7,767 		"/>
		<polygon class="st4" points="670.3,810.8 724.1,850.9 724.1,832.4 670.3,792.3 		"/>
	</g>
	<g id="connecteur">
		<polygon class="st6" points="726,800.4 701.6,818.6 677.9,800.8 701.9,782.5 		"/>
		<polygon class="st7" points="678.1,825.7 701.6,843.6 701.6,818.6 677.9,800.8 		"/>
		<polygon class="st6" points="707.7,820.2 707.8,838.8 701.6,843.5 701.6,818.6 726,800.4 726,806.9 		"/>
		<line id="line" class="st8" x1="701.6" y1="818.3" x2="701.6" y2="844.1"/>
		<line class="st8" x1="677.9" y1="800.8" x2="701.6" y2="818.6"/>
		<line class="st8" x1="701.4" y1="818.7" x2="726" y2="800.4"/>
		<path id="checkl" class="st9" d="M705.4,804.3l0-12.8c0-0.3-0.1-0.5-0.4-0.7c-0.2-0.2-0.5-0.3-0.9-0.2c-0.4,0-0.7,0.1-0.9,0.3
			c-0.2,0.2-0.4,0.4-0.4,0.7l0,11.8h-6.7c-0.9,0-1.3,0.4-1.3,1c0,0.2,0.1,0.5,0.4,0.7c0.3,0.2,0.6,0.3,0.9,0.3l8,0
			c0.4,0,0.7-0.1,0.9-0.2C705.3,804.9,705.4,804.7,705.4,804.3L705.4,804.3z"/>
	</g>
	<path id="picto_1_" class="st10" d="M767.9,758.1l-12-9c-0.4-0.3-1.1-0.3-1.6,0c-0.4,0.3-0.4,0.9,0,1.2l2.3,1.8L730,772.1l-2.3-1.8
		c-0.4-0.3-1.1-0.3-1.6,0c-0.4,0.3-0.4,0.9,0,1.2l12,9c-1.2,1.9-0.8,4.1,1.3,5.7l7,5.3c0.4,0.3,1.1,0.3,1.6,0c0.4-0.3,0.4-0.9,0-1.2
		l-0.8-0.6l33-24.8l0.8,0.6c0.4,0.3,1.1,0.3,1.6,0c0.4-0.3,0.4-0.9,0-1.2l-7-5.3C773.4,757.5,770.3,757.2,767.9,758.1z M731.5,773.2
		l26.7-20.1l7.8,5.9l-1.6,1.2c-1.7-1.3-4.5-1.3-6.3,0l-4.7,3.5c-1.7,1.3-1.7,3.4,0,4.7l-1.6,1.2c-1.7-1.3-4.5-1.3-6.3,0l-4.7,3.5
		c-1.7,1.3-1.7,3.4,0,4.7l-1.6,1.2L731.5,773.2z M762.9,761.4l-7.8,5.9c-0.9-0.6-0.9-1.7,0-2.4l4.7-3.5
		C760.6,760.7,762,760.7,762.9,761.4z M750.3,770.8l-7.8,5.9c-0.9-0.6-0.9-1.7,0-2.4l4.7-3.5C748.1,770.2,749.5,770.2,750.3,770.8z
		 M745.6,788.5l-4.7-3.5c-1.7-1.3-1.7-3.4,0-4.7l26.7-20.1c1.7-1.3,4.5-1.3,6.3,0l4.7,3.5L745.6,788.5z"/>
</g>
</svg>
