<svg id="b463e50f-5338-40b1-a1bf-d6bc1546f4b6" data-name="Calque 1" xmlns="http://www.w3.org/2000/svg" viewBox="0 0 423.42 351.12"><defs><style>.c905ae04-2b55-4441-b14a-38362e294e64{fill:#45afe0;opacity:0.12;}.\35 845bff4-4f9b-4cfa-b9b2-09e6a611fe4b,.c905ae04-2b55-4441-b14a-38362e294e64{isolation:isolate;}.\34 a5aa7b3-de5b-45d2-ac56-c112641dae65,.\35 845bff4-4f9b-4cfa-b9b2-09e6a611fe4b,.c3532781-ec68-49cf-a9cf-c508a0a97261{fill:none;}.\35 845bff4-4f9b-4cfa-b9b2-09e6a611fe4b,.c3532781-ec68-49cf-a9cf-c508a0a97261{stroke:#fff;}.\35 845bff4-4f9b-4cfa-b9b2-09e6a611fe4b{stroke-linecap:round;stroke-width:4px;opacity:0.8;}.\35 845bff4-4f9b-4cfa-b9b2-09e6a611fe4b,.\36 4b09adb-f86c-4974-907b-88b42b762bb5,.e3780cf2-83e0-4a72-95b2-8d2899ed590a{stroke-linejoin:round;}.\39 ed79f62-dbe7-4d1f-9746-6b970231a525{opacity:0.4;}.\34 a5aa7b3-de5b-45d2-ac56-c112641dae65{stroke:#019ee6;}.\34 a5aa7b3-de5b-45d2-ac56-c112641dae65,.c3532781-ec68-49cf-a9cf-c508a0a97261{stroke-miterlimit:10;}.\33 97a1727-7b32-4fe8-b0fc-9452d7b98a92,.\36 4b09adb-f86c-4974-907b-88b42b762bb5{fill:#fff;}.\36 4b09adb-f86c-4974-907b-88b42b762bb5,.e3780cf2-83e0-4a72-95b2-8d2899ed590a{stroke:#c5dcea;}.e3780cf2-83e0-4a72-95b2-8d2899ed590a{fill:#edf5fa;}.c6002ab9-3a79-40b8-803d-812f60348f68{fill:#1fda4b;}.ba6858fe-baf2-47a7-b55d-48e51ed8cf42{fill:#0fbc37;}.f5247306-adb6-48cd-9013-6cd93cd1a313{fill:#0096e0;}.\38 6403ddb-1f0c-461b-b0eb-53eee060ad23{fill:#de0c20;}.\38 8d9f444-08eb-4e1f-9626-c6f2d4abb553{fill:#bd0314;}</style></defs><title>choose-product-beezup</title><g id="02f9eb48-e2d6-4905-96b6-1674c16db302" data-name="sofa"><polygon id="a1254640-a16c-4c11-a88a-00b43c1adf44" data-name="ombre" class="c905ae04-2b55-4441-b14a-38362e294e64" points="140.9 149.52 54.4 214.92 0.5 174.72 87.1 109.32 140.9 149.52"/><g id="a07bda95-a3bf-4200-acdb-1ab91a4f4dd5" data-name="tube - copie"><line id="c355f842-2b78-4b7a-8bfe-1851f66add07" data-name="contenu tube" class="5845bff4-4f9b-4cfa-b9b2-09e6a611fe4b" x1="111.6" y1="99.82" x2="240.2" y2="2.52"/><g id="5ca60836-3f2d-4bb6-a045-151e1adf0f46" data-name="tube" class="9ed79f62-dbe7-4d1f-9746-6b970231a525"><path class="4a5aa7b3-de5b-45d2-ac56-c112641dae65" d="M129.6,121.4a2.09,2.09,0,0,1-1.6-.8,2,2,0,0,1,.4-2.8L257.1,20.5a2,2,0,1,1,2.4,3.2L130.9,121A1.58,1.58,0,0,1,129.6,121.4Z" transform="translate(-18.1 -19.58)"/></g></g><g id="ee923fcd-d4f5-4a85-9628-5214e0b2cad7" data-name="box"><polygon class="64b09adb-f86c-4974-907b-88b42b762bb5" points="140.9 110.22 54.4 175.62 0.5 135.42 87.1 70.02 140.9 110.22"/><polygon class="e3780cf2-83e0-4a72-95b2-8d2899ed590a" points="140.9 128.72 54.3 194.12 54.4 175.62 140.9 110.22 140.9 128.72"/><polygon class="64b09adb-f86c-4974-907b-88b42b762bb5" points="0.6 154.02 54.3 194.12 54.4 175.62 0.6 135.52 0.6 154.02"/></g><g id="45c7c87f-35da-4547-bee9-4a946de2d160" data-name="connecteur - copie"><polygon class="c6002ab9-3a79-40b8-803d-812f60348f68" points="56.2 143.62 31.9 161.82 8.2 144.02 32.2 125.72 56.2 143.62"/><polygon class="ba6858fe-baf2-47a7-b55d-48e51ed8cf42" points="8.3 168.92 31.9 186.82 31.9 161.82 8.2 144.02 8.3 168.92"/><polygon class="c6002ab9-3a79-40b8-803d-812f60348f68" points="38 163.42 38.1 182.02 31.9 186.72 31.9 161.82 56.2 143.62 56.3 150.12 38 163.42"/><line id="ef05fe4d-a6a5-435b-b492-9cfb7d68648f" data-name="line" class="c3532781-ec68-49cf-a9cf-c508a0a97261" x1="31.8" y1="161.52" x2="31.8" y2="187.32"/><line class="c3532781-ec68-49cf-a9cf-c508a0a97261" x1="8.2" y1="144.02" x2="31.9" y2="161.82"/><line class="c3532781-ec68-49cf-a9cf-c508a0a97261" x1="31.7" y1="161.92" x2="56.2" y2="143.62"/><path id="a03b4dda-400f-436a-8839-bd85e2637e27" data-name="checkl" class="397a1727-7b32-4fe8-b0fc-9452d7b98a92" d="M53.8,167.1V154.3a.75.75,0,0,0-.4-.7.9.9,0,0,0-.9-.2,1.22,1.22,0,0,0-.9.3,1,1,0,0,0-.4.7v11.8H44.5c-.9,0-1.3.4-1.3,1a.87.87,0,0,0,.4.7,1.61,1.61,0,0,0,.9.3h8a2,2,0,0,0,.9-.2,2.47,2.47,0,0,0,.4-.9Z" transform="translate(-18.1 -19.58)"/></g><g id="b2aede7d-ebe7-496c-9704-c6137118fc0d" data-name="picto"><path class="f5247306-adb6-48cd-9013-6cd93cd1a313" d="M95.3,127.3a.65.65,0,0,0,0-1.1,1.2,1.2,0,0,0-1.4,0,.65.65,0,0,0,0,1.1A1.2,1.2,0,0,0,95.3,127.3Zm-5.4,4.2a.65.65,0,0,0,0-1.1,1.2,1.2,0,0,0-1.4,0,.65.65,0,0,0,0,1.1A1.2,1.2,0,0,0,89.9,131.5Zm9.6-1a.65.65,0,0,0,0-1.1,1.2,1.2,0,0,0-1.4,0,.65.65,0,0,0,0,1.1A1.2,1.2,0,0,0,99.5,130.5ZM94,134.7a.65.65,0,0,0,0-1.1,1.2,1.2,0,0,0-1.4,0,.65.65,0,0,0,0,1.1A1.7,1.7,0,0,0,94,134.7Zm24.9,1.2-1.3-1c1.3-2.7.6-5.8-2.3-8l-.1-.1c2-2,1.7-4.9-.7-6.8a8.44,8.44,0,0,0-7.7-1.1c-6.3-2.4-13.9-1.6-18.9,2.2l-6,4.6c-5.1,3.9-6.1,9.7-2.9,14.4-1.1,1.9-.6,4.2,1.5,5.8a8.43,8.43,0,0,0,8.9.6l.1.1a12.23,12.23,0,0,0,10.5,1.8l1.3,1a1.2,1.2,0,0,0,1.4,0,.65.65,0,0,0,0-1.1l-.8-.6,1.5-.9,12.3-9.3a6.53,6.53,0,0,0,1.2-1.1l.8.6a1.2,1.2,0,0,0,1.4,0A.94.94,0,0,0,118.9,135.9Zm-38.6,2.9c-2.2-4-1.1-8.7,3-11.9l6-4.6c4.2-3.2,10.3-4,15.6-2.3h-.1c-2.6,2-2.6,5.3.1,7.4l3.5,2.7a1.22,1.22,0,0,1,0,2.1l-12.3,9.3a2.4,2.4,0,0,1-2.8,0l-3.5-2.7a8.1,8.1,0,0,0-9.5,0Zm33.7-2.4-12.3,9.3a9.63,9.63,0,0,1-11-.1l-.1-.1-1.2-.9-1.3.8a6,6,0,0,1-6.3-.4c-1.9-1.5-2-3.8-.1-5.3a6,6,0,0,1,6.9.1l3.5,2.7a4.82,4.82,0,0,0,5.5.1l12.3-9.3a2.48,2.48,0,0,0-.1-4.2l-3.5-2.7c-1.9-1.5-2-3.8-.1-5.3a6,6,0,0,1,6.9.1,3.09,3.09,0,0,1,.5,4.8l-1,1,1.2.9.1.1C117,130.4,117.1,134.1,114,136.4Z" transform="translate(-18.1 -19.58)"/></g></g><g id="d5b74921-758a-4bfb-82c8-9e046ff904e6" data-name="lamp"><polygon id="c2b39528-1826-41d5-a7dd-098e8c733239" data-name="ombre" class="c905ae04-2b55-4441-b14a-38362e294e64" points="201.9 195.52 115.4 260.92 61.5 220.72 148.1 155.32 201.9 195.52"/><g id="7080bac4-3ef8-41e5-8184-a48d2b3a9989" data-name="tube"><line id="b8565649-04d0-4248-9dbe-a5ef1c520705" data-name="contenu tube" class="5845bff4-4f9b-4cfa-b9b2-09e6a611fe4b" x1="172.6" y1="151.82" x2="301.2" y2="54.52"/><g id="a313bdec-5b36-4ee9-93e7-1cf6811f7c92" data-name="tube" class="9ed79f62-dbe7-4d1f-9746-6b970231a525"><path class="4a5aa7b3-de5b-45d2-ac56-c112641dae65" d="M190.6,173.4a2.09,2.09,0,0,1-1.6-.8,2,2,0,0,1,.4-2.8L318.1,72.5a2,2,0,0,1,2.4,3.2L191.9,173A1.58,1.58,0,0,1,190.6,173.4Z" transform="translate(-18.1 -19.58)"/></g></g><g id="1805ba64-3bfc-49d9-a47c-70a01539ee50" data-name="box"><polygon class="64b09adb-f86c-4974-907b-88b42b762bb5" points="201.9 162.22 115.4 227.62 61.5 187.42 148.1 122.02 201.9 162.22"/><polygon class="e3780cf2-83e0-4a72-95b2-8d2899ed590a" points="201.9 180.72 115.3 246.12 115.4 227.62 201.9 162.22 201.9 180.72"/><polygon class="64b09adb-f86c-4974-907b-88b42b762bb5" points="61.6 206.02 115.3 246.12 115.4 227.62 61.6 187.52 61.6 206.02"/></g><g id="3bd3ce07-2640-4592-96e7-eb013d561bf8" data-name="connecteur"><polygon class="c6002ab9-3a79-40b8-803d-812f60348f68" points="117.2 195.62 92.9 213.82 69.2 196.02 93.2 177.72 117.2 195.62"/><polygon class="ba6858fe-baf2-47a7-b55d-48e51ed8cf42" points="69.3 220.92 92.9 238.82 92.9 213.82 69.2 196.02 69.3 220.92"/><polygon class="c6002ab9-3a79-40b8-803d-812f60348f68" points="99 215.42 99.1 234.02 92.9 238.72 92.9 213.82 117.2 195.62 117.3 202.12 99 215.42"/><line id="d74f19ab-bfa0-4719-bfbe-8a7843618951" data-name="line" class="c3532781-ec68-49cf-a9cf-c508a0a97261" x1="92.8" y1="213.52" x2="92.8" y2="239.32"/><line class="c3532781-ec68-49cf-a9cf-c508a0a97261" x1="69.2" y1="196.02" x2="92.9" y2="213.82"/><line class="c3532781-ec68-49cf-a9cf-c508a0a97261" x1="92.7" y1="213.92" x2="117.2" y2="195.62"/><path id="d00a16e0-5e4d-43ad-bf69-f7be6193085f" data-name="checkl" class="397a1727-7b32-4fe8-b0fc-9452d7b98a92" d="M114.8,219.1V206.3a.75.75,0,0,0-.4-.7.9.9,0,0,0-.9-.2,1.22,1.22,0,0,0-.9.3,1,1,0,0,0-.4.7v11.8h-6.7c-.9,0-1.3.4-1.3,1a.87.87,0,0,0,.4.7,1.61,1.61,0,0,0,.9.3h8a2,2,0,0,0,.9-.2,2.47,2.47,0,0,0,.4-.9Z" transform="translate(-18.1 -19.58)"/></g><g id="e108d9af-a1e9-4691-be71-9458f10dcd69" data-name="picto"><path class="f5247306-adb6-48cd-9013-6cd93cd1a313" d="M185,188.7l-1.9-1.5.6-.5a1.69,1.69,0,0,0,0-2.9L170.8,174a3.47,3.47,0,0,0-3.9,0l-9.7,7.3-6.5-4.9,2.6-2,3.2,2.4a1.05,1.05,0,0,0,1.3,0,.57.57,0,0,0,0-1l-3.2-2.4,2.6-2a11.28,11.28,0,0,0-12.9,0l-1.3,1c-3.6,2.7-3.6,7.1,0,9.8l6.5-4.9,6.5,4.9-9.7,7.3a1.69,1.69,0,0,0,0,2.9l5.8,4.4,1.3,1,5.8,4.4a3.47,3.47,0,0,0,3.9,0l.6-.5,1.9,1.5a1.05,1.05,0,0,0,1.3,0,.57.57,0,0,0,0-1l-1.9-1.5L181.8,188l1.9,1.5a1.05,1.05,0,0,0,1.3,0C185.4,189.4,185.4,189,185,188.7Zm-36.8-12.2-5,3.8c-1.7-2.1-1.3-4.9,1.1-6.7l1.3-1a9.38,9.38,0,0,1,8.9-.9l-5,3.8Zm-.7,15.2a.57.57,0,0,1,0-1l9.7-7.3,1.3-1,9.7-7.3a1.05,1.05,0,0,1,1.3,0l5.8,4.4-22,16.6Zm35-5.9-20.7,15.7a1.05,1.05,0,0,1-1.3,0l-5.8-4.4,22-16.6,5.8,4.4A.56.56,0,0,1,182.5,185.8ZM163,182.9l-5.2,3.9a.57.57,0,0,0,0,1,1.05,1.05,0,0,0,1.3,0l5.2-3.9a.57.57,0,0,0,0-1A1,1,0,0,0,163,182.9Zm7.8,5.8-5.2,3.9a.57.57,0,0,0,0,1,1.05,1.05,0,0,0,1.3,0l5.2-3.9a.57.57,0,0,0,0-1A1.05,1.05,0,0,0,170.8,188.7Z" transform="translate(-18.1 -19.58)"/></g></g><g id="a3642494-2da7-40a8-8994-4a59dd90c770" data-name="flower"><polygon id="3737d21c-dc75-43a2-8847-c71030d41edc" data-name="ombre" class="c905ae04-2b55-4441-b14a-38362e294e64" points="263.6 241.72 177 307.12 123.2 266.92 209.7 201.52 263.6 241.72"/><g id="c50e2bef-5e4e-4576-b6a0-c93336b2ada4" data-name="box"><polygon class="64b09adb-f86c-4974-907b-88b42b762bb5" points="263.6 210.42 177 275.82 123.2 235.62 209.7 170.22 263.6 210.42"/><polygon class="e3780cf2-83e0-4a72-95b2-8d2899ed590a" points="263.6 228.92 177 294.32 177 275.82 263.6 210.42 263.6 228.92"/><polygon class="64b09adb-f86c-4974-907b-88b42b762bb5" points="123.2 254.22 177 294.32 177 275.82 123.2 235.72 123.2 254.22"/></g><g id="32dabdf8-a288-4e18-a989-cadf45123f95" data-name="connecteur"><polygon class="86403ddb-1f0c-461b-b0eb-53eee060ad23" points="178.9 243.82 154.5 262.02 130.8 244.22 154.8 225.92 178.9 243.82"/><polygon class="88d9f444-08eb-4e1f-9626-c6f2d4abb553" points="131 269.12 154.5 287.02 154.5 262.02 130.8 244.22 131 269.12"/><polygon class="88d9f444-08eb-4e1f-9626-c6f2d4abb553" points="160.6 263.62 160.7 282.22 154.5 286.92 154.5 262.02 178.9 243.82 178.9 250.32 160.6 263.62"/><line id="2c6c5178-0606-487c-a1ea-6994bacbd151" data-name="line" class="c3532781-ec68-49cf-a9cf-c508a0a97261" x1="154.5" y1="261.72" x2="154.5" y2="287.52"/><line class="c3532781-ec68-49cf-a9cf-c508a0a97261" x1="130.8" y1="244.22" x2="154.5" y2="262.02"/><line class="c3532781-ec68-49cf-a9cf-c508a0a97261" x1="154.3" y1="262.12" x2="178.9" y2="243.82"/><path class="397a1727-7b32-4fe8-b0fc-9452d7b98a92" d="M174.7,262.1l-.6-6.3c-.1-.7-.6-1-1.4-1s-1.3.5-1.3,1.2l.5,6.3-7.8.7c-.9.1-1.3.5-1.3,1.2s.5,1,1.4,1l7.8-.7.6,6.3c.1.7.6,1,1.4,1a1.27,1.27,0,0,0,.9-.4,1.14,1.14,0,0,0,.3-.8l-.5-6.3,7.8-.7a1.78,1.78,0,0,0,1-.4,1.14,1.14,0,0,0,.3-.8c-.1-.7-.5-1-1.4-1Z" transform="translate(-18.1 -19.58)"/></g><path id="96fdc9af-e092-4fa2-97f8-c547ec0241f7" data-name="picto" class="f5247306-adb6-48cd-9013-6cd93cd1a313" d="M232.2,230.5c0-3.5-4.8-6.4-4.8-6.4a5.67,5.67,0,0,0-.9.6c-1.4,1-3.8,3.2-3.8,5.7a5,5,0,0,0,.2,1.2l-4.1-3c1.4-1.1,3.5-3.1,3.4-5.4,0-3.5-4.8-6.4-4.8-6.4a5.67,5.67,0,0,0-.9.6c-1.4,1-3.8,3.2-3.8,5.7a5,5,0,0,0,.2,1.2l-4.7-3.5a.91.91,0,0,0-1.2,0,.56.56,0,0,0,0,.9l4.7,3.5a8.08,8.08,0,0,0-1.6-.1,13.17,13.17,0,0,0-7.6,2.8c-.5.4-.8.7-.8.7s3.8,3.5,8.6,3.6a12.59,12.59,0,0,0,7.3-2.6l4.1,3a8.08,8.08,0,0,0-1.6-.1,13.17,13.17,0,0,0-7.6,2.8c-.5.4-.8.7-.8.7s3.8,3.5,8.6,3.6a12.59,12.59,0,0,0,7.3-2.6l2.5,1.8-6.1,4.5.6.5a12.08,12.08,0,0,0,13.5.1c3.7-2.7,3.6-7.2-.1-10l-.6-.5-6.1,4.5-2.5-1.8C230.1,234.8,232.2,232.8,232.2,230.5Zm4.6,12.3a10,10,0,0,1-10.4.4l10.9-8.1A4.79,4.79,0,0,1,236.8,242.8Zm-6.4-12.4c0,1.5-1.1,2.8-2.1,3.8l-.1-7.6C229.3,227.6,230.4,229,230.4,230.4Zm-6,0c0-1.5,1.1-2.8,2.1-3.8l.1,7.6A6.44,6.44,0,0,1,224.4,230.4Zm-3.9-7.3c0,1.5-1.1,2.8-2.1,3.8l-.1-7.6C219.4,220.3,220.5,221.7,220.5,223.1Zm-5.9,0c0-1.5,1.1-2.8,2.1-3.8l.1,7.6C215.7,225.9,214.6,224.5,214.6,223.1Zm.8,4.8-10.2-.1a9.91,9.91,0,0,1,5.1-1.5A10.59,10.59,0,0,1,215.4,227.9Zm-10.3,1.2,10.2.1a9.91,9.91,0,0,1-5.1,1.5A10.59,10.59,0,0,1,205.1,229.1Zm20.1,6.1-10.2-.1a9.91,9.91,0,0,1,5.1-1.5A11,11,0,0,1,225.2,235.2ZM215,236.5l10.2.1a9.91,9.91,0,0,1-5.1,1.5A10.59,10.59,0,0,1,215,236.5Z" transform="translate(-18.1 -19.58)"/></g><g id="90740f64-dc55-4790-ab7c-6a55bb8b0346" data-name="bed"><polygon id="ceb77dc1-352e-481a-9624-32f47b4027c6" data-name="ombre" class="c905ae04-2b55-4441-b14a-38362e294e64" points="321.6 285.72 235 351.12 181.2 310.92 267.7 245.52 321.6 285.72"/><g id="ff379885-4b58-49e2-954d-6df9bc438f78" data-name="tube"><line id="643be081-3e4f-4073-8f15-b4d21dd2eeb4" data-name="contenu tube" class="5845bff4-4f9b-4cfa-b9b2-09e6a611fe4b" x1="292.2" y1="254.02" x2="420.9" y2="156.72"/><g id="4cade735-6c92-4ace-bb7a-e1baef442e82" data-name="tube" class="9ed79f62-dbe7-4d1f-9746-6b970231a525"><path class="4a5aa7b3-de5b-45d2-ac56-c112641dae65" d="M310.3,275.6a2.09,2.09,0,0,1-1.6-.8,2,2,0,0,1,.4-2.8l128.7-97.3a2,2,0,0,1,2.4,3.2L311.5,275.2A1.37,1.37,0,0,1,310.3,275.6Z" transform="translate(-18.1 -19.58)"/></g></g><g id="a56fb9f0-c849-44a1-948a-1f6d436da26e" data-name="box"><polygon class="64b09adb-f86c-4974-907b-88b42b762bb5" points="321.6 264.42 235 329.82 181.2 289.62 267.7 224.22 321.6 264.42"/><polygon class="e3780cf2-83e0-4a72-95b2-8d2899ed590a" points="321.6 282.92 235 348.32 235 329.82 321.6 264.42 321.6 282.92"/><polygon class="64b09adb-f86c-4974-907b-88b42b762bb5" points="181.2 308.22 235 348.32 235 329.82 181.2 289.72 181.2 308.22"/></g><g id="38e2f15c-44d1-4239-8bd9-b72210629091" data-name="connecteur"><polygon class="c6002ab9-3a79-40b8-803d-812f60348f68" points="236.9 297.82 212.5 316.02 188.8 298.22 212.8 279.92 236.9 297.82"/><polygon class="ba6858fe-baf2-47a7-b55d-48e51ed8cf42" points="189 323.12 212.5 341.02 212.5 316.02 188.8 298.22 189 323.12"/><polygon class="c6002ab9-3a79-40b8-803d-812f60348f68" points="218.6 317.62 218.7 336.22 212.5 340.92 212.5 316.02 236.9 297.82 236.9 304.32 218.6 317.62"/><line id="487601ea-ee3d-48ed-9cb0-7f6431b530fb" data-name="line" class="c3532781-ec68-49cf-a9cf-c508a0a97261" x1="212.5" y1="315.72" x2="212.5" y2="341.52"/><line class="c3532781-ec68-49cf-a9cf-c508a0a97261" x1="188.8" y1="298.22" x2="212.5" y2="316.02"/><line class="c3532781-ec68-49cf-a9cf-c508a0a97261" x1="212.3" y1="316.12" x2="236.9" y2="297.82"/><path id="24831020-ea16-4a0b-84c0-20c6fddb0013" data-name="checkl" class="397a1727-7b32-4fe8-b0fc-9452d7b98a92" d="M234.4,321.3V308.5a.75.75,0,0,0-.4-.7.9.9,0,0,0-.9-.2,1.22,1.22,0,0,0-.9.3,1,1,0,0,0-.4.7v11.8h-6.7c-.9,0-1.3.4-1.3,1a.87.87,0,0,0,.4.7,1.61,1.61,0,0,0,.9.3h8a2,2,0,0,0,.9-.2,1.09,1.09,0,0,0,.4-.9Z" transform="translate(-18.1 -19.58)"/></g><path id="633b8d84-74cc-484e-a681-3b6c826ed9c0" data-name="picto" class="f5247306-adb6-48cd-9013-6cd93cd1a313" d="M296.9,275.1l-12-9a1.53,1.53,0,0,0-1.6,0,.75.75,0,0,0,0,1.2l2.3,1.8-26.6,20-2.3-1.8a1.53,1.53,0,0,0-1.6,0,.75.75,0,0,0,0,1.2l12,9c-1.2,1.9-.8,4.1,1.3,5.7l7,5.3a1.53,1.53,0,0,0,1.6,0,.75.75,0,0,0,0-1.2l-.8-.6,33-24.8.8.6a1.53,1.53,0,0,0,1.6,0,.75.75,0,0,0,0-1.2l-7-5.3A8.77,8.77,0,0,0,296.9,275.1Zm-36.4,15.1,26.7-20.1L295,276l-1.6,1.2a5.58,5.58,0,0,0-6.3,0l-4.7,3.5a2.8,2.8,0,0,0,0,4.7l-1.6,1.2a5.58,5.58,0,0,0-6.3,0l-4.7,3.5a2.8,2.8,0,0,0,0,4.7l-1.6,1.2Zm31.4-11.8-7.8,5.9a1.4,1.4,0,0,1,0-2.4l4.7-3.5A2.55,2.55,0,0,1,291.9,278.4Zm-12.6,9.4-7.8,5.9a1.4,1.4,0,0,1,0-2.4l4.7-3.5A2.89,2.89,0,0,1,279.3,287.8Zm-4.7,17.7-4.7-3.5a2.8,2.8,0,0,1,0-4.7l26.7-20.1a5.58,5.58,0,0,1,6.3,0l4.7,3.5Z" transform="translate(-18.1 -19.58)"/></g></svg>