<svg id="contact.svg" xmlns="http://www.w3.org/2000/svg" width="321.4" height="256.062" viewBox="0 0 321.4 256.062"><defs><style>.cls-1 { fill: #009ee6; opacity: 0.06; } .cls-1, .cls-4 { stroke: #c6deec; } .cls-1, .cls-2, .cls-3, .cls-4, .cls-6 { stroke-width: 1px; } .cls-1, .cls-2, .cls-3, .cls-4, .cls-5, .cls-6 { fill-rule: evenodd; } .cls-2 { fill: #fcfefe; } .cls-2, .cls-3 { stroke: #c7deec; } .cls-2, .cls-3, .cls-6 { stroke-linecap: round; stroke-linejoin: round; } .cls-3 { fill: #eff6fb; } .cls-4, .cls-6 { fill: #fff; } .cls-5 { fill: #e0f3fc; } .cls-6 { stroke: #c8dfed; }</style></defs><path id="shadow" class="cls-1" d="M320.9 142.39L116.84 37.5 8.76 148.68l203.96 106.88z"/><path id="devant_marketplace" data-name="devant marketplace" class="cls-2" d="M1 110.967l1.3 11.7 206.55 105.4-1.17-10.948z"/><path id="face_marketplace" data-name="face marketplace" class="cls-3" d="M310.83 107.248l1.3 11.7L208.1 228.2l-1.17-10.948z"/><path class="cls-4" d="M104.44 1.22l207.2 105.91-103.95 110.747L.48 111.967z"/><path id="Forme_2" data-name="Forme 2" class="cls-4" d="M207.84 217.5l2-124-67-31-141 50z"/><path id="Forme_1" data-name="Forme 1" class="cls-5" d="M132.84 123.5l174.69-15.7 3.31 1.7-180 18-28-125 .56.287z"/><path id="Forme_1-2" data-name="Forme 1" class="cls-6" d="M102.84.5l30 123 178-16z"/></svg>