<svg id="95cd631b-272e-4832-9b6c-6fc8d5cef173" data-name="Calque 1" xmlns="http://www.w3.org/2000/svg" viewBox="0 0 373.9 305"><defs><style>.\35 3b4ecb9-f952-4e26-8edc-c4a5e4f26d98{fill:#45afe0;opacity:0.12;}.\33 f3aced6-65c4-41e7-89aa-777bd7bff9ba,.\35 3b4ecb9-f952-4e26-8edc-c4a5e4f26d98,.b978dbdb-d695-4c2f-8d36-a533970d32dc,.e7a988b8-ed9b-4b3d-b753-3c43b0bb08e9,.ecdbc09d-19bd-4d19-b9be-36e15b65a3c5{isolation:isolate;}.ab2b07de-450d-47cb-87ff-5fbcd31e5781,.b0eece5e-74e1-4389-aded-a80a9c59cd24{fill:#fff;}.af852668-0c04-4718-9234-3364feaee867,.b0eece5e-74e1-4389-aded-a80a9c59cd24{stroke:#c5dcea;stroke-linejoin:round;}.af852668-0c04-4718-9234-3364feaee867{fill:#edf5fa;}.\32 2be3c01-ed1d-4dad-844a-e20eb29cf368{fill:#1fda4b;}.\39 51be66b-1a24-4830-bb99-dba0ecbc15b3{fill:#0fbc37;}.\35 a59c617-ca2d-4578-8cb1-7ec35298db12{fill:none;stroke:#fff;stroke-miterlimit:10;}.e7a988b8-ed9b-4b3d-b753-3c43b0bb08e9,.ecdbc09d-19bd-4d19-b9be-36e15b65a3c5{font-size:18.82px;font-family:FiraSans-SemiBold, Fira Sans;font-weight:700;}.e7a988b8-ed9b-4b3d-b753-3c43b0bb08e9{fill:#009ee6;}.\35 df4353c-dded-44eb-95b1-838bd02be28b{letter-spacing:-0.01em;}.\33 f3aced6-65c4-41e7-89aa-777bd7bff9ba,.b978dbdb-d695-4c2f-8d36-a533970d32dc{font-size:13.53px;font-family:FiraSans-Regular, Fira Sans;}.b978dbdb-d695-4c2f-8d36-a533970d32dc{fill:#0fa1e7;}.\33 d1c44ae-eb80-4ab4-bf1f-b841bb89c42b{letter-spacing:0em;}.\31 59305cc-068e-4655-a749-dc1d89ef4de8{letter-spacing:0em;}.\33 f3aced6-65c4-41e7-89aa-777bd7bff9ba,.e761be4e-54ab-475c-a03f-a30e56098755{fill:#de0c20;}.\34 54d18a5-19eb-4718-bdac-3f40b86c00eb{fill:#be091a;}.\34 6e2ac26-41d3-4cd4-8de9-2e98f99c6a75{fill:#be0819;}.ecdbc09d-19bd-4d19-b9be-36e15b65a3c5{fill:#1d1d1b;}.\38 cc93910-1dd4-417c-9c21-1d3060215770{letter-spacing:-0.04em;}.f5f1e71f-6790-4a8a-9dfe-72bc536bd2ea{letter-spacing:0.01em;}.\35 e17c2fe-8fb5-44b0-a1b9-3ccff3a54f18{letter-spacing:-0.01em;}.\30 e21431a-3738-4811-ae22-010429b04321{letter-spacing:0em;}.\32 cc8926c-3b89-41cb-8bca-271046952340{letter-spacing:-0.01em;}</style></defs><title>data-in-sight-beezup</title><g id="5491e7a2-1d51-4a50-9194-8503eb758786" data-name="ombre"><polygon id="c348073f-31f1-42e1-8309-da05509526b1" data-name="ombre" class="53b4ecb9-f952-4e26-8edc-c4a5e4f26d98" points="373.7 176.6 204.7 305 0.8 152.3 169.9 23.9 373.7 176.6"/></g><g id="688f2546-3f48-4586-b65f-3511ffdf8d87" data-name="sync1"><g id="3a67fd7f-21ad-4f43-9a44-dd36a8d3938b" data-name="box"><polygon id="83e2d6fe-5c32-43c4-8841-2d596cccdd08" data-name="top" class="b0eece5e-74e1-4389-aded-a80a9c59cd24" points="220.9 38.7 51.3 166.9 0.5 128.7 170 0.5 220.9 38.7"/><polygon id="4c71e291-926e-4fb6-9222-d052f2cb43eb" data-name="devant" class="af852668-0c04-4718-9234-3364feaee867" points="220.9 57.1 51.3 185.4 51.3 166.9 220.9 38.6 220.9 57.1"/><polygon id="4185fb12-f892-4626-947a-17aa72a8cc82" data-name="coté" class="b0eece5e-74e1-4389-aded-a80a9c59cd24" points="0.5 147.3 51.3 185.4 51.3 166.9 0.5 128.8 0.5 147.3"/></g><g id="2afa8c0d-cccc-4cad-a3d2-a620ca36c455" data-name="connecteur"><polygon class="22be3c01-ed1d-4dad-844a-e20eb29cf368" points="56.2 136.8 31.8 155.1 8.1 137.2 32.1 119 56.2 136.8"/><polygon class="951be66b-1a24-4830-bb99-dba0ecbc15b3" points="8.3 162.2 31.8 180 31.8 155.1 8.1 137.2 8.3 162.2"/><polygon class="22be3c01-ed1d-4dad-844a-e20eb29cf368" points="37.9 156.7 38 175.3 31.8 179.9 31.8 155.1 56.2 136.8 56.3 143.4 37.9 156.7"/><line id="cb3b4730-c2bd-4231-a3cb-0521546ace03" data-name="line" class="5a59c617-ca2d-4578-8cb1-7ec35298db12" x1="31.8" y1="154.8" x2="31.8" y2="180.6"/><line class="5a59c617-ca2d-4578-8cb1-7ec35298db12" x1="8.1" y1="137.2" x2="31.8" y2="155.1"/><line class="5a59c617-ca2d-4578-8cb1-7ec35298db12" x1="31.6" y1="155.1" x2="56.2" y2="136.8"/><path id="5e7ed40e-c6ff-48d7-ba69-be717fdbddfb" data-name="checkl" class="ab2b07de-450d-47cb-87ff-5fbcd31e5781" d="M61.5,160.8V148a.75.75,0,0,0-.4-.7.9.9,0,0,0-.9-.2,1.22,1.22,0,0,0-.9.3,1,1,0,0,0-.4.7v11.8H52.2c-.9,0-1.3.4-1.3,1a.87.87,0,0,0,.4.7,1.61,1.61,0,0,0,.9.3h8a2,2,0,0,0,.9-.2,3.55,3.55,0,0,0,.4-.9Z" transform="translate(-25.8 -20)"/></g><g id="d09c96cb-5767-4b17-9c7a-302a42699d71" data-name="txt"><text class="e7a988b8-ed9b-4b3d-b753-3c43b0bb08e9" transform="matrix(0.8, -0.6, 0.8, 0.6, 71.15, 118.64)"><tspan class="5df4353c-dded-44eb-95b1-838bd02be28b">S</tspan><tspan x="10.45" y="0">ync 1</tspan></text><text class="b978dbdb-d695-4c2f-8d36-a533970d32dc" transform="matrix(0.8, -0.6, 0.8, 0.6, 160.6, 48.89)">6<tspan class="3d1c44ae-eb80-4ab4-bf1f-b841bb89c42b" x="7.21" y="0">:</tspan><tspan class="159305cc-068e-4655-a749-dc1d89ef4de8" x="10.51" y="0">54</tspan></text></g></g><g id="077200f7-0ebb-464b-8337-7af1cb624784" data-name="sync2"><g id="e484e5d8-129e-4a9d-bd66-d1ece1376923" data-name="box"><polygon id="42be5ea8-fbf3-44d2-868f-636c403c84ae" data-name="top" class="b0eece5e-74e1-4389-aded-a80a9c59cd24" points="271.7 76.8 102.2 205.1 51.3 166.9 220.9 38.6 271.7 76.8"/><polygon id="96049418-20a9-4d60-b475-6a0ca9bc4e3e" data-name="devant" class="af852668-0c04-4718-9234-3364feaee867" points="271.7 95.3 102.1 223.6 102.2 205.1 271.7 76.8 271.7 95.3"/><polygon id="19ca7db3-8010-4603-ade3-e12151f4bddc" data-name="coté" class="b0eece5e-74e1-4389-aded-a80a9c59cd24" points="51.4 185.5 102.1 223.6 102.2 205.1 51.4 167 51.4 185.5"/></g><g id="c96db28c-5e5e-4c4c-8d82-0ae54938f88c" data-name="connecteur"><polygon class="e761be4e-54ab-475c-a03f-a30e56098755" points="107 175 82.7 193.2 59 175.4 83 157.2 107 175"/><polygon class="454d18a5-19eb-4718-bdac-3f40b86c00eb" points="59.1 200.4 82.7 218.2 82.7 193.2 59 175.4 59.1 200.4"/><polygon class="46e2ac26-41d3-4cd4-8de9-2e98f99c6a75" points="88.8 194.9 88.9 213.4 82.7 218.1 82.7 193.2 107 175 107.1 181.5 88.8 194.9"/><line id="6142aad2-5c0c-4169-a74d-2a533bb222ce" data-name="line" class="5a59c617-ca2d-4578-8cb1-7ec35298db12" x1="82.6" y1="193" x2="82.6" y2="218.7"/><line class="5a59c617-ca2d-4578-8cb1-7ec35298db12" x1="59" y1="175.4" x2="82.7" y2="193.2"/><line class="5a59c617-ca2d-4578-8cb1-7ec35298db12" x1="82.5" y1="193.3" x2="107" y2="175"/><path id="5e6d31a9-4313-48ee-8551-03c529323ed9" data-name="picto" class="ab2b07de-450d-47cb-87ff-5fbcd31e5781" d="M124.8,193.8a1.06,1.06,0,0,0-.7-.6l-21.9-4.5a1.16,1.16,0,0,0-1,.2.67.67,0,0,0-.3.8l6,16.4a1.06,1.06,0,0,0,.7.6,1.16,1.16,0,0,0,1-.2l15.8-11.9c.4-.3.5-.5.4-.8Zm-21.4-3.2,18.3,3.8-13.2,9.9Zm8.2,5.4a.86.86,0,0,1-.3.6,1,1,0,0,1-.7.2,1.45,1.45,0,0,1-.7-.2l-3.5-2.6a.71.71,0,0,1-.3-.6.86.86,0,0,1,.3-.6,1,1,0,0,1,.7-.2,1.45,1.45,0,0,1,.7.2l3.5,2.6A.86.86,0,0,1,111.6,196Zm2.4,2.5a1.4,1.4,0,0,1-.9.3,1.22,1.22,0,0,1-.9-.3,1,1,0,0,1-.4-.7.75.75,0,0,1,.4-.7,1.4,1.4,0,0,1,.9-.3,1.69,1.69,0,0,1,1,.3.91.91,0,0,1,.3.7A.84.84,0,0,1,114,198.5Z" transform="translate(-25.8 -20)"/></g><g id="a8ea8ae7-5d22-47a0-abe7-78c3711f207d" data-name="txt"><text class="ecdbc09d-19bd-4d19-b9be-36e15b65a3c5" transform="matrix(0.8, -0.6, 0.8, 0.6, 121.06, 157.63)"><tspan class="5df4353c-dded-44eb-95b1-838bd02be28b">S</tspan><tspan x="10.45" y="0">ync 2</tspan></text><text class="3f3aced6-65c4-41e7-89aa-777bd7bff9ba" transform="matrix(0.8, -0.6, 0.8, 0.6, 215.15, 86.19)">7<tspan class="8cc93910-1dd4-417c-9c21-1d3060215770" x="6.01" y="0">:</tspan><tspan x="8.71" y="0">10</tspan></text></g></g><g id="ab955011-eaf8-41ca-b285-f063708e9418" data-name="sync3"><g id="f360ea64-e28c-42c0-96d5-2bfc51461cb7" data-name="box"><polygon id="3504de31-3372-4954-9d6d-a52530179568" data-name="top" class="b0eece5e-74e1-4389-aded-a80a9c59cd24" points="322.5 114.9 153 243.1 102.2 205 271.7 76.7 322.5 114.9"/><polygon id="b1c9e9f7-a35c-460c-9fba-35f88ebb876d" data-name="devant" class="af852668-0c04-4718-9234-3364feaee867" points="322.6 133.4 153 261.6 153 243.1 322.6 114.9 322.6 133.4"/><polygon id="dc51f40c-848c-46d7-9399-169b162edc58" data-name="coté" class="b0eece5e-74e1-4389-aded-a80a9c59cd24" points="102.2 223.6 153 261.6 153 243.1 102.2 205.1 102.2 223.6"/></g><g id="99e7ccf7-320d-4baf-936e-de5ba91fcbff" data-name="connecteur"><polygon class="22be3c01-ed1d-4dad-844a-e20eb29cf368" points="157.9 213.1 133.5 231.3 109.8 213.5 133.8 195.3 157.9 213.1"/><polygon class="951be66b-1a24-4830-bb99-dba0ecbc15b3" points="109.9 238.4 133.5 256.3 133.5 231.3 109.8 213.5 109.9 238.4"/><polygon class="22be3c01-ed1d-4dad-844a-e20eb29cf368" points="139.6 232.9 139.7 251.5 133.5 256.2 133.5 231.3 157.9 213.1 157.9 219.6 139.6 232.9"/><line id="084ef745-011d-4f49-baf3-ab31cb2750e4" data-name="line" class="5a59c617-ca2d-4578-8cb1-7ec35298db12" x1="133.5" y1="231.1" x2="133.5" y2="256.8"/><line class="5a59c617-ca2d-4578-8cb1-7ec35298db12" x1="109.8" y1="213.5" x2="133.5" y2="231.3"/><line class="5a59c617-ca2d-4578-8cb1-7ec35298db12" x1="133.3" y1="231.4" x2="157.9" y2="213.1"/><path id="e6e354e8-8282-4ed6-8863-47a7c934e9ed" data-name="checkl" class="ab2b07de-450d-47cb-87ff-5fbcd31e5781" d="M163.1,237.1V224.3a.75.75,0,0,0-.4-.7.9.9,0,0,0-.9-.2,1.22,1.22,0,0,0-.9.3,1,1,0,0,0-.4.7v11.8h-6.7c-.9,0-1.3.4-1.3,1a.87.87,0,0,0,.4.7,1.61,1.61,0,0,0,.9.3h8a2,2,0,0,0,.9-.2,1.39,1.39,0,0,0,.4-.9Z" transform="translate(-25.8 -20)"/></g><g id="fabfe532-2b8f-4a46-9429-97ffcf1bf103" data-name="txt"><text class="e7a988b8-ed9b-4b3d-b753-3c43b0bb08e9" transform="matrix(0.8, -0.6, 0.8, 0.6, 171.54, 195.14)"><tspan class="5df4353c-dded-44eb-95b1-838bd02be28b">S</tspan><tspan x="10.45" y="0">ync 3</tspan></text><text class="b978dbdb-d695-4c2f-8d36-a533970d32dc" transform="matrix(0.8, -0.6, 0.8, 0.6, 263.96, 123.37)">7<tspan class="f5f1e71f-6790-4a8a-9dfe-72bc536bd2ea" x="6.01" y="0">:</tspan><tspan class="5e17c2fe-8fb5-44b0-a1b9-3ccff3a54f18" x="9.37" y="0">3</tspan><tspan class="0e21431a-3738-4811-ae22-010429b04321" x="15.99" y="0">2</tspan></text></g></g><g id="0da41217-7f8e-4d79-a371-67efe370978c" data-name="sync4"><g id="88821958-bda3-4454-bb71-e172f0396f31" data-name="box"><polygon id="3a039cf2-3617-49ce-b279-07bc65cfba37" data-name="top" class="b0eece5e-74e1-4389-aded-a80a9c59cd24" points="373.4 153.3 203.9 281.5 153 243.3 322.6 115.1 373.4 153.3"/><polygon id="0dc8f3e2-fba4-417a-a2e4-60ac9525902f" data-name="devant" class="af852668-0c04-4718-9234-3364feaee867" points="373.4 171.8 203.9 300 203.9 281.5 373.4 153.3 373.4 171.8"/><polygon id="fdaea4c6-71e7-4981-a3f3-2065b8565803" data-name="coté" class="b0eece5e-74e1-4389-aded-a80a9c59cd24" points="153.1 261.9 203.9 300 203.9 281.5 153.1 243.4 153.1 261.9"/></g><g id="25f60bc5-8fd3-4b5e-80fe-b14a146fa75d" data-name="connecteur"><polygon class="22be3c01-ed1d-4dad-844a-e20eb29cf368" points="208.8 251.4 184.4 269.7 160.7 251.8 184.7 233.6 208.8 251.4"/><polygon class="951be66b-1a24-4830-bb99-dba0ecbc15b3" points="160.8 276.8 184.4 294.6 184.4 269.7 160.7 251.8 160.8 276.8"/><polygon class="22be3c01-ed1d-4dad-844a-e20eb29cf368" points="190.5 271.3 190.6 289.9 184.4 294.6 184.4 269.7 208.8 251.4 208.8 258 190.5 271.3"/><line id="ba820100-8088-42e6-ad50-82aa80b98b38" data-name="line" class="5a59c617-ca2d-4578-8cb1-7ec35298db12" x1="184.4" y1="269.4" x2="184.4" y2="295.2"/><line class="5a59c617-ca2d-4578-8cb1-7ec35298db12" x1="160.7" y1="251.8" x2="184.4" y2="269.7"/><line class="5a59c617-ca2d-4578-8cb1-7ec35298db12" x1="184.2" y1="269.8" x2="208.8" y2="251.4"/><path id="0f14de41-3c02-4fb5-970e-c56fb6e8993a" data-name="checkl" class="ab2b07de-450d-47cb-87ff-5fbcd31e5781" d="M214,275.4V262.6a.75.75,0,0,0-.4-.7.9.9,0,0,0-.9-.2,1.22,1.22,0,0,0-.9.3,1,1,0,0,0-.4.7v11.8h-6.7c-.9,0-1.3.4-1.3,1a.87.87,0,0,0,.4.7,1.61,1.61,0,0,0,.9.3h8a2,2,0,0,0,.9-.2,1.49,1.49,0,0,0,.4-.9Z" transform="translate(-25.8 -20)"/></g><g id="b8fdd6f3-975c-428f-93b6-a92a9ab55efb" data-name="txt"><text class="e7a988b8-ed9b-4b3d-b753-3c43b0bb08e9" transform="matrix(0.8, -0.6, 0.8, 0.6, 224.22, 233.05)"><tspan class="5df4353c-dded-44eb-95b1-838bd02be28b">S</tspan><tspan x="10.45" y="0">ync 4</tspan></text><text class="b978dbdb-d695-4c2f-8d36-a533970d32dc" transform="matrix(0.8, -0.6, 0.8, 0.6, 315.21, 161.27)">9:<tspan class="2cc8926c-3b89-41cb-8bca-271046952340" x="10.35" y="0">0</tspan><tspan class="0e21431a-3738-4811-ae22-010429b04321" x="17.73" y="0">2</tspan></text></g></g></svg>