<?xml version="1.0" encoding="utf-8"?>
<!-- Generator: Adobe Illustrator 21.0.2, SVG Export Plug-In . SVG Version: 6.00 Build 0)  -->
<svg version="1.1" xmlns="http://www.w3.org/2000/svg" xmlns:xlink="http://www.w3.org/1999/xlink" x="0px" y="0px"
	 viewBox="0 0 1417 1417" style="enable-background:new 0 0 1417 1417;" xml:space="preserve">
<style type="text/css">
	.st0{opacity:0.12;fill:#45AFE0;}
	.st1{fill:#FFFFFF;stroke:#C5DCEA;stroke-linejoin:round;stroke-miterlimit:10;}
	.st2{fill:#EDF5FA;stroke:#C5DCEA;stroke-linejoin:round;stroke-miterlimit:10;}
	.st3{fill:#1FDA4B;}
	.st4{fill:#0FBC37;}
	.st5{fill:none;stroke:#FFFFFF;stroke-miterlimit:10;}
	.st6{fill:#FFFFFF;}
	.st7{fill:#009EE6;}
	.st8{font-family:'FiraSans-SemiBold';}
	.st9{font-size:18.8249px;}
	.st10{fill:#0FA1E7;}
	.st11{font-family:'FiraSans-Regular';}
	.st12{font-size:13.5275px;}
	.st13{fill:#DE0C20;}
	.st14{fill:#BE091A;}
	.st15{fill:#BE0819;}
	.st16{fill:#1D1D1B;}
</style>
<g id="ombre">
	<polygon id="ombre_3_" class="st0" points="902.5,711.6 733.5,840 529.6,687.3 698.7,558.9 	"/>
</g>
<g id="sync1">
	<g id="tube">
	</g>
	<g id="box">
		<polygon id="top" class="st1" points="749.7,573.7 580.1,701.9 529.3,663.7 698.8,535.5 		"/>
		<polygon id="devant" class="st2" points="749.7,592.1 580.1,720.4 580.1,701.9 749.7,573.6 		"/>
		<polygon id="coté" class="st1" points="529.3,682.3 580.1,720.4 580.1,701.9 529.3,663.8 		"/>
	</g>
	<g id="connecteur">
		<polygon class="st3" points="585,671.8 560.6,690.1 536.9,672.2 560.9,654 		"/>
		<polygon class="st4" points="537.1,697.2 560.6,715 560.6,690.1 536.9,672.2 		"/>
		<polygon class="st3" points="566.7,691.7 566.8,710.3 560.6,714.9 560.6,690.1 585,671.8 585.1,678.4 		"/>
		<line id="line_3_" class="st5" x1="560.6" y1="689.8" x2="560.6" y2="715.6"/>
		<line class="st5" x1="536.9" y1="672.2" x2="560.6" y2="690.1"/>
		<line class="st5" x1="560.4" y1="690.1" x2="585" y2="671.8"/>
		<path id="checkl_2_" class="st6" d="M564.5,675.8l0-12.8c0-0.3-0.1-0.5-0.4-0.7c-0.2-0.2-0.5-0.3-0.9-0.2c-0.4,0-0.7,0.1-0.9,0.3
			c-0.2,0.2-0.4,0.4-0.4,0.7l0,11.8h-6.7c-0.9,0-1.3,0.4-1.3,1c0,0.2,0.1,0.5,0.4,0.7c0.3,0.2,0.6,0.3,0.9,0.3l8,0
			c0.4,0,0.7-0.1,0.9-0.2C564.3,676.4,564.4,676.1,564.5,675.8L564.5,675.8z"/>
	</g>
	<g id="txt">
		<text transform="matrix(0.8 -0.6 0.8 0.6 599.9466 653.6451)" class="st7 st8 st9">Sync 1</text>
		<text transform="matrix(0.8 -0.6 0.8 0.6 689.4041 583.8854)" class="st10 st11 st12">6:54</text>
	</g>
</g>
<g id="sync2">
	<g id="tube_1_">
	</g>
	<g id="box_1_">
		<polygon id="top_2_" class="st1" points="800.5,611.8 631,740.1 580.1,701.9 749.7,573.6 		"/>
		<polygon id="devant_2_" class="st2" points="800.5,630.3 630.9,758.6 631,740.1 800.5,611.8 		"/>
		<polygon id="coté_2_" class="st1" points="580.2,720.5 630.9,758.6 631,740.1 580.2,702 		"/>
	</g>
	<g id="connecteur_1_">
		<polygon class="st13" points="635.8,710 611.5,728.2 587.8,710.4 611.8,692.2 		"/>
		<polygon class="st14" points="587.9,735.4 611.5,753.2 611.5,728.2 587.8,710.4 		"/>
		<polygon class="st15" points="617.6,729.9 617.7,748.4 611.5,753.1 611.5,728.2 635.8,710 635.9,716.5 		"/>
		<line id="line_1_" class="st5" x1="611.4" y1="728" x2="611.4" y2="753.7"/>
		<line class="st5" x1="587.8" y1="710.4" x2="611.5" y2="728.2"/>
		<line class="st5" x1="611.3" y1="728.3" x2="635.8" y2="710"/>
		<path id="picto" class="st6" d="M627.8,708.8c-0.1-0.3-0.4-0.5-0.7-0.6l-21.9-4.5c-0.4-0.1-0.7,0-1,0.2c-0.3,0.2-0.4,0.5-0.3,0.8
			l6,16.4c0.1,0.3,0.4,0.5,0.7,0.6c0.4,0.1,0.7,0,1-0.2l15.8-11.9C627.8,709.3,627.9,709.1,627.8,708.8L627.8,708.8z M606.4,705.6
			l18.3,3.8l-13.2,9.9L606.4,705.6z M614.6,711c0,0.2-0.1,0.4-0.3,0.6c-0.2,0.2-0.5,0.2-0.7,0.2c-0.3,0-0.5-0.1-0.7-0.2l-3.5-2.6
			c-0.2-0.2-0.3-0.3-0.3-0.6c0-0.2,0.1-0.4,0.3-0.6c0.2-0.2,0.5-0.2,0.7-0.2c0.3,0,0.5,0.1,0.7,0.2l3.5,2.6
			C614.5,710.6,614.6,710.8,614.6,711z M617,713.5c-0.2,0.2-0.6,0.3-0.9,0.3c-0.4,0-0.7-0.1-0.9-0.3c-0.2-0.2-0.4-0.4-0.4-0.7
			c0-0.3,0.1-0.5,0.4-0.7c0.2-0.2,0.6-0.3,0.9-0.3c0.4,0,0.7,0.1,1,0.3c0.2,0.2,0.3,0.4,0.3,0.7C617.4,713.1,617.2,713.4,617,713.5z
			"/>
	</g>
	<g id="txt_4_">
		<text transform="matrix(0.8 -0.6 0.8 0.6 649.8583 692.6281)" class="st16 st8 st9">Sync 2</text>
		<text transform="matrix(0.8 -0.6 0.8 0.6 743.9462 621.1871)" class="st13 st11 st12">7:10</text>
	</g>
</g>
<g id="sync3">
	<g id="tube_3_">
	</g>
	<g id="box_2_">
		<polygon id="top_3_" class="st1" points="851.3,649.9 681.8,778.1 631,740 800.5,611.7 		"/>
		<polygon id="devant_3_" class="st2" points="851.4,668.4 681.8,796.6 681.8,778.1 851.4,649.9 		"/>
		<polygon id="coté_3_" class="st1" points="631,758.6 681.8,796.6 681.8,778.1 631,740.1 		"/>
	</g>
	<g id="connecteur_2_">
		<polygon class="st3" points="686.7,748.1 662.3,766.3 638.6,748.5 662.6,730.3 		"/>
		<polygon class="st4" points="638.7,773.4 662.3,791.3 662.3,766.3 638.6,748.5 		"/>
		<polygon class="st3" points="668.4,767.9 668.5,786.5 662.3,791.2 662.3,766.3 686.7,748.1 686.7,754.6 		"/>
		<line id="line_2_" class="st5" x1="662.3" y1="766.1" x2="662.3" y2="791.8"/>
		<line class="st5" x1="638.6" y1="748.5" x2="662.3" y2="766.3"/>
		<line class="st5" x1="662.1" y1="766.4" x2="686.7" y2="748.1"/>
		<path id="checkl_3_" class="st6" d="M666.1,752.1l0-12.8c0-0.3-0.1-0.5-0.4-0.7c-0.2-0.2-0.5-0.3-0.9-0.2c-0.4,0-0.7,0.1-0.9,0.3
			c-0.2,0.2-0.4,0.4-0.4,0.7l0,11.8h-6.7c-0.9,0-1.3,0.4-1.3,1c0,0.2,0.1,0.5,0.4,0.7c0.3,0.2,0.6,0.3,0.9,0.3l8,0
			c0.4,0,0.7-0.1,0.9-0.2C666,752.6,666.1,752.4,666.1,752.1L666.1,752.1z"/>
	</g>
	<g id="txt_2_">
		<text transform="matrix(0.8 -0.6 0.8 0.6 700.3356 730.1451)" class="st7 st8 st9">Sync 3</text>
		<text transform="matrix(0.8 -0.6 0.8 0.6 792.7633 658.366)" class="st10 st11 st12">7:32</text>
	</g>
</g>
<g id="sync4">
	<g id="tube_4_">
	</g>
	<g id="box_3_">
		<polygon id="top_1_" class="st1" points="902.2,688.3 732.7,816.5 681.8,778.3 851.4,650.1 		"/>
		<polygon id="devant_1_" class="st2" points="902.2,706.8 732.7,835 732.7,816.5 902.2,688.3 		"/>
		<polygon id="coté_1_" class="st1" points="681.9,796.9 732.7,835 732.7,816.5 681.9,778.4 		"/>
	</g>
	<g id="connecteur_3_">
		<polygon class="st3" points="737.6,786.4 713.2,804.7 689.5,786.8 713.5,768.6 		"/>
		<polygon class="st4" points="689.6,811.8 713.2,829.6 713.2,804.7 689.5,786.8 		"/>
		<polygon class="st3" points="719.3,806.3 719.4,824.9 713.2,829.6 713.2,804.7 737.6,786.4 737.6,793 		"/>
		<line id="line_4_" class="st5" x1="713.2" y1="804.4" x2="713.2" y2="830.2"/>
		<line class="st5" x1="689.5" y1="786.8" x2="713.2" y2="804.7"/>
		<line class="st5" x1="713" y1="804.8" x2="737.6" y2="786.4"/>
		<path id="checkl_4_" class="st6" d="M717,790.4l0-12.8c0-0.3-0.1-0.5-0.4-0.7c-0.2-0.2-0.5-0.3-0.9-0.2c-0.4,0-0.7,0.1-0.9,0.3
			c-0.2,0.2-0.4,0.4-0.4,0.7l0,11.8h-6.7c-0.9,0-1.3,0.4-1.3,1c0,0.2,0.1,0.5,0.4,0.7c0.3,0.2,0.6,0.3,0.9,0.3l8,0
			c0.4,0,0.7-0.1,0.9-0.2C716.8,791,717,790.8,717,790.4L717,790.4z"/>
	</g>
	<g id="txt_3_">
		<text id="Sync_4" transform="matrix(0.8 -0.6 0.8 0.6 753.0194 768.0489)" class="st7 st8 st9">Sync 4</text>
		<text transform="matrix(0.8 -0.6 0.8 0.6 844.0057 696.2675)" class="st10 st11 st12">9:02</text>
	</g>
</g>
</svg>
