<svg xmlns="http://www.w3.org/2000/svg" viewBox="0 0 518.09 378.38">
  <defs>
    <style>
      .cls-1{fill:#4dbbee;}.cls-1,.cls-2,.cls-3,.cls-8{stroke:#fff;}.cls-1,.cls-2,.cls-8{stroke-linejoin:round;stroke-width:0.5px;}.cls-2,.cls-7{fill:#009ee6;}.cls-3,.cls-8{fill:none;}.cls-3{stroke-miterlimit:10;}.cls-4{fill:#0184bd;}.cls-5,.cls-6{fill:#fff;}.cls-5{opacity:0.5;}
    </style>
  </defs>
  <g id="Calque_1" data-name="Calque 1">
    <path id="dessus" d="M459.25 208.71L346.3 328.2 80.45 193.11l-1-5L192.93 68.87l265.32 134.84 1 5z" class="cls-1"/>
    <path id="dessus-2" d="M458.25 203.71L345.61 323.17 79.45 188.11 192.93 68.87l265.32 134.84z" data-name="dessus" class="cls-2"/>
    <path id="dessus-3" d="M457.61 198.5L345.03 318.08 79.45 184.11l-2.17-12.86L190.93 51.87l265.32 134.84 1.36 11.79z" data-name="dessus" class="cls-1"/>
    <path id="dessus-4" d="M456.25 186.71L343.03 306.08 77.45 171.11 190.93 51.87l265.32 134.84z" data-name="dessus" class="cls-2"/>
    <path id="dessus-5" d="M455.25 180.71L342.03 300.08 76.45 165.11l-1-7L188.93 38.87l265.32 134.84 1 7z" data-name="dessus" class="cls-1"/>
    <path id="dessus-6" d="M454.25 173.71L341.03 293.08 75.45 158.11 188.93 38.87l265.32 134.84z" data-name="dessus" class="cls-2"/>
    <path d="M341.03 293.08l1 7m1 6l1.83 11.92m.75 5.17l.75 4.83" class="cls-3"/>
    <path d="M403.03 212.42l-23.94-12.57 1.56-1.68 24.13 12.5-1.75 1.75z" class="cls-4"/>
    <path d="M403.03 212.42l-23.94-12.57.16-.25 24.12 12.5-.34.32z" class="cls-5"/>
    <path d="M406.49 208.67l-23.94-12.57 1.56-1.68 24.13 12.5-1.75 1.75z" class="cls-4"/>
    <path d="M406.49 208.67l-23.94-12.57.16-.25 24.12 12.5-.34.32z" class="cls-5"/>
    <path d="M410.34 204.87l-23.94-12.56 1.57-1.69 24.12 12.5-1.75 1.75z" class="cls-4"/>
    <path d="M410.34 204.87l-23.94-12.56.16-.25 24.13 12.5-.35.31z" class="cls-5"/>
    <path d="M413.72 201.19l-23.94-12.57 1.56-1.68 24.13 12.5-1.75 1.75z" class="cls-4"/>
    <path d="M413.72 201.19l-23.94-12.57.16-.25 24.12 12.5-.34.32z" class="cls-5"/>
    <path d="M417.47 197.44l-23.94-12.57 1.56-1.68 24.13 12.5-1.75 1.75z" class="cls-4"/>
    <path d="M417.47 197.44l-23.94-12.57.16-.25 24.12 12.5-.34.32z" class="cls-5"/>
    <path d="M420.78 193.69l-23.94-12.57 1.56-1.68 24.13 12.5-1.75 1.75z" class="cls-4"/>
    <path d="M420.78 193.69l-23.94-12.57.16-.25 24.12 12.5-.34.32z" class="cls-5"/>
    <path d="M424.3 189.98l-23.94-12.56 1.57-1.69 24.12 12.5-1.75 1.75z" class="cls-4"/>
    <path d="M424.3 189.98l-23.94-12.56.16-.25 24.12 12.5-.34.31z" class="cls-5"/>
    <path d="M427.7 186.33l-23.94-12.56 1.56-1.69 24.13 12.5-1.75 1.75z" class="cls-4"/>
    <path d="M427.7 186.33l-23.94-12.56.15-.25 24.13 12.5-.34.31z" class="cls-5"/>
    <path d="M431.45 182.4l-23.94-12.57 1.56-1.68 24.13 12.5-1.75 1.75z" class="cls-4"/>
    <path d="M431.45 182.4l-23.94-12.57.15-.25 24.13 12.5-.34.32z" class="cls-5"/>
    <path d="M434.95 178.71l-23.94-12.56 1.56-1.69 24.13 12.5-1.75 1.75z" class="cls-4"/>
    <path d="M434.95 178.71l-23.94-12.56.15-.25 24.13 12.5-.34.31z" class="cls-5"/>
    <path d="M180.2 98.92l-23.94-12.57 1.56-1.68 24.13 12.5-1.75 1.75z" class="cls-4"/>
    <path d="M180.2 98.92l-23.94-12.57.15-.25 24.13 12.5-.34.32z" class="cls-5"/>
    <path d="M183.65 95.17L159.72 82.6l1.56-1.68 24.12 12.5-1.75 1.75z" class="cls-4"/>
    <path d="M183.65 95.17L159.72 82.6l.15-.25L184 94.85l-.35.32z" class="cls-5"/>
    <path d="M187.51 91.37l-23.94-12.56 1.56-1.69 24.13 12.5-1.75 1.75z" class="cls-4"/>
    <path d="M187.51 91.37l-23.94-12.56.16-.25 24.12 12.5-.34.31z" class="cls-5"/>
    <path d="M190.88 87.69l-23.93-12.57 1.56-1.68 24.12 12.5-1.75 1.75z" class="cls-4"/>
    <path d="M190.88 87.69l-23.93-12.57.15-.25 24.13 12.5-.35.32z" class="cls-5"/>
    <path d="M194.63 83.94L170.7 71.37l1.56-1.68 24.12 12.5-1.75 1.75z" class="cls-4"/>
    <path d="M194.63 83.94L170.7 71.37l.15-.25 24.13 12.5-.35.32z" class="cls-5"/>
    <path d="M197.95 80.19l-23.94-12.57 1.56-1.68 24.13 12.5-1.75 1.75z" class="cls-4"/>
    <path d="M197.95 80.19l-23.94-12.57.15-.25 24.13 12.5-.34.32z" class="cls-5"/>
    <path d="M201.47 76.48l-23.94-12.56 1.56-1.69 24.13 12.5-1.75 1.75z" class="cls-4"/>
    <path d="M201.47 76.48l-23.94-12.56.16-.25 24.12 12.5-.34.31z" class="cls-5"/>
    <path d="M204.86 72.83l-23.93-12.56 1.56-1.69 24.12 12.5-1.75 1.75z" class="cls-4"/>
    <path d="M204.86 72.83l-23.93-12.56.15-.25 24.13 12.5-.35.31z" class="cls-5"/>
    <path d="M208.61 68.89l-23.93-12.56 1.56-1.68 24.12 12.49-1.75 1.75z" class="cls-4"/>
    <path d="M208.61 68.89l-23.93-12.56.15-.25 24.13 12.5-.35.31z" class="cls-5"/>
    <path d="M212.11 65.21l-23.93-12.56 1.56-1.69 24.12 12.5-1.75 1.75z" class="cls-4"/>
    <path d="M212.11 65.21l-23.93-12.56.15-.25 24.13 12.49-.35.32z" class="cls-5"/>
    <path d="M324.23 177.28c-2.49-3.5-16.91-7.58-32.22-9.12s-25.7 0-23.21 3.54c.69 1-.83 2.45 1.48 3.45-2.22-3.42 9.79-5.57 23.14-4.23s26.45 5.3 28.94 8.79a2.71 2.71 0 0 1 .24.42c1.85-.69 2.48-1.66 1.63-2.85zm-39.32-13.45c.3-1.67.69-3.41 1.18-5.19 3.34-12.13 10-21.63 14.86-21.24 3.85.31 5.42 6.73 4.26 15.4-3.36 2.35-7.2 6.95-10.52 12.72 3.24-4 6.66-6.78 9.6-7.72q-.26 1.12-.58 2.27c-.53 1.92-1.15 3.78-1.82 5.55a47.08 47.08 0 0 0 3.81-8.13 5.11 5.11 0 0 1 1.56 0c3.48.68 4.69 5.26 3.67 11.58 3.43-9.57 3.31-17.21-.67-18a4.93 4.93 0 0 0-2.79.4c2.59-11.19.64-20.27-4.66-20.7-5.62-.46-12.89 9-16.23 21.13a42.59 42.59 0 0 0-1.67 11.93zm-85.66-8.42q6.29.79 9.62-2.87 4.55-5-2.89-8.64l-12.22-6-19.54 21.48 11.84 5.78q8.15 4 13.93-2.37 3.72-4.05-.74-7.38zM189 161.64l-6.8-3.32 13.25-14.57 7.08 3.46q2.7 1.32 1.06 3.12-3 3.32-9.79 1.2l-2.35 2.57 1.46.71q4.8 2.34 1.75 5.69a4.4 4.4 0 0 1-5.66 1.14zm31.36-2.47q-9.54-4.66-16.55 3-7.34 8.06 3.08 13.15a39.66 39.66 0 0 0 6.94 2.74l2.87-3.15a39.14 39.14 0 0 1-6.21-2.38q-6.31-3.08-3.42-6.27l12.53 6.12q10.29-8.55.76-13.21zm-2.65 8.12l-8-3.9q3.41-3.23 7.25-1.36 4.1 2 .76 5.27zm22.46 1.54q-9.54-4.66-16.55 3-7.34 8.06 3.08 13.15a39.65 39.65 0 0 0 6.95 2.85l2.87-3.15a39.13 39.13 0 0 1-6.21-2.38q-6.31-3.08-3.42-6.27l12.56 6.08q10.25-8.61.72-13.28zm-2.64 8.12l-8-3.9q3.42-3.23 7.25-1.36 4.09 2.01.75 5.28zm11.14.61l9.58 4.68-18.69 4.75-2.73 3.01 14.77 7.21 2.74-3-9.43-4.61 18.54-4.82 2.86-3.16-14.77-7.22-2.87 3.16zm14.78 13.27l11.86-13 4.84 2.36-11.86 13q-4.67 5.14 1.71 8.25t11.06-2l11.86-13 4.83 2.36-11.86 13q-7.81 8.59-19 3.11t-3.44-14.08zm20.27 22.06l19.54-21.48 12.22 6q7.44 3.64 2.48 9.09-5.83 6.41-17.84 2.55l2.53-3.88q7.27 2.14 10.14-1 1.89-2.07-.81-3.39l-7.08-3.46-16.35 18z" class="cls-6"/>
  </g>
  <g id="Calque_2" data-name="Calque 2">
    <path d="M471.7 175.17a1.88 1.88 0 0 0 1.38-2.21 1.78 1.78 0 0 0-2-1.56 1.88 1.88 0 0 0-1.38 2.21 1.78 1.78 0 0 0 2 1.56zm4-11.15a1.88 1.88 0 0 0-1.38 2.21 1.78 1.78 0 0 0 2 1.56 1.88 1.88 0 0 0 1.38-2.21 1.78 1.78 0 0 0-2.03-1.56zm14.41 5.67a.59.59 0 0 0-.67-.52.63.63 0 0 0-.46.74.59.59 0 0 0 .67.52.63.63 0 0 0 .43-.74zm-18.87-11.31a.63.63 0 0 0 .46-.74.59.59 0 0 0-.67-.52.63.63 0 0 0-.46.74.59.59 0 0 0 .64.53zm-5.67 21.86a.63.63 0 0 0-.46.74.59.59 0 0 0 .67.52.63.63 0 0 0 .46-.74.59.59 0 0 0-.7-.51zm6.09 1.43a1.88 1.88 0 0 0-1.38 2.21 1.78 1.78 0 0 0 2 1.56 1.88 1.88 0 0 0 1.38-2.21 1.78 1.78 0 0 0-2.03-1.56zm18-11.24a.63.63 0 0 0-.46.74.59.59 0 0 0 .67.52.63.63 0 0 0 .46-.74.59.59 0 0 0-.71-.52zm-8.21 6.77a.63.63 0 0 0 .46-.74.59.59 0 0 0-.67-.52.63.63 0 0 0-.46.74.59.59 0 0 0 .67.52zm16.44-13.54a.63.63 0 0 0-.46.74.59.59 0 0 0 .67.52.63.63 0 0 0 .46-.74.59.59 0 0 0-.72-.52zm-52.6-16.83a1.88 1.88 0 0 0-1.38 2.21 1.78 1.78 0 0 0 2 1.56 1.88 1.88 0 0 0 1.38-2.21 1.78 1.78 0 0 0-2-1.56zM187.36 29.54a1.68 1.68 0 0 0-2 1.43 2 2 0 0 0 1.38 2.28 1.68 1.68 0 0 0 2-1.43 2 2 0 0 0-1.38-2.28zm-4.59-7.6a1.68 1.68 0 0 0-2 1.43 2 2 0 0 0 1.38 2.28 1.68 1.68 0 0 0 2-1.43 2 2 0 0 0-1.39-2.28zm7.91-10.93a.56.56 0 0 0-.68.48.66.66 0 0 0 .46.76.56.56 0 0 0 .68-.48.66.66 0 0 0-.46-.77zm-17 15.12a.56.56 0 0 0 .68-.48.66.66 0 0 0-.46-.76.56.56 0 0 0-.68.48.66.66 0 0 0 .46.75zm20 8.89a.68.68 0 0 0 .12.89.54.54 0 0 0 .81-.09.68.68 0 0 0-.12-.89.54.54 0 0 0-.82.09zm5.34-3.33a2 2 0 0 0 .35 2.68 1.62 1.62 0 0 0 2.44-.28 2 2 0 0 0-.35-2.68 1.62 1.62 0 0 0-2.45.28zm-7.19-20.4a.56.56 0 0 0-.68.48.66.66 0 0 0 .46.76.56.56 0 0 0 .68-.48.66.66 0 0 0-.47-.76zm2.11 11.5a.66.66 0 0 0-.46-.76.56.56 0 0 0-.68.48.66.66 0 0 0 .46.76.56.56 0 0 0 .66-.44zM189.04.27a.56.56 0 0 0-.68.48.66.66 0 0 0 .46.76.56.56 0 0 0 .68-.48.66.66 0 0 0-.47-.77zm-15.86 38a2 2 0 0 0 .35 2.68 1.62 1.62 0 0 0 2.44-.28 2.05 2.05 0 0 0-.35-2.68 1.62 1.62 0 0 0-2.45.25zM37.6 180.67a2 2 0 0 0-.76-2.59 1.63 1.63 0 0 0-2.34.73 2 2 0 0 0 .76 2.59 1.63 1.63 0 0 0 2.34-.73zm1.77 6a1.63 1.63 0 0 0-2.34.73 2 2 0 0 0 .76 2.59 1.63 1.63 0 0 0 2.34-.73 2 2 0 0 0-.76-2.55zm-19.92-13.89a.68.68 0 0 0 0 .9.54.54 0 0 0 .82 0 .68.68 0 0 0 0-.9.54.54 0 0 0-.82 0zm28.24 16a.54.54 0 0 0-.78.24.68.68 0 0 0 .25.86.54.54 0 0 0 .78-.24.68.68 0 0 0-.28-.81zM34.6 170.27a.68.68 0 0 0-.25-.86.54.54 0 0 0-.78.24.68.68 0 0 0 .25.86.54.54 0 0 0 .75-.2zm-5.47 1.71a1.63 1.63 0 0 0-2.34.73 2 2 0 0 0 .76 2.59 1.63 1.63 0 0 0 2.34-.73 2 2 0 0 0-.78-2.55zm-8.9-.16a.68.68 0 0 0 0 .9.54.54 0 0 0 .82 0 .68.68 0 0 0 0-.9.54.54 0 0 0-.85.01zm7.76 13.71a.54.54 0 0 0-.78.24.68.68 0 0 0 .25.86.54.54 0 0 0 .78-.24.68.68 0 0 0-.28-.82zm-17.73-17.09a.68.68 0 0 0 0 .9.54.54 0 0 0 .82 0 .68.68 0 0 0 0-.9.54.54 0 0 0-.85.05zm43.16-7.82a1.63 1.63 0 0 0-2.34.73 2 2 0 0 0 .76 2.59 1.63 1.63 0 0 0 2.34-.73 2 2 0 0 0-.79-2.55zm252.64 162.54a.54.54 0 0 0-.78.24.68.68 0 0 0 .25.86.54.54 0 0 0 .78-.24.68.68 0 0 0-.25-.86zm29.91 13a2 2 0 0 0-.76-2.59 1.63 1.63 0 0 0-2.34.73 2 2 0 0 0 .76 2.59 1.63 1.63 0 0 0 2.34-.76zm1.77 6a1.63 1.63 0 0 0-2.34.73 2 2 0 0 0 .76 2.59 1.63 1.63 0 0 0 2.34-.73 2 2 0 0 0-.76-2.57zm5.09 15.88a.54.54 0 0 0-.78.24.68.68 0 0 0 .25.86.54.54 0 0 0 .78-.24.68.68 0 0 0-.25-.85zm3.2-13.77a.54.54 0 0 0-.78.24.68.68 0 0 0 .25.86.54.54 0 0 0 .78-.24.68.68 0 0 0-.25-.84zm-13.09-18.51a.68.68 0 0 0-.25-.86.54.54 0 0 0-.78.24.68.68 0 0 0 .25.86.54.54 0 0 0 .77-.22zm-5.49 1.73a1.63 1.63 0 0 0-2.34.73 2 2 0 0 0 .76 2.59 1.63 1.63 0 0 0 2.34-.73 2 2 0 0 0-.76-2.59zm14.33 29.95a.54.54 0 0 0-.78.24.68.68 0 0 0 .25.86.54.54 0 0 0 .78-.24.68.68 0 0 0-.23-.86zm-15.47-16.39a.54.54 0 0 0-.78.24.68.68 0 0 0 .25.86.54.54 0 0 0 .78-.24.68.68 0 0 0-.24-.87zm15.38 27.73a.54.54 0 0 0-.78.24.68.68 0 0 0 .25.86.54.54 0 0 0 .78-.24.68.68 0 0 0-.23-.87zm31.21-54.22a1.63 1.63 0 0 0-2.34.73 2 2 0 0 0 .76 2.59 1.63 1.63 0 0 0 2.34-.73 2 2 0 0 0-.74-2.6zm-6.45 18.34a1.63 1.63 0 0 0-2.34.73 2 2 0 0 0 .76 2.59 1.63 1.63 0 0 0 2.34-.73 2 2 0 0 0-.76-2.59zm-70.15 5.93a1.63 1.63 0 0 0-2.34.73 2 2 0 0 0 .76 2.59 1.63 1.63 0 0 0 2.34-.73 2 2 0 0 0-.76-2.59zm-228-137.77a1.63 1.63 0 0 0-2.34.73 2 2 0 0 0 .76 2.59 1.63 1.63 0 0 0 2.34-.73 2 2 0 0 0-.75-2.6zm-1-62.7a2 2 0 0 0-.76-2.59 1.63 1.63 0 0 0-2.34.73 2 2 0 0 0 .76 2.59 1.63 1.63 0 0 0 2.34-.74zm357.76 7.6a1.63 1.63 0 0 0-2.41.46 2 2 0 0 0 .45 2.66 1.63 1.63 0 0 0 2.41-.46 2 2 0 0 0-.45-2.67zM32.45 120.3a.54.54 0 0 0-.78.24.68.68 0 0 0 .25.86.54.54 0 0 0 .78-.24.68.68 0 0 0-.25-.86zm-31.38 4.46a.54.54 0 0 0-.78.24.68.68 0 0 0 .25.86.54.54 0 0 0 .78-.24.68.68 0 0 0-.22-.86zm477.35-3a.68.68 0 0 0 .15.89.54.54 0 0 0 .8-.15.68.68 0 0 0-.15-.89.54.54 0 0 0-.77.14zm39.17 6.07a.54.54 0 0 0-.8.15.68.68 0 0 0 .15.89.54.54 0 0 0 .8-.15.68.68 0 0 0-.15-.89zM373.04 376.94a.54.54 0 0 0-.78.24.68.68 0 0 0 .25.86.54.54 0 0 0 .78-.24.68.68 0 0 0-.25-.86zm92.16-175.78a.63.63 0 0 0-.46.74.59.59 0 0 0 .67.52.63.63 0 0 0 .46-.74.59.59 0 0 0-.66-.51zm20-3.29a.63.63 0 0 0-.46.74.59.59 0 0 0 .67.52.63.63 0 0 0 .46-.74.59.59 0 0 0-.67-.56zm-3.75 34.17a.63.63 0 0 0-.46.74.59.59 0 0 0 .67.52.63.63 0 0 0 .46-.74.59.59 0 0 0-.67-.52z" class="cls-7"/>
    <path d="M471.7 175.17a1.88 1.88 0 0 0 1.38-2.21 1.78 1.78 0 0 0-2-1.56 1.88 1.88 0 0 0-1.38 2.21 1.78 1.78 0 0 0 2 1.56zm4-11.15a1.88 1.88 0 0 0-1.38 2.21 1.78 1.78 0 0 0 2 1.56 1.88 1.88 0 0 0 1.38-2.21 1.78 1.78 0 0 0-2.03-1.56zm14.41 5.67a.59.59 0 0 0-.67-.52.63.63 0 0 0-.46.74.59.59 0 0 0 .67.52.63.63 0 0 0 .43-.74zm-18.87-11.31a.63.63 0 0 0 .46-.74.59.59 0 0 0-.67-.52.63.63 0 0 0-.46.74.59.59 0 0 0 .64.53zm-5.67 21.86a.63.63 0 0 0-.46.74.59.59 0 0 0 .67.52.63.63 0 0 0 .46-.74.59.59 0 0 0-.7-.51zm6.09 1.43a1.88 1.88 0 0 0-1.38 2.21 1.78 1.78 0 0 0 2 1.56 1.88 1.88 0 0 0 1.38-2.21 1.78 1.78 0 0 0-2.03-1.56zm18-11.24a.63.63 0 0 0-.46.74.59.59 0 0 0 .67.52.63.63 0 0 0 .46-.74.59.59 0 0 0-.71-.52zm-8.21 6.77a.63.63 0 0 0 .46-.74.59.59 0 0 0-.67-.52.63.63 0 0 0-.46.74.59.59 0 0 0 .67.52zm16.44-13.54a.63.63 0 0 0-.46.74.59.59 0 0 0 .67.52.63.63 0 0 0 .46-.74.59.59 0 0 0-.72-.52zm-52.6-16.83a1.88 1.88 0 0 0-1.38 2.21 1.78 1.78 0 0 0 2 1.56 1.88 1.88 0 0 0 1.38-2.21 1.78 1.78 0 0 0-2-1.56zM187.36 29.54a1.68 1.68 0 0 0-2 1.43 2 2 0 0 0 1.38 2.28 1.68 1.68 0 0 0 2-1.43 2 2 0 0 0-1.38-2.28zm-4.59-7.6a1.68 1.68 0 0 0-2 1.43 2 2 0 0 0 1.38 2.28 1.68 1.68 0 0 0 2-1.43 2 2 0 0 0-1.39-2.28zm7.91-10.93a.56.56 0 0 0-.68.48.66.66 0 0 0 .46.76.56.56 0 0 0 .68-.48.66.66 0 0 0-.46-.77zm-17 15.12a.56.56 0 0 0 .68-.48.66.66 0 0 0-.46-.76.56.56 0 0 0-.68.48.66.66 0 0 0 .46.75zm20 8.89a.68.68 0 0 0 .12.89.54.54 0 0 0 .81-.09.68.68 0 0 0-.12-.89.54.54 0 0 0-.82.09zm5.34-3.33a2 2 0 0 0 .35 2.68 1.62 1.62 0 0 0 2.44-.28 2 2 0 0 0-.35-2.68 1.62 1.62 0 0 0-2.45.28zm-7.19-20.4a.56.56 0 0 0-.68.48.66.66 0 0 0 .46.76.56.56 0 0 0 .68-.48.66.66 0 0 0-.47-.76zm2.11 11.5a.66.66 0 0 0-.46-.76.56.56 0 0 0-.68.48.66.66 0 0 0 .46.76.56.56 0 0 0 .66-.44zM189.04.27a.56.56 0 0 0-.68.48.66.66 0 0 0 .46.76.56.56 0 0 0 .68-.48.66.66 0 0 0-.47-.77zm-15.86 38a2 2 0 0 0 .35 2.68 1.62 1.62 0 0 0 2.44-.28 2.05 2.05 0 0 0-.35-2.68 1.62 1.62 0 0 0-2.45.25zM37.6 180.67a2 2 0 0 0-.76-2.59 1.63 1.63 0 0 0-2.34.73 2 2 0 0 0 .76 2.59 1.63 1.63 0 0 0 2.34-.73zm1.77 6a1.63 1.63 0 0 0-2.34.73 2 2 0 0 0 .76 2.59 1.63 1.63 0 0 0 2.34-.73 2 2 0 0 0-.76-2.55zm-19.92-13.89a.68.68 0 0 0 0 .9.54.54 0 0 0 .82 0 .68.68 0 0 0 0-.9.54.54 0 0 0-.82 0zm28.24 16a.54.54 0 0 0-.78.24.68.68 0 0 0 .25.86.54.54 0 0 0 .78-.24.68.68 0 0 0-.28-.81zM34.6 170.27a.68.68 0 0 0-.25-.86.54.54 0 0 0-.78.24.68.68 0 0 0 .25.86.54.54 0 0 0 .75-.2zm-5.47 1.71a1.63 1.63 0 0 0-2.34.73 2 2 0 0 0 .76 2.59 1.63 1.63 0 0 0 2.34-.73 2 2 0 0 0-.78-2.55zm-8.9-.16a.68.68 0 0 0 0 .9.54.54 0 0 0 .82 0 .68.68 0 0 0 0-.9.54.54 0 0 0-.85.01zm7.76 13.71a.54.54 0 0 0-.78.24.68.68 0 0 0 .25.86.54.54 0 0 0 .78-.24.68.68 0 0 0-.28-.82zm-17.73-17.09a.68.68 0 0 0 0 .9.54.54 0 0 0 .82 0 .68.68 0 0 0 0-.9.54.54 0 0 0-.85.05zm43.16-7.82a1.63 1.63 0 0 0-2.34.73 2 2 0 0 0 .76 2.59 1.63 1.63 0 0 0 2.34-.73 2 2 0 0 0-.79-2.55zm252.64 162.54a.54.54 0 0 0-.78.24.68.68 0 0 0 .25.86.54.54 0 0 0 .78-.24.68.68 0 0 0-.25-.86zm29.91 13a2 2 0 0 0-.76-2.59 1.63 1.63 0 0 0-2.34.73 2 2 0 0 0 .76 2.59 1.63 1.63 0 0 0 2.34-.76zm1.77 6a1.63 1.63 0 0 0-2.34.73 2 2 0 0 0 .76 2.59 1.63 1.63 0 0 0 2.34-.73 2 2 0 0 0-.76-2.57zm5.09 15.88a.54.54 0 0 0-.78.24.68.68 0 0 0 .25.86.54.54 0 0 0 .78-.24.68.68 0 0 0-.25-.85zm3.2-13.77a.54.54 0 0 0-.78.24.68.68 0 0 0 .25.86.54.54 0 0 0 .78-.24.68.68 0 0 0-.25-.84zm-13.09-18.51a.68.68 0 0 0-.25-.86.54.54 0 0 0-.78.24.68.68 0 0 0 .25.86.54.54 0 0 0 .77-.22zm-5.49 1.73a1.63 1.63 0 0 0-2.34.73 2 2 0 0 0 .76 2.59 1.63 1.63 0 0 0 2.34-.73 2 2 0 0 0-.76-2.59zm14.33 29.95a.54.54 0 0 0-.78.24.68.68 0 0 0 .25.86.54.54 0 0 0 .78-.24.68.68 0 0 0-.23-.86zm-15.47-16.39a.54.54 0 0 0-.78.24.68.68 0 0 0 .25.86.54.54 0 0 0 .78-.24.68.68 0 0 0-.24-.87zm15.38 27.73a.54.54 0 0 0-.78.24.68.68 0 0 0 .25.86.54.54 0 0 0 .78-.24.68.68 0 0 0-.23-.87zm31.21-54.22a1.63 1.63 0 0 0-2.34.73 2 2 0 0 0 .76 2.59 1.63 1.63 0 0 0 2.34-.73 2 2 0 0 0-.74-2.6zm-6.45 18.34a1.63 1.63 0 0 0-2.34.73 2 2 0 0 0 .76 2.59 1.63 1.63 0 0 0 2.34-.73 2 2 0 0 0-.76-2.59zm-70.15 5.93a1.63 1.63 0 0 0-2.34.73 2 2 0 0 0 .76 2.59 1.63 1.63 0 0 0 2.34-.73 2 2 0 0 0-.76-2.59zm-228-137.77a1.63 1.63 0 0 0-2.34.73 2 2 0 0 0 .76 2.59 1.63 1.63 0 0 0 2.34-.73 2 2 0 0 0-.75-2.6zm-1-62.7a2 2 0 0 0-.76-2.59 1.63 1.63 0 0 0-2.34.73 2 2 0 0 0 .76 2.59 1.63 1.63 0 0 0 2.34-.74zm357.76 7.6a1.63 1.63 0 0 0-2.41.46 2 2 0 0 0 .45 2.66 1.63 1.63 0 0 0 2.41-.46 2 2 0 0 0-.45-2.67zM32.45 120.3a.54.54 0 0 0-.78.24.68.68 0 0 0 .25.86.54.54 0 0 0 .78-.24.68.68 0 0 0-.25-.86zm-31.38 4.46a.54.54 0 0 0-.78.24.68.68 0 0 0 .25.86.54.54 0 0 0 .78-.24.68.68 0 0 0-.22-.86zm477.35-3a.68.68 0 0 0 .15.89.54.54 0 0 0 .8-.15.68.68 0 0 0-.15-.89.54.54 0 0 0-.77.14zm39.17 6.07a.54.54 0 0 0-.8.15.68.68 0 0 0 .15.89.54.54 0 0 0 .8-.15.68.68 0 0 0-.15-.89zM373.04 376.94a.54.54 0 0 0-.78.24.68.68 0 0 0 .25.86.54.54 0 0 0 .78-.24.68.68 0 0 0-.25-.86zm92.16-175.78a.63.63 0 0 0-.46.74.59.59 0 0 0 .67.52.63.63 0 0 0 .46-.74.59.59 0 0 0-.66-.51zm20-3.29a.63.63 0 0 0-.46.74.59.59 0 0 0 .67.52.63.63 0 0 0 .46-.74.59.59 0 0 0-.67-.56zm-3.75 34.17a.63.63 0 0 0-.46.74.59.59 0 0 0 .67.52.63.63 0 0 0 .46-.74.59.59 0 0 0-.67-.52z" class="cls-8"/>
  </g>
</svg>