<svg id="c75559a3-ebe2-4909-aaa5-d074014f8cab" data-name="Calque 1" xmlns="http://www.w3.org/2000/svg" viewBox="0 0 573.2 526.8"><defs><style>.\35 0ada0d0-9eb8-4768-b1bc-8f1f0aaa6a73{fill:#d0e6f2;opacity:0.54;}.\35 0ada0d0-9eb8-4768-b1bc-8f1f0aaa6a73,.\35 1fa1a4f-73d0-43e5-b41a-2103f5129ba0{isolation:isolate;}.\30 f2cf5da-1e57-4321-9e3a-0c95b8166778,.ac123ec0-df21-4bf1-b655-79f3edecb0fa{fill:#fff;}.\30 f2cf5da-1e57-4321-9e3a-0c95b8166778,.\31 5ef0850-af88-4663-b90c-814ff8364ae8,.\35 acb26fe-ebe4-4754-84e1-7cc5315dbf35,.\38 b819810-0e0d-4743-b7f2-bbcb164ea817,.ee2e2380-8b17-4e48-84ba-94e335385ef1{stroke:#c6deec;}.\30 f2cf5da-1e57-4321-9e3a-0c95b8166778,.\31 0054901-66f0-4489-a97d-09241872ef5d,.\32 b7a0686-961b-4778-aeb3-5d564272dbc4,.\35 acb26fe-ebe4-4754-84e1-7cc5315dbf35,.\38 b819810-0e0d-4743-b7f2-bbcb164ea817,.fa6b318c-a2f3-40d7-9a2e-bd9f1959b2ef{stroke-linecap:round;}.\30 f2cf5da-1e57-4321-9e3a-0c95b8166778,.\31 0054901-66f0-4489-a97d-09241872ef5d,.\31 5ef0850-af88-4663-b90c-814ff8364ae8,.\32 b7a0686-961b-4778-aeb3-5d564272dbc4,.\35 acb26fe-ebe4-4754-84e1-7cc5315dbf35,.\38 b819810-0e0d-4743-b7f2-bbcb164ea817,.ee2e2380-8b17-4e48-84ba-94e335385ef1,.fa6b318c-a2f3-40d7-9a2e-bd9f1959b2ef{stroke-linejoin:round;}.\38 b819810-0e0d-4743-b7f2-bbcb164ea817{fill:#eff6fa;}.\35 acb26fe-ebe4-4754-84e1-7cc5315dbf35,.\36 6a7cb43-d081-4eed-8b22-d033d6c5b89f,.ee2e2380-8b17-4e48-84ba-94e335385ef1{fill:#009ee6;}.c96ffa85-2d4e-44c8-af76-4f7ce3ed9183{fill:#1fda4b;}.dec7b95f-37a8-474f-a596-d76ae840dce5{fill:#fcfcfc;}.\32 b7a0686-961b-4778-aeb3-5d564272dbc4,.\35 1fa1a4f-73d0-43e5-b41a-2103f5129ba0,.\37 175556a-93c6-48e3-a2bf-5865655e522c{fill:none;}.\32 b7a0686-961b-4778-aeb3-5d564272dbc4,.\37 175556a-93c6-48e3-a2bf-5865655e522c{stroke:#fff;}.\35 1fa1a4f-73d0-43e5-b41a-2103f5129ba0,.\37 175556a-93c6-48e3-a2bf-5865655e522c{stroke-miterlimit:10;}.\31 0054901-66f0-4489-a97d-09241872ef5d{fill:#c81888;}.\31 0054901-66f0-4489-a97d-09241872ef5d,.fa6b318c-a2f3-40d7-9a2e-bd9f1959b2ef{stroke:#ff63c6;}.fa6b318c-a2f3-40d7-9a2e-bd9f1959b2ef{fill:#e30c95;}.\32 b7a0686-961b-4778-aeb3-5d564272dbc4{stroke-width:4px;}.\35 1fa1a4f-73d0-43e5-b41a-2103f5129ba0{stroke:#009ee6;opacity:0.4;}.\31 5ef0850-af88-4663-b90c-814ff8364ae8{fill:#2cb3eb;}</style></defs><title>import-infinitely-beezup</title><g id="df8abda8-e4c3-4d83-82ab-7c7fd63d2881" data-name="maxi_shade"><path id="a54ba843-cf60-419b-90f7-2d64c8742e7e" data-name="shade" class="50ada0d0-9eb8-4768-b1bc-8f1f0aaa6a73" d="M541.5,116.1,15,511.7l46.2,35.5L587.7,151.6Z" transform="translate(-14.5 -20.4)"/></g><g id="67fae485-69f9-4bd4-8f41-0db812a53588" data-name="8"><g id="87b5210c-8fd1-43cf-9851-dc6893a4e9dd" data-name="dalle - copie 28"><path class="0f2cf5da-1e57-4321-9e3a-0c95b8166778" d="M539.2,101.1l-62.1,48.5,46.3,34.1L587,136.3Z" transform="translate(-14.5 -20.4)"/><path class="8b819810-0e0d-4743-b7f2-bbcb164ea817" d="M477.1,149.5l46.3,34.2v12.7l-46.3-35V149.5Z" transform="translate(-14.5 -20.4)"/><path class="0f2cf5da-1e57-4321-9e3a-0c95b8166778" d="M587,136.3l-63.6,47.4v12.7L587,148.1Z" transform="translate(-14.5 -20.4)"/></g><g id="75ff1aba-8205-4667-9b98-128b845ee829" data-name="dalle - copie 33"><path class="0f2cf5da-1e57-4321-9e3a-0c95b8166778" d="M539.2,85.1l-62.1,48.5,46.3,34.1L587,120.3Z" transform="translate(-14.5 -20.4)"/><path class="8b819810-0e0d-4743-b7f2-bbcb164ea817" d="M477.1,133.5l46.3,34.2v12.7l-46.3-35V133.5Z" transform="translate(-14.5 -20.4)"/><path class="0f2cf5da-1e57-4321-9e3a-0c95b8166778" d="M587,120.3l-63.6,47.4v12.7L587,132.1Z" transform="translate(-14.5 -20.4)"/></g><g id="da0111d4-e9e9-4c23-832e-f1fb4347bc8d" data-name="dalle - copie 32"><path class="0f2cf5da-1e57-4321-9e3a-0c95b8166778" d="M539.2,69.1l-62.1,48.5,46.3,34.1L587,104.3Z" transform="translate(-14.5 -20.4)"/><path class="8b819810-0e0d-4743-b7f2-bbcb164ea817" d="M477.1,117.5l46.3,34.2v12.7l-46.3-35V117.5Z" transform="translate(-14.5 -20.4)"/><path class="0f2cf5da-1e57-4321-9e3a-0c95b8166778" d="M587,104.3l-63.6,47.4v12.7L587,116.1Z" transform="translate(-14.5 -20.4)"/></g><g id="1a4805f0-4e57-4312-9b84-186b4eb8fb62" data-name="dalle - copie 31"><path class="0f2cf5da-1e57-4321-9e3a-0c95b8166778" d="M539.2,53.1l-62.1,48.5,46.3,34.1L587,88.3Z" transform="translate(-14.5 -20.4)"/><path class="8b819810-0e0d-4743-b7f2-bbcb164ea817" d="M477.1,101.5l46.3,34.2v12.7l-46.3-35V101.5Z" transform="translate(-14.5 -20.4)"/><path class="0f2cf5da-1e57-4321-9e3a-0c95b8166778" d="M587,88.3l-63.6,47.4v12.7L587,100.1Z" transform="translate(-14.5 -20.4)"/></g><g id="9e292ce8-384c-40de-99b5-acddea99f59b" data-name="dalle - copie 30"><path class="0f2cf5da-1e57-4321-9e3a-0c95b8166778" d="M539.2,37.1,477.1,85.6l46.3,34.1L587,72.3Z" transform="translate(-14.5 -20.4)"/><path class="8b819810-0e0d-4743-b7f2-bbcb164ea817" d="M477.1,85.5l46.3,34.2v12.7l-46.3-35V85.5Z" transform="translate(-14.5 -20.4)"/><path class="0f2cf5da-1e57-4321-9e3a-0c95b8166778" d="M587,72.3l-63.6,47.4v12.7L587,84.1Z" transform="translate(-14.5 -20.4)"/></g><g id="9f83a676-670f-4376-b16d-29a97fcd5cd6" data-name="dalle - copie 29"><path class="0f2cf5da-1e57-4321-9e3a-0c95b8166778" d="M539.2,21.1,477.1,69.6l46.3,34.1L587,56.3Z" transform="translate(-14.5 -20.4)"/><path class="8b819810-0e0d-4743-b7f2-bbcb164ea817" d="M477.1,69.5l46.3,34.2v12.7l-46.3-35V69.5Z" transform="translate(-14.5 -20.4)"/><path class="0f2cf5da-1e57-4321-9e3a-0c95b8166778" d="M587,56.3l-63.6,47.4v12.7L587,68.1Z" transform="translate(-14.5 -20.4)"/></g><g id="c1f201e3-6272-45ef-87cf-dddb9b790b69" data-name="sac"><path class="66a7cb43-d081-4eed-8b22-d033d6c5b89f" d="M552.7,64.2l-5.9-4.5,1.6-1.2a2.43,2.43,0,0,0,0-4.1L542,49.5a4.67,4.67,0,0,0-5.3,0l-1.6,1.2-5.9-4.5a2.7,2.7,0,0,0-3.2,0L509,59.3a1.49,1.49,0,0,0,0,2.5l23.4,18a2.7,2.7,0,0,0,3.2,0l17-13.1c1-.8,1-1.9.1-2.5m-14.9-14a2.7,2.7,0,0,1,3.2,0l6.4,4.9a1.49,1.49,0,0,1,0,2.5l-1.6,1.2-9.6-7.4Zm-3.2,28.7a1.08,1.08,0,0,1-1.1,0l-23.4-18a.47.47,0,0,1,0-.8l17-13.1a1.08,1.08,0,0,1,1.1,0l5.9,4.5,11.7,9,5.9,4.5a.47.47,0,0,1,0,.8Z" transform="translate(-14.5 -20.4)"/><path class="66a7cb43-d081-4eed-8b22-d033d6c5b89f" d="M515.1,65.5l18.4-14.1a.56.56,0,0,0,0-.9,1.08,1.08,0,0,0-1.1,0L514,64.6a.56.56,0,0,0,0,.9.9.9,0,0,0,1.1,0" transform="translate(-14.5 -20.4)"/><path class="66a7cb43-d081-4eed-8b22-d033d6c5b89f" d="M513,63.8l18.4-14.1a.56.56,0,0,0,0-.9,1.08,1.08,0,0,0-1.1,0L511.9,63a.56.56,0,0,0,0,.9.91.91,0,0,0,1.1-.1" transform="translate(-14.5 -20.4)"/><path class="66a7cb43-d081-4eed-8b22-d033d6c5b89f" d="M519.1,58.3l2.3,1.8a.37.37,0,0,1,0,.6L519.6,62a.85.85,0,0,1-.7,0l-2.3-1.8a.37.37,0,0,1,0-.6l1.8-1.3A.48.48,0,0,1,519.1,58.3Z" transform="translate(-14.5 -20.4)"/><path class="66a7cb43-d081-4eed-8b22-d033d6c5b89f" d="M530.7,77.3l18.4-14.1a.56.56,0,0,0,0-.9,1.08,1.08,0,0,0-1.1,0L529.6,76.4a.56.56,0,0,0,0,.9,1.08,1.08,0,0,0,1.1,0" transform="translate(-14.5 -20.4)"/><path class="66a7cb43-d081-4eed-8b22-d033d6c5b89f" d="M528.6,75.6,547,61.5a.56.56,0,0,0,0-.9,1.08,1.08,0,0,0-1.1,0L527.5,74.7a.56.56,0,0,0,0,.9.78.78,0,0,0,1.1,0" transform="translate(-14.5 -20.4)"/><path class="66a7cb43-d081-4eed-8b22-d033d6c5b89f" d="M534.7,70l2.3,1.8a.37.37,0,0,1,0,.6l-1.8,1.3a.85.85,0,0,1-.7,0l-2.3-1.8a.37.37,0,0,1,0-.6L534,70A.85.85,0,0,1,534.7,70Z" transform="translate(-14.5 -20.4)"/><path class="66a7cb43-d081-4eed-8b22-d033d6c5b89f" d="M519.8,56.4l3.7,2.8a.56.56,0,0,1,0,.9l-3.1,2.4a.91.91,0,0,1-1.2,0l-3.7-2.8a.56.56,0,0,1,0-.9l3.1-2.4A1.27,1.27,0,0,1,519.8,56.4Z" transform="translate(-14.5 -20.4)"/><path class="66a7cb43-d081-4eed-8b22-d033d6c5b89f" d="M535.4,68.2l3.7,2.8a.56.56,0,0,1,0,.9L536,74.3a.91.91,0,0,1-1.2,0l-3.7-2.8a.56.56,0,0,1,0-.9l3.1-2.4A.91.91,0,0,1,535.4,68.2Z" transform="translate(-14.5 -20.4)"/></g><g id="1f67de5a-aca3-4ffe-b5db-2b330d028e32" data-name="check - copie 10"><path class="c96ffa85-2d4e-44c8-af76-4f7ce3ed9183" d="M532,20.4,517.9,31.5l15.9,12.2,14.1-11.1Z" transform="translate(-14.5 -20.4)"/><path class="c96ffa85-2d4e-44c8-af76-4f7ce3ed9183" d="M547.9,32.5l-.1,3.9L533.7,47.1V43.6Z" transform="translate(-14.5 -20.4)"/><polygon class="c96ffa85-2d4e-44c8-af76-4f7ce3ed9183" points="519.3 23.3 503.4 11 503.4 16.7 504.6 15.8 519.3 26.8 519.3 23.3"/><path class="dec7b95f-37a8-474f-a596-d76ae840dce5" d="M529.6,33l9.6.3a.75.75,0,0,0,.5-.1c.1-.1.2-.2.2-.3s-.1-.3-.2-.3-.3-.1-.5-.2l-8.8-.3.1-2.5c0-.3-.3-.5-.7-.5a.75.75,0,0,0-.5.1c-.1.1-.2.2-.2.3l-.1,3c0,.1.1.3.2.3s.2.2.4.2Z" transform="translate(-14.5 -20.4)"/><line class="7175556a-93c6-48e3-a2bf-5865655e522c" x1="503.4" y1="11.1" x2="519.2" y2="23.2"/><line class="7175556a-93c6-48e3-a2bf-5865655e522c" x1="533.4" y1="12.1" x2="519.2" y2="23.2"/><polygon class="ac123ec0-df21-4bf1-b655-79f3edecb0fa" points="519.7 26.4 519.3 26.8 518.7 26.4 518.7 23 519.7 23 519.7 26.4"/></g></g><g id="18f586f6-81e4-4b80-8c25-b1f7d8475238" data-name="7"><g id="b17deec9-e416-4d45-837d-d3d448041e17" data-name="dalle - copie 24"><path class="0f2cf5da-1e57-4321-9e3a-0c95b8166778" d="M473.4,151l-62.1,48.5,46.3,34.1,63.6-47.4Z" transform="translate(-14.5 -20.4)"/><path class="8b819810-0e0d-4743-b7f2-bbcb164ea817" d="M411.3,199.5l46.3,34.2v12.7l-46.3-35Z" transform="translate(-14.5 -20.4)"/><path class="0f2cf5da-1e57-4321-9e3a-0c95b8166778" d="M521.2,186.2l-63.6,47.4v12.7L521.2,198Z" transform="translate(-14.5 -20.4)"/></g><g id="b51d190d-1391-417d-becd-a803cda50985" data-name="dalle - copie 27"><path class="0f2cf5da-1e57-4321-9e3a-0c95b8166778" d="M473.4,135l-62.1,48.5,46.3,34.1,63.6-47.4Z" transform="translate(-14.5 -20.4)"/><path class="8b819810-0e0d-4743-b7f2-bbcb164ea817" d="M411.3,183.5l46.3,34.2v12.7l-46.3-35Z" transform="translate(-14.5 -20.4)"/><path class="0f2cf5da-1e57-4321-9e3a-0c95b8166778" d="M521.2,170.2l-63.6,47.4v12.7L521.2,182Z" transform="translate(-14.5 -20.4)"/></g><g id="7144038d-19df-4eec-aeb9-d9a7b1520075" data-name="dalle - copie 26"><path class="0f2cf5da-1e57-4321-9e3a-0c95b8166778" d="M473.4,119l-62.1,48.5,46.3,34.1,63.6-47.4Z" transform="translate(-14.5 -20.4)"/><path class="8b819810-0e0d-4743-b7f2-bbcb164ea817" d="M411.3,167.5l46.3,34.2v12.7l-46.3-35Z" transform="translate(-14.5 -20.4)"/><path class="0f2cf5da-1e57-4321-9e3a-0c95b8166778" d="M521.2,154.2l-63.6,47.4v12.7L521.2,166Z" transform="translate(-14.5 -20.4)"/></g><g id="1712cbc7-cff7-46cf-af29-a443bc837c1c" data-name="dalle - copie 25"><path class="0f2cf5da-1e57-4321-9e3a-0c95b8166778" d="M473.4,103l-62.1,48.5,46.3,34.1,63.6-47.4Z" transform="translate(-14.5 -20.4)"/><path class="8b819810-0e0d-4743-b7f2-bbcb164ea817" d="M411.3,151.5l46.3,34.2v12.7l-46.3-35Z" transform="translate(-14.5 -20.4)"/><path class="0f2cf5da-1e57-4321-9e3a-0c95b8166778" d="M521.2,138.2l-63.6,47.4v12.7L521.2,150Z" transform="translate(-14.5 -20.4)"/></g><g id="62e15f90-2884-4130-a1af-92a5e6999e53" data-name="sac"><path class="66a7cb43-d081-4eed-8b22-d033d6c5b89f" d="M482.4,137.8a3.28,3.28,0,0,0-.3-5.3l-1.2-.9a6.55,6.55,0,0,0-7-.2,21.36,21.36,0,0,0-18.7,2.8l-15.8,11.9a1.12,1.12,0,0,0,0,1.9l21.1,15.8a2.27,2.27,0,0,0,2.5,0l15.8-11.9c5-3.9,6.2-9.5,3.6-14.1m-2.8-5.2,1.2.9a2.18,2.18,0,0,1,.7,3A14.77,14.77,0,0,0,479,134a13.5,13.5,0,0,0-3.3-1.9,4.2,4.2,0,0,1,3.9.5m-18,30.2L440.5,147l15.8-11.9c5.9-4.4,15.5-4.5,21.3-.2s5.7,11.5-.2,16Z" transform="translate(-14.5 -20.4)"/><path class="66a7cb43-d081-4eed-8b22-d033d6c5b89f" d="M453.2,139.4l-8.9,6.6a1.12,1.12,0,0,0,0,1.9L460.4,160a2.27,2.27,0,0,0,2.5,0l8.9-6.6a1.12,1.12,0,0,0,0-1.9l-16.1-12.1a2.1,2.1,0,0,0-2.5,0m8.5,19.6-16.1-12.1,6.3-4.7,2.5,1.9-1.9,1.4c-.3.3-.4.7,0,.9a1,1,0,0,0,1.3,0l1.9-1.4,12.4,9.3Zm7.6-5.7-16.1-12.1,1.3-.9,16.1,12.1Z" transform="translate(-14.5 -20.4)"/><path class="66a7cb43-d081-4eed-8b22-d033d6c5b89f" d="M467.5,142.5a5.41,5.41,0,0,0,6.3-.1,2.8,2.8,0,0,0,.1-4.7,5.41,5.41,0,0,0-6.3.1c-1.7,1.4-1.8,3.5-.1,4.7m5.1-3.8a1.68,1.68,0,0,1,0,2.8,3.31,3.31,0,0,1-3.8,0,1.68,1.68,0,0,1,0-2.8,3.7,3.7,0,0,1,3.8,0" transform="translate(-14.5 -20.4)"/></g><g id="dcdd63c0-d3cf-497e-822e-03b0b3545763" data-name="check - copie 9"><path class="c96ffa85-2d4e-44c8-af76-4f7ce3ed9183" d="M467,101.7l-14.1,11.1L468.8,125l14.1-11.1Z" transform="translate(-14.5 -20.4)"/><path class="c96ffa85-2d4e-44c8-af76-4f7ce3ed9183" d="M482.9,113.9l-.1,3.9-14.1,10.7V125Z" transform="translate(-14.5 -20.4)"/><polygon class="c96ffa85-2d4e-44c8-af76-4f7ce3ed9183" points="454.3 104.6 438.4 92.4 438.4 98.1 439.6 97.2 454.3 108.1 454.3 104.6"/><path class="dec7b95f-37a8-474f-a596-d76ae840dce5" d="M464.6,114.4l9.6.3a.75.75,0,0,0,.5-.1c.1-.1.2-.2.2-.3s-.1-.3-.2-.3-.3-.1-.5-.2l-8.8-.3.1-2.5c0-.3-.3-.5-.7-.5a.75.75,0,0,0-.5.1c-.1.1-.2.2-.2.3l-.1,3c0,.1.1.3.2.3s.2.2.4.2Z" transform="translate(-14.5 -20.4)"/><line class="7175556a-93c6-48e3-a2bf-5865655e522c" x1="438.4" y1="92.4" x2="454.2" y2="104.6"/><line class="7175556a-93c6-48e3-a2bf-5865655e522c" x1="468.4" y1="93.5" x2="454.2" y2="104.6"/><polygon class="ac123ec0-df21-4bf1-b655-79f3edecb0fa" points="454.7 107.8 454.3 108.1 453.7 107.7 453.7 104.4 454.7 104.4 454.7 107.8"/></g></g><g id="e20d75f2-5942-499b-b14a-7322ea2fb417" data-name="6"><g id="5a7a1add-096f-4abf-beb8-a32b48ebfe96" data-name="dalle - copie 18"><path class="0f2cf5da-1e57-4321-9e3a-0c95b8166778" d="M407.1,201.3,345,249.8l46.3,34.1,63.6-47.4Z" transform="translate(-14.5 -20.4)"/><path class="8b819810-0e0d-4743-b7f2-bbcb164ea817" d="M345,249.8,391.3,284v12.7l-46.3-35Z" transform="translate(-14.5 -20.4)"/><path class="0f2cf5da-1e57-4321-9e3a-0c95b8166778" d="M454.9,236.5,391.3,284v12.7l63.6-48.3Z" transform="translate(-14.5 -20.4)"/></g><g id="6a461fee-c383-494f-bae9-bfef06c18d57" data-name="dalle - copie 23"><path class="0f2cf5da-1e57-4321-9e3a-0c95b8166778" d="M407.1,185.3,345,233.8l46.3,34.1,63.6-47.4Z" transform="translate(-14.5 -20.4)"/><path class="8b819810-0e0d-4743-b7f2-bbcb164ea817" d="M345,233.8,391.3,268v12.7l-46.3-35Z" transform="translate(-14.5 -20.4)"/><path class="0f2cf5da-1e57-4321-9e3a-0c95b8166778" d="M454.9,220.5,391.3,268v12.7l63.6-48.3Z" transform="translate(-14.5 -20.4)"/></g><g id="8339c3c1-274c-49c8-ad49-d9c2cd132a5b" data-name="dalle - copie 21"><path class="0f2cf5da-1e57-4321-9e3a-0c95b8166778" d="M407.1,169.3,345,217.8l46.3,34.1,63.6-47.4Z" transform="translate(-14.5 -20.4)"/><path class="8b819810-0e0d-4743-b7f2-bbcb164ea817" d="M345,217.8,391.3,252v12.7l-46.3-35Z" transform="translate(-14.5 -20.4)"/><path class="0f2cf5da-1e57-4321-9e3a-0c95b8166778" d="M454.9,204.5,391.3,252v12.7l63.6-48.3Z" transform="translate(-14.5 -20.4)"/></g><g id="4636a597-eb37-4a5b-a4e3-335df0145354" data-name="sac"><path class="66a7cb43-d081-4eed-8b22-d033d6c5b89f" d="M415.4,208.9l-2.7-2,1.6-1.2c3.9-2.9,3.9-7.6,0-10.6a12.51,12.51,0,0,0-14.1,0l-1.6,1.2-2.7-2a2.86,2.86,0,0,0-3.3,0l-3.8,2.8a.78.78,0,0,0-.3.7l-8.3,8.7a1.36,1.36,0,0,0,.2,2.2L396,220.4a2.92,2.92,0,0,0,3,.2l11.6-6.2a1.22,1.22,0,0,0,.9-.3l3.8-2.8a1.37,1.37,0,0,0,.1-2.4m-14-13a10.38,10.38,0,0,1,11.9,0c3.3,2.5,3.3,6.5,0,8.9l-1.6,1.2-11.9-8.9Zm-3.2,23.9a.92.92,0,0,1-1-.1L381.6,208a.43.43,0,0,1-.1-.7l7.3-7.7a24,24,0,0,0,5.6,8.2,1.42,1.42,0,0,0,.4,2.1,2.89,2.89,0,0,0,2.7.3,37,37,0,0,0,10.9,4.2Zm12.4-6.5c-1.5.3-7.8-1.6-12-4.1a1.48,1.48,0,0,0-.5-1.9,3.15,3.15,0,0,0-2.5-.4c-3.4-3.2-5.9-7.9-5.5-9l3.7-2.8a1.08,1.08,0,0,1,1.1,0l2.7,2,14.1,10.5,2.7,2a.47.47,0,0,1,0,.8Z" transform="translate(-14.5 -20.4)"/><path class="66a7cb43-d081-4eed-8b22-d033d6c5b89f" d="M404.6,205.7l-4.3-3.2a1.08,1.08,0,0,0-1.1,0,.47.47,0,0,0,0,.8l4.3,3.2a1.08,1.08,0,0,0,1.1,0,.47.47,0,0,0,0-.8" transform="translate(-14.5 -20.4)"/></g><g id="a3f6e89d-1924-42c0-8966-3051f41aeffa" data-name="check - copie 8"><path class="c96ffa85-2d4e-44c8-af76-4f7ce3ed9183" d="M401.9,166.9,387.8,178l15.9,12.2,14.1-11.1Z" transform="translate(-14.5 -20.4)"/><path class="c96ffa85-2d4e-44c8-af76-4f7ce3ed9183" d="M417.8,179.1l-.1,3.9-14.1,10.7v-3.5Z" transform="translate(-14.5 -20.4)"/><polygon class="c96ffa85-2d4e-44c8-af76-4f7ce3ed9183" points="389.2 169.8 373.3 157.6 373.2 163.3 374.5 162.4 389.2 173.3 389.2 169.8"/><path class="dec7b95f-37a8-474f-a596-d76ae840dce5" d="M399.5,179.6l9.6.3a.75.75,0,0,0,.5-.1c.1-.1.2-.2.2-.3s-.1-.3-.2-.3-.3-.1-.5-.2l-8.8-.3.1-2.5c0-.3-.3-.5-.7-.5a.75.75,0,0,0-.5.1c-.1.1-.2.2-.2.3l-.1,3c0,.1.1.3.2.3s.1.2.4.2Z" transform="translate(-14.5 -20.4)"/><line class="7175556a-93c6-48e3-a2bf-5865655e522c" x1="373.3" y1="157.6" x2="389.1" y2="169.7"/><line class="7175556a-93c6-48e3-a2bf-5865655e522c" x1="403.3" y1="158.7" x2="389.1" y2="169.7"/><polygon class="ac123ec0-df21-4bf1-b655-79f3edecb0fa" points="389.6 173 389.2 173.3 388.6 172.9 388.6 169.6 389.6 169.6 389.6 173"/></g></g><g id="cf1a5918-b7f1-4147-a95c-cc76973d43b6" data-name="5"><g id="9bc3fd77-329e-4dec-8d05-b7961d00317b" data-name="dalle - copie 17"><path class="0f2cf5da-1e57-4321-9e3a-0c95b8166778" d="M340.9,250.4l-62.1,48.5L325.1,333l63.6-47.4Z" transform="translate(-14.5 -20.4)"/><path class="8b819810-0e0d-4743-b7f2-bbcb164ea817" d="M278.8,298.8,325.1,333v12.7l-46.3-35Z" transform="translate(-14.5 -20.4)"/><path class="0f2cf5da-1e57-4321-9e3a-0c95b8166778" d="M388.7,285.6,325.1,333v12.7l63.6-48.3Z" transform="translate(-14.5 -20.4)"/></g><g id="b8ab0b4c-927e-4fd9-8cd5-1957cd1171ea" data-name="dalle - copie 22"><path class="0f2cf5da-1e57-4321-9e3a-0c95b8166778" d="M340.9,234.4l-62.1,48.5L325.1,317l63.6-47.4Z" transform="translate(-14.5 -20.4)"/><path class="8b819810-0e0d-4743-b7f2-bbcb164ea817" d="M278.8,282.8,325.1,317v12.7l-46.3-35Z" transform="translate(-14.5 -20.4)"/><path class="0f2cf5da-1e57-4321-9e3a-0c95b8166778" d="M388.7,269.6,325.1,317v12.7l63.6-48.3Z" transform="translate(-14.5 -20.4)"/></g><g id="241ec672-d248-4d30-aae0-45db79151cb2" data-name="sac"><path class="66a7cb43-d081-4eed-8b22-d033d6c5b89f" d="M346.2,280.1a3.07,3.07,0,0,0,2.8-.4l7-5.3a1.59,1.59,0,0,0,0-2.7l-4.3-3.2c1.5-1.9,1.2-4.4-1-6.1l-3.5-2.7a8.18,8.18,0,0,0-8-.8l-4.3-3.2a3.18,3.18,0,0,0-3.5,0l-7,5.3a1.52,1.52,0,0,0-.5,2.1l-15.3,11.7,22.2,16.9Zm-.1-19.4,3.5,2.7a3.26,3.26,0,0,1,1,4.3L340.5,260a5.92,5.92,0,0,1,5.6.7m-13.5-4a1.27,1.27,0,0,1,1.2,0l4.1,3.1,12.9,9.8,4.1,3.1a.56.56,0,0,1,0,.9l-7,5.3a1.27,1.27,0,0,1-1.2,0l-4.1-3.1,1.2-.9a1.12,1.12,0,0,0,0-1.8l-1.2-.9a2,2,0,0,0-2.3,0l-1.2.9-5.9-4.4,1.2-.9a1.12,1.12,0,0,0,0-1.8l-1.2-.9a2,2,0,0,0-2.3,0l-1.2.9-4.1-3.1a.56.56,0,0,1,0-.9Zm6.4,20-1.2-.9,3.5-2.7,1.2.9Zm-9.3-7.1-1.2-.9L332,266l1.2.9Zm1.1,20.4L311,274.9l14-10.7,3.5,2.7-1.2.9a1.12,1.12,0,0,0,0,1.8l1.2.9a2,2,0,0,0,2.3,0l1.2-.9,5.9,4.4-1.2.9a1.12,1.12,0,0,0,0,1.8l1.2.9a2,2,0,0,0,2.3,0l1.2-.9,3.5,2.7Z" transform="translate(-14.5 -20.4)"/><path class="66a7cb43-d081-4eed-8b22-d033d6c5b89f" d="M332.6,261.1,349,273.5a1.27,1.27,0,0,0,1.2,0,.56.56,0,0,0,0-.9l-16.4-12.4a1.27,1.27,0,0,0-1.2,0,.56.56,0,0,0,0,.9" transform="translate(-14.5 -20.4)"/><path class="66a7cb43-d081-4eed-8b22-d033d6c5b89f" d="M337.9,279.3,325,269.5a2,2,0,0,0-2.3,0l-7,5.3a1.12,1.12,0,0,0,0,1.8l12.9,9.8a2,2,0,0,0,2.3,0l7-5.3a1.12,1.12,0,0,0,0-1.8m-3.5,2.7-12.9-9.8,2.3-1.8,12.9,9.8Zm-17.6-6.2,3.5-2.7,1.2.9-1.8,1.3a.56.56,0,0,0,0,.9,1.27,1.27,0,0,0,1.2,0l1.8-1.3,10.5,8-3.5,2.7Z" transform="translate(-14.5 -20.4)"/></g><g id="8c2e6456-ad79-4d1f-b057-a8bb79b9cb1f" data-name="check - copie 7"><path class="c96ffa85-2d4e-44c8-af76-4f7ce3ed9183" d="M335.9,231.9,321.8,243l15.9,12.2,14.1-11.1Z" transform="translate(-14.5 -20.4)"/><path class="c96ffa85-2d4e-44c8-af76-4f7ce3ed9183" d="M351.8,244.1l-.1,3.9-14.1,10.7v-3.5Z" transform="translate(-14.5 -20.4)"/><polygon class="c96ffa85-2d4e-44c8-af76-4f7ce3ed9183" points="323.2 234.8 307.3 222.6 307.2 228.3 308.5 227.4 323.2 238.3 323.2 234.8"/><path class="dec7b95f-37a8-474f-a596-d76ae840dce5" d="M333.5,244.6l9.6.3a.75.75,0,0,0,.5-.1c.1-.1.2-.2.2-.3s-.1-.3-.2-.3-.3-.1-.5-.2l-8.8-.3.1-2.5c0-.3-.3-.5-.7-.5a.75.75,0,0,0-.5.1c-.1.1-.2.2-.2.3l-.1,3c0,.1.1.3.2.3s.1.2.4.2Z" transform="translate(-14.5 -20.4)"/><line class="7175556a-93c6-48e3-a2bf-5865655e522c" x1="307.3" y1="222.6" x2="323.1" y2="234.7"/><line class="7175556a-93c6-48e3-a2bf-5865655e522c" x1="337.3" y1="223.7" x2="323.1" y2="234.7"/><polygon class="ac123ec0-df21-4bf1-b655-79f3edecb0fa" points="323.6 238 323.2 238.3 322.6 237.9 322.6 234.6 323.6 234.6 323.6 238"/></g></g><g id="ad78fdcb-523f-4fe1-be29-476fd3a11793" data-name="4"><g id="415054c5-adaa-445f-b51d-8476aca122eb" data-name="dalle - copie 16"><path class="0f2cf5da-1e57-4321-9e3a-0c95b8166778" d="M275.5,300l-62.1,48.5,46.3,34.1,63.6-47.4Z" transform="translate(-14.5 -20.4)"/><path class="8b819810-0e0d-4743-b7f2-bbcb164ea817" d="M213.4,348.5l46.3,34.2v12.7l-46.3-35V348.5Z" transform="translate(-14.5 -20.4)"/><path class="0f2cf5da-1e57-4321-9e3a-0c95b8166778" d="M323.3,335.2l-63.6,47.4v12.7L323.3,347Z" transform="translate(-14.5 -20.4)"/></g><g id="c160aee7-6006-48fc-bf52-f6fcde717c94" data-name="dalle - copie 20"><path class="0f2cf5da-1e57-4321-9e3a-0c95b8166778" d="M275.5,284l-62.1,48.5,46.3,34.1,63.6-47.4Z" transform="translate(-14.5 -20.4)"/><path class="8b819810-0e0d-4743-b7f2-bbcb164ea817" d="M213.4,332.5l46.3,34.2v12.7l-46.3-35V332.5Z" transform="translate(-14.5 -20.4)"/><path class="0f2cf5da-1e57-4321-9e3a-0c95b8166778" d="M323.3,319.2l-63.6,47.4v12.7L323.3,331Z" transform="translate(-14.5 -20.4)"/></g><g id="bb824458-8797-4eaf-a6fb-f611238ede79" data-name="dalle - copie 19"><path class="0f2cf5da-1e57-4321-9e3a-0c95b8166778" d="M275.5,268l-62.1,48.5,46.3,34.1,63.6-47.4Z" transform="translate(-14.5 -20.4)"/><path class="8b819810-0e0d-4743-b7f2-bbcb164ea817" d="M213.4,316.5l46.3,34.2v12.7l-46.3-35V316.5Z" transform="translate(-14.5 -20.4)"/><path class="0f2cf5da-1e57-4321-9e3a-0c95b8166778" d="M323.3,303.2l-63.6,47.4v12.7L323.3,315Z" transform="translate(-14.5 -20.4)"/></g><path class="66a7cb43-d081-4eed-8b22-d033d6c5b89f" d="M286.4,312.9c.1,0,.1,0,.1-.1,5.8-4.2,5.1-6.5,3.5-7.6a10.43,10.43,0,0,0-4.5-1.7,10.06,10.06,0,0,1-4.4-1.7c-1.7-1.2-2.1-3.2-2.5-5.1s-.8-3.6-2.3-4.8c-4.2-3.1-11.7.8-14.2,2.6a.35.35,0,0,0-.2.1l-.5.4h0l-3.6,2.6a1.21,1.21,0,0,0-.6.9l-9.4,7.8a1.4,1.4,0,0,0,.1,2.3l19.5,14.3a2.89,2.89,0,0,0,3.1.1l10.7-6.9a2.11,2.11,0,0,0,1.3-.5l3.6-2.6h0Zm-11.1-20.1c1.2.9,1.5,2.5,1.9,4.1.4,2,.9,4.2,2.9,5.7a12.24,12.24,0,0,0,5.1,2A8.77,8.77,0,0,1,289,306c1.6,1.2,0,3.2-2,4.9a.78.78,0,0,0-.4-.4l-21.5-15.7a2.18,2.18,0,0,0-.5-.3c3.1-1.8,8-3.6,10.7-1.7m-5.9,29.5a.9.9,0,0,1-1,0L248.9,308c-.3-.2-.3-.5,0-.8l8.7-7.3a50.34,50.34,0,0,0,7.1,8.4l-1.2.9a.94.94,0,0,0,0,1.6l1.1.8a2,2,0,0,0,2.1,0l1.2-.9a76.26,76.26,0,0,0,11.5,5.2Zm-2.7-13.8,1.1.8-2.1,1.6-1.1-.8Zm13.9,6.7h-.1a69.94,69.94,0,0,1-11.6-5.2.89.89,0,0,0-.1-1.5l-1.1-.8a2,2,0,0,0-2-.1,49,49,0,0,1-7.1-8.5V299l4.3-3.5a.1.1,0,0,0,.1-.1,1.18,1.18,0,0,1,1,.1l21.5,15.7c.3.2.3.5,0,.8Z" transform="translate(-14.5 -20.4)"/></g><g id="69f7d02a-7961-4a7e-ac6d-7efd91c0946f" data-name="3"><g id="62e1d7da-4dc1-47c9-aeaa-8452903fa40d" data-name="dalle - copie 11"><path class="0f2cf5da-1e57-4321-9e3a-0c95b8166778" d="M208.9,350.5,146.8,399l46.3,34.1,63.6-47.4Z" transform="translate(-14.5 -20.4)"/><path class="8b819810-0e0d-4743-b7f2-bbcb164ea817" d="M146.8,399l46.3,34.2v12.7l-46.3-35Z" transform="translate(-14.5 -20.4)"/><path class="0f2cf5da-1e57-4321-9e3a-0c95b8166778" d="M256.7,385.7l-63.6,47.4v12.7l63.6-48.3Z" transform="translate(-14.5 -20.4)"/></g><g id="512e3646-022f-43af-ba45-947467ec60ea" data-name="dalle - copie 15"><path class="0f2cf5da-1e57-4321-9e3a-0c95b8166778" d="M208.9,334.5,146.8,383l46.3,34.1,63.6-47.4Z" transform="translate(-14.5 -20.4)"/><path class="8b819810-0e0d-4743-b7f2-bbcb164ea817" d="M146.8,383l46.3,34.2v12.7l-46.3-35Z" transform="translate(-14.5 -20.4)"/><path class="0f2cf5da-1e57-4321-9e3a-0c95b8166778" d="M256.7,369.7l-63.6,47.4v12.7l63.6-48.3Z" transform="translate(-14.5 -20.4)"/></g><g id="250d119a-084f-41d0-a204-1d090af43504" data-name="dalle - copie 14"><path class="0f2cf5da-1e57-4321-9e3a-0c95b8166778" d="M208.9,318.5,146.8,367l46.3,34.1,63.6-47.4Z" transform="translate(-14.5 -20.4)"/><path class="8b819810-0e0d-4743-b7f2-bbcb164ea817" d="M146.8,367l46.3,34.2v12.7l-46.3-35Z" transform="translate(-14.5 -20.4)"/><path class="0f2cf5da-1e57-4321-9e3a-0c95b8166778" d="M256.7,353.7l-63.6,47.4v12.7l63.6-48.3Z" transform="translate(-14.5 -20.4)"/></g><g id="8a7eedb7-57e3-495c-9bce-e788d24866a8" data-name="dalle - copie 13"><path class="0f2cf5da-1e57-4321-9e3a-0c95b8166778" d="M208.9,302.5,146.8,351l46.3,34.1,63.6-47.4Z" transform="translate(-14.5 -20.4)"/><path class="8b819810-0e0d-4743-b7f2-bbcb164ea817" d="M146.8,351l46.3,34.2v12.7l-46.3-35Z" transform="translate(-14.5 -20.4)"/><path class="0f2cf5da-1e57-4321-9e3a-0c95b8166778" d="M256.7,337.7l-63.6,47.4v12.7l63.6-48.3Z" transform="translate(-14.5 -20.4)"/></g><g id="bd5219aa-bab1-473f-b049-be42e0c63aed" data-name="dalle - copie 12"><path class="0f2cf5da-1e57-4321-9e3a-0c95b8166778" d="M208.9,286.5,146.8,335l46.3,34.1,63.6-47.4Z" transform="translate(-14.5 -20.4)"/><path class="8b819810-0e0d-4743-b7f2-bbcb164ea817" d="M146.8,335l46.3,34.2v12.7l-46.3-35Z" transform="translate(-14.5 -20.4)"/><path class="0f2cf5da-1e57-4321-9e3a-0c95b8166778" d="M256.7,321.7l-63.6,47.4v12.7l63.6-48.3Z" transform="translate(-14.5 -20.4)"/></g><g id="2a859fff-739b-46ea-a74f-b2aff48dbed1" data-name="sac"><path class="66a7cb43-d081-4eed-8b22-d033d6c5b89f" d="M211,340.3l-1.8-1.3,4.8-3.6a3.07,3.07,0,0,0,2.8-.4l7-5.3a1.59,1.59,0,0,0,0-2.7l-4.3-3.2c1.5-1.9,1.2-4.4-1-6.1L215,315a8.18,8.18,0,0,0-8-.8l-4.3-3.2a3.18,3.18,0,0,0-3.5,0l-7,5.3a1.52,1.52,0,0,0-.5,2.1l-4.8,3.6-1.8-1.3a3.18,3.18,0,0,0-3.5,0l-7,5.3a1.59,1.59,0,0,0,0,2.7l25.7,19.5a3.18,3.18,0,0,0,3.5,0l7-5.3a1.44,1.44,0,0,0,.2-2.6m3-24.4,3.5,2.7a3.26,3.26,0,0,1,1,4.3l-10.1-7.7a6.2,6.2,0,0,1,5.6.7m-13.5-4a1.27,1.27,0,0,1,1.2,0l4.1,3.1,12.9,9.8,4.1,3.1a.56.56,0,0,1,0,.9l-7,5.3a1.27,1.27,0,0,1-1.2,0l-4.1-3.1,1.2-.9a1.12,1.12,0,0,0,0-1.8l-1.2-.9a2,2,0,0,0-2.3,0l-1.2.9-5.9-4.4,1.2-.9a1.12,1.12,0,0,0,0-1.8l-1.2-.9a2,2,0,0,0-2.3,0l-1.2.9-4.1-3.1a.56.56,0,0,1,0-.9Zm6.4,20-1.2-.9,3.5-2.7,1.2.9Zm-9.3-7.1-1.2-.9,3.5-2.7,1.2.9ZM183,321.7a1.27,1.27,0,0,1,1.2,0L186,323l-2.3,1.8-2.3-1.8Zm-7.1,6.2a.56.56,0,0,1,0-.9l4.1-3.1,2.3,1.8-4.7,3.6Zm22.9,17.3-19.9-15.1,14-10.7,3.5,2.7-1.2.9a1.12,1.12,0,0,0,0,1.8l1.2.9a2,2,0,0,0,2.3,0l1.2-.9,5.9,4.4-1.2.9a1.12,1.12,0,0,0,0,1.8l1.2.9a2,2,0,0,0,2.3,0l1.2-.9,3.5,2.7Zm4.1,2.2a1.27,1.27,0,0,1-1.2,0l-1.8-1.3,4.7-3.6,2.3,1.8Zm2.9-5.7,2.3-1.8,1.8,1.3a.56.56,0,0,1,0,.9l-1.8,1.3Z" transform="translate(-14.5 -20.4)"/><path class="66a7cb43-d081-4eed-8b22-d033d6c5b89f" d="M200.5,316.4l16.4,12.4a1.27,1.27,0,0,0,1.2,0,.56.56,0,0,0,0-.9l-16.4-12.4a1.27,1.27,0,0,0-1.2,0,.56.56,0,0,0,0,.9" transform="translate(-14.5 -20.4)"/><path class="66a7cb43-d081-4eed-8b22-d033d6c5b89f" d="M205.8,334.6l-12.9-9.8a2,2,0,0,0-2.3,0l-7,5.3a1.12,1.12,0,0,0,0,1.8l12.9,9.8a2,2,0,0,0,2.3,0l7-5.3a1.12,1.12,0,0,0,0-1.8m-3.5,2.6-12.9-9.8,2.3-1.8,12.9,9.8ZM184.7,331l3.5-2.7,1.2.9-1.8,1.3a.56.56,0,0,0,0,.9,1.27,1.27,0,0,0,1.2,0l1.8-1.3,10.5,8-3.5,2.7Z" transform="translate(-14.5 -20.4)"/></g></g><g id="fb6c64fe-fc7a-48d0-a57c-ea3ff1f3d586" data-name="2"><g id="b644f45b-44d4-4468-8502-e513deac33cd" data-name="dalle - copie 6"><path class="0f2cf5da-1e57-4321-9e3a-0c95b8166778" d="M143.1,400.2,81,448.7l46.3,34.1,63.6-47.4Z" transform="translate(-14.5 -20.4)"/><path class="8b819810-0e0d-4743-b7f2-bbcb164ea817" d="M81,448.7l46.3,34.2v12.7L81,460.6Z" transform="translate(-14.5 -20.4)"/><path class="0f2cf5da-1e57-4321-9e3a-0c95b8166778" d="M190.9,435.4l-63.6,47.4v12.7l63.6-48.3Z" transform="translate(-14.5 -20.4)"/></g><g id="208c955b-055d-41e0-8531-a10abc37a390" data-name="dalle - copie 10"><path class="0f2cf5da-1e57-4321-9e3a-0c95b8166778" d="M143.1,384.2,81,432.7l46.3,34.1,63.6-47.4Z" transform="translate(-14.5 -20.4)"/><path class="8b819810-0e0d-4743-b7f2-bbcb164ea817" d="M81,432.7l46.3,34.2v12.7L81,444.6Z" transform="translate(-14.5 -20.4)"/><path class="0f2cf5da-1e57-4321-9e3a-0c95b8166778" d="M190.9,419.4l-63.6,47.4v12.7l63.6-48.3Z" transform="translate(-14.5 -20.4)"/></g><g id="fa0b841b-40a3-467b-9cb0-5ba77c131c47" data-name="dalle - copie 9"><path class="0f2cf5da-1e57-4321-9e3a-0c95b8166778" d="M143.1,368.2,81,416.7l46.3,34.1,63.6-47.4Z" transform="translate(-14.5 -20.4)"/><path class="8b819810-0e0d-4743-b7f2-bbcb164ea817" d="M81,416.7l46.3,34.2v12.7L81,428.6Z" transform="translate(-14.5 -20.4)"/><path class="0f2cf5da-1e57-4321-9e3a-0c95b8166778" d="M190.9,403.4l-63.6,47.4v12.7l63.6-48.3Z" transform="translate(-14.5 -20.4)"/></g><g id="c5df29e0-2833-4112-af0a-6c6927a71f3b" data-name="dalle - copie 8"><path class="0f2cf5da-1e57-4321-9e3a-0c95b8166778" d="M143.1,352.2,81,400.7l46.3,34.1,63.6-47.4Z" transform="translate(-14.5 -20.4)"/><path class="8b819810-0e0d-4743-b7f2-bbcb164ea817" d="M81,400.7l46.3,34.2v12.7L81,412.6Z" transform="translate(-14.5 -20.4)"/><path class="0f2cf5da-1e57-4321-9e3a-0c95b8166778" d="M190.9,387.4l-63.6,47.4v12.7l63.6-48.3Z" transform="translate(-14.5 -20.4)"/></g><g id="ddb8b05b-08ae-4c9e-89c2-fdb50a70ac74" data-name="dalle - copie 7"><path class="0f2cf5da-1e57-4321-9e3a-0c95b8166778" d="M143.1,336.2,81,384.7l46.3,34.1,63.6-47.4Z" transform="translate(-14.5 -20.4)"/><path class="8b819810-0e0d-4743-b7f2-bbcb164ea817" d="M81,384.7l46.3,34.2v12.7L81,396.6Z" transform="translate(-14.5 -20.4)"/><path class="0f2cf5da-1e57-4321-9e3a-0c95b8166778" d="M190.9,371.4l-63.6,47.4v12.7l63.6-48.3Z" transform="translate(-14.5 -20.4)"/></g><path id="30694d08-485d-4f72-99d6-ce8a6711a165" data-name="sac" class="66a7cb43-d081-4eed-8b22-d033d6c5b89f" d="M156.4,378.8l-5-3.8,1.5-1.1a2.24,2.24,0,0,0,0-3.8l-7-5.3a4.54,4.54,0,0,0-5,0l-1.5,1.1-5-3.8a2.73,2.73,0,0,0-3,0l-8.3,6.3-7.7,5.8a1.4,1.4,0,0,0,0,2.3l22,16.6a2.73,2.73,0,0,0,3,0l7.6-5.8,8.3-6.3a1.27,1.27,0,0,0,.1-2.2m-14.5-13.2a2.73,2.73,0,0,1,3,0l7,5.3a1.4,1.4,0,0,1,0,2.3l-1.5,1.1-10-7.5Zm-9.4-2.6a.91.91,0,0,1,1,0l22,16.6c.3.2.3.5,0,.8l-7.6,5.8c-.9-.3-2.9-1-5.3-2l.5-.4a.85.85,0,0,0,0-1.5l-1-.8a1.82,1.82,0,0,0-2,0l-1.3,1a29.67,29.67,0,0,1-5.7-3.2,22.3,22.3,0,0,1-3.5-3.4l1.5-1.1a.85.85,0,0,0,0-1.5l-1-.8a1.82,1.82,0,0,0-2,0l-.6.5a26,26,0,0,1-2.5-4.1Zm6.4,22.2-1-.8,3-2.3,1,.8Zm-11.9-9-1-.8,3-2.3,1,.8Zm11.4,16.2-22-16.6c-.3-.2-.3-.5,0-.8l7.2-5.5a47,47,0,0,0,2.6,4.1l-1.3,1a.85.85,0,0,0,0,1.5l1,.8a1.82,1.82,0,0,0,2,0l.5-.4a18.69,18.69,0,0,0,3.5,3.4,33.08,33.08,0,0,0,5.7,3.2l-.7.5a.85.85,0,0,0,0,1.5l1,.8a1.82,1.82,0,0,0,2,0l1.5-1.1c2.2.9,4.2,1.6,5.3,2l-7.3,5.5a.76.76,0,0,1-1,.1" transform="translate(-14.5 -20.4)"/></g><g id="76e8029b-544d-4aeb-8676-3b772b636292" data-name="1"><g id="e5f7e5cd-c4f5-4b32-b5c0-bc474250af08" data-name="dalle"><path class="0f2cf5da-1e57-4321-9e3a-0c95b8166778" d="M77.1,448.4,15,496.9,61.3,531l63.6-47.4Z" transform="translate(-14.5 -20.4)"/><path class="8b819810-0e0d-4743-b7f2-bbcb164ea817" d="M15,496.8,61.3,531v12.7L15,508.7Z" transform="translate(-14.5 -20.4)"/><path class="0f2cf5da-1e57-4321-9e3a-0c95b8166778" d="M124.9,483.6,61.3,531v12.7l63.6-48.3Z" transform="translate(-14.5 -20.4)"/></g><g id="eeafc8ac-94af-409c-a50e-bff8b81ec6a5" data-name="dalle - copie"><path class="0f2cf5da-1e57-4321-9e3a-0c95b8166778" d="M77.1,432.4,15,480.9,61.3,515l63.6-47.4Z" transform="translate(-14.5 -20.4)"/><path class="8b819810-0e0d-4743-b7f2-bbcb164ea817" d="M15,480.8,61.3,515v12.7L15,492.7Z" transform="translate(-14.5 -20.4)"/><path class="0f2cf5da-1e57-4321-9e3a-0c95b8166778" d="M124.9,467.6,61.3,515v12.7l63.6-48.3Z" transform="translate(-14.5 -20.4)"/></g><g id="34473c7f-e0b9-4c2b-86bb-f5b1feec90de" data-name="dalle - copie 2"><path class="0f2cf5da-1e57-4321-9e3a-0c95b8166778" d="M77.1,416.4,15,464.9,61.3,499l63.6-47.4Z" transform="translate(-14.5 -20.4)"/><path class="8b819810-0e0d-4743-b7f2-bbcb164ea817" d="M15,464.8,61.3,499v12.7L15,476.7Z" transform="translate(-14.5 -20.4)"/><path class="0f2cf5da-1e57-4321-9e3a-0c95b8166778" d="M124.9,451.6,61.3,499v12.7l63.6-48.3Z" transform="translate(-14.5 -20.4)"/></g><g id="f96a0d4f-da49-4b5d-93cb-d607f1b5d206" data-name="dalle - copie 3"><path class="0f2cf5da-1e57-4321-9e3a-0c95b8166778" d="M77.1,400.4,15,448.9,61.3,483l63.6-47.4Z" transform="translate(-14.5 -20.4)"/><path class="8b819810-0e0d-4743-b7f2-bbcb164ea817" d="M15,448.8,61.3,483v12.7L15,460.7Z" transform="translate(-14.5 -20.4)"/><path class="0f2cf5da-1e57-4321-9e3a-0c95b8166778" d="M124.9,435.6,61.3,483v12.7l63.6-48.3Z" transform="translate(-14.5 -20.4)"/></g><g id="92124af5-1d48-4cec-b83c-f6732e7d86a6" data-name="dalle - copie 4"><path class="0f2cf5da-1e57-4321-9e3a-0c95b8166778" d="M77.1,384.4,15,432.9,61.3,467l63.6-47.4Z" transform="translate(-14.5 -20.4)"/><path class="8b819810-0e0d-4743-b7f2-bbcb164ea817" d="M15,432.8,61.3,467v12.7L15,444.7Z" transform="translate(-14.5 -20.4)"/><path class="0f2cf5da-1e57-4321-9e3a-0c95b8166778" d="M124.9,419.6,61.3,467v12.7l63.6-48.3Z" transform="translate(-14.5 -20.4)"/></g><g id="48d7e74b-6afa-48a1-9f01-a949b650992e" data-name="dalle - copie 5"><path class="0f2cf5da-1e57-4321-9e3a-0c95b8166778" d="M77.1,368.4,15,416.9,61.3,451l63.6-47.4Z" transform="translate(-14.5 -20.4)"/><path class="8b819810-0e0d-4743-b7f2-bbcb164ea817" d="M15,416.8,61.3,451v12.7L15,428.7Z" transform="translate(-14.5 -20.4)"/><path class="0f2cf5da-1e57-4321-9e3a-0c95b8166778" d="M124.9,403.6,61.3,451v12.7l63.6-48.3Z" transform="translate(-14.5 -20.4)"/></g><path id="0347e819-79fb-4d42-8edf-776f82c84342" data-name="sac" class="66a7cb43-d081-4eed-8b22-d033d6c5b89f" d="M95.1,411.6l-6.3-4.7,1.7-1.3a2.53,2.53,0,0,0,0-4.3l-6.9-5.2a5.12,5.12,0,0,0-5.8,0l-1.7,1.3-6.3-4.7a3.18,3.18,0,0,0-3.5,0L47.7,406.6a1.5,1.5,0,0,0,0,2.6L73,428.1a3.18,3.18,0,0,0,3.5,0L95,414.2a1.54,1.54,0,0,0,.1-2.6M79,396.9a3.18,3.18,0,0,1,3.5,0l6.9,5.2a1.54,1.54,0,0,1,0,2.6L87.7,406l-10.3-7.7Zm-10.4-3.4,6.3,4.7,12.6,9.5,6.3,4.7a.56.56,0,0,1,0,.9l-4.6,3.4-.4-.1c-.1,0-12.8-2.7-17.5-6.3s-8.3-13-8.4-13.1l-.1-.3,4.6-3.4a1.27,1.27,0,0,1,1.2,0m.1,16.3a10.71,10.71,0,0,0,1.6,1.4,15.73,15.73,0,0,0,1.9,1.2l-1.9,1.4-3.4-2.6Zm-19.8-1.5a.56.56,0,0,1,0-.9l12.7-9.5a35,35,0,0,0,1.7,3.9l-11.5,8.6Zm4,3,11-8.3a34,34,0,0,0,3.8,5.8l-2.1,1.6a1,1,0,0,0,0,1.7l3.4,2.6a2,2,0,0,0,2.3,0l2.1-1.6a54.65,54.65,0,0,0,7.7,2.8l-11,8.3Zm21.3,15.9L71.3,425l11.5-8.6c2.4.7,4.3,1.1,5.2,1.3l-12.7,9.5a.78.78,0,0,1-1.1,0" transform="translate(-14.5 -20.4)"/></g><g id="8c536a6c-f6b5-4467-ac17-0b654db24658" data-name="connecteur"><path class="10054901-66f0-4489-a97d-09241872ef5d" d="M321.2,313.9l-45,33.6v45.4l45-33.6Z" transform="translate(-14.5 -20.4)"/><path class="10054901-66f0-4489-a97d-09241872ef5d" d="M269.2,342.3l7.1,5.2v45.4l-7.1-5Z" transform="translate(-14.5 -20.4)"/><path class="fa6b318c-a2f3-40d7-9a2e-bd9f1959b2ef" d="M313.7,308.9l7.5,5.1-45,33.6-7.1-5.2Z" transform="translate(-14.5 -20.4)"/><path class="ac123ec0-df21-4bf1-b655-79f3edecb0fa" d="M299.6,341.9,294,350l4-1-.6,6.1,6.1-8.9-3.9,1Z" transform="translate(-14.5 -20.4)"/><ellipse class="10054901-66f0-4489-a97d-09241872ef5d" cx="303.26" cy="363.11" rx="3.3" ry="2.9" transform="translate(-121.48 578.33) rotate(-80)"/></g><g id="a0211122-2f28-42bb-b6ee-502fa94ed780" data-name="tuyau"><line class="2b7a0686-961b-4778-aeb3-5d564272dbc4" x1="289.7" y1="343.2" x2="310.9" y2="359.2"/><path class="51fa1a4f-73d0-43e5-b41a-2103f5129ba0" d="M325.1,381.4a1.92,1.92,0,0,1-1.2-.4l-21.1-16a2,2,0,0,1,2.4-3.2l21.1,16a2,2,0,0,1,.4,2.8A2.09,2.09,0,0,1,325.1,381.4Z" transform="translate(-14.5 -20.4)"/></g><g id="7cbaf05e-c54b-483a-b97e-b973c609161c" data-name="beezup"><path id="16342790-2b2a-4fc5-a34a-495c38d59d8b" data-name="shade" class="50ada0d0-9eb8-4768-b1bc-8f1f0aaa6a73" d="M361.6,366.7l-63.7,48.1,104,76.6,63.7-48.1Z" transform="translate(-14.5 -20.4)"/><polygon class="ee2e2380-8b17-4e48-84ba-94e335385ef1" points="284.3 391.6 387.1 467.4 387.1 452.2 284.3 376.1 284.3 391.6"/><polygon class="15ef0850-af88-4663-b90c-814ff8364ae8" points="450.2 420.4 387.1 467.4 387.1 452.2 450.2 405 450.2 420.4"/><polygon class="5acb26fe-ebe4-4754-84e1-7cc5315dbf35" points="387.1 452.2 284.3 376.1 346.6 328.9 450.2 405 387.1 452.2"/><g id="2830d916-c4c0-4ea0-9869-a884ef999fb6" data-name="logo"><path class="ac123ec0-df21-4bf1-b655-79f3edecb0fa" d="M421.1,429.7c-1.2-2.6-10.2-7.1-20-10s-16.9-3.2-15.7-.6c.3.7-.9,1.5.5,2.5-1-2.5,7.1-2.4,15.7.1s16.7,6.8,17.9,9.4c0,.1.1.2.1.3C420.9,431.2,421.5,430.6,421.1,429.7Z" transform="translate(-14.5 -20.4)"/><path class="ac123ec0-df21-4bf1-b655-79f3edecb0fa" d="M396.9,416c.4-1.1.9-2.2,1.4-3.3,3.7-7.5,9.3-13,12.4-12.1,2.5.7,2.7,5.1.9,10.7-2.5,1.1-5.6,3.7-8.5,7,2.6-2.2,5.2-3.6,7.3-3.9a9.14,9.14,0,0,1-.7,1.4,37.19,37.19,0,0,1-1.9,3.4,32.5,32.5,0,0,0,3.5-4.9,3,3,0,0,1,1,.2c2.2.9,2.4,4,1,8.1,3.5-5.9,4.3-10.9,1.8-11.9a3.93,3.93,0,0,0-1.9-.1c3.1-7,3-13.2-.5-14.2s-9.6,4.3-13.3,11.8A38.54,38.54,0,0,0,396.9,416Z" transform="translate(-14.5 -20.4)"/><path class="ac123ec0-df21-4bf1-b655-79f3edecb0fa" d="M341.7,399.6c2.7.9,4.9.6,6.7-.7,2.4-1.8,2.1-3.8-.8-6l-7.3-5.5-15.5,11.7,7.1,5.3c3.2,2.4,6.4,2.5,9.5.2C343.3,403.1,343.4,401.5,341.7,399.6Zm-7.5,2.9-4.1-3,10.5-7.9,4.2,3.2c1.1.8,1.2,1.5.3,2.2-1.6,1.2-3.8,1.1-6.6-.4l-1.9,1.4.9.7c1.9,1.4,2,2.7.4,4A3.17,3.17,0,0,1,334.2,402.5Z" transform="translate(-14.5 -20.4)"/><path class="ac123ec0-df21-4bf1-b655-79f3edecb0fa" d="M355.1,404.8c-3.8-2.8-7.5-2.9-11.3-.1s-3.8,5.9.4,9a28.59,28.59,0,0,0,4.2,2.7l2.3-1.7a34.8,34.8,0,0,1-3.8-2.3q-3.75-2.85-1.5-4.5l7.5,5.6C358.2,410.5,358.9,407.6,355.1,404.8Zm-2.7,5-4.8-3.6a4,4,0,0,1,4.9,0C354.2,407.4,354.1,408.6,352.4,409.8Z" transform="translate(-14.5 -20.4)"/><path class="ac123ec0-df21-4bf1-b655-79f3edecb0fa" d="M366.9,413.6c-3.8-2.8-7.5-2.9-11.3-.1s-3.8,5.9.4,9a28.59,28.59,0,0,0,4.2,2.7l2.3-1.7a34.8,34.8,0,0,1-3.8-2.3q-3.75-2.85-1.5-4.5l7.5,5.6C370,419.3,370.7,416.5,366.9,413.6Zm-2.7,5-4.8-3.6a4,4,0,0,1,4.9,0C366,416.3,365.9,417.5,364.2,418.6Z" transform="translate(-14.5 -20.4)"/><polygon class="ac123ec0-df21-4bf1-b655-79f3edecb0fa" points="356.9 400 362.6 404.3 349.7 405.1 347.6 406.7 356.4 413.3 358.5 411.7 352.9 407.5 365.7 406.6 368 404.9 359.2 398.3 356.9 400"/><path class="ac123ec0-df21-4bf1-b655-79f3edecb0fa" d="M379.5,431l9.4-7.1,2.9,2.2-9.4,7.1c-2.5,1.9-2.4,3.7.1,5.6a5.76,5.76,0,0,0,7.5.1l9.4-7.1,2.9,2.2-9.4,7.1c-4.1,3.1-8.4,3-12.9-.4S375.3,434.1,379.5,431Z" transform="translate(-14.5 -20.4)"/><path class="ac123ec0-df21-4bf1-b655-79f3edecb0fa" d="M390,448l15.5-11.7,7.3,5.5c3,2.2,3.1,4.3.5,6.3q-4.65,3.45-12-.6l2.2-2.2c3,1.5,5.3,1.8,6.8.6,1-.7,1-1.5-.1-2.3l-4.2-3.2-13,9.8Z" transform="translate(-14.5 -20.4)"/></g></g></svg>