<?xml version="1.0" encoding="utf-8"?>
<!-- Generator: Adobe Illustrator 21.0.2, SVG Export Plug-In . SVG Version: 6.00 Build 0)  -->
<svg version="1.1" xmlns="http://www.w3.org/2000/svg" xmlns:xlink="http://www.w3.org/1999/xlink" x="0px" y="0px"
	 viewBox="0 0 922.3 752.8" style="enable-background:new 0 0 922.3 752.8;" xml:space="preserve">
<style type="text/css">
	.st0{opacity:0.54;fill-rule:evenodd;clip-rule:evenodd;fill:#D0E6F2;}
	
		.st1{fill-rule:evenodd;clip-rule:evenodd;fill:#FFFFFF;stroke:#C6DEEC;stroke-linecap:round;stroke-linejoin:round;stroke-miterlimit:10;}
	
		.st2{fill-rule:evenodd;clip-rule:evenodd;fill:#EFF6FA;stroke:#C6DEEC;stroke-linecap:round;stroke-linejoin:round;stroke-miterlimit:10;}
	.st3{fill:#009EE6;}
	.st4{fill-rule:evenodd;clip-rule:evenodd;fill:#009EE6;}
	.st5{fill-rule:evenodd;clip-rule:evenodd;fill:#1FDA4B;}
	.st6{fill:#FCFCFC;}
	.st7{fill:none;stroke:#FFFFFF;stroke-miterlimit:10;}
	.st8{fill:#FFFFFF;}
	
		.st9{fill-rule:evenodd;clip-rule:evenodd;fill:#C81888;stroke:#FF63C6;stroke-linecap:round;stroke-linejoin:round;stroke-miterlimit:10;}
	
		.st10{fill-rule:evenodd;clip-rule:evenodd;fill:#E30C95;stroke:#FF63C6;stroke-linecap:round;stroke-linejoin:round;stroke-miterlimit:10;}
	.st11{fill:#C81888;stroke:#FF63C6;stroke-linecap:round;stroke-linejoin:round;stroke-miterlimit:10;}
	.st12{fill:none;stroke:#FFFFFF;stroke-width:4;stroke-linecap:round;stroke-linejoin:round;stroke-miterlimit:10;}
	.st13{opacity:0.4;fill:none;stroke:#009EE6;stroke-miterlimit:10;}
	.st14{fill-rule:evenodd;clip-rule:evenodd;fill:#009EE6;stroke:#C6DEEC;stroke-linejoin:round;stroke-miterlimit:10;}
	.st15{fill-rule:evenodd;clip-rule:evenodd;fill:#2CB3EB;stroke:#C6DEEC;stroke-linejoin:round;stroke-miterlimit:10;}
	
		.st16{fill-rule:evenodd;clip-rule:evenodd;fill:#009EE6;stroke:#C6DEEC;stroke-linecap:round;stroke-linejoin:round;stroke-miterlimit:10;}
</style>
<g id="maxi_x5F_shade">
	<path id="shade_1_" class="st0" d="M541.5,309.1L15,704.7l46.2,35.5l526.5-395.6L541.5,309.1z"/>
</g>
<g id="_x31_2">
	<g id="dalle_-_copie_48">
	</g>
	<g id="dalle_-_copie_52">
	</g>
	<g id="dalle_-_copie_51">
	</g>
	<g id="dalle_-_copie_50">
	</g>
	<g id="dalle_-_copie_49">
	</g>
	<g id="check_-_copie_14">
	</g>
</g>
<g id="_x31_1">
	<g id="dalle_-_copie_43">
	</g>
	<g id="dalle_-_copie_47">
	</g>
	<g id="dalle_-_copie_46">
	</g>
	<g id="dalle_-_copie_45">
	</g>
	<g id="dalle_-_copie_44">
	</g>
	<g id="check_-_copie_13">
	</g>
</g>
<g id="_x31_0_1_">
	<g id="dalle_-_copie_37">
	</g>
	<g id="dalle_-_copie_42">
	</g>
	<g id="dalle_-_copie_41">
	</g>
	<g id="dalle_-_copie_40">
	</g>
	<g id="dalle_-_copie_39">
	</g>
	<g id="dalle_-_copie_38">
	</g>
	<g id="check_-_copie_12">
	</g>
</g>
<g id="_x39__1_">
	<g id="dalle_-_copie_34">
	</g>
	<g id="dalle_-_copie_36">
	</g>
	<g id="dalle_-_copie_35">
	</g>
	<g id="check_-_copie_11">
	</g>
</g>
<g id="_x38_">
	<g id="dalle_-_copie_28">
		<path class="st1" d="M539.2,294.1l-62.1,48.5l46.3,34.1l63.6-47.4L539.2,294.1z"/>
		<path class="st2" d="M477.1,342.5l46.3,34.2v12.7l-46.3-35V342.5z"/>
		<path class="st1" d="M587,329.3l-63.6,47.4v12.7l63.6-48.3V329.3z"/>
	</g>
	<g id="dalle_-_copie_33">
		<path class="st1" d="M539.2,278.1l-62.1,48.5l46.3,34.1l63.6-47.4L539.2,278.1z"/>
		<path class="st2" d="M477.1,326.5l46.3,34.2v12.7l-46.3-35V326.5z"/>
		<path class="st1" d="M587,313.3l-63.6,47.4v12.7l63.6-48.3V313.3z"/>
	</g>
	<g id="dalle_-_copie_32">
		<path class="st1" d="M539.2,262.1l-62.1,48.5l46.3,34.1l63.6-47.4L539.2,262.1z"/>
		<path class="st2" d="M477.1,310.5l46.3,34.2v12.7l-46.3-35V310.5z"/>
		<path class="st1" d="M587,297.3l-63.6,47.4v12.7l63.6-48.3V297.3z"/>
	</g>
	<g id="dalle_-_copie_31">
		<path class="st1" d="M539.2,246.1l-62.1,48.5l46.3,34.1l63.6-47.4L539.2,246.1z"/>
		<path class="st2" d="M477.1,294.5l46.3,34.2v12.7l-46.3-35V294.5z"/>
		<path class="st1" d="M587,281.3l-63.6,47.4v12.7l63.6-48.3V281.3z"/>
	</g>
	<g id="dalle_-_copie_30">
		<path class="st1" d="M539.2,230.1l-62.1,48.5l46.3,34.1l63.6-47.4L539.2,230.1z"/>
		<path class="st2" d="M477.1,278.5l46.3,34.2v12.7l-46.3-35V278.5z"/>
		<path class="st1" d="M587,265.3l-63.6,47.4v12.7l63.6-48.3V265.3z"/>
	</g>
	<g id="dalle_-_copie_29">
		<path class="st1" d="M539.2,214.1l-62.1,48.5l46.3,34.1l63.6-47.4L539.2,214.1z"/>
		<path class="st2" d="M477.1,262.5l46.3,34.2v12.7l-46.3-35V262.5z"/>
		<path class="st1" d="M587,249.3l-63.6,47.4v12.7l63.6-48.3V249.3z"/>
	</g>
	<g id="sac_6_">
		<path class="st3" d="M552.7,257.2l-5.9-4.5l1.6-1.2c1.5-1.1,1.5-3,0-4.1l-6.4-4.9c-1.5-1.1-3.9-1.1-5.3,0l-1.6,1.2l-5.9-4.5
			c-0.9-0.7-2.3-0.7-3.2,0l-17,13.1c-0.9,0.7-0.9,1.8,0,2.5l23.4,18c0.9,0.7,2.3,0.7,3.2,0l17-13.1
			C553.6,258.9,553.6,257.8,552.7,257.2 M537.8,243.2c0.9-0.7,2.3-0.7,3.2,0l6.4,4.9c0.9,0.7,0.9,1.8,0,2.5l-1.6,1.2l-9.6-7.4
			L537.8,243.2z M534.6,271.9c-0.3,0.2-0.8,0.2-1.1,0l-23.4-18c-0.3-0.2-0.3-0.6,0-0.8l17-13.1c0.3-0.2,0.8-0.2,1.1,0l5.9,4.5
			l11.7,9l5.9,4.5c0.3,0.2,0.3,0.6,0,0.8L534.6,271.9z"/>
		<path class="st3" d="M515.1,258.5l18.4-14.1c0.3-0.2,0.3-0.6,0-0.9c-0.3-0.2-0.8-0.2-1.1,0l-18.4,14.1c-0.3,0.2-0.3,0.6,0,0.9
			S514.8,258.7,515.1,258.5"/>
		<path class="st3" d="M513,256.8l18.4-14.1c0.3-0.2,0.3-0.6,0-0.9c-0.3-0.2-0.8-0.2-1.1,0L511.9,256c-0.3,0.2-0.3,0.6,0,0.9
			C512.2,257.1,512.7,257.1,513,256.8"/>
		<path class="st4" d="M519.1,251.3l2.3,1.8c0.2,0.2,0.2,0.4,0,0.6l-1.8,1.3c-0.2,0.1-0.5,0.1-0.7,0l-2.3-1.8
			c-0.2-0.2-0.2-0.4,0-0.6l1.8-1.3C518.6,251.1,518.9,251.1,519.1,251.3z"/>
		<path class="st3" d="M530.7,270.3l18.4-14.1c0.3-0.2,0.3-0.6,0-0.9c-0.3-0.2-0.8-0.2-1.1,0l-18.4,14.1c-0.3,0.2-0.3,0.6,0,0.9
			C529.9,270.5,530.4,270.5,530.7,270.3"/>
		<path class="st3" d="M528.6,268.6l18.4-14.1c0.3-0.2,0.3-0.6,0-0.9c-0.3-0.2-0.8-0.2-1.1,0l-18.4,14.1c-0.3,0.2-0.3,0.6,0,0.9
			C527.8,268.9,528.3,268.9,528.6,268.6"/>
		<path class="st4" d="M534.7,263l2.3,1.8c0.2,0.2,0.2,0.4,0,0.6l-1.8,1.3c-0.2,0.1-0.5,0.1-0.7,0l-2.3-1.8c-0.2-0.2-0.2-0.4,0-0.6
			l1.8-1.3C534.2,262.9,534.5,262.9,534.7,263z"/>
		<path class="st4" d="M519.8,249.4l3.7,2.8c0.3,0.3,0.3,0.7,0,0.9l-3.1,2.4c-0.3,0.3-0.9,0.3-1.2,0l-3.7-2.8
			c-0.3-0.3-0.3-0.7,0-0.9l3.1-2.4C518.9,249.2,519.4,249.2,519.8,249.4z"/>
		<path class="st4" d="M535.4,261.2l3.7,2.8c0.3,0.3,0.3,0.7,0,0.9l-3.1,2.4c-0.3,0.3-0.9,0.3-1.2,0l-3.7-2.8
			c-0.3-0.3-0.3-0.7,0-0.9l3.1-2.4C534.5,260.9,535,260.9,535.4,261.2z"/>
	</g>
	<g id="check_-_copie_10">
		<path class="st5" d="M532,213.4l-14.1,11.1l15.9,12.2l14.1-11.1L532,213.4z"/>
		<path class="st5" d="M547.9,225.5l-0.1,3.9l-14.1,10.7l0-3.5L547.9,225.5z"/>
		<polygon class="st5" points="533.8,236.7 517.9,224.4 517.9,230.1 519.1,229.2 533.8,240.2 		"/>
		<path class="st6" d="M529.6,226l9.6,0.3c0.2,0,0.4,0,0.5-0.1c0.1-0.1,0.2-0.2,0.2-0.3c0-0.1-0.1-0.3-0.2-0.3
			c-0.1-0.1-0.3-0.1-0.5-0.2l-8.8-0.3l0.1-2.5c0-0.3-0.3-0.5-0.7-0.5c-0.2,0-0.4,0-0.5,0.1c-0.1,0.1-0.2,0.2-0.2,0.3l-0.1,3
			c0,0.1,0.1,0.3,0.2,0.3C529.2,225.9,529.4,226,529.6,226L529.6,226z"/>
		<line class="st7" x1="517.9" y1="224.5" x2="533.7" y2="236.6"/>
		<line class="st7" x1="547.9" y1="225.5" x2="533.7" y2="236.6"/>
		<g>
			<polygon class="st8" points="534.2,239.8 533.8,240.2 533.2,239.8 533.2,236.4 534.2,236.4 			"/>
		</g>
	</g>
</g>
<g id="_x37_">
	<g id="dalle_-_copie_24">
		<path class="st1" d="M473.4,344l-62.1,48.5l46.3,34.1l63.6-47.4L473.4,344z"/>
		<path class="st2" d="M411.3,392.5l46.3,34.2v12.7l-46.3-35V392.5z"/>
		<path class="st1" d="M521.2,379.2l-63.6,47.4v12.7l63.6-48.3V379.2z"/>
	</g>
	<g id="dalle_-_copie_27">
		<path class="st1" d="M473.4,328l-62.1,48.5l46.3,34.1l63.6-47.4L473.4,328z"/>
		<path class="st2" d="M411.3,376.5l46.3,34.2v12.7l-46.3-35V376.5z"/>
		<path class="st1" d="M521.2,363.2l-63.6,47.4v12.7l63.6-48.3V363.2z"/>
	</g>
	<g id="dalle_-_copie_26">
		<path class="st1" d="M473.4,312l-62.1,48.5l46.3,34.1l63.6-47.4L473.4,312z"/>
		<path class="st2" d="M411.3,360.5l46.3,34.2v12.7l-46.3-35V360.5z"/>
		<path class="st1" d="M521.2,347.2l-63.6,47.4v12.7l63.6-48.3V347.2z"/>
	</g>
	<g id="dalle_-_copie_25">
		<path class="st1" d="M473.4,296l-62.1,48.5l46.3,34.1l63.6-47.4L473.4,296z"/>
		<path class="st2" d="M411.3,344.5l46.3,34.2v12.7l-46.3-35V344.5z"/>
		<path class="st1" d="M521.2,331.2l-63.6,47.4v12.7l63.6-48.3V331.2z"/>
	</g>
	<g id="sac_5_">
		<path class="st3" d="M482.4,330.8c1.7-1.6,1.6-3.8-0.3-5.3l-1.2-0.9c-1.9-1.4-4.9-1.5-7-0.2c-6.1-2-13.6-1-18.7,2.8l-15.8,11.9
			c-0.7,0.5-0.7,1.4,0,1.9l21.1,15.8c0.7,0.5,1.8,0.5,2.5,0l15.8-11.9C483.8,341,485,335.4,482.4,330.8 M479.6,325.6l1.2,0.9
			c1.1,0.8,1.3,2,0.7,3c-0.7-0.9-1.5-1.7-2.5-2.5c-1-0.8-2.1-1.4-3.3-1.9C476.9,324.6,478.5,324.8,479.6,325.6 M461.6,355.8
			L440.5,340l15.8-11.9c5.9-4.4,15.5-4.5,21.3-0.2c5.8,4.4,5.7,11.5-0.2,16L461.6,355.8z"/>
		<path class="st3" d="M453.2,332.4l-8.9,6.6c-0.7,0.5-0.7,1.4,0,1.9l16.1,12.1c0.7,0.5,1.8,0.5,2.5,0l8.9-6.6
			c0.7-0.5,0.7-1.4,0-1.9l-16.1-12.1C455,331.8,453.9,331.9,453.2,332.4 M461.7,352l-16.1-12.1l6.3-4.7l2.5,1.9l-1.9,1.4
			c-0.3,0.3-0.4,0.7,0,0.9c0.3,0.3,0.9,0.3,1.3,0l1.9-1.4l12.4,9.3L461.7,352z M469.3,346.3l-16.1-12.1l1.3-0.9l16.1,12.1
			L469.3,346.3z"/>
		<path class="st3" d="M467.5,335.5c1.7,1.3,4.5,1.3,6.3-0.1c1.7-1.3,1.8-3.4,0.1-4.7c-1.7-1.3-4.5-1.3-6.3,0.1
			C465.9,332.2,465.8,334.3,467.5,335.5 M472.6,331.7c1,0.8,1,2,0,2.8c-1,0.8-2.7,0.8-3.8,0c-1-0.8-1-2,0-2.8
			C469.9,331,471.6,331,472.6,331.7"/>
	</g>
	<g id="check_-_copie_9">
		<path class="st5" d="M467,294.7l-14.1,11.1l15.9,12.2l14.1-11.1L467,294.7z"/>
		<path class="st5" d="M482.9,306.9l-0.1,3.9l-14.1,10.7l0-3.5L482.9,306.9z"/>
		<polygon class="st5" points="468.8,318 452.9,305.8 452.9,311.5 454.1,310.6 468.8,321.5 		"/>
		<path class="st6" d="M464.6,307.4l9.6,0.3c0.2,0,0.4,0,0.5-0.1c0.1-0.1,0.2-0.2,0.2-0.3c0-0.1-0.1-0.3-0.2-0.3
			c-0.1-0.1-0.3-0.1-0.5-0.2l-8.8-0.3l0.1-2.5c0-0.3-0.3-0.5-0.7-0.5c-0.2,0-0.4,0-0.5,0.1c-0.1,0.1-0.2,0.2-0.2,0.3l-0.1,3
			c0,0.1,0.1,0.3,0.2,0.3C464.2,307.3,464.4,307.4,464.6,307.4L464.6,307.4z"/>
		<line class="st7" x1="452.9" y1="305.8" x2="468.7" y2="318"/>
		<line class="st7" x1="482.9" y1="306.9" x2="468.7" y2="318"/>
		<g>
			<polygon class="st8" points="469.2,321.2 468.8,321.5 468.2,321.1 468.2,317.8 469.2,317.8 			"/>
		</g>
	</g>
</g>
<g id="_x36_">
	<g id="dalle_-_copie_18">
		<path class="st1" d="M407.1,394.3L345,442.8l46.3,34.1l63.6-47.4L407.1,394.3z"/>
		<path class="st2" d="M345,442.8l46.3,34.2v12.7l-46.3-35V442.8z"/>
		<path class="st1" d="M454.9,429.5L391.3,477v12.7l63.6-48.3V429.5z"/>
	</g>
	<g id="dalle_-_copie_23">
		<path class="st1" d="M407.1,378.3L345,426.8l46.3,34.1l63.6-47.4L407.1,378.3z"/>
		<path class="st2" d="M345,426.8l46.3,34.2v12.7l-46.3-35V426.8z"/>
		<path class="st1" d="M454.9,413.5L391.3,461v12.7l63.6-48.3V413.5z"/>
	</g>
	<g id="dalle_-_copie_21">
		<path class="st1" d="M407.1,362.3L345,410.8l46.3,34.1l63.6-47.4L407.1,362.3z"/>
		<path class="st2" d="M345,410.8l46.3,34.2v12.7l-46.3-35V410.8z"/>
		<path class="st1" d="M454.9,397.5L391.3,445v12.7l63.6-48.3V397.5z"/>
	</g>
	<g id="sac_4_">
		<path class="st3" d="M415.4,401.9l-2.7-2l1.6-1.2c3.9-2.9,3.9-7.6,0-10.6c-3.9-2.9-10.2-2.9-14.1,0l-1.6,1.2l-2.7-2
			c-0.9-0.7-2.4-0.7-3.3,0l-3.8,2.8c-0.2,0.1-0.3,0.4-0.3,0.7l-8.3,8.7c-0.7,0.7-0.6,1.6,0.2,2.2l15.6,11.7c0.8,0.6,2,0.7,3,0.2
			l11.6-6.2c0.4,0,0.7-0.1,0.9-0.3l3.8-2.8C416.3,403.7,416.3,402.6,415.4,401.9 M401.4,388.9c3.3-2.5,8.6-2.5,11.9,0
			c3.3,2.5,3.3,6.5,0,8.9l-1.6,1.2l-11.9-8.9L401.4,388.9z M398.2,412.8c-0.3,0.2-0.7,0.1-1-0.1L381.6,401c-0.3-0.2-0.3-0.5-0.1-0.7
			l7.3-7.7c0.8,2.3,3,5.7,5.6,8.2c-0.5,0.7-0.4,1.5,0.4,2.1c0.7,0.6,1.9,0.6,2.7,0.3c3.3,2,7.8,3.6,10.9,4.2L398.2,412.8z
			 M410.6,406.3c-1.5,0.3-7.8-1.6-12-4.1c0.3-0.6,0.2-1.4-0.5-1.9c-0.7-0.5-1.7-0.6-2.5-0.4c-3.4-3.2-5.9-7.9-5.5-9l3.7-2.8
			c0.3-0.2,0.8-0.2,1.1,0l2.7,2l14.1,10.5l2.7,2c0.3,0.2,0.3,0.6,0,0.8L410.6,406.3z"/>
		<path class="st3" d="M404.6,398.7l-4.3-3.2c-0.3-0.2-0.8-0.2-1.1,0c-0.3,0.2-0.3,0.6,0,0.8l4.3,3.2c0.3,0.2,0.8,0.2,1.1,0
			C404.9,399.3,404.9,398.9,404.6,398.7"/>
	</g>
	<g id="check_-_copie_8">
		<path class="st5" d="M401.9,359.9L387.8,371l15.9,12.2l14.1-11.1L401.9,359.9z"/>
		<path class="st5" d="M417.8,372.1l-0.1,3.9l-14.1,10.7l0-3.5L417.8,372.1z"/>
		<polygon class="st5" points="403.7,383.2 387.8,371 387.7,376.7 389,375.8 403.7,386.7 		"/>
		<path class="st6" d="M399.5,372.6l9.6,0.3c0.2,0,0.4,0,0.5-0.1c0.1-0.1,0.2-0.2,0.2-0.3c0-0.1-0.1-0.3-0.2-0.3
			c-0.1-0.1-0.3-0.1-0.5-0.2l-8.8-0.3l0.1-2.5c0-0.3-0.3-0.5-0.7-0.5c-0.2,0-0.4,0-0.5,0.1c-0.1,0.1-0.2,0.2-0.2,0.3l-0.1,3
			c0,0.1,0.1,0.3,0.2,0.3C399.1,372.5,399.2,372.6,399.5,372.6L399.5,372.6z"/>
		<line class="st7" x1="387.8" y1="371" x2="403.6" y2="383.1"/>
		<line class="st7" x1="417.8" y1="372.1" x2="403.6" y2="383.1"/>
		<g>
			<polygon class="st8" points="404.1,386.4 403.7,386.7 403.1,386.3 403.1,383 404.1,383 			"/>
		</g>
	</g>
</g>
<g id="_x35_">
	<g id="dalle_-_copie_17">
		<path class="st1" d="M340.9,443.4l-62.1,48.5l46.3,34.1l63.6-47.4L340.9,443.4z"/>
		<path class="st2" d="M278.8,491.8l46.3,34.2v12.7l-46.3-35V491.8z"/>
		<path class="st1" d="M388.7,478.6L325.1,526v12.7l63.6-48.3V478.6z"/>
	</g>
	<g id="dalle_-_copie_22">
		<g>
			<path class="st1" d="M340.9,427.4l-62.1,48.5l46.3,34.1l63.6-47.4L340.9,427.4z"/>
			<path class="st2" d="M278.8,475.8l46.3,34.2v12.7l-46.3-35V475.8z"/>
			<path class="st1" d="M388.7,462.6L325.1,510v12.7l63.6-48.3V462.6z"/>
		</g>
	</g>
	<g id="sac_3_">
		<path class="st3" d="M346.2,473.1c0.9,0.3,2.1,0.2,2.8-0.4l7-5.3c1-0.7,1-1.9,0-2.7l-4.3-3.2c1.5-1.9,1.2-4.4-1-6.1l-3.5-2.7
			c-2.2-1.7-5.5-1.9-8-0.8l-4.3-3.2c-1-0.7-2.5-0.7-3.5,0l-7,5.3c-0.8,0.6-0.9,1.4-0.5,2.1l-15.3,11.7l22.2,16.9L346.2,473.1z
			 M346.1,453.7l3.5,2.7c1.5,1.2,1.8,2.9,1,4.3l-10.1-7.7C342.3,452.3,344.5,452.5,346.1,453.7 M332.6,449.7c0.3-0.2,0.8-0.2,1.2,0
			l4.1,3.1l12.9,9.8l4.1,3.1c0.3,0.2,0.3,0.6,0,0.9l-7,5.3c-0.3,0.2-0.8,0.2-1.2,0l-4.1-3.1l1.2-0.9c0.6-0.5,0.6-1.3,0-1.8l-1.2-0.9
			c-0.6-0.5-1.7-0.5-2.3,0l-1.2,0.9l-5.9-4.4l1.2-0.9c0.6-0.5,0.6-1.3,0-1.8l-1.2-0.9c-0.6-0.5-1.7-0.5-2.3,0l-1.2,0.9l-4.1-3.1
			c-0.3-0.2-0.3-0.6,0-0.9L332.6,449.7z M339,469.7l-1.2-0.9l3.5-2.7l1.2,0.9L339,469.7z M329.7,462.6l-1.2-0.9l3.5-2.7l1.2,0.9
			L329.7,462.6z M330.8,483L311,467.9l14-10.7l3.5,2.7l-1.2,0.9c-0.6,0.5-0.6,1.3,0,1.8l1.2,0.9c0.6,0.5,1.7,0.5,2.3,0l1.2-0.9
			l5.9,4.4l-1.2,0.9c-0.6,0.5-0.6,1.3,0,1.8l1.2,0.9c0.6,0.5,1.7,0.5,2.3,0l1.2-0.9l3.5,2.7L330.8,483z"/>
		<path class="st3" d="M332.6,454.1l16.4,12.4c0.3,0.2,0.8,0.2,1.2,0c0.3-0.2,0.3-0.6,0-0.9l-16.4-12.4c-0.3-0.2-0.8-0.2-1.2,0
			C332.3,453.5,332.3,453.9,332.6,454.1"/>
		<path class="st3" d="M337.9,472.3l-12.9-9.8c-0.6-0.5-1.7-0.5-2.3,0l-7,5.3c-0.6,0.5-0.6,1.3,0,1.8l12.9,9.8
			c0.6,0.5,1.7,0.5,2.3,0l7-5.3C338.5,473.6,338.5,472.8,337.9,472.3 M334.4,475l-12.9-9.8l2.3-1.8l12.9,9.8L334.4,475z
			 M316.8,468.8l3.5-2.7l1.2,0.9l-1.8,1.3c-0.3,0.2-0.3,0.6,0,0.9c0.3,0.2,0.8,0.2,1.2,0l1.8-1.3l10.5,8l-3.5,2.7L316.8,468.8z"/>
	</g>
	<g id="check_-_copie_7">
		<path class="st5" d="M335.9,424.9L321.8,436l15.9,12.2l14.1-11.1L335.9,424.9z"/>
		<path class="st5" d="M351.8,437.1l-0.1,3.9l-14.1,10.7l0-3.5L351.8,437.1z"/>
		<polygon class="st5" points="337.7,448.2 321.8,436 321.7,441.7 323,440.8 337.7,451.7 		"/>
		<path class="st6" d="M333.5,437.6l9.6,0.3c0.2,0,0.4,0,0.5-0.1c0.1-0.1,0.2-0.2,0.2-0.3c0-0.1-0.1-0.3-0.2-0.3
			c-0.1-0.1-0.3-0.1-0.5-0.2l-8.8-0.3l0.1-2.5c0-0.3-0.3-0.5-0.7-0.5c-0.2,0-0.4,0-0.5,0.1c-0.1,0.1-0.2,0.2-0.2,0.3l-0.1,3
			c0,0.1,0.1,0.3,0.2,0.3C333.1,437.5,333.2,437.6,333.5,437.6L333.5,437.6z"/>
		<line class="st7" x1="321.8" y1="436" x2="337.6" y2="448.1"/>
		<line class="st7" x1="351.8" y1="437.1" x2="337.6" y2="448.1"/>
		<g>
			<polygon class="st8" points="338.1,451.4 337.7,451.7 337.1,451.3 337.1,448 338.1,448 			"/>
		</g>
	</g>
</g>
<g id="_x34_">
	<g id="dalle_-_copie_16">
		<path class="st1" d="M275.5,493l-62.1,48.5l46.3,34.1l63.6-47.4L275.5,493z"/>
		<path class="st2" d="M213.4,541.5l46.3,34.2v12.7l-46.3-35V541.5z"/>
		<path class="st1" d="M323.3,528.2l-63.6,47.4v12.7l63.6-48.3V528.2z"/>
	</g>
	<g id="dalle_-_copie_20">
		<path class="st1" d="M275.5,477l-62.1,48.5l46.3,34.1l63.6-47.4L275.5,477z"/>
		<path class="st2" d="M213.4,525.5l46.3,34.2v12.7l-46.3-35V525.5z"/>
		<path class="st1" d="M323.3,512.2l-63.6,47.4v12.7l63.6-48.3V512.2z"/>
	</g>
	<g id="dalle_-_copie_19">
		<path class="st1" d="M275.5,461l-62.1,48.5l46.3,34.1l63.6-47.4L275.5,461z"/>
		<path class="st2" d="M213.4,509.5l46.3,34.2v12.7l-46.3-35V509.5z"/>
		<path class="st1" d="M323.3,496.2l-63.6,47.4v12.7l63.6-48.3V496.2z"/>
	</g>
	<path class="st3" d="M286.4,505.9c0.1,0,0.1,0,0.1-0.1c5.8-4.2,5.1-6.5,3.5-7.6c-1.5-1.1-3-1.4-4.5-1.7c-1.5-0.3-2.9-0.6-4.4-1.7
		c-1.7-1.2-2.1-3.2-2.5-5.1c-0.4-1.9-0.8-3.6-2.3-4.8c-4.2-3.1-11.7,0.8-14.2,2.6c-0.1,0-0.2,0.1-0.2,0.1l-0.5,0.4l0,0l-3.6,2.6
		c-0.4,0.3-0.6,0.6-0.6,0.9l-9.4,7.8c-0.8,0.7-0.7,1.7,0.1,2.3l19.5,14.3c0.8,0.6,2.2,0.7,3.1,0.1l10.7-6.9c0.5,0,0.9-0.2,1.3-0.5
		l3.6-2.6l0,0L286.4,505.9z M275.3,485.8c1.2,0.9,1.5,2.5,1.9,4.1c0.4,2,0.9,4.2,2.9,5.7c1.8,1.3,3.6,1.7,5.1,2
		c1.4,0.3,2.6,0.5,3.8,1.4c1.6,1.2,0,3.2-2,4.9c-0.1-0.2-0.2-0.3-0.4-0.4l-21.5-15.7c-0.1-0.1-0.3-0.2-0.5-0.3
		C267.7,485.7,272.6,483.9,275.3,485.8 M269.4,515.3c-0.3,0.2-0.8,0.2-1,0L248.9,501c-0.3-0.2-0.3-0.5,0-0.8l8.7-7.3
		c1.6,2.3,4.2,5.8,7.1,8.4l-1.2,0.9c-0.6,0.4-0.6,1.1,0,1.6l1.1,0.8c0.6,0.4,1.6,0.4,2.1,0l1.2-0.9c3.5,2.1,8.3,4,11.5,5.2
		L269.4,515.3z M266.7,501.5l1.1,0.8l-2.1,1.6l-1.1-0.8L266.7,501.5z M280.6,508.2c0,0-0.1,0-0.1,0c-2.9-1-7.9-3-11.6-5.2
		c0.5-0.4,0.5-1.1-0.1-1.5l-1.1-0.8c-0.6-0.4-1.4-0.4-2-0.1c-3-2.7-5.6-6.3-7.1-8.5c0,0,0-0.1,0-0.1c0,0,4.3-3.5,4.3-3.5
		c0,0,0.1,0,0.1-0.1c0.3-0.1,0.7-0.1,1,0.1l21.5,15.7c0.3,0.2,0.3,0.5,0,0.8L280.6,508.2z"/>
</g>
<g id="_x33_">
	<g id="dalle_-_copie_11">
		<path class="st1" d="M208.9,543.5L146.8,592l46.3,34.1l63.6-47.4L208.9,543.5z"/>
		<path class="st2" d="M146.8,592l46.3,34.2v12.7l-46.3-35V592z"/>
		<path class="st1" d="M256.7,578.7l-63.6,47.4v12.7l63.6-48.3V578.7z"/>
	</g>
	<g id="dalle_-_copie_15">
		<path class="st1" d="M208.9,527.5L146.8,576l46.3,34.1l63.6-47.4L208.9,527.5z"/>
		<path class="st2" d="M146.8,576l46.3,34.2v12.7l-46.3-35V576z"/>
		<path class="st1" d="M256.7,562.7l-63.6,47.4v12.7l63.6-48.3V562.7z"/>
	</g>
	<g id="dalle_-_copie_14">
		<path class="st1" d="M208.9,511.5L146.8,560l46.3,34.1l63.6-47.4L208.9,511.5z"/>
		<path class="st2" d="M146.8,560l46.3,34.2v12.7l-46.3-35V560z"/>
		<path class="st1" d="M256.7,546.7l-63.6,47.4v12.7l63.6-48.3V546.7z"/>
	</g>
	<g id="dalle_-_copie_13">
		<path class="st1" d="M208.9,495.5L146.8,544l46.3,34.1l63.6-47.4L208.9,495.5z"/>
		<path class="st2" d="M146.8,544l46.3,34.2v12.7l-46.3-35V544z"/>
		<path class="st1" d="M256.7,530.7l-63.6,47.4v12.7l63.6-48.3V530.7z"/>
	</g>
	<g id="dalle_-_copie_12">
		<path class="st1" d="M208.9,479.5L146.8,528l46.3,34.1l63.6-47.4L208.9,479.5z"/>
		<path class="st2" d="M146.8,528l46.3,34.2v12.7l-46.3-35V528z"/>
		<path class="st1" d="M256.7,514.7l-63.6,47.4v12.7l63.6-48.3V514.7z"/>
	</g>
	<g id="sac_2_">
		<path class="st3" d="M211,533.3l-1.8-1.3l4.8-3.6c0.9,0.3,2.1,0.2,2.8-0.4l7-5.3c1-0.7,1-1.9,0-2.7l-4.3-3.2
			c1.5-1.9,1.2-4.4-1-6.1l-3.5-2.7c-2.2-1.7-5.5-1.9-8-0.8l-4.3-3.2c-1-0.7-2.5-0.7-3.5,0l-7,5.3c-0.8,0.6-0.9,1.4-0.5,2.1l-4.8,3.6
			l-1.8-1.3c-1-0.7-2.5-0.7-3.5,0l-7,5.3c-1,0.7-1,1.9,0,2.7l25.7,19.5c1,0.7,2.5,0.7,3.5,0l7-5.3C212,535.3,212,534.1,211,533.3
			 M214,508.9l3.5,2.7c1.5,1.2,1.8,2.9,1,4.3l-10.1-7.7C210.2,507.5,212.4,507.8,214,508.9 M200.5,504.9c0.3-0.2,0.8-0.2,1.2,0
			l4.1,3.1l12.9,9.8l4.1,3.1c0.3,0.2,0.3,0.6,0,0.9l-7,5.3c-0.3,0.2-0.8,0.2-1.2,0l-4.1-3.1l1.2-0.9c0.6-0.5,0.6-1.3,0-1.8l-1.2-0.9
			c-0.6-0.5-1.7-0.5-2.3,0l-1.2,0.9l-5.9-4.4l1.2-0.9c0.6-0.5,0.6-1.3,0-1.8l-1.2-0.9c-0.6-0.5-1.7-0.5-2.3,0l-1.2,0.9l-4.1-3.1
			c-0.3-0.2-0.3-0.6,0-0.9L200.5,504.9z M206.9,524.9l-1.2-0.9l3.5-2.7l1.2,0.9L206.9,524.9z M197.6,517.8l-1.2-0.9l3.5-2.7l1.2,0.9
			L197.6,517.8z M183,514.7c0.3-0.2,0.8-0.2,1.2,0l1.8,1.3l-2.3,1.8l-2.3-1.8L183,514.7z M175.9,520.9c-0.3-0.2-0.3-0.6,0-0.9
			l4.1-3.1l2.3,1.8l-4.7,3.6L175.9,520.9z M198.8,538.2l-19.9-15.1l14-10.7l3.5,2.7l-1.2,0.9c-0.6,0.5-0.6,1.3,0,1.8l1.2,0.9
			c0.6,0.5,1.7,0.5,2.3,0l1.2-0.9l5.9,4.4l-1.2,0.9c-0.6,0.5-0.6,1.3,0,1.8l1.2,0.9c0.6,0.5,1.7,0.5,2.3,0l1.2-0.9l3.5,2.7
			L198.8,538.2z M202.9,540.4c-0.3,0.2-0.8,0.2-1.2,0l-1.8-1.3l4.7-3.6l2.3,1.8L202.9,540.4z M205.8,534.7l2.3-1.8l1.8,1.3
			c0.3,0.2,0.3,0.6,0,0.9l-1.8,1.3L205.8,534.7z"/>
		<path class="st3" d="M200.5,509.4l16.4,12.4c0.3,0.2,0.8,0.2,1.2,0c0.3-0.2,0.3-0.6,0-0.9l-16.4-12.4c-0.3-0.2-0.8-0.2-1.2,0
			C200.2,508.7,200.2,509.1,200.5,509.4"/>
		<path class="st3" d="M205.8,527.6l-12.9-9.8c-0.6-0.5-1.7-0.5-2.3,0l-7,5.3c-0.6,0.5-0.6,1.3,0,1.8l12.9,9.8
			c0.6,0.5,1.7,0.5,2.3,0l7-5.3C206.4,528.9,206.4,528.1,205.8,527.6 M202.3,530.2l-12.9-9.8l2.3-1.8l12.9,9.8L202.3,530.2z
			 M184.7,524l3.5-2.7l1.2,0.9l-1.8,1.3c-0.3,0.2-0.3,0.6,0,0.9c0.3,0.2,0.8,0.2,1.2,0l1.8-1.3l10.5,8l-3.5,2.7L184.7,524z"/>
	</g>
</g>
<g id="_x32_">
	<g id="dalle_-_copie_6">
		<path class="st1" d="M143.1,593.2L81,641.7l46.3,34.1l63.6-47.4L143.1,593.2z"/>
		<path class="st2" d="M81,641.7l46.3,34.2v12.7l-46.3-35V641.7z"/>
		<path class="st1" d="M190.9,628.4l-63.6,47.4v12.7l63.6-48.3V628.4z"/>
	</g>
	<g id="dalle_-_copie_10">
		<path class="st1" d="M143.1,577.2L81,625.7l46.3,34.1l63.6-47.4L143.1,577.2z"/>
		<path class="st2" d="M81,625.7l46.3,34.2v12.7l-46.3-35V625.7z"/>
		<path class="st1" d="M190.9,612.4l-63.6,47.4v12.7l63.6-48.3V612.4z"/>
	</g>
	<g id="dalle_-_copie_9">
		<path class="st1" d="M143.1,561.2L81,609.7l46.3,34.1l63.6-47.4L143.1,561.2z"/>
		<path class="st2" d="M81,609.7l46.3,34.2v12.7l-46.3-35V609.7z"/>
		<path class="st1" d="M190.9,596.4l-63.6,47.4v12.7l63.6-48.3V596.4z"/>
	</g>
	<g id="dalle_-_copie_8">
		<path class="st1" d="M143.1,545.2L81,593.7l46.3,34.1l63.6-47.4L143.1,545.2z"/>
		<path class="st2" d="M81,593.7l46.3,34.2v12.7l-46.3-35V593.7z"/>
		<path class="st1" d="M190.9,580.4l-63.6,47.4v12.7l63.6-48.3V580.4z"/>
	</g>
	<g id="dalle_-_copie_7">
		<path class="st1" d="M143.1,529.2L81,577.7l46.3,34.1l63.6-47.4L143.1,529.2z"/>
		<path class="st2" d="M81,577.7l46.3,34.2v12.7l-46.3-35V577.7z"/>
		<path class="st1" d="M190.9,564.4l-63.6,47.4v12.7l63.6-48.3V564.4z"/>
	</g>
	<path id="sac_1_" class="st3" d="M156.4,571.8l-5-3.8l1.5-1.1c1.4-1,1.4-2.7,0-3.8l-7-5.3c-1.4-1-3.6-1-5,0l-1.5,1.1l-5-3.8
		c-0.8-0.6-2.2-0.6-3,0l-8.3,6.3l-7.7,5.8c-0.8,0.6-0.8,1.6,0,2.3l22,16.6c0.8,0.6,2.2,0.6,3,0l7.6-5.8l8.3-6.3
		C157.2,573.4,157.2,572.4,156.4,571.8 M141.9,558.6c0.8-0.6,2.2-0.6,3,0l7,5.3c0.8,0.6,0.8,1.6,0,2.3l-1.5,1.1l-10-7.5L141.9,558.6
		z M132.5,556c0.3-0.2,0.7-0.2,1,0l22,16.6c0.3,0.2,0.3,0.5,0,0.8l-7.6,5.8c-0.9-0.3-2.9-1-5.3-2l0.5-0.4c0.6-0.4,0.6-1.1,0-1.5
		l-1-0.8c-0.6-0.4-1.4-0.4-2,0l-1.3,1c-2.2-1-4.3-2.1-5.7-3.2c-1.2-0.9-2.4-2.1-3.5-3.4l1.5-1.1c0.6-0.4,0.6-1.1,0-1.5l-1-0.8
		c-0.6-0.4-1.4-0.4-2,0l-0.6,0.5c-1.3-1.8-2.2-3.4-2.5-4.1L132.5,556z M138.9,578.2l-1-0.8l3-2.3l1,0.8L138.9,578.2z M127,569.2
		l-1-0.8l3-2.3l1,0.8L127,569.2z M138.4,585.4l-22-16.6c-0.3-0.2-0.3-0.5,0-0.8l7.2-5.5c0.5,0.9,1.4,2.4,2.6,4.1l-1.3,1
		c-0.6,0.4-0.6,1.1,0,1.5l1,0.8c0.6,0.4,1.4,0.4,2,0l0.5-0.4c1.1,1.3,2.2,2.5,3.5,3.4c1.5,1.1,3.5,2.2,5.7,3.2l-0.7,0.5
		c-0.6,0.4-0.6,1.1,0,1.5l1,0.8c0.6,0.4,1.4,0.4,2,0l1.5-1.1c2.2,0.9,4.2,1.6,5.3,2l-7.3,5.5C139.2,585.6,138.7,585.6,138.4,585.4"
		/>
</g>
<g id="_x31_">
	<g id="dalle">
		<path class="st1" d="M77.1,641.4L15,689.9L61.3,724l63.6-47.4L77.1,641.4z"/>
		<path class="st2" d="M15,689.8L61.3,724v12.7l-46.3-35V689.8z"/>
		<path class="st1" d="M124.9,676.6L61.3,724v12.7l63.6-48.3V676.6z"/>
	</g>
	<g id="dalle_-_copie">
		<path class="st1" d="M77.1,625.4L15,673.9L61.3,708l63.6-47.4L77.1,625.4z"/>
		<path class="st2" d="M15,673.8L61.3,708v12.7l-46.3-35V673.8z"/>
		<path class="st1" d="M124.9,660.6L61.3,708v12.7l63.6-48.3V660.6z"/>
	</g>
	<g id="dalle_-_copie_2">
		<path class="st1" d="M77.1,609.4L15,657.9L61.3,692l63.6-47.4L77.1,609.4z"/>
		<path class="st2" d="M15,657.8L61.3,692v12.7l-46.3-35V657.8z"/>
		<path class="st1" d="M124.9,644.6L61.3,692v12.7l63.6-48.3V644.6z"/>
	</g>
	<g id="dalle_-_copie_3">
		<path class="st1" d="M77.1,593.4L15,641.9L61.3,676l63.6-47.4L77.1,593.4z"/>
		<path class="st2" d="M15,641.8L61.3,676v12.7l-46.3-35V641.8z"/>
		<path class="st1" d="M124.9,628.6L61.3,676v12.7l63.6-48.3V628.6z"/>
	</g>
	<g id="dalle_-_copie_4">
		<path class="st1" d="M77.1,577.4L15,625.9L61.3,660l63.6-47.4L77.1,577.4z"/>
		<path class="st2" d="M15,625.8L61.3,660v12.7l-46.3-35V625.8z"/>
		<path class="st1" d="M124.9,612.6L61.3,660v12.7l63.6-48.3V612.6z"/>
	</g>
	<g id="dalle_-_copie_5">
		<path class="st1" d="M77.1,561.4L15,609.9L61.3,644l63.6-47.4L77.1,561.4z"/>
		<path class="st2" d="M15,609.8L61.3,644v12.7l-46.3-35V609.8z"/>
		<path class="st1" d="M124.9,596.6L61.3,644v12.7l63.6-48.3V596.6z"/>
	</g>
	<path id="sac" class="st3" d="M95.1,604.6l-6.3-4.7l1.7-1.3c1.6-1.2,1.6-3.1,0-4.3l-6.9-5.2c-1.6-1.2-4.2-1.2-5.8,0l-1.7,1.3
		l-6.3-4.7c-1-0.7-2.5-0.7-3.5,0l-18.6,13.9c-1,0.7-1,1.9,0,2.6L73,621.1c1,0.7,2.5,0.7,3.5,0L95,607.2
		C96,606.5,96,605.3,95.1,604.6 M79,589.9c1-0.7,2.5-0.7,3.5,0l6.9,5.2c1,0.7,0.9,1.9,0,2.6l-1.7,1.3l-10.3-7.7L79,589.9z
		 M68.6,586.5l6.3,4.7l12.6,9.5l6.3,4.7c0.3,0.2,0.3,0.6,0,0.9l-4.6,3.4l-0.4-0.1c-0.1,0-12.8-2.7-17.5-6.3
		c-4.7-3.5-8.3-13-8.4-13.1l-0.1-0.3l4.6-3.4C67.8,586.3,68.3,586.3,68.6,586.5 M68.7,602.8c0.5,0.5,1,1,1.6,1.4
		c0.5,0.4,1.2,0.8,1.9,1.2l-1.9,1.4l-3.4-2.6L68.7,602.8z M48.9,601.3c-0.3-0.2-0.3-0.6,0-0.9l12.7-9.5c0.2,0.6,0.8,2.1,1.7,3.9
		l-11.5,8.6L48.9,601.3z M52.9,604.3l11-8.3c1,1.9,2.3,4,3.8,5.8l-2.1,1.6c-0.6,0.5-0.6,1.3,0,1.7l3.4,2.6c0.6,0.5,1.7,0.5,2.3,0
		l2.1-1.6c2.4,1.1,5.2,2.1,7.7,2.8l-11,8.3L52.9,604.3z M74.2,620.2l-2.9-2.2l11.5-8.6c2.4,0.7,4.3,1.1,5.2,1.3l-12.7,9.5
		C75,620.5,74.5,620.5,74.2,620.2"/>
</g>
<g id="connecteur_1_">
	<path class="st9" d="M321.2,506.9l-45,33.6v45.4l45-33.6V506.9z"/>
	<path class="st9" d="M269.2,535.3l7.1,5.2v45.4l-7.1-5V535.3z"/>
	<path class="st10" d="M313.7,501.9l7.5,5.1l-45,33.6l-7.1-5.2L313.7,501.9z"/>
	<path class="st8" d="M299.6,534.9L294,543l4-1l-0.6,6.1l6.1-8.9l-3.9,1L299.6,534.9z"/>
	
		<ellipse transform="matrix(0.1736 -0.9848 0.9848 0.1736 -297.0385 758.2606)" class="st11" cx="303.3" cy="556.1" rx="3.3" ry="2.9"/>
</g>
<g id="tuyau">
	<line class="st12" x1="304.2" y1="556.6" x2="325.4" y2="572.6"/>
	<path class="st13" d="M325.1,574.4c-0.4,0-0.8-0.1-1.2-0.4l-21.1-16c-0.9-0.7-1.1-1.9-0.4-2.8c0.7-0.9,1.9-1.1,2.8-0.4l21.1,16
		c0.9,0.7,1.1,1.9,0.4,2.8C326.3,574.1,325.7,574.4,325.1,574.4z"/>
</g>
<g id="beezup">
	<path id="shade" class="st0" d="M361.6,559.7l-63.7,48.1l104,76.6l63.7-48.1L361.6,559.7z"/>
	<polygon class="st14" points="298.8,605 401.6,680.8 401.6,665.6 298.8,589.5 	"/>
	<polygon class="st15" points="464.7,633.8 401.6,680.8 401.6,665.6 464.7,618.4 	"/>
	<polygon class="st16" points="401.6,665.6 298.8,589.5 361.1,542.3 464.7,618.4 	"/>
	<g id="logo">
		<g>
			<path class="st8" d="M421.1,622.7c-1.2-2.6-10.2-7.1-20-10c-9.9-2.9-16.9-3.2-15.7-0.6c0.3,0.7-0.9,1.5,0.5,2.5
				c-1-2.5,7.1-2.4,15.7,0.1c8.7,2.6,16.7,6.8,17.9,9.4c0,0.1,0.1,0.2,0.1,0.3C420.9,624.2,421.5,623.6,421.1,622.7z"/>
			<path class="st8" d="M396.9,609c0.4-1.1,0.9-2.2,1.4-3.3c3.7-7.5,9.3-13,12.4-12.1c2.5,0.7,2.7,5.1,0.9,10.7
				c-2.5,1.1-5.6,3.7-8.5,7c2.6-2.2,5.2-3.6,7.3-3.9c-0.2,0.5-0.4,0.9-0.7,1.4c-0.6,1.2-1.2,2.3-1.9,3.4c1.2-1.4,2.4-3,3.5-4.9
				c0.4,0,0.7,0.1,1,0.2c2.2,0.9,2.4,4,1,8.1c3.5-5.9,4.3-10.9,1.8-11.9c-0.5-0.2-1.2-0.2-1.9-0.1c3.1-7,3-13.2-0.5-14.2
				c-3.6-1-9.6,4.3-13.3,11.8C398.2,604.1,397.3,606.7,396.9,609z"/>
			<path class="st8" d="M341.7,592.6c2.7,0.9,4.9,0.6,6.7-0.7c2.4-1.8,2.1-3.8-0.8-6l-7.3-5.5l-15.5,11.7l7.1,5.3
				c3.2,2.4,6.4,2.5,9.5,0.2C343.3,596.1,343.4,594.5,341.7,592.6z M334.2,595.5l-4.1-3l10.5-7.9l4.2,3.2c1.1,0.8,1.2,1.5,0.3,2.2
				c-1.6,1.2-3.8,1.1-6.6-0.4l-1.9,1.4l0.9,0.7c1.9,1.4,2,2.7,0.4,4C336.8,596.4,335.5,596.4,334.2,595.5z"/>
			<path class="st8" d="M355.1,597.8c-3.8-2.8-7.5-2.9-11.3-0.1c-3.9,2.9-3.8,5.9,0.4,9c1.6,1.2,3,2.1,4.2,2.7l2.3-1.7
				c-1.4-0.7-2.6-1.5-3.8-2.3c-2.5-1.9-3-3.4-1.5-4.5l7.5,5.6C358.2,603.5,358.9,600.6,355.1,597.8z M352.4,602.8l-4.8-3.6
				c1.8-1.1,3.4-1.1,4.9,0C354.2,600.4,354.1,601.6,352.4,602.8z"/>
			<path class="st8" d="M366.9,606.6c-3.8-2.8-7.5-2.9-11.3-0.1c-3.9,2.9-3.8,5.9,0.4,9c1.6,1.2,3,2.1,4.2,2.7l2.3-1.7
				c-1.4-0.7-2.6-1.5-3.8-2.3c-2.5-1.9-3-3.4-1.5-4.5l7.5,5.6C370,612.3,370.7,609.5,366.9,606.6z M364.2,611.6l-4.8-3.6
				c1.8-1.1,3.4-1.1,4.9,0C366,609.3,365.9,610.5,364.2,611.6z"/>
			<polygon class="st8" points="371.4,613.4 377.1,617.7 364.2,618.5 362.1,620.1 370.9,626.7 373,625.1 367.4,620.9 380.2,620 
				382.5,618.3 373.7,611.7 			"/>
		</g>
		<g>
			<path class="st8" d="M379.5,624l9.4-7.1l2.9,2.2l-9.4,7.1c-2.5,1.9-2.4,3.7,0.1,5.6c2.5,1.9,5,1.9,7.5,0.1l9.4-7.1l2.9,2.2
				l-9.4,7.1c-4.1,3.1-8.4,3-12.9-0.4C375.5,630.3,375.3,627.1,379.5,624z"/>
			<path class="st8" d="M390,641l15.5-11.7l7.3,5.5c3,2.2,3.1,4.3,0.5,6.3c-3.1,2.3-7.1,2.1-12-0.6l2.2-2.2c3,1.5,5.3,1.8,6.8,0.6
				c1-0.7,1-1.5-0.1-2.3l-4.2-3.2l-13,9.8L390,641z"/>
		</g>
	</g>
</g>
</svg>
