<?xml version="1.0" encoding="utf-8"?>
<!-- Generator: Adobe Illustrator 21.0.2, SVG Export Plug-In . SVG Version: 6.00 Build 0)  -->
<svg version="1.1" xmlns="http://www.w3.org/2000/svg" xmlns:xlink="http://www.w3.org/1999/xlink" x="0px" y="0px"
	 viewBox="0 0 1417 1417" style="enable-background:new 0 0 1417 1417;" xml:space="preserve">
<style type="text/css">
	.st0{opacity:0.8;fill:none;stroke:#FFFFFF;stroke-width:4;stroke-linecap:round;stroke-linejoin:round;stroke-miterlimit:10;}
	.st1{opacity:0.4;}
	.st2{fill:none;stroke:#019EE6;stroke-miterlimit:10;}
	.st3{opacity:0.12;fill:#45AFE0;}
	.st4{fill:#FFFFFF;stroke:#C5DCEA;stroke-linejoin:round;stroke-miterlimit:10;}
	.st5{fill:#EDF5FA;stroke:#C5DCEA;stroke-linejoin:round;stroke-miterlimit:10;}
	.st6{fill:#1FDA4B;}
	.st7{fill:#0FBC37;}
	.st8{fill:none;stroke:#FFFFFF;stroke-miterlimit:10;}
	.st9{fill:#FFFFFF;}
	.st10{opacity:0.7;}
	.st11{fill:#0FA1E7;}
	.st12{font-family:'FiraSans-Regular';}
	.st13{font-size:15px;}
	.st14{fill:#009EE6;}
	.st15{fill:#F0F0F0;stroke:#C5DCEA;stroke-linejoin:round;stroke-miterlimit:10;}
	.st16{fill:#E2E2E2;stroke:#C5DCEA;stroke-linejoin:round;stroke-miterlimit:10;}
	.st17{fill:#E8E8E8;stroke:#C5DCEA;stroke-linejoin:round;stroke-miterlimit:10;}
	.st18{fill:#DE0C20;}
	.st19{fill:#BD0314;}
	.st20{fill:#BF091A;}
	.st21{fill:#DE0B20;}
	.st22{fill:#24DA4B;}
</style>
<g id="montre">
	<g id="tube_1_">
		<line id="contenu_tube_1_" class="st0" x1="653.3" y1="582.4" x2="782" y2="485.1"/>
		<g id="tube_2_" class="st1">
			<path class="st2" d="M653.3,584.4c-0.6,0-1.2-0.3-1.6-0.8c-0.7-0.9-0.5-2.1,0.4-2.8l128.7-97.3c0.9-0.7,2.1-0.5,2.8,0.4
				c0.7,0.9,0.5,2.1-0.4,2.8L654.6,584C654.2,584.3,653.7,584.5,653.3,584.4z"/>
		</g>
		<polygon id="ombre_4_" class="st3" points="660.4,670.6 573.9,736 519.5,696.8 606.6,630.4 		"/>
	</g>
	<g id="box_1_">
		<polygon id="top_1_" class="st4" points="695,589.8 574.1,681.4 519.3,641.2 640.2,549.6 		"/>
		<polygon id="devant_1_" class="st5" points="695,642.3 574.1,733.9 574.1,681.4 695,589.8 		"/>
		<polygon id="coté_1_" class="st4" points="519.3,693.8 574.1,733.9 574.1,681.4 519.3,641.3 		"/>
	</g>
	<g id="connecteur_1_">
		<polygon class="st6" points="579,651.3 554.6,669.6 530.9,651.7 554.9,633.5 		"/>
		<polygon class="st7" points="531.1,676.7 554.6,694.5 554.6,669.6 530.9,651.7 		"/>
		<polygon class="st6" points="560.7,671.2 560.8,689.8 554.6,694.4 554.6,669.6 579,651.3 579.1,657.9 		"/>
		<line id="line_1_" class="st8" x1="554.6" y1="669.3" x2="554.6" y2="695.1"/>
		<line class="st8" x1="530.9" y1="651.7" x2="554.6" y2="669.6"/>
		<line class="st8" x1="554.4" y1="669.6" x2="579" y2="651.3"/>
		<path id="checkl_1_" class="st9" d="M558.5,655.3l0-12.8c0-0.3-0.1-0.5-0.4-0.7c-0.2-0.2-0.5-0.3-0.9-0.2c-0.4,0-0.7,0.1-0.9,0.3
			c-0.2,0.2-0.4,0.4-0.4,0.7l0,11.8h-6.7c-0.9,0-1.3,0.4-1.3,1c0,0.2,0.1,0.5,0.4,0.7c0.3,0.2,0.6,0.3,0.9,0.3l8,0
			c0.4,0,0.7-0.1,0.9-0.2C558.3,655.9,558.4,655.6,558.5,655.3L558.5,655.3z"/>
	</g>
	<g id="txt_1_" class="st10">
		<text transform="matrix(0.8 -0.6 0.8 0.6 634.1733 599.8501)" class="st11 st12 st13">+12%</text>
	</g>
	<g id="picto_1_">
		<g>
			<path class="st14" d="M620.7,624.9l-7.3-5.5c0.9-2.9-0.2-6.1-3.3-8.4c-3-2.3-7.3-3.1-11.2-2.5l-7.3-5.5c-1.1-0.8-2.9-0.8-4,0
				l-5.3,4c-1.1,0.8-1.1,2.2,0,3l7.3,5.5c-0.9,2.9,0.2,6.1,3.3,8.4c3,2.3,7.3,3.1,11.2,2.5l7.3,5.5c1.1,0.8,2.9,0.8,4,0l5.3-4
				C621.8,627.1,621.8,625.8,620.7,624.9z M583.6,609.1c-0.4-0.3-0.4-0.7,0-1l5.3-4c0.4-0.3,1-0.3,1.3,0l6.6,5c-1.4,0.4-2.8,1.1-4,2
				c-1.2,0.9-2.1,1.9-2.6,3L583.6,609.1z M594.2,623c-4-3-4-7.9,0-10.9c4-3,10.5-3,14.5,0c4,3,4,7.9,0,10.9
				C604.8,626,598.2,626,594.2,623z M619.3,626.9l-5.3,4c-0.4,0.3-1,0.3-1.3,0l-6.6-5c1.4-0.4,2.8-1.1,4-2c1.2-0.9,2.1-1.9,2.6-3
				l6.6,5C619.7,626.2,619.7,626.6,619.3,626.9z M607.1,616.8h-5.2l-3.7-2.8c-0.4-0.3-1-0.3-1.3,0c-0.4,0.3-0.4,0.7,0,1l4,3l0,0
				c0.1,0.1,0.2,0.1,0.3,0.1c0.1,0,0.2,0.1,0.3,0.1c0,0,0,0,0,0l5.6,0c0.5,0,0.9-0.3,0.9-0.7C608,617.1,607.6,616.8,607.1,616.8z"/>
		</g>
	</g>
</g>
<g id="slip">
	<polygon id="ombre_3_" class="st3" points="720.4,715.1 633.9,780.5 579.5,741.2 666.6,674.9 	"/>
	<g id="tube_3_">
	</g>
	<g id="box_2_">
		<polygon id="top_5_" class="st15" points="754.7,670.2 633.8,761.7 579,721.5 699.8,630 		"/>
		<polygon id="devant_5_" class="st16" points="754.7,686.6 633.8,778.2 633.8,761.7 754.7,670.1 		"/>
		<polygon id="coté_5_" class="st17" points="579,738.1 633.8,778.2 633.8,761.7 579,721.6 		"/>
	</g>
	<g id="connecteur_2_">
		<polygon class="st18" points="638.7,731.7 614.3,749.9 590.6,732.1 614.6,713.8 		"/>
		<polygon class="st19" points="590.7,757 614.3,774.9 614.3,749.9 590.6,732.1 		"/>
		<polygon class="st20" points="620.4,751.5 620.5,770.1 614.3,774.8 614.3,749.9 638.7,731.7 638.7,738.2 		"/>
		<line id="line_4_" class="st8" x1="614.3" y1="749.6" x2="614.3" y2="775.4"/>
		<line class="st8" x1="590.6" y1="732.1" x2="614.3" y2="749.9"/>
		<line class="st8" x1="614.1" y1="750" x2="638.7" y2="731.7"/>
		<path class="st9" d="M616.3,730.1l0-6.3c0-0.7-0.5-1.1-1.4-1.1c-0.9,0-1.3,0.4-1.4,1.1l0,6.3l-7.9,0c-0.9,0-1.4,0.4-1.4,1.1
			c0,0.7,0.5,1.1,1.4,1.1l7.9,0l0,6.3c0,0.7,0.5,1.1,1.4,1.1c0.4,0,0.7-0.1,1-0.3c0.3-0.2,0.4-0.5,0.4-0.8l0-6.3l7.9,0
			c0.4,0,0.8-0.1,1-0.3c0.2-0.2,0.3-0.4,0.3-0.8c0-0.7-0.5-1.1-1.4-1.1L616.3,730.1z"/>
	</g>
	<g id="txt_5_" class="st10">
		<text transform="matrix(0.8 -0.6 0.8 0.6 694.538 680.035)" class="st21 st12 st13">-10%</text>
	</g>
	<path id="picto_2_" class="st21" d="M666.8,682.3L640.5,702c-1,0.7-1,2,0,2.7l1.8,1.4l1.2,0.9l5.6,4.2c0.9,0.7,2.3,0.7,3.3,0.2
		c4.4-2.2,11.2-2.4,15.8,0c1,0.5,2.4,0.5,3.2-0.2l7.6-5.7c0.9-0.7,0.9-1.7,0.2-2.4c-3.2-3.5-3-8.6,0-11.9c0.7-0.8,0.6-1.8-0.3-2.5
		l-5.6-4.2l-1.2-0.9l-1.8-1.4C669.4,681.6,667.8,681.6,666.8,682.3 M651.4,710.3c-0.3,0.2-0.8,0.2-1.2,0l-5.6-4.2l8.7-6.5l5.7,8.9
		C656.4,708.5,653.7,709.2,651.4,710.3 M677.9,703.8c0.2,0.2,0.3,0.6,0,0.8l-7.6,5.7c-0.3,0.2-0.8,0.2-1.1,0
		c-2.4-1.2-5.3-1.9-8.2-1.9l-6.3-9.8l7.5-5.6l13.1,4.7C675.4,699.9,676.2,702,677.9,703.8 M677.8,689.6c0.3,0.3,0.3,0.6,0,0.9
		c-1.5,1.7-2.3,3.7-2.5,5.7l-11.8-4.3l8.7-6.5L677.8,689.6z M643.5,705.2l-1.8-1.4c-0.3-0.2-0.3-0.7,0-0.9l26.3-19.7
		c0.3-0.2,0.9-0.2,1.2,0l1.8,1.4L643.5,705.2z"/>
</g>
<g id="chaussette_1_">
	<polygon id="ombre_1_" class="st3" points="779.9,759.6 693.4,825 639,785.8 726.1,719.4 	"/>
	<g id="tube">
		<line id="contenu_tube_3_" class="st0" x1="772.3" y1="679.9" x2="901" y2="582.6"/>
		<g id="tube_7_" class="st1">
			<path class="st2" d="M772.3,681.9c-0.6,0-1.2-0.3-1.6-0.8c-0.7-0.9-0.5-2.1,0.4-2.8L899.8,581c0.9-0.7,2.1-0.5,2.8,0.4
				c0.7,0.9,0.5,2.1-0.4,2.8l-128.7,97.3C773.2,681.8,772.7,682,772.3,681.9z"/>
		</g>
	</g>
	<g id="box">
		<polygon id="top_4_" class="st4" points="814,687.3 693.1,778.9 638.3,738.7 759.2,647.1 		"/>
		<polygon id="devant_4_" class="st5" points="814,730.8 693.1,822.4 693.1,778.9 814,687.3 		"/>
		<polygon id="coté_4_" class="st4" points="638.3,782.3 693.1,822.4 693.1,778.9 638.3,738.8 		"/>
	</g>
	<g id="connecteur">
		<polygon class="st6" points="698,748.8 673.6,767.1 649.9,749.2 673.9,731 		"/>
		<polygon class="st7" points="650.1,774.2 673.6,792 673.6,767.1 649.9,749.2 		"/>
		<polygon class="st6" points="679.7,768.7 679.8,787.3 673.6,791.9 673.6,767.1 698,748.8 698.1,755.4 		"/>
		<line id="line_3_" class="st8" x1="673.6" y1="766.8" x2="673.6" y2="792.6"/>
		<line class="st8" x1="649.9" y1="749.2" x2="673.6" y2="767.1"/>
		<line class="st8" x1="673.4" y1="767.1" x2="698" y2="748.8"/>
		<path id="checkl_2_" class="st9" d="M677.5,752.8l0-12.8c0-0.3-0.1-0.5-0.4-0.7c-0.2-0.2-0.5-0.3-0.9-0.2c-0.4,0-0.7,0.1-0.9,0.3
			c-0.2,0.2-0.4,0.4-0.4,0.7l0,11.8h-6.7c-0.9,0-1.3,0.4-1.3,1c0,0.2,0.1,0.5,0.4,0.7c0.3,0.2,0.6,0.3,0.9,0.3l8,0
			c0.4,0,0.7-0.1,0.9-0.2C677.3,753.4,677.4,753.1,677.5,752.8L677.5,752.8z"/>
	</g>
	<g id="txt_4_" class="st10">
		<text transform="matrix(0.8 -0.6 0.8 0.6 755.7267 695.3517)" class="st11 st12 st13">+0%</text>
	</g>
	<path id="picto_4_" class="st14" d="M726.4,708.4l-6.3,4.5l-22.9,1.3l1.1,11.4l3.8-0.2l1.9-0.1l14-0.8l2.2-0.1l3.7-0.2
		c0.7,0,1.3-0.2,1.7-0.6l2.8-2l1.6-1.1l0,0l6.9-4.8c1.5-1.1,2.2-2.7,2-4.2c-0.1-1.2-0.8-2.4-2-3.3
		C734.2,705.9,729.2,706,726.4,708.4 M700.1,724l-0.9-8.5l1.9-0.1l0.9,8.5L700.1,724z M724.5,722.4c-0.2,0.1-0.4,0.2-0.6,0.2
		l-4.6,0.3c-0.1-0.2-0.2-0.5-0.2-0.7c-0.2-2,1.8-3.7,4.4-3.8c1.8-0.1,3.5,0.6,4.4,1.7L724.5,722.4z M735.8,709.1
		c0.9,0.7,1.4,1.5,1.5,2.5c0.1,1.1-0.4,2.2-1.5,3l-6.4,4.5c-1.3-1.4-3.5-2.3-6-2.1c-3.7,0.2-6.5,2.6-6.2,5.3c0,0.2,0.1,0.5,0.2,0.7
		l-13.5,0.8l-0.9-8.5l17.2-1l0.7,0l0.5-0.4l6.3-4.5l0.1,0l0.1-0.1c1-0.9,2.4-1.3,3.9-1.4C733.3,707.9,734.7,708.3,735.8,709.1"/>
</g>
<g id="noeud">
	<polygon id="ombre_2_" class="st3" points="839.7,803.3 753.1,868.7 698.8,829.5 785.8,763.1 	"/>
	<g id="tube_6_">
		<line id="contenu_tube_2_" class="st0" x1="832.3" y1="695.9" x2="961" y2="598.6"/>
		<g id="tube_4_" class="st1">
			<path class="st2" d="M832.3,697.9c-0.6,0-1.2-0.3-1.6-0.8c-0.7-0.9-0.5-2.1,0.4-2.8L959.8,597c0.9-0.7,2.1-0.5,2.8,0.4
				c0.7,0.9,0.5,2.1-0.4,2.8l-128.7,97.3C833.2,697.8,832.7,698,832.3,697.9z"/>
		</g>
	</g>
	<g id="box_3_">
		<polygon id="top_2_" class="st4" points="874,703.3 753.1,794.9 698.3,754.7 819.2,663.1 		"/>
		<polygon id="devant_2_" class="st5" points="874,774.8 753.1,866.4 753.1,794.9 874,703.3 		"/>
		<polygon id="coté_2_" class="st4" points="698.3,826.3 753.1,866.4 753.1,794.9 698.3,754.8 		"/>
	</g>
	<g id="connecteur_3_">
		<polygon class="st6" points="758,764.8 733.6,783.1 709.9,765.2 733.9,747 		"/>
		<polygon class="st7" points="710.1,790.2 733.6,808 733.6,783.1 709.9,765.2 		"/>
		<polygon class="st6" points="739.7,784.7 739.8,803.3 733.6,807.9 733.6,783.1 758,764.8 758.1,771.4 		"/>
		<line id="line_2_" class="st8" x1="733.6" y1="782.8" x2="733.6" y2="808.6"/>
		<line class="st8" x1="709.9" y1="765.2" x2="733.6" y2="783.1"/>
		<line class="st8" x1="733.4" y1="783.1" x2="758" y2="764.8"/>
		<path id="checkl_3_" class="st9" d="M737.5,768.8l0-12.8c0-0.3-0.1-0.5-0.4-0.7c-0.2-0.2-0.5-0.3-0.9-0.2c-0.4,0-0.7,0.1-0.9,0.3
			c-0.2,0.2-0.4,0.4-0.4,0.7l0,11.8h-6.7c-0.9,0-1.3,0.4-1.3,1c0,0.2,0.1,0.5,0.4,0.7c0.3,0.2,0.6,0.3,0.9,0.3l8,0
			c0.4,0,0.7-0.1,0.9-0.2C737.3,769.4,737.4,769.1,737.5,768.8L737.5,768.8z"/>
	</g>
	<g id="txt_2_" class="st10">
		<text transform="matrix(0.8 -0.6 0.8 0.6 807.1347 718.879)" class="st22 st12 st13">+130%</text>
	</g>
	<path id="picto" class="st22" d="M782.5,714.3c-0.5,0.4-0.9,1-1,1.6l-1.6,9.1c-0.7,0-1.4,0.2-2,0.6l-7.8,5.9
		c-0.6,0.4-0.8,1-0.8,1.5l-11.9,1.2c-0.9,0.1-1.6,0.4-2.1,0.8c-1.3,1-1.6,2.8-0.1,3.9l15.3,11.6c1.5,1.1,3.8,1,5.2-0.1
		c0.5-0.4,0.9-0.9,1-1.6l1.7-9.1c0.7,0,1.4-0.2,1.9-0.6l7.8-5.9c0.5-0.4,0.8-0.9,0.8-1.4l11.9-1.3c0.9-0.1,1.6-0.4,2.1-0.8
		c1.4-1,1.6-2.8,0.1-3.9l-15.3-11.6C786.1,713.1,783.8,713.2,782.5,714.3 M776.5,739.4l-1.8,9.3c-0.1,0.3-0.2,0.6-0.5,0.8
		c-0.6,0.5-1.8,0.6-2.6,0L756.3,738c-0.8-0.6-0.6-1.5,0-2c0.3-0.2,0.6-0.3,1.1-0.4l12.4-1.3l0.1,0.1l6.4,4.8L776.5,739.4z
		 M786.7,732.3l-7.8,5.9c-0.4,0.3-0.9,0.3-1.3,0l-6.4-4.8c-0.4-0.3-0.3-0.7,0-1l7.8-5.9c0.4-0.3,0.9-0.3,1.3,0l6.4,4.8
		C787.1,731.6,787.1,732.1,786.7,732.3 M801.6,726.8c0.8,0.6,0.6,1.5,0,2c-0.3,0.2-0.6,0.3-1,0.4l-12.3,1.4l-0.2-0.2l-6.4-4.8
		l-0.1-0.1l1.7-9.4c0.1-0.3,0.2-0.6,0.5-0.8c0.6-0.5,1.8-0.6,2.6,0L801.6,726.8z"/>
</g>
</svg>
