<svg id="642678d6-281d-4c88-affe-8c949373cf1b" data-name="Calque 1" xmlns="http://www.w3.org/2000/svg" viewBox="0 0 444.72 386.12"><defs><style>.ba3c97e9-b1b1-4f2e-8fe7-e7cda7332692,.bc17778c-c0ba-4eb4-8f05-f94954f8d528,.dbbb7f94-f937-4f5e-9480-f889e16d434d{fill:none;}.ba3c97e9-b1b1-4f2e-8fe7-e7cda7332692,.dbbb7f94-f937-4f5e-9480-f889e16d434d{stroke:#fff;}.ba3c97e9-b1b1-4f2e-8fe7-e7cda7332692{stroke-linecap:round;stroke-width:4px;opacity:0.8;}.\30 54d5a69-c585-4e12-90da-fe1a51305599,.\31 ab5c7ac-e71c-4e2d-9d6b-62e405af9397,.\34 744e740-c42d-4835-ad6d-124c0402a644,.\34 8fea842-1fea-4ebb-8939-26b512156b08,.b621a010-897f-473f-8dc2-6a4e9bfb9ca1,.ba3c97e9-b1b1-4f2e-8fe7-e7cda7332692{stroke-linejoin:round;}.\33 13bf1ab-f78e-43e9-ae24-ed8835367027,.\37 5c3b591-6ead-4792-bbd3-f36daced1a33,.\38 1947e11-faab-4426-8dbb-30e6aa84d0ed,.\38 428a67c-c640-4787-ad2d-c17e88964582,.ba3c97e9-b1b1-4f2e-8fe7-e7cda7332692{isolation:isolate;}.\36 32d26ee-ba4b-403e-b680-190bb1e7132a{opacity:0.4;}.bc17778c-c0ba-4eb4-8f05-f94954f8d528{stroke:#019ee6;}.bc17778c-c0ba-4eb4-8f05-f94954f8d528,.dbbb7f94-f937-4f5e-9480-f889e16d434d{stroke-miterlimit:10;}.\38 1947e11-faab-4426-8dbb-30e6aa84d0ed{fill:#45afe0;opacity:0.12;}.\34 744e740-c42d-4835-ad6d-124c0402a644,.\38 7a46317-04ca-4d5b-b3db-9d9946eecf51{fill:#fff;}.\30 54d5a69-c585-4e12-90da-fe1a51305599,.\31 ab5c7ac-e71c-4e2d-9d6b-62e405af9397,.\34 744e740-c42d-4835-ad6d-124c0402a644,.\34 8fea842-1fea-4ebb-8939-26b512156b08,.b621a010-897f-473f-8dc2-6a4e9bfb9ca1{stroke:#c5dcea;}.b621a010-897f-473f-8dc2-6a4e9bfb9ca1{fill:#edf5fa;}.e8f71550-34bc-47a6-b750-5ea70fa2c1ed{fill:#1fda4b;}.\37 7b34da6-bfc2-4d92-898c-c795c26b2d39{fill:#0fbc37;}.\38 5bf161e-78c1-461e-bc6e-5db8aff34a3b{opacity:0.7;}.\33 13bf1ab-f78e-43e9-ae24-ed8835367027,.\37 5c3b591-6ead-4792-bbd3-f36daced1a33,.\38 428a67c-c640-4787-ad2d-c17e88964582{font-size:15px;font-family:FiraSans-Regular, Fira Sans;}.\38 428a67c-c640-4787-ad2d-c17e88964582{fill:#0fa1e7;}.c8dc0131-b370-461a-9c17-654a10527b5d{letter-spacing:-0.07em;}.bf104ed2-0eef-4d01-970f-6e859ded79b2{fill:#009ee6;}.\30 54d5a69-c585-4e12-90da-fe1a51305599{fill:#f0f0f0;}.\31 ab5c7ac-e71c-4e2d-9d6b-62e405af9397{fill:#e2e2e2;}.\34 8fea842-1fea-4ebb-8939-26b512156b08{fill:#e8e8e8;}.bdefc1d4-fad7-441e-a977-dfa58f9f2b07{fill:#de0c20;}.b9948be9-cb19-435a-b193-5b3021239882{fill:#bd0314;}.b7675256-4ea1-43fe-9605-1daf5f6b743e{fill:#bf091a;}.\36 bdec6a8-153d-43c1-b6d9-9227d41aed01,.\37 5c3b591-6ead-4792-bbd3-f36daced1a33{fill:#de0b20;}.\33 13bf1ab-f78e-43e9-ae24-ed8835367027,.c04c1ec4-e0da-455b-b108-dc317fd4acb3{fill:#24da4b;}</style></defs><title>optimized-strategy-beezup</title><g id="3f69b303-d590-46c3-8afc-3e61c5776e39" data-name="montre"><g id="b3a27936-9d0a-48ab-80ea-82c7445a530f" data-name="tube"><line id="dd1af92a-b646-48b7-ba1f-7debd24633a3" data-name="contenu tube" class="ba3c97e9-b1b1-4f2e-8fe7-e7cda7332692" x1="134.5" y1="99.82" x2="263.2" y2="2.52"/><g id="910921b1-7576-42f5-9297-165707f29e0e" data-name="tube" class="632d26ee-ba4b-403e-b680-190bb1e7132a"><path class="bc17778c-c0ba-4eb4-8f05-f94954f8d528" d="M150.3,121.4a2.09,2.09,0,0,1-1.6-.8,2,2,0,0,1,.4-2.8L277.8,20.5a2,2,0,1,1,2.4,3.2L151.6,121A1.68,1.68,0,0,1,150.3,121.4Z" transform="translate(-15.8 -19.58)"/></g><polygon id="6fdfa0fb-03fa-4dab-8180-166e29bef593" data-name="ombre" class="81947e11-faab-4426-8dbb-30e6aa84d0ed" points="141.6 188.02 55.1 253.42 0.7 214.22 87.8 147.82 141.6 188.02"/></g><g id="01ef322c-264e-44aa-8105-5c3f3e224aa8" data-name="box"><polygon id="4843f078-c10c-4e76-acf0-469fc9f5efa5" data-name="top" class="4744e740-c42d-4835-ad6d-124c0402a644" points="176.2 107.22 55.3 198.82 0.5 158.62 121.4 67.02 176.2 107.22"/><polygon id="1cbab91e-bf96-4c23-b92b-5c2096504b50" data-name="devant" class="b621a010-897f-473f-8dc2-6a4e9bfb9ca1" points="176.2 159.72 55.3 251.32 55.3 198.82 176.2 107.22 176.2 159.72"/><polygon id="ba075da9-27cc-48ab-9b04-b7909df88b45" data-name="coté" class="4744e740-c42d-4835-ad6d-124c0402a644" points="0.5 211.22 55.3 251.32 55.3 198.82 0.5 158.72 0.5 211.22"/></g><g id="7ec85811-a044-4ad6-8a15-c85c97c60b17" data-name="connecteur"><polygon class="e8f71550-34bc-47a6-b750-5ea70fa2c1ed" points="60.2 168.72 35.8 187.02 12.1 169.12 36.1 150.92 60.2 168.72"/><polygon class="77b34da6-bfc2-4d92-898c-c795c26b2d39" points="12.3 194.12 35.8 211.92 35.8 187.02 12.1 169.12 12.3 194.12"/><polygon class="e8f71550-34bc-47a6-b750-5ea70fa2c1ed" points="41.9 188.62 42 207.22 35.8 211.82 35.8 187.02 60.2 168.72 60.3 175.32 41.9 188.62"/><line id="60544565-6769-4885-b7be-c4a70f0cd6f5" data-name="line" class="dbbb7f94-f937-4f5e-9480-f889e16d434d" x1="35.8" y1="186.72" x2="35.8" y2="212.52"/><line class="dbbb7f94-f937-4f5e-9480-f889e16d434d" x1="12.1" y1="169.12" x2="35.8" y2="187.02"/><line class="dbbb7f94-f937-4f5e-9480-f889e16d434d" x1="35.6" y1="187.02" x2="60.2" y2="168.72"/><path id="5625dae1-8146-43f1-9ac6-9cf89417c4c9" data-name="checkl" class="87a46317-04ca-4d5b-b3db-9d9946eecf51" d="M55.5,192.3V179.5a.75.75,0,0,0-.4-.7.9.9,0,0,0-.9-.2,1.22,1.22,0,0,0-.9.3,1,1,0,0,0-.4.7v11.8H46.2c-.9,0-1.3.4-1.3,1a.87.87,0,0,0,.4.7,1.61,1.61,0,0,0,.9.3h8a2,2,0,0,0,.9-.2,3.55,3.55,0,0,0,.4-.9Z" transform="translate(-15.8 -19.58)"/></g><g id="9ccc6af7-4277-48f5-bfe8-c8edd0512371" data-name="txt" class="85bf161e-78c1-461e-bc6e-5db8aff34a3b"><text class="8428a67c-c640-4787-ad2d-c17e88964582" transform="matrix(0.8, -0.6, 0.8, 0.6, 115.37, 117.27)"><tspan class="c8dc0131-b370-461a-9c17-654a10527b5d">+</tspan><tspan x="6.44" y="0">12%</tspan></text></g><g id="a8afffce-1bf4-4c5e-a5e4-a8daac390fa5" data-name="picto"><path class="bf104ed2-0eef-4d01-970f-6e859ded79b2" d="M117.7,161.9l-7.3-5.5c.9-2.9-.2-6.1-3.3-8.4a15.07,15.07,0,0,0-11.2-2.5L88.6,140a3.63,3.63,0,0,0-4,0l-5.3,4a1.78,1.78,0,0,0,0,3l7.3,5.5c-.9,2.9.2,6.1,3.3,8.4a15.07,15.07,0,0,0,11.2,2.5l7.3,5.5a3.63,3.63,0,0,0,4,0l5.3-4A1.78,1.78,0,0,0,117.7,161.9ZM80.6,146.1a.57.57,0,0,1,0-1l5.3-4a1,1,0,0,1,1.3,0l6.6,5a12.52,12.52,0,0,0-4,2,8.06,8.06,0,0,0-2.6,3ZM91.2,160c-4-3-4-7.9,0-10.9a12.81,12.81,0,0,1,14.5,0c4,3,4,7.9,0,10.9S95.2,163,91.2,160Zm25.1,3.9-5.3,4a1,1,0,0,1-1.3,0l-6.6-5a12.52,12.52,0,0,0,4-2,8.06,8.06,0,0,0,2.6-3l6.6,5A.57.57,0,0,1,116.3,163.9Zm-12.2-10.1H98.9L95.2,151a1,1,0,0,0-1.3,0,.57.57,0,0,0,0,1l4,3h0a.37.37,0,0,0,.3.1c.1,0,.2.1.3.1h5.6a.72.72,0,1,0,0-1.4Z" transform="translate(-15.8 -19.58)"/></g></g><g id="6da130e9-afeb-4eeb-9ba6-7a500ea3c5ea" data-name="slip"><polygon id="7a0966a9-0d85-4a45-a177-e96a2682b192" data-name="ombre" class="81947e11-faab-4426-8dbb-30e6aa84d0ed" points="201.6 232.52 115.1 297.92 60.7 258.62 147.8 192.32 201.6 232.52"/><g id="4a5318aa-d486-4561-a34f-be4f128e7616" data-name="box"><polygon id="e915d061-b29b-48de-9305-975b41262678" data-name="top" class="054d5a69-c585-4e12-90da-fe1a51305599" points="235.9 187.62 115 279.12 60.2 238.92 181 147.42 235.9 187.62"/><polygon id="f7825241-0d94-4489-b9b0-e7fb8521fdb0" data-name="devant" class="1ab5c7ac-e71c-4e2d-9d6b-62e405af9397" points="235.9 204.02 115 295.62 115 279.12 235.9 187.52 235.9 204.02"/><polygon id="8e3209eb-e943-4adb-b95c-bbffa498f6b8" data-name="coté" class="48fea842-1fea-4ebb-8939-26b512156b08" points="60.2 255.52 115 295.62 115 279.12 60.2 239.02 60.2 255.52"/></g><g id="de82f605-4411-4b50-91f4-fcd7c43b0c42" data-name="connecteur"><polygon class="bdefc1d4-fad7-441e-a977-dfa58f9f2b07" points="119.9 249.12 95.5 267.32 71.8 249.52 95.8 231.22 119.9 249.12"/><polygon class="b9948be9-cb19-435a-b193-5b3021239882" points="71.9 274.42 95.5 292.32 95.5 267.32 71.8 249.52 71.9 274.42"/><polygon class="b7675256-4ea1-43fe-9605-1daf5f6b743e" points="101.6 268.92 101.7 287.52 95.5 292.22 95.5 267.32 119.9 249.12 119.9 255.62 101.6 268.92"/><line id="5e5698fb-6643-4686-9f16-7bac58ed9c69" data-name="line" class="dbbb7f94-f937-4f5e-9480-f889e16d434d" x1="95.5" y1="267.02" x2="95.5" y2="292.82"/><line class="dbbb7f94-f937-4f5e-9480-f889e16d434d" x1="71.8" y1="249.52" x2="95.5" y2="267.32"/><line class="dbbb7f94-f937-4f5e-9480-f889e16d434d" x1="95.3" y1="267.42" x2="119.9" y2="249.12"/><path class="87a46317-04ca-4d5b-b3db-9d9946eecf51" d="M113.3,267.1v-6.3c0-.7-.5-1.1-1.4-1.1s-1.3.4-1.4,1.1v6.3h-7.9c-.9,0-1.4.4-1.4,1.1s.5,1.1,1.4,1.1h7.9v6.3c0,.7.5,1.1,1.4,1.1a1.69,1.69,0,0,0,1-.3.91.91,0,0,0,.4-.8v-6.3h7.9a1.49,1.49,0,0,0,1-.3,1,1,0,0,0,.3-.8c0-.7-.5-1.1-1.4-1.1Z" transform="translate(-15.8 -19.58)"/></g><g id="1db1a586-16af-4756-86ab-801e91e3f6e6" data-name="txt" class="85bf161e-78c1-461e-bc6e-5db8aff34a3b"><text class="75c3b591-6ead-4792-bbd3-f36daced1a33" transform="matrix(0.8, -0.6, 0.8, 0.6, 175.74, 197.46)"><tspan class="c8dc0131-b370-461a-9c17-654a10527b5d">-</tspan><tspan x="5" y="0">10%</tspan></text></g><path id="ba313c13-f92a-481e-ac05-4b436fb2b7bf" data-name="picto" class="6bdec6a8-153d-43c1-b6d9-9227d41aed01" d="M163.8,219.3,137.5,239a1.59,1.59,0,0,0,0,2.7l1.8,1.4,1.2.9,5.6,4.2a3.25,3.25,0,0,0,3.3.2c4.4-2.2,11.2-2.4,15.8,0a3.06,3.06,0,0,0,3.2-.2l7.6-5.7a1.51,1.51,0,0,0,.2-2.4,8.78,8.78,0,0,1,0-11.9,1.62,1.62,0,0,0-.3-2.5l-5.6-4.2-1.2-.9-1.8-1.4a3.39,3.39,0,0,0-3.5.1m-15.4,28a1.27,1.27,0,0,1-1.2,0l-5.6-4.2,8.7-6.5,5.7,8.9a18.06,18.06,0,0,0-7.6,1.8m26.5-6.5a.52.52,0,0,1,0,.8l-7.6,5.7a1.08,1.08,0,0,1-1.1,0,18.66,18.66,0,0,0-8.2-1.9l-6.3-9.8,7.5-5.6,13.1,4.7a9.3,9.3,0,0,0,2.6,6.1m-.1-14.2a.56.56,0,0,1,0,.9,10.09,10.09,0,0,0-2.5,5.7l-11.8-4.3,8.7-6.5Zm-34.3,15.6-1.8-1.4a.56.56,0,0,1,0-.9L165,220.2a1.27,1.27,0,0,1,1.2,0l1.8,1.4Z" transform="translate(-15.8 -19.58)"/></g><g id="718a5b47-9719-48b9-b806-b0f6490f9746" data-name="chaussette"><polygon id="8da539e0-25a1-448f-b658-aaab05b33251" data-name="ombre" class="81947e11-faab-4426-8dbb-30e6aa84d0ed" points="261.1 277.02 174.6 342.42 120.2 303.22 207.3 236.82 261.1 277.02"/><g id="968ae467-3739-4212-ab0a-29cc41e7d7ab" data-name="tube"><line id="1f91eb87-195c-4db2-9d1b-d0142724c6b5" data-name="contenu tube" class="ba3c97e9-b1b1-4f2e-8fe7-e7cda7332692" x1="253.5" y1="197.32" x2="382.2" y2="100.02"/><g id="00d9860b-811e-4f30-8db4-fd38295ebc8e" data-name="tube" class="632d26ee-ba4b-403e-b680-190bb1e7132a"><path class="bc17778c-c0ba-4eb4-8f05-f94954f8d528" d="M269.3,218.9a2.09,2.09,0,0,1-1.6-.8,2,2,0,0,1,.4-2.8L396.8,118a2,2,0,0,1,2.4,3.2L270.5,218.5A1.37,1.37,0,0,1,269.3,218.9Z" transform="translate(-15.8 -19.58)"/></g></g><g id="2226511d-aa09-45af-a855-883cf5485161" data-name="box"><polygon id="99a47b50-e565-4035-90f3-2d890a2ca6a2" data-name="top" class="4744e740-c42d-4835-ad6d-124c0402a644" points="295.2 204.72 174.3 296.32 119.5 256.12 240.4 164.52 295.2 204.72"/><polygon id="7529d1ba-91c0-437c-a52a-5a1b3812d6ed" data-name="devant" class="b621a010-897f-473f-8dc2-6a4e9bfb9ca1" points="295.2 248.22 174.3 339.82 174.3 296.32 295.2 204.72 295.2 248.22"/><polygon id="0beec8cf-6d38-4726-9d26-afd789ef0017" data-name="coté" class="4744e740-c42d-4835-ad6d-124c0402a644" points="119.5 299.72 174.3 339.82 174.3 296.32 119.5 256.22 119.5 299.72"/></g><g id="389c4994-f86c-43f0-9c9b-cca146335042" data-name="connecteur"><polygon class="e8f71550-34bc-47a6-b750-5ea70fa2c1ed" points="179.2 266.22 154.8 284.52 131.1 266.62 155.1 248.42 179.2 266.22"/><polygon class="77b34da6-bfc2-4d92-898c-c795c26b2d39" points="131.3 291.62 154.8 309.42 154.8 284.52 131.1 266.62 131.3 291.62"/><polygon class="e8f71550-34bc-47a6-b750-5ea70fa2c1ed" points="160.9 286.12 161 304.72 154.8 309.32 154.8 284.52 179.2 266.22 179.3 272.82 160.9 286.12"/><line id="6ebd0ccd-b2ff-4820-83ed-dbca0154785d" data-name="line" class="dbbb7f94-f937-4f5e-9480-f889e16d434d" x1="154.8" y1="284.22" x2="154.8" y2="310.02"/><line class="dbbb7f94-f937-4f5e-9480-f889e16d434d" x1="131.1" y1="266.62" x2="154.8" y2="284.52"/><line class="dbbb7f94-f937-4f5e-9480-f889e16d434d" x1="154.6" y1="284.52" x2="179.2" y2="266.22"/><path id="3ef45784-df33-441c-9a01-47dca223eae6" data-name="checkl" class="87a46317-04ca-4d5b-b3db-9d9946eecf51" d="M174.5,289.8V277a.75.75,0,0,0-.4-.7.9.9,0,0,0-.9-.2,1.22,1.22,0,0,0-.9.3,1,1,0,0,0-.4.7v11.8h-6.7c-.9,0-1.3.4-1.3,1a.87.87,0,0,0,.4.7,1.61,1.61,0,0,0,.9.3h8a2,2,0,0,0,.9-.2,3.55,3.55,0,0,0,.4-.9Z" transform="translate(-15.8 -19.58)"/></g><g id="97419af6-a8dd-49c5-99e6-5504d35dfe5d" data-name="txt" class="85bf161e-78c1-461e-bc6e-5db8aff34a3b"><text class="8428a67c-c640-4787-ad2d-c17e88964582" transform="matrix(0.8, -0.6, 0.8, 0.6, 236.93, 212.77)">+0%</text></g><path id="7f029a75-4a61-4ad8-aaeb-1e8fbd4eaa22" data-name="picto" class="bf104ed2-0eef-4d01-970f-6e859ded79b2" d="M223.4,245.4l-6.3,4.5-22.9,1.3,1.1,11.4,3.8-.2,1.9-.1,14-.8,2.2-.1,3.7-.2a2.35,2.35,0,0,0,1.7-.6l2.8-2,1.6-1.1h0l6.9-4.8a4.53,4.53,0,0,0,2-4.2,4.72,4.72,0,0,0-2-3.3c-2.7-2.3-7.7-2.2-10.5.2M197.1,261l-.9-8.5,1.9-.1.9,8.5Zm24.4-1.6a1.42,1.42,0,0,1-.6.2l-4.6.3a1.85,1.85,0,0,1-.2-.7c-.2-2,1.8-3.7,4.4-3.8a5.39,5.39,0,0,1,4.4,1.7Zm11.3-13.3a3.52,3.52,0,0,1,1.5,2.5,3.32,3.32,0,0,1-1.5,3l-6.4,4.5a7.39,7.39,0,0,0-6-2.1c-3.7.2-6.5,2.6-6.2,5.3a1.85,1.85,0,0,0,.2.7l-13.5.8-.9-8.5,17.2-1h.7l.5-.4,6.3-4.5h.1l.1-.1a6.37,6.37,0,0,1,3.9-1.4,6.76,6.76,0,0,1,4,1.2" transform="translate(-15.8 -19.58)"/></g><g id="a9ed6b1b-d56a-4ddd-820f-ec860e40cf31" data-name="noeud"><polygon id="04077bf1-3b7a-49f0-a85e-32304f5f1436" data-name="ombre" class="81947e11-faab-4426-8dbb-30e6aa84d0ed" points="320.9 320.72 234.3 386.12 180 346.92 267 280.52 320.9 320.72"/><g id="c801edca-30f0-451f-870f-32276df451a9" data-name="tube"><line id="34c1d09f-e3f4-4242-92f0-60d0dc35c2a9" data-name="contenu tube" class="ba3c97e9-b1b1-4f2e-8fe7-e7cda7332692" x1="313.5" y1="213.32" x2="442.2" y2="116.02"/><g id="7a2a2a73-34e8-4963-99a6-99acae8f53bd" data-name="tube" class="632d26ee-ba4b-403e-b680-190bb1e7132a"><path class="bc17778c-c0ba-4eb4-8f05-f94954f8d528" d="M329.3,234.9a2.09,2.09,0,0,1-1.6-.8,2,2,0,0,1,.4-2.8L456.8,134a2,2,0,0,1,2.4,3.2L330.5,234.5A1.37,1.37,0,0,1,329.3,234.9Z" transform="translate(-15.8 -19.58)"/></g></g><g id="94679e69-a1fa-4de8-9171-5d77df472b16" data-name="box"><polygon id="d34a7d02-92c8-4289-a45a-acf780c042de" data-name="top" class="4744e740-c42d-4835-ad6d-124c0402a644" points="355.2 220.72 234.3 312.32 179.5 272.12 300.4 180.52 355.2 220.72"/><polygon id="34587311-4a61-49f3-870f-f7f9259da1c4" data-name="devant" class="b621a010-897f-473f-8dc2-6a4e9bfb9ca1" points="355.2 292.22 234.3 383.82 234.3 312.32 355.2 220.72 355.2 292.22"/><polygon id="2f0030bc-9624-49d3-9ada-5e3911d35c18" data-name="coté" class="4744e740-c42d-4835-ad6d-124c0402a644" points="179.5 343.72 234.3 383.82 234.3 312.32 179.5 272.22 179.5 343.72"/></g><g id="1ff83442-9f57-4804-891e-5141498ebe66" data-name="connecteur"><polygon class="e8f71550-34bc-47a6-b750-5ea70fa2c1ed" points="239.2 282.22 214.8 300.52 191.1 282.62 215.1 264.42 239.2 282.22"/><polygon class="77b34da6-bfc2-4d92-898c-c795c26b2d39" points="191.3 307.62 214.8 325.42 214.8 300.52 191.1 282.62 191.3 307.62"/><polygon class="e8f71550-34bc-47a6-b750-5ea70fa2c1ed" points="220.9 302.12 221 320.72 214.8 325.32 214.8 300.52 239.2 282.22 239.3 288.82 220.9 302.12"/><line id="1b969d48-35b1-46a6-a366-1ac5d1809447" data-name="line" class="dbbb7f94-f937-4f5e-9480-f889e16d434d" x1="214.8" y1="300.22" x2="214.8" y2="326.02"/><line class="dbbb7f94-f937-4f5e-9480-f889e16d434d" x1="191.1" y1="282.62" x2="214.8" y2="300.52"/><line class="dbbb7f94-f937-4f5e-9480-f889e16d434d" x1="214.6" y1="300.52" x2="239.2" y2="282.22"/><path id="ac8b7be9-2067-4b13-ac30-34ecaa3406ca" data-name="checkl" class="87a46317-04ca-4d5b-b3db-9d9946eecf51" d="M234.5,305.8V293a.75.75,0,0,0-.4-.7.9.9,0,0,0-.9-.2,1.22,1.22,0,0,0-.9.3,1,1,0,0,0-.4.7v11.8h-6.7c-.9,0-1.3.4-1.3,1a.87.87,0,0,0,.4.7,1.61,1.61,0,0,0,.9.3h8a2,2,0,0,0,.9-.2,3.55,3.55,0,0,0,.4-.9Z" transform="translate(-15.8 -19.58)"/></g><g id="64009bff-16b5-4396-b7d4-e1c6f501beee" data-name="txt" class="85bf161e-78c1-461e-bc6e-5db8aff34a3b"><text class="313bf1ab-f78e-43e9-ae24-ed8835367027" transform="matrix(0.8, -0.6, 0.8, 0.6, 288.33, 236.3)"><tspan class="c8dc0131-b370-461a-9c17-654a10527b5d">+</tspan><tspan x="6.44" y="0">130%</tspan></text></g><path id="eabf5ee9-01a4-42a2-8e78-cb2a4cfd8f09" data-name="picto" class="c04c1ec4-e0da-455b-b108-dc317fd4acb3" d="M279.5,251.3a2.75,2.75,0,0,0-1,1.6l-1.6,9.1a3.61,3.61,0,0,0-2,.6l-7.8,5.9a1.77,1.77,0,0,0-.8,1.5l-11.9,1.2a4,4,0,0,0-2.1.8,2.34,2.34,0,0,0-.1,3.9l15.3,11.6a4.51,4.51,0,0,0,5.2-.1,2.47,2.47,0,0,0,1-1.6l1.7-9.1a3.08,3.08,0,0,0,1.9-.6l7.8-5.9a1.87,1.87,0,0,0,.8-1.4l11.9-1.3a4,4,0,0,0,2.1-.8,2.29,2.29,0,0,0,.1-3.9l-15.3-11.6a4.5,4.5,0,0,0-5.2.1m-6,25.1-1.8,9.3a1.37,1.37,0,0,1-.5.8,2.25,2.25,0,0,1-2.6,0L253.3,275a1.21,1.21,0,0,1,0-2,2.82,2.82,0,0,1,1.1-.4l12.4-1.3.1.1,6.4,4.8Zm10.2-7.1-7.8,5.9a1.05,1.05,0,0,1-1.3,0l-6.4-4.8c-.4-.3-.3-.7,0-1l7.8-5.9a1.05,1.05,0,0,1,1.3,0l6.4,4.8a.57.57,0,0,1,0,1m14.9-5.5a1.21,1.21,0,0,1,0,2,3,3,0,0,1-1,.4l-12.3,1.4-.2-.2-6.4-4.8-.1-.1,1.7-9.4a1.37,1.37,0,0,1,.5-.8,2.25,2.25,0,0,1,2.6,0Z" transform="translate(-15.8 -19.58)"/></g></svg>