<?xml version="1.0" encoding="utf-8"?>
<!-- Generator: Adobe Illustrator 21.0.2, SVG Export Plug-In . SVG Version: 6.00 Build 0)  -->
<svg version="1.1" xmlns="http://www.w3.org/2000/svg" xmlns:xlink="http://www.w3.org/1999/xlink" x="0px" y="0px"
	 viewBox="0 0 538.5 420" style="enable-background:new 0 0 538.5 420;" xml:space="preserve">
<style type="text/css">
	.st0{opacity:0.54;fill-rule:evenodd;clip-rule:evenodd;fill:#D0E6F2;}
	
		.st1{fill-rule:evenodd;clip-rule:evenodd;fill:#FFFFFF;stroke:#C6DEEC;stroke-linecap:round;stroke-linejoin:round;stroke-miterlimit:10;}
	
		.st2{fill-rule:evenodd;clip-rule:evenodd;fill:#EEF6F9;stroke:#C6DEEC;stroke-linecap:round;stroke-linejoin:round;stroke-miterlimit:10;}
	.st3{fill:#009EE6;}
	.st4{fill-rule:evenodd;clip-rule:evenodd;fill:#31BC36;}
	.st5{fill-rule:evenodd;clip-rule:evenodd;fill:#3ADA4B;}
	.st6{fill:#FFFFFF;}
	.st7{font-family:'FiraSans-Medium';}
	.st8{font-size:15.9099px;}
	.st9{fill:none;stroke:#FFFFFF;stroke-miterlimit:10;}
	.st10{fill-rule:evenodd;clip-rule:evenodd;fill:#C81888;}
	.st11{fill-rule:evenodd;clip-rule:evenodd;fill:#E30F94;}
	.st12{fill-rule:evenodd;clip-rule:evenodd;fill:#BD0414;}
	.st13{fill-rule:evenodd;clip-rule:evenodd;fill:#DE0B20;}
	
		.st14{fill-rule:evenodd;clip-rule:evenodd;fill:#2DB3EB;stroke:#7BC6EA;stroke-linecap:round;stroke-linejoin:round;stroke-miterlimit:10;}
	
		.st15{fill-rule:evenodd;clip-rule:evenodd;fill:#269EE5;stroke:#7BC6EA;stroke-linecap:round;stroke-linejoin:round;stroke-miterlimit:10;}
	.st16{fill-rule:evenodd;clip-rule:evenodd;fill:#269EE5;stroke:#C7DEEC;stroke-miterlimit:10;}
	
		.st17{opacity:0.8;fill-rule:evenodd;clip-rule:evenodd;fill:none;stroke:#FFFFFF;stroke-width:4;stroke-linecap:round;stroke-linejoin:round;stroke-miterlimit:10;}
	.st18{opacity:0.4;fill:none;stroke:#4BB8EB;stroke-miterlimit:10;}
	
		.st19{fill-rule:evenodd;clip-rule:evenodd;fill:#269EE5;stroke:#C6DEEC;stroke-linecap:round;stroke-linejoin:round;stroke-miterlimit:10;}
	
		.st20{fill-rule:evenodd;clip-rule:evenodd;fill:#2DB3EB;stroke:#C6DEEC;stroke-linecap:round;stroke-linejoin:round;stroke-miterlimit:10;}
	.st21{opacity:0.2;fill-rule:evenodd;clip-rule:evenodd;fill:#CCE2EE;}
	
		.st22{fill-rule:evenodd;clip-rule:evenodd;fill:#FFFFFF;stroke:#C6DEEC;stroke-width:0.75;stroke-linecap:round;stroke-linejoin:round;stroke-miterlimit:10;}
	.st23{opacity:0.4;fill-rule:evenodd;clip-rule:evenodd;fill:#CCE2EE;}
	
		.st24{fill-rule:evenodd;clip-rule:evenodd;fill:#EFF6FA;stroke:#C6DEEC;stroke-width:0.75;stroke-linecap:round;stroke-linejoin:round;stroke-miterlimit:10;}
	.st25{fill:none;stroke:#009EE6;stroke-linecap:round;stroke-miterlimit:10;}
</style>
<g id="manette_1_">
	<g id="boite3">
		<path class="st0" d="M196.1,46.3l64.8,49.8l-47.5,35.5l-64.8-49.8L196.1,46.3z"/>
		<path class="st1" d="M196.3,30.3l64.8,49.8l-48.2,34.6L148,64.9L196.3,30.3z"/>
		<path class="st2" d="M261.1,80.1l-48.2,34.5V129l48.2-35.6L261.1,80.1z"/>
		<path class="st1" d="M148,64.9l64.8,49.8V129L148,78.4V64.9z"/>
	</g>
	<g id="manette">
		<path class="st3" d="M203.8,60.6l-6.5,4.7l-3.7-2.8c-0.3-0.2-0.8-0.2-1.1,0c-0.3,0.2-0.3,0.6,0,0.8l3.7,2.8l-6.5,4.7
			c-3,2.1-3,5.7-0.1,7.9l5.3,4l3.2,2.4l2.6,2c1.5,1.1,3.8,1.2,5.3,0.1l0.9-0.6c1.1-0.8,1.4-2,0.8-3.1l-1.5-2.8
			c-0.4-0.6-0.2-1.4,0.5-1.8l7.5-5.4c0.7-0.5,1.6-0.6,2.5-0.3l3.7,1.2c1.4,0.5,3.1,0.3,4.2-0.5l0.9-0.6c1.5-1.1,1.5-2.8,0.1-4
			l-2.6-2l-3.2-2.4l-5.3-4C211.5,58.5,206.7,58.4,203.8,60.6z M218.6,65.5l3.2,2.4l2.6,2c0.9,0.7,0.9,1.7,0,2.4l-0.9,0.6
			c-0.7,0.5-1.6,0.6-2.5,0.3l-3.7-1.2c-1.4-0.5-3-0.3-4.2,0.5l-7.5,5.4c-1.1,0.8-1.4,2-0.8,3.1l1.5,2.8c0.4,0.6,0.2,1.4-0.5,1.8
			l-0.9,0.6c-0.9,0.6-2.3,0.6-3.2,0l-2.6-2l-3.2-2.4l-5.3-4c-2.3-1.8-2.3-4.6,0.1-6.3l14-10.1c2.4-1.7,6.2-1.7,8.5,0.1L218.6,65.5z"
			/>
		<path class="st3" d="M198.8,73.6l-1.6,1.2l-1.6-1.2c-0.3-0.2-0.8-0.2-1.1,0c-0.3,0.2-0.3,0.6,0,0.8l1.6,1.2l-1.6,1.2
			c-0.3,0.2-0.3,0.6,0,0.8c0.3,0.2,0.8,0.2,1.1,0l1.6-1.2l1.6,1.2c0.3,0.2,0.8,0.2,1.1,0c0.3-0.2,0.3-0.6,0-0.8l-1.6-1.2l1.6-1.2
			c0.3-0.2,0.3-0.6,0-0.8C199.6,73.4,199.1,73.4,198.8,73.6z"/>
		<path class="st3" d="M208.5,64.2c-0.9-0.7-2.3-0.7-3.2,0c-0.9,0.6-0.9,1.7,0,2.4c0.9,0.7,2.3,0.7,3.2,0
			C209.4,65.9,209.4,64.9,208.5,64.2z M207.4,65.8c-0.3,0.2-0.8,0.2-1.1,0c-0.3-0.2-0.3-0.6,0-0.8c0.3-0.2,0.8-0.2,1.1,0
			C207.7,65.2,207.7,65.6,207.4,65.8z"/>
		<path class="st3" d="M211.7,65.8c-0.9,0.6-0.9,1.7,0,2.4c0.9,0.7,2.3,0.7,3.2,0c0.9-0.6,0.9-1.7,0-2.4
			C214,65.2,212.6,65.2,211.7,65.8z M213.8,67.5c-0.3,0.2-0.8,0.2-1.1,0c-0.3-0.2-0.3-0.6,0-0.8c0.3-0.2,0.8-0.2,1.1,0
			C214.1,66.9,214.1,67.2,213.8,67.5z"/>
		<path class="st3" d="M205.2,73.7l-1.1,0.8c-0.3,0.2-0.3,0.6,0,0.8c0.3,0.2,0.8,0.2,1.1,0l1.1-0.8c0.3-0.2,0.3-0.6,0-0.8
			C206,73.5,205.5,73.5,205.2,73.7z"/>
		<path class="st3" d="M208.4,71.3l-1.1,0.8c-0.3,0.2-0.3,0.6,0,0.8c0.3,0.2,0.8,0.2,1.1,0l1.1-0.8c0.3-0.2,0.3-0.6,0-0.8
			C209.2,71.1,208.7,71.1,208.4,71.3z"/>
	</g>
	<g id="_x33_">
		<path class="st4" d="M183.3,58.4l0,4l-15.1,10.9v-3.7L183.3,58.4z"/>
		<polygon class="st4" points="168.3,69.6 151.8,56.7 151.8,59.1 151.7,61.6 152.8,60.9 168.3,73.3 		"/>
		<path class="st5" d="M166.8,45.5l-15.1,11.2l16.5,12.9l15.1-11.2L166.8,45.5z"/>
		<text transform="matrix(0.8 -0.6 0.8 0.6 168.0738 63.6905)" class="st6 st7 st8">3</text>
	</g>
	<line class="st9" x1="151.8" y1="56.7" x2="168.3" y2="69.6"/>
	<line class="st9" x1="168.3" y1="73.3" x2="168.3" y2="69.5"/>
	<line class="st9" x1="183.3" y1="58.4" x2="168.3" y2="69.5"/>
</g>
<g id="calvier">
	<g id="boite1">
		<path class="st0" d="M142.5,84.6l64.8,49.8l-47.5,35.5l-64.8-49.8L142.5,84.6z"/>
		<path class="st1" d="M142.8,68.6l64.8,49.8l-48.2,34.6l-64.8-49.8L142.8,68.6z"/>
		<path class="st2" d="M207.6,118.4l-48.2,34.6v14.2l48.2-35.5V118.4z"/>
		<path class="st1" d="M94.5,103.2l64.8,49.8v14.2l-64.8-50.7V103.2z"/>
	</g>
	<g id="clavier">
		<path class="st3" d="M155.2,97.1l-9.4,6.7l-1.4-1.1c-0.3-0.2-0.3-0.5,0-0.7l1-0.7c0.8-0.6,0.8-1.6,0.1-2.2l-2.8-2.3
			c-0.3-0.2-0.7-0.2-1,0c-0.3,0.2-0.3,0.5,0,0.7l2.8,2.3c0.3,0.2,0.3,0.5,0,0.7l-1,0.7c-0.8,0.6-0.8,1.6-0.1,2.2l1.4,1.1l-10.4,7.4
			c-0.8,0.6-0.8,1.6-0.1,2.2l12.3,9.8c0.8,0.6,2.1,0.7,2.9,0.1l20.7-14.8c0.8-0.6,0.8-1.6,0.1-2.2l-12.3-9.8
			C157.3,96.6,156,96.6,155.2,97.1z M169.4,107.8c0.3,0.2,0.3,0.5,0,0.7l-20.7,14.8c-0.3,0.2-0.7,0.2-1,0l-12.3-9.8
			c-0.3-0.2-0.3-0.5,0-0.7l20.7-14.8c0.3-0.2,0.7-0.2,1,0L169.4,107.8z"/>
		<path class="st3" d="M142.2,112.2l-2,1.4c-0.3,0.2-0.3,0.5,0,0.7l1.9,1.5c0.3,0.2,0.7,0.2,1,0l2-1.4c0.3-0.2,0.3-0.5,0-0.7
			l-1.9-1.5C142.9,112,142.5,112,142.2,112.2z M143.6,114l-1,0.7l-0.9-0.8l1-0.7L143.6,114z"/>
		<path class="st3" d="M148,112.3l2-1.4c0.3-0.2,0.3-0.5,0-0.7l-1.9-1.5c-0.3-0.2-0.7-0.2-1,0l-2,1.4c-0.3,0.2-0.3,0.5,0,0.7
			l1.9,1.5C147.3,112.5,147.8,112.5,148,112.3z M146.6,110.5l1-0.7l0.9,0.8l-1,0.7L146.6,110.5z"/>
		<path class="st3" d="M152.1,105.1l-2,1.4c-0.3,0.2-0.3,0.5,0,0.7l1.9,1.5c0.3,0.2,0.7,0.2,1,0l2-1.4c0.3-0.2,0.3-0.5,0-0.7
			l-1.9-1.5C152.8,104.9,152.4,104.9,152.1,105.1z M153.5,107l-1,0.7l-0.9-0.8l1-0.7L153.5,107z"/>
		<path class="st3" d="M157,101.6l-2,1.4c-0.3,0.2-0.3,0.5,0,0.7l1.9,1.5c0.3,0.2,0.7,0.2,1,0l2-1.4c0.3-0.2,0.3-0.5,0-0.7l-1.9-1.5
			C157.7,101.4,157.3,101.4,157,101.6z M158.4,103.4l-1,0.7l-0.9-0.8l1-0.7L158.4,103.4z"/>
		<path class="st3" d="M147,115.9l-2,1.4c-0.3,0.2-0.3,0.5,0,0.7l1.9,1.5c0.3,0.2,0.7,0.2,1,0l2-1.4c0.3-0.2,0.3-0.5,0-0.7l-1.9-1.5
			C147.7,115.8,147.2,115.8,147,115.9z M148.4,117.8l-1,0.7l-0.9-0.8l1-0.7L148.4,117.8z"/>
		<path class="st3" d="M156.8,108.9l-6.9,4.9c-0.3,0.2-0.3,0.5,0,0.7l1.9,1.5c0.3,0.2,0.7,0.2,1,0l6.9-4.9c0.3-0.2,0.3-0.5,0-0.7
			l-1.9-1.5C157.5,108.7,157.1,108.7,156.8,108.9z M158.2,110.8l-5.9,4.2l-0.9-0.8l5.9-4.2L158.2,110.8z"/>
		<path class="st3" d="M161.8,105.4l-2,1.4c-0.3,0.2-0.3,0.5,0,0.7l1.9,1.5c0.3,0.2,0.7,0.2,1,0l2-1.4c0.3-0.2,0.3-0.5,0-0.7
			l-1.9-1.5C162.5,105.2,162,105.2,161.8,105.4z M163.2,107.2l-1,0.7l-0.9-0.8l1-0.7L163.2,107.2z"/>
	</g>
	<g id="_x31_">
		<path class="st10" d="M129.8,97v3.9l-15,11l0-3.7L129.8,97z"/>
		<polygon class="st10" points="114.8,112 114.7,108.2 98.2,95.3 98.2,96 98.2,96 98.2,99.9 99.1,99.2 		"/>
		<path class="st11" d="M113.3,84.1L98.2,95.3l16.5,12.9L129.8,97L113.3,84.1z"/>
		<text transform="matrix(0.8 -0.6 0.8 0.6 114.7374 101.4393)" class="st6 st7 st8">1</text>
	</g>
	<line class="st9" x1="98" y1="95.2" x2="114.8" y2="108.3"/>
	<line class="st9" x1="114.8" y1="112" x2="114.8" y2="108.3"/>
	<line class="st9" x1="130.1" y1="96.9" x2="114.8" y2="108.3"/>
</g>
<g id="gamebay">
	<g id="boite5">
		<path class="st0" d="M90,123.9l64.8,49.8l-47.5,35.5l-64.8-49.8L90,123.9z"/>
		<path class="st1" d="M90.2,107.9l64.8,49.8l-48.2,34.6L42,142.4L90.2,107.9z"/>
		<path class="st2" d="M155.1,157.6l-48.3,34.6l0,14.1l48.3-35.5V157.6z"/>
		<path class="st1" d="M42,142.4l64.8,49.8l0,14.1L42,156V142.4z"/>
	</g>
	<g id="GB">
		<path class="st3" d="M93.8,134l-14.3,10.4c-1.4,1-1.4,2.7,0,3.8l20.4,15.4c1.4,1.1,3.7,1.1,5.1,0.1l14.3-10.4c1.4-1,1.4-2.7,0-3.8
			L98.9,134C97.5,133,95.2,132.9,93.8,134z M118.3,150.2c0.8,0.6,0.8,1.7,0,2.3L104,162.8c-0.8,0.6-2.2,0.6-3.1,0l-20.4-15.4
			c-0.8-0.6-0.8-1.7,0-2.3l14.3-10.4c0.8-0.6,2.2-0.6,3.1,0L118.3,150.2z"/>
		<path class="st3" d="M95.3,137.4l-11.2,8.1c-0.6,0.4-0.6,1.1,0,1.5l8.2,6.2c0.6,0.4,1.5,0.4,2,0l11.2-8.1c0.6-0.4,0.6-1.1,0-1.5
			l-8.2-6.2C96.8,137,95.9,137,95.3,137.4z M104.5,144.3l-11.2,8.1l-8.2-6.2l11.2-8.1L104.5,144.3z"/>
		<path class="st3" d="M103,154.5l-1.5,1.1l-1.5-1.2c-0.3-0.2-0.7-0.2-1,0c-0.3,0.2-0.3,0.5,0,0.8l1.5,1.2l-1.5,1.1
			c-0.3,0.2-0.3,0.5,0,0.8s0.7,0.2,1,0l1.5-1.1l1.5,1.2c0.3,0.2,0.7,0.2,1,0c0.3-0.2,0.3-0.5,0-0.8l-1.5-1.2l1.5-1.1
			c0.3-0.2,0.3-0.5,0-0.8S103.3,154.3,103,154.5z"/>
		<path class="st3" d="M108.6,151.9c-0.6,0.4-0.6,1.1,0,1.5c0.6,0.4,1.5,0.4,2,0c0.6-0.4,0.6-1.1,0-1.5
			C110.1,151.5,109.2,151.5,108.6,151.9z"/>
		<path class="st3" d="M108.6,147.4c-0.6,0.4-0.6,1.1,0,1.5c0.6,0.4,1.5,0.4,2,0s0.6-1.1,0-1.5C110.1,147,109.2,147,108.6,147.4z"/>
	</g>
	<g id="_x35_">
		<path class="st12" d="M78.3,135.6v4l-15.1,11l0-3.8L78.3,135.6z"/>
		<polygon class="st12" points="63.2,146.8 46.7,133.9 46.6,138.5 47.6,137.8 63.2,150.6 		"/>
		<path class="st13" d="M61.7,122.7l-15.1,11.2l16.5,12.9l15.1-11.2L61.7,122.7z"/>
	</g>
	<text transform="matrix(0.8 -0.6 0.8 0.6 63.1908 141.1107)" class="st6 st7 st8">5</text>
	<line class="st9" x1="46.5" y1="133.8" x2="63.1" y2="146.7"/>
	<line class="st9" x1="63" y1="150.7" x2="63.1" y2="146.7"/>
	<line class="st9" x1="78.2" y1="135.5" x2="63.1" y2="146.7"/>
</g>
<g id="presse_1_">
	<g id="presse">
		<path class="st14" d="M220,127.8l-51.9,36.8v13.7L220,141V127.8z"/>
		<path class="st14" d="M160.8,159.3l7.3,5.3v13.7l-7.1-5.4L160.8,159.3z"/>
		<path class="st15" d="M212.3,122.8l7.7,5l-51.9,36.8l-7.3-5.3L212.3,122.8z"/>
	</g>
	<path class="st16" d="M190.8,151.9c1.7,0,3.2,1.6,3.2,3.5c0,1.9-1.3,3.5-3.1,3.5c-1.7,0-3.2-1.6-3.2-3.5
		C187.7,153.4,189.1,151.9,190.8,151.9z"/>
	<path class="st16" d="M198.8,145.4c1.7,0,3.2,1.6,3.2,3.5c0,1.9-1.3,3.5-3.1,3.5c-1.7,0-3.2-1.6-3.2-3.5
		C195.7,147,197.1,145.4,198.8,145.4z"/>
</g>
<g id="tuyau2_1_">
	<g id="tuyau_1_">
		<g id="_x32__1_">
			<line class="st17" x1="191.1" y1="155.5" x2="250" y2="194.7"/>
			<path class="st18" d="M250,196.7c-0.4,0-0.8-0.1-1.1-0.3L190,157.1c-0.9-0.6-1.2-1.9-0.6-2.8c0.6-0.9,1.9-1.2,2.8-0.6l58.9,39.2
				c0.9,0.6,1.2,1.9,0.6,2.8C251.3,196.4,250.6,196.7,250,196.7z"/>
		</g>
		<g id="_x31__1_">
			<line class="st17" x1="199.1" y1="148.9" x2="258" y2="188.1"/>
			<path class="st18" d="M258,190.1c-0.4,0-0.8-0.1-1.1-0.3L198,150.6c-0.9-0.6-1.2-1.9-0.6-2.8c0.6-0.9,1.9-1.2,2.8-0.6l58.9,39.2
				c0.9,0.6,1.2,1.9,0.6,2.8C259.3,189.8,258.6,190.1,258,190.1z"/>
		</g>
	</g>
</g>
<g id="beezup">
	<g id="boite-beezup">
		<path id="shade" class="st0" d="M275.5,153.2l64.5,49l-104,76.6l-64.5-49L275.5,153.2z"/>
		<path class="st19" d="M340.8,181.6l-104.9,76.6v17.3l104.9-76.6V181.6z"/>
		<path class="st20" d="M172.1,210.1l63.7,48.1v17.3l-63.7-49.2V210.1z"/>
		<path class="st19" d="M277.1,133.5l63.7,48.1l-104.9,76.6l-63.7-48.1L277.1,133.5z"/>
		<path class="st16" d="M287.6,226.1c1.7,0,3.2,1.6,3.2,3.5c0,1.9-1.3,3.5-3.1,3.5c-1.7,0-3.2-1.6-3.2-3.5
			C284.5,227.6,285.9,226.1,287.6,226.1z"/>
		<path class="st16" d="M295.6,219.6c1.7,0,3.2,1.6,3.2,3.5c0,1.9-1.3,3.5-3.1,3.5c-1.7,0-3.2-1.6-3.2-3.5
			C292.5,221.2,293.9,219.6,295.6,219.6z"/>
	</g>
	<g id="logo">
		<path class="st6" d="M280.7,166.7c-3.5,0.9-9.5,7.6-13.5,14.9c-3.9,7.4-4.3,12.6-0.8,11.7c1-0.2,2,0.6,3.3-0.4
			c-3.4,0.8-3.2-5.3,0.2-11.7c3.5-6.5,9.1-12.5,12.6-13.4c0.1,0,0.3-0.1,0.4-0.1C282.6,166.8,281.9,166.4,280.7,166.7z"/>
		<path class="st6" d="M262.3,184.7c-1.4-0.3-2.9-0.7-4.4-1.1c-10.1-2.8-17.3-6.9-16.2-9.3c0.9-1.9,6.8-2,14.3-0.6
			c1.5,1.9,4.9,4.2,9.4,6.4c-3-2-4.8-3.9-5.2-5.4c0.6,0.2,1.3,0.3,1.9,0.5c1.6,0.4,3.1,0.9,4.6,1.4c-1.9-0.9-4.1-1.8-6.5-2.6
			c0-0.3,0.1-0.5,0.3-0.8c1.2-1.6,5.4-1.8,10.8-0.7c-7.8-2.6-14.6-3.2-15.9-1.4c-0.3,0.4-0.3,0.9-0.1,1.4c-9.4-2.3-17.7-2.2-19,0.3
			c-1.4,2.7,5.7,7.2,15.8,9.9C255.7,183.8,259.2,184.4,262.3,184.7z"/>
		<path class="st6" d="M240.4,225.9c1.2-2,0.9-3.7-0.9-5c-2.4-1.8-5.1-1.6-8.1,0.6l-7.3,5.4l15.6,11.6l7.1-5.3
			c3.3-2.4,3.3-4.8,0.3-7.1C245.1,224.8,242.8,224.7,240.4,225.9z M244.1,231.5l-4.1,3l-10.6-7.9l4.2-3.1c1.1-0.8,2.1-0.9,2.9-0.2
			c1.6,1.2,1.4,2.8-0.6,4.9l1.9,1.4l0.9-0.6c1.9-1.4,3.7-1.5,5.3-0.3C245.4,229.6,245.4,230.6,244.1,231.5z"/>
		<path class="st6" d="M247.3,215.9c-3.8,2.8-3.8,5.6-0.1,8.4c3.9,2.9,7.9,2.8,12.1-0.3c1.6-1.2,2.8-2.2,3.6-3.1l-2.3-1.7
			c-0.9,1-2,2-3.1,2.8c-2.5,1.9-4.5,2.2-6.1,1.1l7.5-5.6C254.9,213.6,251.1,213.1,247.3,215.9z M254,218l-4.8,3.6
			c-1.5-1.3-1.5-2.5,0-3.7C250.8,216.6,252.4,216.7,254,218z"/>
		<path class="st6" d="M259.1,207.1c-3.8,2.8-3.8,5.6-0.1,8.4c3.9,2.9,7.9,2.8,12.1-0.3c1.6-1.2,2.8-2.2,3.6-3.1l-2.3-1.7
			c-0.9,1-2,2-3.1,2.8c-2.5,1.9-4.5,2.2-6.1,1.1l7.5-5.6C266.8,204.8,262.9,204.3,259.1,207.1z M265.8,209.2l-4.8,3.6
			c-1.5-1.3-1.5-2.5,0-3.7C262.7,207.8,264.3,207.9,265.8,209.2z"/>
		<path class="st6" d="M268.2,203.8l5.7-4.3l1,9.6l2.2,1.6l8.8-6.6l-2.2-1.6l-5.6,4.2l-1.1-9.5l-2.3-1.7l-8.8,6.6L268.2,203.8z"/>
		<path class="st6" d="M282.4,197.7l-9.5-7l2.9-2.1l9.5,7c2.5,1.8,5,1.8,7.5-0.1c2.5-1.9,2.6-3.8,0.1-5.6l-9.5-7l2.9-2.1l9.5,7
			c4.2,3.1,4,6.3-0.5,9.6C290.8,200.7,286.5,200.8,282.4,197.7z"/>
		<path class="st6" d="M305.2,189.9l-15.6-11.6l7.3-5.4c3-2.2,5.8-2.3,8.4-0.4c3.1,2.3,2.8,5.3-0.8,9l-3-1.6
			c2.1-2.2,2.3-3.9,0.8-5.1c-1-0.7-2-0.7-3.1,0.1L295,178l13.1,9.7L305.2,189.9z"/>
	</g>
</g>
<g id="tuyau1">
	<g id="tuyau">
		<g id="_x32_">
			<line class="st17" x1="288.3" y1="229.7" x2="347.2" y2="269"/>
			<path class="st18" d="M347.2,271c-0.4,0-0.8-0.1-1.1-0.3l-58.9-39.2c-0.9-0.6-1.2-1.9-0.6-2.8c0.6-0.9,1.9-1.2,2.8-0.6l58.9,39.2
				c0.9,0.6,1.2,1.9,0.6,2.8C348.5,270.7,347.9,271,347.2,271z"/>
		</g>
		<g id="_x31__2_">
			<line class="st17" x1="296.3" y1="223.2" x2="355.2" y2="262.4"/>
			<path class="st18" d="M355.2,264.4c-0.4,0-0.8-0.1-1.1-0.3l-58.9-39.2c-0.9-0.6-1.2-1.9-0.6-2.8c0.6-0.9,1.9-1.2,2.8-0.6
				l58.9,39.2c0.9,0.6,1.2,1.9,0.6,2.8C356.5,264.1,355.9,264.4,355.2,264.4z"/>
		</g>
	</g>
</g>
<g id="etagère_1_">
	<path id="shade_2_" class="st21" d="M407.2,254.9l40.8,32.8l-135.2,95.6L272,350.5L407.2,254.9z"/>
	<path id="bas" class="st22" d="M407.2,228.9l40.8,32.8l-135.2,95.6L272,324.4L407.2,228.9z"/>
	<path id="shade_1_" class="st23" d="M400.1,222.9l40.8,32.8l-128.1,89.6l-33.1-26.5l9.5-6.8l-6.8-6.2L400.1,222.9z"/>
	<path id="cote-bas-long" class="st24" d="M447.3,260.8l-134.5,95.6l-0.2,4.2l134.5-95.5L447.3,260.8z"/>
	<path id="cote-bas" class="st22" d="M272.8,323.6l40.8,32.8l-0.2,4.2l-40.8-32.7L272.8,323.6z"/>
	<path id="poteau-haute" class="st22" d="M400.1,266.6v-82l7-5.7v82L400.1,266.6z M403.1,263l1-0.8V261l-1,0.8V263z M404.1,184.8
		l-1,0.8v1.2l1-0.8V184.8z M404.1,189l-1,0.8v1.2l1-0.8V189z M404.1,193.3l-1,0.8v1.2l1-0.8V193.3z M403.1,198.3v1.2l1-0.8v-1.2
		L403.1,198.3z M404.1,201.7l-1,0.8v1.2l1-0.8V201.7z M404.1,206l-1,0.8v1.2l1-0.8V206z M403.1,211v1.2l1-0.8v-1.2L403.1,211z
		 M404.1,214.4l-1,0.8v1.2l1-0.8V214.4z M404.1,218.7l-1,0.8v1.2l1-0.8V218.7z M403.1,223.7v1.2l1-0.8v-1.2L403.1,223.7z
		 M404.1,227.2l-1,0.8v1.2l1-0.8V227.2z M404.1,231.4l-1,0.8v1.2l1-0.8V231.4z M403.1,236.4v1.2l1-0.8v-1.2L403.1,236.4z
		 M404.1,239.9l-1,0.8v1.2l1-0.8V239.9z M404.1,244.1l-1,0.8v1.2l1-0.8V244.1z M403.1,249.1v1.2l1-0.8v-1.2L403.1,249.1z
		 M404.1,252.6l-1,0.8v1.2l1-0.8V252.6z M404.1,256.8l-1,0.8v1.2l1-0.8V256.8z"/>
	<path id="poteau-haut" class="st22" d="M407.1,261v-82l6.7,5.7v82L407.1,261z M410,262.3l0.9,0.8v-1.2l-0.9-0.8V262.3z
		 M410.9,185.7l-0.9-0.8v1.2l0.9,0.8V185.7z M411,189.9l-1-0.8v1.2l1,0.8V189.9z M411,194.1l-1-0.8v1.2l1,0.8V194.1z M410,197.6v1.2
		l0.9,0.8v-1.2L410,197.6z M411,202.6l-1-0.8v1.2l1,0.8V202.6z M411,206.8l-1-0.8v1.2l1,0.8V206.8z M410,210.3v1.2l0.9,0.8v-1.2
		L410,210.3z M411,215.3l-1-0.8v1.2l1,0.8V215.3z M411,219.6l-1-0.8v1.2l1,0.8V219.6z M410,223v1.2l0.9,0.8v-1.2L410,223z M411,228
		l-1-0.8v1.2l1,0.8V228z M411,232.3l-1-0.8v1.2l1,0.8V232.3z M410,235.7v1.2l0.9,0.8v-1.2L410,235.7z M411,240.7l-1-0.8v1.2l1,0.8
		V240.7z M411,245l-1-0.8v1.2l1,0.8V245z M410,248.4v1.2l0.9,0.8v-1.2L410,248.4z M411,253.4l-1-0.8v1.2l1,0.8V253.4z M411,257.7
		l-1-0.8v1.2l1,0.8V257.7z"/>
	<path id="haut1" class="st22" d="M407.2,205.9l40.8,32.8l-135.2,95.6L272,301.4L407.2,205.9z"/>
	<path id="haut2" class="st24" d="M447.3,237.8l-134.5,95.6l-0.2,4.2l134.5-95.5L447.3,237.8z"/>
	<path id="cote-haut" class="st22" d="M272.8,300.6l40.8,32.8l-0.2,4.2l-40.8-32.7L272.8,300.6z"/>
	<path id="poteau-gauche_1_" class="st22" d="M272.1,351.6v-82l7-5.7v82L272.1,351.6z M275.1,348l1-0.8V346l-1,0.8V348z
		 M276.1,269.8l-1,0.8v1.2l1-0.8V269.8z M276.1,274l-1,0.8v1.2l1-0.8V274z M276.1,278.3l-1,0.8v1.2l1-0.8V278.3z M275.1,283.3v1.2
		l1-0.8v-1.2L275.1,283.3z M276.1,286.7l-1,0.8v1.2l1-0.8V286.7z M276.1,291l-1,0.8v1.2l1-0.8V291z M275.1,296v1.2l1-0.8v-1.2
		L275.1,296z M276.1,299.4l-1,0.8v1.2l1-0.8V299.4z M276.1,303.7l-1,0.8v1.2l1-0.8V303.7z M275.1,308.7v1.2l1-0.8v-1.2L275.1,308.7z
		 M276.1,312.2l-1,0.8v1.2l1-0.8V312.2z M276.1,316.4l-1,0.8v1.2l1-0.8V316.4z M275.1,321.4v1.2l1-0.8v-1.2L275.1,321.4z
		 M276.1,324.9l-1,0.8v1.2l1-0.8V324.9z M276.1,329.1l-1,0.8v1.2l1-0.8V329.1z M275.1,334.1v1.2l1-0.8v-1.2L275.1,334.1z
		 M276.1,337.6l-1,0.8v1.2l1-0.8V337.6z M276.1,341.8l-1,0.8v1.2l1-0.8V341.8z"/>
	<path id="poteau-gauche" class="st22" d="M272.2,352v-82l6.7,5.7v82L272.2,352z M275.1,353.3l0.9,0.8v-1.2l-0.9-0.8V353.3z
		 M276.1,276.7l-0.9-0.8v1.2l0.9,0.8V276.7z M276.1,280.9l-1-0.8v1.2l1,0.8V280.9z M276.1,285.1l-1-0.8v1.2l1,0.8V285.1z
		 M275.1,288.6v1.2l0.9,0.8v-1.2L275.1,288.6z M276.1,293.6l-1-0.8v1.2l1,0.8V293.6z M276.1,297.8l-1-0.8v1.2l1,0.8V297.8z
		 M275.1,301.3v1.2l0.9,0.8v-1.2L275.1,301.3z M276.1,306.3l-1-0.8v1.2l1,0.8V306.3z M276.1,310.6l-1-0.8v1.2l1,0.8V310.6z
		 M275.1,314v1.2l0.9,0.8v-1.2L275.1,314z M276.1,319l-1-0.8v1.2l1,0.8V319z M276.1,323.3l-1-0.8v1.2l1,0.8V323.3z M275.1,326.7v1.2
		l0.9,0.8v-1.2L275.1,326.7z M276.1,331.7l-1-0.8v1.2l1,0.8V331.7z M276.1,336l-1-0.8v1.2l1,0.8V336z M275.1,339.4v1.2l0.9,0.8v-1.2
		L275.1,339.4z M276.1,344.4l-1-0.8v1.2l1,0.8V344.4z M276.1,348.7l-1-0.8v1.2l1,0.8V348.7z"/>
	<path id="poteau-droite" class="st22" d="M442.2,288v-82l6.7,5.7v82L442.2,288z M445.1,289.3l0.9,0.8v-1.2l-0.9-0.8V289.3z
		 M446.1,212.7l-0.9-0.8v1.2l0.9,0.8V212.7z M446.1,216.9l-1-0.8v1.2l1,0.8V216.9z M446.1,221.1l-1-0.8v1.2l1,0.8V221.1z
		 M445.1,224.6v1.2l0.9,0.8v-1.2L445.1,224.6z M446.1,229.6l-1-0.8v1.2l1,0.8V229.6z M446.1,233.8l-1-0.8v1.2l1,0.8V233.8z
		 M445.1,237.3v1.2l0.9,0.8v-1.2L445.1,237.3z M446.1,242.3l-1-0.8v1.2l1,0.8V242.3z M446.1,246.6l-1-0.8v1.2l1,0.8V246.6z
		 M445.1,250v1.2l0.9,0.8v-1.2L445.1,250z M446.1,255l-1-0.8v1.2l1,0.8V255z M446.1,259.3l-1-0.8v1.2l1,0.8V259.3z M445.1,262.7v1.2
		l0.9,0.8v-1.2L445.1,262.7z M446.1,267.7l-1-0.8v1.2l1,0.8V267.7z M446.1,272l-1-0.8v1.2l1,0.8V272z M445.1,275.4v1.2l0.9,0.8v-1.2
		L445.1,275.4z M446.1,280.4l-1-0.8v1.2l1,0.8V280.4z M446.1,284.7l-1-0.8v1.2l1,0.8V284.7z"/>
	<path id="poteau-droite_1_" class="st22" d="M442.2,299.3v-82l7-5.7v82L442.2,299.3z M445.2,295.7l1-0.8v-1.2l-1,0.8V295.7z
		 M446.2,217.6l-1,0.8v1.2l1-0.8V217.6z M446.2,221.8l-1,0.8v1.2l1-0.8V221.8z M446.2,226l-1,0.8v1.2l1-0.8V226z M445.2,231.1v1.2
		l1-0.8v-1.2L445.2,231.1z M446.2,234.5l-1,0.8v1.2l1-0.8V234.5z M446.2,238.7l-1,0.8v1.2l1-0.8V238.7z M445.2,243.8v1.2l1-0.8V243
		L445.2,243.8z M446.2,247.2l-1,0.8v1.2l1-0.8V247.2z M446.2,251.4l-1,0.8v1.2l1-0.8V251.4z M445.2,256.5v1.2l1-0.8v-1.2
		L445.2,256.5z M446.2,259.9l-1,0.8v1.2l1-0.8V259.9z M446.2,264.1l-1,0.8v1.2l1-0.8V264.1z M445.2,269.2v1.2l1-0.8v-1.2
		L445.2,269.2z M446.2,272.6l-1,0.8v1.2l1-0.8V272.6z M446.2,276.8l-1,0.8v1.2l1-0.8V276.8z M445.2,281.9v1.2l1-0.8v-1.2
		L445.2,281.9z M446.2,285.3l-1,0.8v1.2l1-0.8V285.3z M446.2,289.5l-1,0.8v1.2l1-0.8V289.5z"/>
	<g id="objet">
		<g id="manette_3_">
			<g id="manette_2_">
				<path class="st3" d="M400.3,226.9l-6.5,4.7l-1.4-0.9c-0.3-0.2-0.8-0.2-1.1,0c-0.3,0.2-0.3,0.6,0,0.8l1.4,0.9l-6.5,4.7
					c-3,2.1-3,5.7-0.1,7.9l5.3,4l3.2,2.4l2.6,2c1.5,1.1,3.8,1.2,5.3,0.1l0.9-0.6c1.1-0.8,1.4-2,0.8-3.1l-1.5-2.8
					c-0.4-0.6-0.2-1.4,0.5-1.8l7.5-5.4c0.7-0.5,1.6-0.6,2.5-0.3l3.7,1.2c1.4,0.5,3.1,0.3,4.2-0.5l0.9-0.6c1.5-1.1,1.5-2.8,0.1-4
					l-2.6-2l-3.2-2.4l-5.3-4C408,224.9,403.3,224.8,400.3,226.9z M415.1,231.9l3.2,2.4l2.6,2c0.9,0.7,0.9,1.7,0,2.4l-0.9,0.6
					c-0.7,0.5-1.6,0.6-2.5,0.3l-3.7-1.2c-1.4-0.5-3-0.3-4.2,0.5l-7.5,5.4c-1.1,0.8-1.4,2-0.8,3.1l1.5,2.8c0.4,0.6,0.2,1.4-0.5,1.8
					l-0.9,0.6c-0.9,0.6-2.3,0.6-3.2,0l-2.6-2l-3.2-2.4l-5.3-4c-2.3-1.8-2.3-4.6,0.1-6.3l14-10.1c2.4-1.7,6.2-1.7,8.5,0.1
					L415.1,231.9z"/>
			</g>
			<g>
				<path class="st6" d="M402.9,228.4c-0.3,0.2-0.3,0.6,0,0.8c0.3,0.2,0.8,0.2,1.1,0s0.3-0.6,0-0.8
					C403.6,228.2,403.2,228.2,402.9,228.4z"/>
				<path class="st6" d="M409.2,230.1c-0.3,0.2-0.3,0.6,0,0.8c0.3,0.2,0.8,0.2,1.1,0c0.3-0.2,0.3-0.6,0-0.8
					C410,229.9,409.5,229.9,409.2,230.1z"/>
				<path class="st6" d="M420.9,233.4l-2.6-2l-3.2-2.4l-5.3-4c-2.3-1.8-6.1-1.8-8.5-0.1l-14,10.1c-2.4,1.7-2.4,4.6-0.1,6.3l5.3,4
					l3.2,2.4l2.6,2c0.9,0.7,2.3,0.7,3.2,0l0.9-0.6c0.7-0.5,0.9-1.2,0.5-1.8l-1.5-2.8c-0.6-1.1-0.3-2.3,0.8-3.1l7.5-5.4
					c1.1-0.8,2.7-1,4.2-0.5l3.7,1.2c0.9,0.3,1.8,0.2,2.5-0.3l0.9-0.6C421.8,235.2,421.8,234.1,420.9,233.4z M396.3,240.2
					c0.3,0.2,0.3,0.6,0,0.8c-0.3,0.2-0.8,0.2-1.1,0l-1.6-1.2l-1.6,1.2c-0.3,0.2-0.8,0.2-1.1,0s-0.3-0.6,0-0.8l1.6-1.2l-1.6-1.2
					c-0.3-0.2-0.3-0.6,0-0.8c0.3-0.2,0.8-0.2,1.1,0l1.6,1.2l1.6-1.2c0.3-0.2,0.8-0.2,1.1,0c0.3,0.2,0.3,0.6,0,0.8l-1.6,1.2
					L396.3,240.2z M402.7,237.9l-1.1,0.8c-0.3,0.2-0.8,0.2-1.1,0c-0.3-0.2-0.3-0.6,0-0.8l1.1-0.8c0.3-0.2,0.8-0.2,1.1,0
					C403,237.3,403,237.7,402.7,237.9z M401.8,230c-0.9-0.7-0.9-1.7,0-2.4c0.9-0.6,2.3-0.6,3.2,0c0.9,0.7,0.9,1.7,0,2.4
					C404.1,230.7,402.7,230.6,401.8,230z M406,235.6l-1.1,0.8c-0.3,0.2-0.8,0.2-1.1,0c-0.3-0.2-0.3-0.6,0-0.8l1.1-0.8
					c0.3-0.2,0.8-0.2,1.1,0C406.3,235,406.3,235.4,406,235.6z M411.4,231.7c-0.9,0.6-2.3,0.6-3.2,0c-0.9-0.7-0.9-1.7,0-2.4
					s2.3-0.6,3.2,0C412.3,230,412.2,231,411.4,231.7z"/>
				<path class="st3" d="M422,232.6l-2.6-2l-3.2-2.4l-5.3-4c-2.9-2.2-7.7-2.3-10.7-0.2l-6.5,4.7l-3.7-2.8c-0.3-0.2-0.8-0.2-1.1,0
					c-0.3,0.2-0.3,0.6,0,0.8l3.7,2.8l-6.5,4.7c-3,2.1-3,5.7-0.1,7.9l5.3,4l3.2,2.4l2.6,2c1.5,1.1,3.8,1.2,5.3,0.1l0.9-0.6
					c1.1-0.8,1.4-2,0.8-3.1l-1.5-2.8c-0.4-0.6-0.2-1.4,0.5-1.8l7.5-5.4c0.7-0.5,1.6-0.6,2.5-0.3l3.7,1.2c1.4,0.5,3.1,0.3,4.2-0.5
					l0.9-0.6C423.4,235.5,423.5,233.7,422,232.6z M420.9,235.8l-0.9,0.6c-0.7,0.5-1.6,0.6-2.5,0.3l-3.7-1.2c-1.4-0.5-3-0.3-4.2,0.5
					l-7.5,5.4c-1.1,0.8-1.4,2-0.8,3.1l1.5,2.8c0.4,0.6,0.2,1.4-0.5,1.8l-0.9,0.6c-0.9,0.6-2.3,0.6-3.2,0l-2.6-2l-3.2-2.4l-5.3-4
					c-2.3-1.8-2.3-4.6,0.1-6.3l14-10.1c2.4-1.7,6.2-1.7,8.5,0.1l5.3,4l3.2,2.4l2.6,2C421.8,234.1,421.8,235.1,420.9,235.8z"/>
				<path class="st3" d="M396.4,237c-0.3-0.2-0.8-0.2-1.1,0l-1.6,1.2l-1.6-1.2c-0.3-0.2-0.8-0.2-1.1,0c-0.3,0.2-0.3,0.6,0,0.8
					l1.6,1.2l-1.6,1.2c-0.3,0.2-0.3,0.6,0,0.8s0.8,0.2,1.1,0l1.6-1.2l1.6,1.2c0.3,0.2,0.8,0.2,1.1,0c0.3-0.2,0.3-0.6,0-0.8l-1.6-1.2
					l1.6-1.2C396.6,237.6,396.6,237.2,396.4,237z"/>
				<path class="st3" d="M405,227.6c-0.9-0.7-2.3-0.7-3.2,0c-0.9,0.6-0.9,1.7,0,2.4c0.9,0.7,2.3,0.7,3.2,0
					C405.9,229.4,405.9,228.3,405,227.6z M403.9,229.2c-0.3,0.2-0.8,0.2-1.1,0c-0.3-0.2-0.3-0.6,0-0.8s0.8-0.2,1.1,0
					C404.2,228.6,404.2,229,403.9,229.2z"/>
				<path class="st3" d="M411.4,229.3c-0.9-0.7-2.3-0.7-3.2,0s-0.9,1.7,0,2.4c0.9,0.7,2.3,0.7,3.2,0
					C412.2,231,412.3,230,411.4,229.3z M410.3,230.9c-0.3,0.2-0.8,0.2-1.1,0c-0.3-0.2-0.3-0.6,0-0.8c0.3-0.2,0.8-0.2,1.1,0
					C410.6,230.3,410.6,230.7,410.3,230.9z"/>
				<path class="st3" d="M401.7,237.1l-1.1,0.8c-0.3,0.2-0.3,0.6,0,0.8c0.3,0.2,0.8,0.2,1.1,0l1.1-0.8c0.3-0.2,0.3-0.6,0-0.8
					C402.5,236.9,402,236.9,401.7,237.1z"/>
				<path class="st3" d="M404.9,234.8l-1.1,0.8c-0.3,0.2-0.3,0.6,0,0.8c0.3,0.2,0.8,0.2,1.1,0l1.1-0.8c0.3-0.2,0.3-0.6,0-0.8
					C405.7,234.6,405.2,234.5,404.9,234.8z"/>
			</g>
			<line class="st25" x1="384.5" y1="237.9" x2="384.5" y2="241"/>
			<line class="st25" x1="404.1" y1="247.9" x2="404.1" y2="251"/>
			<line class="st25" x1="422.6" y1="234.7" x2="422.6" y2="237.6"/>
		</g>
		<g id="clavier_1_">
			<polygon class="st6" points="361.2,261.3 360.3,260.5 359.3,261.2 360.2,262 			"/>
			<polygon class="st6" points="359.1,268.6 360,269.3 365.9,265.1 365,264.3 			"/>
			<polygon class="st6" points="354.1,272.1 355.1,272.8 356.1,272.1 355.1,271.4 			"/>
			<path class="st3" d="M342.2,269.1c-0.8,0.6-0.8,1.6-0.1,2.2l12.3,9.8c0.8,0.6,2.1,0.7,2.9,0.1l20.7-14.8c0.8-0.6,0.8-1.6,0.1-2.2
				l-12.3-9.8c-0.8-0.6-2.1-0.7-2.9-0.1 M377.1,265.7l-20.7,14.8c-0.3,0.2-0.7,0.2-1,0l-12.3-9.8c-0.3-0.2-0.3-0.5,0-0.7l20.7-14.8
				c0.3-0.2,0.7-0.2,1,0l12.3,9.8C377.4,265.1,377.4,265.5,377.1,265.7z"/>
			<polygon class="st6" points="368.9,261.5 369.9,262.3 370.9,261.5 369.9,260.8 			"/>
			<polygon class="st6" points="366.1,257.8 365.2,257 364.2,257.7 365.1,258.5 			"/>
			<polygon class="st6" points="356.3,264.8 355.3,264.1 354.3,264.8 355.3,265.5 			"/>
			<path class="st6" d="M364.8,252.2c-0.3-0.2-0.7-0.2-1,0L343.2,267c-0.3,0.2-0.3,0.5,0,0.7l12.3,9.8c0.3,0.2,0.7,0.2,1,0
				l20.7-14.8c0.3-0.2,0.3-0.5,0-0.7L364.8,252.2z M362.8,257.3l2-1.4c0.3-0.2,0.7-0.2,1,0l1.9,1.5c0.3,0.2,0.3,0.5,0,0.7l-2,1.4
				c-0.3,0.2-0.7,0.2-1,0l-1.9-1.5C362.5,257.8,362.5,257.5,362.8,257.3z M357.8,260.8l2-1.4c0.3-0.2,0.7-0.2,1,0l1.9,1.5
				c0.3,0.2,0.3,0.5,0,0.7l-2,1.4c-0.3,0.2-0.7,0.2-1,0l-1.9-1.5C357.5,261.4,357.6,261,357.8,260.8z M352.9,264.4l2-1.4
				c0.3-0.2,0.7-0.2,1,0l1.9,1.5c0.3,0.2,0.3,0.5,0,0.7l-2,1.4c-0.3,0.2-0.7,0.2-1,0l-1.9-1.5C352.6,264.9,352.6,264.6,352.9,264.4z
				 M349.8,270.1l-1.9-1.5c-0.3-0.2-0.3-0.5,0-0.7l2-1.4c0.3-0.2,0.7-0.2,1,0l1.9,1.5c0.3,0.2,0.3,0.5,0,0.7l-2,1.4
				C350.5,270.4,350.1,270.3,349.8,270.1z M357.5,272.5l-2,1.4c-0.3,0.2-0.7,0.2-1,0l-1.9-1.5c-0.3-0.2-0.3-0.5,0-0.7l2-1.4
				c0.3-0.2,0.7-0.2,1,0l1.9,1.5C357.8,272,357.8,272.3,357.5,272.5z M367.4,265.5l-6.9,4.9c-0.3,0.2-0.7,0.2-1,0l-1.9-1.5
				c-0.3-0.2-0.3-0.5,0-0.7l6.9-4.9c0.3-0.2,0.7-0.2,1,0l1.9,1.5C367.7,265,367.6,265.3,367.4,265.5z M372.3,262l-2,1.4
				c-0.3,0.2-0.7,0.2-1,0l-1.9-1.5c-0.3-0.2-0.3-0.5,0-0.7l2-1.4c0.3-0.2,0.7-0.2,1,0l1.9,1.5C372.6,261.4,372.6,261.8,372.3,262z"
				/>
			<polygon class="st6" points="349.4,268.3 350.4,269.1 351.3,268.3 350.4,267.6 			"/>
			<path class="st3" d="M378.1,261.4l-12.3-9.8c-0.8-0.6-2.1-0.7-2.9-0.1l-9.4,6.7l-1.4-1.1c-0.3-0.2-0.3-0.5,0-0.7l1-0.7
				c0.8-0.6,0.8-1.6,0.1-2.2l-2.8-2.3c-0.3-0.2-0.7-0.2-1,0c-0.3,0.2-0.3,0.5,0,0.7l2.8,2.3c0.3,0.2,0.3,0.5,0,0.7l-1,0.7
				c-0.8,0.6-0.8,1.6-0.1,2.2l1.4,1.1l-10.4,7.4c-0.8,0.6-0.8,1.6-0.1,2.2l12.3,9.8c0.8,0.6,2.1,0.7,2.9,0.1l20.7-14.8
				C378.9,263,378.9,262,378.1,261.4z M377.1,262.8l-20.7,14.8c-0.3,0.2-0.7,0.2-1,0l-12.3-9.8c-0.3-0.2-0.3-0.5,0-0.7l20.7-14.8
				c0.3-0.2,0.7-0.2,1,0l12.3,9.8C377.4,262.3,377.4,262.6,377.1,262.8z"/>
			<path class="st3" d="M352.8,268l-1.9-1.5c-0.3-0.2-0.7-0.2-1,0l-2,1.4c-0.3,0.2-0.3,0.5,0,0.7l1.9,1.5c0.3,0.2,0.7,0.2,1,0l2-1.4
				C353.1,268.6,353.1,268.2,352.8,268z M350.4,269.1l-0.9-0.8l1-0.7l0.9,0.8L350.4,269.1z"/>
			<path class="st3" d="M354.8,266.6c0.3,0.2,0.7,0.2,1,0l2-1.4c0.3-0.2,0.3-0.5,0-0.7l-1.9-1.5c-0.3-0.2-0.7-0.2-1,0l-2,1.4
				c-0.3,0.2-0.3,0.5,0,0.7L354.8,266.6z M355.3,264.1l0.9,0.8l-1,0.7l-0.9-0.8L355.3,264.1z"/>
			<path class="st3" d="M359.7,263.1c0.3,0.2,0.7,0.2,1,0l2-1.4c0.3-0.2,0.3-0.5,0-0.7l-1.9-1.5c-0.3-0.2-0.7-0.2-1,0l-2,1.4
				c-0.3,0.2-0.3,0.5,0,0.7L359.7,263.1z M360.3,260.5l0.9,0.8l-1,0.7l-0.9-0.8L360.3,260.5z"/>
			<path class="st3" d="M364.6,259.6c0.3,0.2,0.7,0.2,1,0l2-1.4c0.3-0.2,0.3-0.5,0-0.7l-1.9-1.5c-0.3-0.2-0.7-0.2-1,0l-2,1.4
				c-0.3,0.2-0.3,0.5,0,0.7L364.6,259.6z M365.2,257l0.9,0.8l-1,0.7l-0.9-0.8L365.2,257z"/>
			<path class="st3" d="M355.6,270.3c-0.3-0.2-0.7-0.2-1,0l-2,1.4c-0.3,0.2-0.3,0.5,0,0.7l1.9,1.5c0.3,0.2,0.7,0.2,1,0l2-1.4
				c0.3-0.2,0.3-0.5,0-0.7L355.6,270.3z M355.1,272.8l-0.9-0.8l1-0.7l0.9,0.8L355.1,272.8z"/>
			<path class="st3" d="M365.5,263.2c-0.3-0.2-0.7-0.2-1,0l-6.9,4.9c-0.3,0.2-0.3,0.5,0,0.7l1.9,1.5c0.3,0.2,0.7,0.2,1,0l6.9-4.9
				c0.3-0.2,0.3-0.5,0-0.7L365.5,263.2z M360,269.3l-0.9-0.8l5.9-4.2l0.9,0.8L360,269.3z"/>
			<path class="st3" d="M370.4,259.7c-0.3-0.2-0.7-0.2-1,0l-2,1.4c-0.3,0.2-0.3,0.5,0,0.7l1.9,1.5c0.3,0.2,0.7,0.2,1,0l2-1.4
				c0.3-0.2,0.3-0.5,0-0.7L370.4,259.7z M369.9,262.3l-0.9-0.8l1-0.7l0.9,0.8L369.9,262.3z"/>
			<line class="st25" x1="342.1" y1="267.4" x2="342.1" y2="270.4"/>
			<line class="st25" x1="378.2" y1="262.6" x2="378.2" y2="265.4"/>
		</g>
		<g id="gameboy_2_">
			<g id="gameboy_1_">
				<path class="st6" d="M340,298.9l-20.4-15.4c-0.8-0.6-2.2-0.7-3.1,0l-14.3,10.4c-0.8,0.6-0.8,1.6,0,2.3l20.4,15.4
					c0.8,0.6,2.2,0.7,3.1,0l14.3-10.4C340.8,300.6,340.8,299.6,340,298.9z M325.7,306.3c0.3,0.2,0.3,0.6,0,0.8c-0.3,0.2-0.7,0.2-1,0
					l-1.5-1.2l-1.5,1.1c-0.3,0.2-0.7,0.2-1,0c-0.3-0.2-0.3-0.6,0-0.8l1.5-1.1l-1.5-1.2c-0.3-0.2-0.3-0.6,0-0.8c0.3-0.2,0.7-0.2,1,0
					l1.5,1.2l1.5-1.1c0.3-0.2,0.7-0.2,1,0c0.3,0.2,0.3,0.6,0,0.8l-1.5,1.1L325.7,306.3z M327.2,293.8L316,302c-0.6,0.4-1.5,0.4-2,0
					l-8.2-6.2c-0.6-0.4-0.6-1.1,0-1.5l11.2-8.1c0.6-0.4,1.5-0.4,2,0l8.2,6.2C327.8,292.8,327.8,293.4,327.2,293.8z M332.3,302.2
					c-0.6,0.4-1.5,0.4-2,0c-0.6-0.4-0.6-1.1,0-1.5c0.6-0.4,1.5-0.4,2,0C332.9,301.1,332.9,301.8,332.3,302.2z M332.3,297.7
					c-0.6,0.4-1.5,0.4-2,0c-0.6-0.4-0.6-1.1,0-1.5c0.6-0.4,1.5-0.4,2,0C332.9,296.6,332.9,297.3,332.3,297.7z"/>
				<polygon class="st6" points="306.8,295 315,301.2 326.2,293.1 318,286.9 				"/>
				<path class="st3" d="M341,298.2l-20.4-15.4c-1.4-1.1-3.7-1.1-5.1-0.1l-14.3,10.4c-1.4,1-1.4,2.7,0,3.8l20.4,15.4
					c1.4,1.1,3.7,1.1,5.1,0.1L341,302C342.4,300.9,342.4,299.2,341,298.2z M340,301.2l-14.3,10.4c-0.8,0.6-2.2,0.6-3.1,0l-20.4-15.4
					c-0.8-0.6-0.8-1.7,0-2.3l14.3-10.4c0.8-0.6,2.2-0.6,3.1,0l20.4,15.4C340.8,299.6,340.8,300.6,340,301.2z"/>
				<path class="st3" d="M319.1,286.2c-0.6-0.4-1.5-0.4-2,0l-11.2,8.1c-0.6,0.4-0.6,1.1,0,1.5l8.2,6.2c0.6,0.4,1.5,0.4,2,0l11.2-8.1
					c0.6-0.4,0.6-1.1,0-1.5L319.1,286.2z M315,301.2l-8.2-6.2l11.2-8.1l8.2,6.2L315,301.2z"/>
				<path class="st3" d="M325.7,303.2c-0.3-0.2-0.7-0.2-1,0l-1.5,1.1l-1.5-1.2c-0.3-0.2-0.7-0.2-1,0c-0.3,0.2-0.3,0.5,0,0.8l1.5,1.2
					l-1.5,1.1c-0.3,0.2-0.3,0.5,0,0.8c0.3,0.2,0.7,0.2,1,0l1.5-1.1l1.5,1.2c0.3,0.2,0.7,0.2,1,0c0.3-0.2,0.3-0.5,0-0.8l-1.5-1.2
					l1.5-1.1C326,303.8,326,303.5,325.7,303.2z"/>
				<path class="st3" d="M330.3,300.7c-0.6,0.4-0.6,1.1,0,1.5c0.6,0.4,1.5,0.4,2,0c0.6-0.4,0.6-1.1,0-1.5
					C331.8,300.3,330.9,300.3,330.3,300.7z"/>
				<path class="st3" d="M330.3,296.1c-0.6,0.4-0.6,1.1,0,1.5c0.6,0.4,1.5,0.4,2,0c0.6-0.4,0.6-1.1,0-1.5
					C331.8,295.7,330.9,295.7,330.3,296.1z"/>
			</g>
			<g id="gameboy">
				<path class="st6" d="M340,295.8l-20.4-15.4c-0.8-0.6-2.2-0.7-3.1,0l-14.3,10.4c-0.8,0.6-0.8,1.6,0,2.3l20.4,15.4
					c0.8,0.6,2.2,0.7,3.1,0l14.3-10.4C340.8,297.5,340.8,296.5,340,295.8z M325.7,303.2c0.3,0.2,0.3,0.6,0,0.8c-0.3,0.2-0.7,0.2-1,0
					l-1.5-1.2l-1.5,1.1c-0.3,0.2-0.7,0.2-1,0c-0.3-0.2-0.3-0.6,0-0.8l1.5-1.1l-1.5-1.2c-0.3-0.2-0.3-0.6,0-0.8c0.3-0.2,0.7-0.2,1,0
					l1.5,1.2l1.5-1.1c0.3-0.2,0.7-0.2,1,0c0.3,0.2,0.3,0.6,0,0.8l-1.5,1.1L325.7,303.2z M327.2,290.8l-11.2,8.1
					c-0.6,0.4-1.5,0.4-2,0l-8.2-6.2c-0.6-0.4-0.6-1.1,0-1.5l11.2-8.1c0.6-0.4,1.5-0.4,2,0l8.2,6.2
					C327.8,289.7,327.8,290.3,327.2,290.8z M332.3,299.1c-0.6,0.4-1.5,0.4-2,0c-0.6-0.4-0.6-1.1,0-1.5c0.6-0.4,1.5-0.4,2,0
					C332.9,298,332.9,298.7,332.3,299.1z M332.3,294.6c-0.6,0.4-1.5,0.4-2,0c-0.6-0.4-0.6-1.1,0-1.5c0.6-0.4,1.5-0.4,2,0
					C332.9,293.5,332.9,294.2,332.3,294.6z"/>
				<polygon class="st6" points="306.8,292 315,298.1 326.2,290 318,283.8 				"/>
				<path class="st3" d="M341,295.1l-20.4-15.4c-1.4-1.1-3.7-1.1-5.1-0.1L301.2,290c-1.4,1-1.4,2.7,0,3.8l20.4,15.4
					c1.4,1.1,3.7,1.1,5.1,0.1l14.3-10.4C342.4,297.9,342.4,296.2,341,295.1z M340,298.1l-14.3,10.4c-0.8,0.6-2.2,0.6-3.1,0
					L302.2,293c-0.8-0.6-0.8-1.7,0-2.3l14.3-10.4c0.8-0.6,2.2-0.6,3.1,0l20.4,15.4C340.8,296.5,340.8,297.5,340,298.1z"/>
				<path class="st3" d="M319.1,283.1c-0.6-0.4-1.5-0.4-2,0l-11.2,8.1c-0.6,0.4-0.6,1.1,0,1.5l8.2,6.2c0.6,0.4,1.5,0.4,2,0l11.2-8.1
					c0.6-0.4,0.6-1.1,0-1.5L319.1,283.1z M315,298.1l-8.2-6.2l11.2-8.1l8.2,6.2L315,298.1z"/>
				<path class="st3" d="M325.7,300.2c-0.3-0.2-0.7-0.2-1,0l-1.5,1.1l-1.5-1.2c-0.3-0.2-0.7-0.2-1,0c-0.3,0.2-0.3,0.5,0,0.8l1.5,1.2
					l-1.5,1.1c-0.3,0.2-0.3,0.5,0,0.8c0.3,0.2,0.7,0.2,1,0l1.5-1.1l1.5,1.2c0.3,0.2,0.7,0.2,1,0c0.3-0.2,0.3-0.5,0-0.8l-1.5-1.2
					l1.5-1.1C326,300.7,326,300.4,325.7,300.2z"/>
				<path class="st3" d="M330.3,297.6c-0.6,0.4-0.6,1.1,0,1.5c0.6,0.4,1.5,0.4,2,0c0.6-0.4,0.6-1.1,0-1.5
					C331.8,297.2,330.9,297.2,330.3,297.6z"/>
				<path class="st3" d="M330.3,293.1c-0.6,0.4-0.6,1.1,0,1.5c0.6,0.4,1.5,0.4,2,0c0.6-0.4,0.6-1.1,0-1.5
					C331.8,292.7,330.9,292.7,330.3,293.1z"/>
			</g>
			<line class="st25" x1="300.6" y1="292.1" x2="300.6" y2="295"/>
			<line class="st25" x1="341.6" y1="296.9" x2="341.6" y2="299.9"/>
		</g>
	</g>
	<path id="poteau-bas_1_" class="st22" d="M315.8,386.7v-82l7-5.7v82L315.8,386.7z M318.8,383.1l1-0.8v-1.2l-1,0.8V383.1z
		 M319.8,304.9l-1,0.8v1.2l1-0.8V304.9z M319.8,309.2l-1,0.8v1.2l1-0.8V309.2z M319.8,313.4l-1,0.8v1.2l1-0.8V313.4z M318.8,318.4
		v1.2l1-0.8v-1.2L318.8,318.4z M319.8,321.9l-1,0.8v1.2l1-0.8V321.9z M319.8,326.1l-1,0.8v1.2l1-0.8V326.1z M318.8,331.1v1.2l1-0.8
		v-1.2L318.8,331.1z M319.8,334.6l-1,0.8v1.2l1-0.8V334.6z M319.8,338.8l-1,0.8v1.2l1-0.8V338.8z M318.8,343.8v1.2l1-0.8V343
		L318.8,343.8z M319.8,347.3l-1,0.8v1.2l1-0.8V347.3z M319.8,351.5l-1,0.8v1.2l1-0.8V351.5z M318.8,356.6v1.2l1-0.8v-1.2
		L318.8,356.6z M319.8,360l-1,0.8v1.2l1-0.8V360z M319.8,364.2l-1,0.8v1.2l1-0.8V364.2z M318.8,369.3v1.2l1-0.8v-1.2L318.8,369.3z
		 M319.8,372.7l-1,0.8v1.2l1-0.8V372.7z M319.8,376.9l-1,0.8v1.2l1-0.8V376.9z"/>
	<path id="poteau-bas" class="st22" d="M309.2,381v-82l6.7,5.7v82L309.2,381z M312.1,382.3l0.9,0.8v-1.2l-0.9-0.8V382.3z
		 M313.1,305.7l-0.9-0.8v1.2l0.9,0.8V305.7z M313.1,309.9l-1-0.8v1.2l1,0.8V309.9z M313.1,314.1l-1-0.8v1.2l1,0.8V314.1z
		 M312.1,317.6v1.2l0.9,0.8v-1.2L312.1,317.6z M313.1,322.6l-1-0.8v1.2l1,0.8V322.6z M313.1,326.8l-1-0.8v1.2l1,0.8V326.8z
		 M312.1,330.3v1.2l0.9,0.8v-1.2L312.1,330.3z M313.1,335.3l-1-0.8v1.2l1,0.8V335.3z M313.1,339.6l-1-0.8v1.2l1,0.8V339.6z
		 M312.1,343v1.2l0.9,0.8v-1.2L312.1,343z M313.1,348l-1-0.8v1.2l1,0.8V348z M313.1,352.3l-1-0.8v1.2l1,0.8V352.3z M312.1,355.7v1.2
		l0.9,0.8v-1.2L312.1,355.7z M313.1,360.7l-1-0.8v1.2l1,0.8V360.7z M313.1,365l-1-0.8v1.2l1,0.8V365z M312.1,368.4v1.2l0.9,0.8v-1.2
		L312.1,368.4z M313.1,373.4l-1-0.8v1.2l1,0.8V373.4z M313.1,377.7l-1-0.8v1.2l1,0.8V377.7z"/>
</g>
</svg>
