<svg id="f3d4c9c5-9fbd-403b-8a95-38e0e19293a4" data-name="Calque 1" xmlns="http://www.w3.org/2000/svg" viewBox="0 0 408.08 357.28"><defs><style>.\38 c8eefab-64ab-4b81-82ab-96ef2a64c4aa{fill:#d0e6f2;opacity:0.54;}.\32 9cb18f8-62d6-4146-9ac0-2c0d728d2df9,.\38 c8eefab-64ab-4b81-82ab-96ef2a64c4aa,.b4d45e6d-0823-4219-ab92-dae9de621651,.c24eadc3-62d7-4a77-9598-5602e6c538e9,.f6de54b8-bf9a-4270-bf03-fbee1711aaa6,.f7b2e5df-c454-41d3-9ce0-97f55de61207{isolation:isolate;}.\32 127a55c-3621-4482-b594-96638fac7e8d,.\34 b1efdba-8135-4014-b905-2c6a37bdaa7a,.\37 d4ff5aa-5a85-4d42-92d2-d7f5486d56a9,.c24eadc3-62d7-4a77-9598-5602e6c538e9{fill:#fff;}.\30 5a8a08f-a8c0-4f65-baee-d9505502ef1d,.\31 b4dbba2-a83a-4cc6-88e6-d0a3a3190b2b,.\32 7796982-ebee-4eda-a474-0c3234cd86e7,.\34 b1efdba-8135-4014-b905-2c6a37bdaa7a,.\37 d4ff5aa-5a85-4d42-92d2-d7f5486d56a9,.a540268f-74e9-41f3-b3c1-2045fcb72ff9{stroke:#c6deec;}.\30 5a8a08f-a8c0-4f65-baee-d9505502ef1d,.\31 b4dbba2-a83a-4cc6-88e6-d0a3a3190b2b,.\32 7796982-ebee-4eda-a474-0c3234cd86e7,.\34 b1efdba-8135-4014-b905-2c6a37bdaa7a,.\37 d4ff5aa-5a85-4d42-92d2-d7f5486d56a9,.a540268f-74e9-41f3-b3c1-2045fcb72ff9,.b4d45e6d-0823-4219-ab92-dae9de621651,.c00720de-b830-4150-b12e-b6649b77076c,.d0c79dc4-fbab-4884-84eb-22706fa6d4e5,.fac71265-0ae0-40a0-970c-9575a680291d{stroke-linecap:round;}.\30 5a8a08f-a8c0-4f65-baee-d9505502ef1d,.\31 b4dbba2-a83a-4cc6-88e6-d0a3a3190b2b,.\32 7796982-ebee-4eda-a474-0c3234cd86e7,.\34 b1efdba-8135-4014-b905-2c6a37bdaa7a,.\37 d4ff5aa-5a85-4d42-92d2-d7f5486d56a9,.a540268f-74e9-41f3-b3c1-2045fcb72ff9,.b4d45e6d-0823-4219-ab92-dae9de621651,.c00720de-b830-4150-b12e-b6649b77076c,.d0c79dc4-fbab-4884-84eb-22706fa6d4e5{stroke-linejoin:round;}.a540268f-74e9-41f3-b3c1-2045fcb72ff9{fill:#eef6f9;}.d55cde18-ff55-492a-9eb6-2dab14132ea6{fill:#009ee6;}.\39 e6d2e31-deed-466a-927c-1f5b3b335a65{fill:#31bc36;}.c34edf50-67e1-4a80-92ed-1d599c5afc01{fill:#3ada4b;}.c24eadc3-62d7-4a77-9598-5602e6c538e9{font-size:15.91px;font-family:FiraSans-Medium, Fira Sans;}.b4d45e6d-0823-4219-ab92-dae9de621651,.f5ac36c2-1bef-4491-92be-49a744da2679,.f7b2e5df-c454-41d3-9ce0-97f55de61207,.fac71265-0ae0-40a0-970c-9575a680291d{fill:none;}.b4d45e6d-0823-4219-ab92-dae9de621651,.f5ac36c2-1bef-4491-92be-49a744da2679{stroke:#fff;}.\36 a276bec-6dbb-45cd-a3ee-2a4422e5a008,.f5ac36c2-1bef-4491-92be-49a744da2679,.f7b2e5df-c454-41d3-9ce0-97f55de61207,.fac71265-0ae0-40a0-970c-9575a680291d{stroke-miterlimit:10;}.\38 eabd5f2-7ce5-4730-8f38-c556634edb38{fill:#c81888;}.\31 bc42a82-a6b0-43a8-bef4-547d3f8b98d6{fill:#e30f94;}.\39 086f052-2ff6-4ab2-8729-518767ca4fb6{fill:#bd0414;}.\39 27e1355-001f-4e22-a2f4-297b2e150f34{fill:#de0b20;}.\32 7796982-ebee-4eda-a474-0c3234cd86e7,.c00720de-b830-4150-b12e-b6649b77076c{fill:#2db3eb;}.c00720de-b830-4150-b12e-b6649b77076c,.d0c79dc4-fbab-4884-84eb-22706fa6d4e5{stroke:#7bc6ea;}.\30 5a8a08f-a8c0-4f65-baee-d9505502ef1d,.\36 a276bec-6dbb-45cd-a3ee-2a4422e5a008,.d0c79dc4-fbab-4884-84eb-22706fa6d4e5{fill:#269ee5;}.\36 a276bec-6dbb-45cd-a3ee-2a4422e5a008{stroke:#c7deec;}.b4d45e6d-0823-4219-ab92-dae9de621651{stroke-width:4px;opacity:0.8;}.f7b2e5df-c454-41d3-9ce0-97f55de61207{stroke:#4bb8eb;}.f6de54b8-bf9a-4270-bf03-fbee1711aaa6,.f7b2e5df-c454-41d3-9ce0-97f55de61207{opacity:0.4;}.\32 9cb18f8-62d6-4146-9ac0-2c0d728d2df9,.f6de54b8-bf9a-4270-bf03-fbee1711aaa6{fill:#cce2ee;}.\32 9cb18f8-62d6-4146-9ac0-2c0d728d2df9{opacity:0.2;}.\31 b4dbba2-a83a-4cc6-88e6-d0a3a3190b2b,.\34 b1efdba-8135-4014-b905-2c6a37bdaa7a{stroke-width:0.75px;}.\31 b4dbba2-a83a-4cc6-88e6-d0a3a3190b2b{fill:#eff6fa;}.fac71265-0ae0-40a0-970c-9575a680291d{stroke:#009ee6;}</style></defs><title>stock-management-beezup</title><g id="0935ba65-9fcd-4084-ad5e-12a6af9404a9" data-name="manette"><g id="1b753c2c-a903-4fc0-8d19-40198c5917a1" data-name="boite3"><path class="8c8eefab-64ab-4b81-82ab-96ef2a64c4aa" d="M170.1,34.3l64.8,49.8-47.5,35.5L122.6,69.8Z" transform="translate(-15.5 -17.8)"/><path class="7d4ff5aa-5a85-4d42-92d2-d7f5486d56a9" d="M170.3,18.3l64.8,49.8-48.2,34.6L122,52.9Z" transform="translate(-15.5 -17.8)"/><path class="a540268f-74e9-41f3-b3c1-2045fcb72ff9" d="M235.1,68.1l-48.2,34.5V117l48.2-35.6Z" transform="translate(-15.5 -17.8)"/><path class="7d4ff5aa-5a85-4d42-92d2-d7f5486d56a9" d="M122,52.9l64.8,49.8V117L122,66.4Z" transform="translate(-15.5 -17.8)"/></g><g id="06e95c3b-ab99-4188-a2b1-f2a01cbc398e" data-name="manette"><path class="d55cde18-ff55-492a-9eb6-2dab14132ea6" d="M177.8,48.6l-6.5,4.7-3.7-2.8a1.08,1.08,0,0,0-1.1,0,.47.47,0,0,0,0,.8l3.7,2.8-6.5,4.7c-3,2.1-3,5.7-.1,7.9l5.3,4,3.2,2.4,2.6,2a4.67,4.67,0,0,0,5.3.1l.9-.6a2.31,2.31,0,0,0,.8-3.1l-1.5-2.8a1.25,1.25,0,0,1,.5-1.8l7.5-5.4a2.73,2.73,0,0,1,2.5-.3l3.7,1.2a4.74,4.74,0,0,0,4.2-.5l.9-.6a2.38,2.38,0,0,0,.1-4l-2.6-2-3.2-2.4-5.3-4A9.17,9.17,0,0,0,177.8,48.6Zm14.8,4.9,3.2,2.4,2.6,2a1.4,1.4,0,0,1,0,2.4l-.9.6a2.73,2.73,0,0,1-2.5.3L191.3,60a4.78,4.78,0,0,0-4.2.5l-7.5,5.4a2.31,2.31,0,0,0-.8,3.1l1.5,2.8a1.25,1.25,0,0,1-.5,1.8l-.9.6a3.07,3.07,0,0,1-3.2,0l-2.6-2-3.2-2.4-5.3-4c-2.3-1.8-2.3-4.6.1-6.3l14-10.1a7.54,7.54,0,0,1,8.5.1Z" transform="translate(-15.5 -17.8)"/><path class="d55cde18-ff55-492a-9eb6-2dab14132ea6" d="M172.8,61.6l-1.6,1.2-1.6-1.2a1.08,1.08,0,0,0-1.1,0,.47.47,0,0,0,0,.8l1.6,1.2-1.6,1.2a.47.47,0,0,0,0,.8,1.08,1.08,0,0,0,1.1,0l1.6-1.2,1.6,1.2a1.08,1.08,0,0,0,1.1,0,.47.47,0,0,0,0-.8l-1.6-1.2,1.6-1.2a.47.47,0,0,0,0-.8A1.08,1.08,0,0,0,172.8,61.6Z" transform="translate(-15.5 -17.8)"/><path class="d55cde18-ff55-492a-9eb6-2dab14132ea6" d="M182.5,52.2a2.7,2.7,0,0,0-3.2,0,1.4,1.4,0,0,0,0,2.4,2.7,2.7,0,0,0,3.2,0A1.4,1.4,0,0,0,182.5,52.2Zm-1.1,1.6a1.08,1.08,0,0,1-1.1,0,.47.47,0,0,1,0-.8,1.08,1.08,0,0,1,1.1,0A.47.47,0,0,1,181.4,53.8Z" transform="translate(-15.5 -17.8)"/><path class="d55cde18-ff55-492a-9eb6-2dab14132ea6" d="M185.7,53.8a1.4,1.4,0,0,0,0,2.4,2.7,2.7,0,0,0,3.2,0,1.4,1.4,0,0,0,0-2.4A3.07,3.07,0,0,0,185.7,53.8Zm2.1,1.7a1.08,1.08,0,0,1-1.1,0,.47.47,0,0,1,0-.8,1.08,1.08,0,0,1,1.1,0C188.1,54.9,188.1,55.2,187.8,55.5Z" transform="translate(-15.5 -17.8)"/><path class="d55cde18-ff55-492a-9eb6-2dab14132ea6" d="M179.2,61.7l-1.1.8a.47.47,0,0,0,0,.8,1.08,1.08,0,0,0,1.1,0l1.1-.8a.47.47,0,0,0,0-.8A1.08,1.08,0,0,0,179.2,61.7Z" transform="translate(-15.5 -17.8)"/><path class="d55cde18-ff55-492a-9eb6-2dab14132ea6" d="M182.4,59.3l-1.1.8a.47.47,0,0,0,0,.8,1.08,1.08,0,0,0,1.1,0l1.1-.8a.47.47,0,0,0,0-.8A1.08,1.08,0,0,0,182.4,59.3Z" transform="translate(-15.5 -17.8)"/></g><g id="3396a04d-a85a-498d-b3f7-64799fda1bf9" data-name="3"><path class="9e6d2e31-deed-466a-927c-1f5b3b335a65" d="M157.3,46.4v4L142.2,61.3V57.6Z" transform="translate(-15.5 -17.8)"/><polygon class="9e6d2e31-deed-466a-927c-1f5b3b335a65" points="126.8 39.8 110.3 26.9 110.3 29.3 110.2 31.8 111.3 31.1 126.8 43.5 126.8 39.8"/><path class="c34edf50-67e1-4a80-92ed-1d599c5afc01" d="M140.8,33.5,125.7,44.7l16.5,12.9,15.1-11.2Z" transform="translate(-15.5 -17.8)"/><text class="c24eadc3-62d7-4a77-9598-5602e6c538e9" transform="matrix(0.8, -0.6, 0.8, 0.6, 126.57, 33.89)">3</text></g><line class="f5ac36c2-1bef-4491-92be-49a744da2679" x1="110.3" y1="26.9" x2="126.8" y2="39.8"/><line class="f5ac36c2-1bef-4491-92be-49a744da2679" x1="126.8" y1="43.5" x2="126.8" y2="39.7"/><line class="f5ac36c2-1bef-4491-92be-49a744da2679" x1="141.8" y1="28.6" x2="126.8" y2="39.7"/></g><g id="517ce189-0ad9-4b84-b63b-d03bd734ee84" data-name="calvier"><g id="d95b721f-8f39-43a4-98d5-6c6117b27093" data-name="boite1"><path class="8c8eefab-64ab-4b81-82ab-96ef2a64c4aa" d="M116.5,72.6l64.8,49.8-47.5,35.5L69,108.1Z" transform="translate(-15.5 -17.8)"/><path class="7d4ff5aa-5a85-4d42-92d2-d7f5486d56a9" d="M116.8,56.6l64.8,49.8L133.4,141,68.6,91.2Z" transform="translate(-15.5 -17.8)"/><path class="a540268f-74e9-41f3-b3c1-2045fcb72ff9" d="M181.6,106.4,133.4,141v14.2l48.2-35.5Z" transform="translate(-15.5 -17.8)"/><path class="7d4ff5aa-5a85-4d42-92d2-d7f5486d56a9" d="M68.5,91.2,133.3,141v14.2L68.5,104.5Z" transform="translate(-15.5 -17.8)"/></g><g id="bf43161e-d3fd-46ce-a608-643930d34a5e" data-name="clavier"><path class="d55cde18-ff55-492a-9eb6-2dab14132ea6" d="M129.2,85.1l-9.4,6.7-1.4-1.1a.38.38,0,0,1,0-.7l1-.7a1.36,1.36,0,0,0,.1-2.2l-2.8-2.3a.91.91,0,0,0-1,0,.38.38,0,0,0,0,.7l2.8,2.3a.38.38,0,0,1,0,.7l-1,.7a1.36,1.36,0,0,0-.1,2.2l1.4,1.1-10.4,7.4a1.36,1.36,0,0,0-.1,2.2l12.3,9.8a2.56,2.56,0,0,0,2.9.1l20.7-14.8a1.36,1.36,0,0,0,.1-2.2L132,85.2A2.58,2.58,0,0,0,129.2,85.1Zm14.2,10.7a.38.38,0,0,1,0,.7l-20.7,14.8a.91.91,0,0,1-1,0l-12.3-9.8a.38.38,0,0,1,0-.7L130.1,86a.91.91,0,0,1,1,0Z" transform="translate(-15.5 -17.8)"/><path class="d55cde18-ff55-492a-9eb6-2dab14132ea6" d="M116.2,100.2l-2,1.4a.38.38,0,0,0,0,.7l1.9,1.5a.91.91,0,0,0,1,0l2-1.4a.38.38,0,0,0,0-.7l-1.9-1.5A.91.91,0,0,0,116.2,100.2Zm1.4,1.8-1,.7-.9-.8,1-.7Z" transform="translate(-15.5 -17.8)"/><path class="d55cde18-ff55-492a-9eb6-2dab14132ea6" d="M122,100.3l2-1.4a.38.38,0,0,0,0-.7l-1.9-1.5a.91.91,0,0,0-1,0l-2,1.4a.38.38,0,0,0,0,.7l1.9,1.5A.9.9,0,0,0,122,100.3Zm-1.4-1.8,1-.7.9.8-1,.7Z" transform="translate(-15.5 -17.8)"/><path class="d55cde18-ff55-492a-9eb6-2dab14132ea6" d="M126.1,93.1l-2,1.4a.38.38,0,0,0,0,.7l1.9,1.5a.91.91,0,0,0,1,0l2-1.4a.38.38,0,0,0,0-.7l-1.9-1.5A.91.91,0,0,0,126.1,93.1Zm1.4,1.9-1,.7-.9-.8,1-.7Z" transform="translate(-15.5 -17.8)"/><path class="d55cde18-ff55-492a-9eb6-2dab14132ea6" d="M131,89.6,129,91a.38.38,0,0,0,0,.7l1.9,1.5a.91.91,0,0,0,1,0l2-1.4a.38.38,0,0,0,0-.7L132,89.6A.91.91,0,0,0,131,89.6Zm1.4,1.8-1,.7-.9-.8,1-.7Z" transform="translate(-15.5 -17.8)"/><path class="d55cde18-ff55-492a-9eb6-2dab14132ea6" d="M121,103.9l-2,1.4a.38.38,0,0,0,0,.7l1.9,1.5a.91.91,0,0,0,1,0l2-1.4a.38.38,0,0,0,0-.7l-1.9-1.5A1.7,1.7,0,0,0,121,103.9Zm1.4,1.9-1,.7-.9-.8,1-.7Z" transform="translate(-15.5 -17.8)"/><path class="d55cde18-ff55-492a-9eb6-2dab14132ea6" d="M130.8,96.9l-6.9,4.9a.38.38,0,0,0,0,.7l1.9,1.5a.91.91,0,0,0,1,0l6.9-4.9a.38.38,0,0,0,0-.7l-1.9-1.5A.91.91,0,0,0,130.8,96.9Zm1.4,1.9-5.9,4.2-.9-.8,5.9-4.2Z" transform="translate(-15.5 -17.8)"/><path class="d55cde18-ff55-492a-9eb6-2dab14132ea6" d="M135.8,93.4l-2,1.4a.38.38,0,0,0,0,.7l1.9,1.5a.91.91,0,0,0,1,0l2-1.4a.38.38,0,0,0,0-.7l-1.9-1.5A.9.9,0,0,0,135.8,93.4Zm1.4,1.8-1,.7-.9-.8,1-.7Z" transform="translate(-15.5 -17.8)"/></g><g id="1038687d-3565-4ae8-ae45-8cab1e4213c1" data-name="1"><path class="8eabd5f2-7ce5-4730-8f38-c556634edb38" d="M103.8,85v3.9l-15,11V96.2Z" transform="translate(-15.5 -17.8)"/><polygon class="8eabd5f2-7ce5-4730-8f38-c556634edb38" points="73.3 82.2 73.2 78.4 56.7 65.5 56.7 66.2 56.7 66.2 56.7 70.1 57.6 69.4 73.3 82.2"/><path class="1bc42a82-a6b0-43a8-bef4-547d3f8b98d6" d="M87.3,72.1,72.2,83.3,88.7,96.2,103.8,85Z" transform="translate(-15.5 -17.8)"/><text class="c24eadc3-62d7-4a77-9598-5602e6c538e9" transform="matrix(0.8, -0.6, 0.8, 0.6, 73.24, 71.64)">1</text></g><line class="f5ac36c2-1bef-4491-92be-49a744da2679" x1="56.5" y1="65.4" x2="73.3" y2="78.5"/><line class="f5ac36c2-1bef-4491-92be-49a744da2679" x1="73.3" y1="82.2" x2="73.3" y2="78.5"/><line class="f5ac36c2-1bef-4491-92be-49a744da2679" x1="88.6" y1="67.1" x2="73.3" y2="78.5"/></g><g id="cdd2875d-1040-4977-8cdd-311258e82211" data-name="gamebay"><g id="a1fb506c-5612-4427-9284-e897269dbea7" data-name="boite5"><path class="8c8eefab-64ab-4b81-82ab-96ef2a64c4aa" d="M64,111.9l64.8,49.8L81.3,197.2,16.5,147.4Z" transform="translate(-15.5 -17.8)"/><path class="7d4ff5aa-5a85-4d42-92d2-d7f5486d56a9" d="M64.2,95.9,129,145.7,80.8,180.3,16,130.4Z" transform="translate(-15.5 -17.8)"/><path class="a540268f-74e9-41f3-b3c1-2045fcb72ff9" d="M129.1,145.6,80.8,180.2v14.1l48.3-35.5Z" transform="translate(-15.5 -17.8)"/><path class="7d4ff5aa-5a85-4d42-92d2-d7f5486d56a9" d="M16,130.4l64.8,49.8v14.1L16,144Z" transform="translate(-15.5 -17.8)"/></g><g id="1acbca02-3d6c-4554-a904-8cd9143bceda" data-name="GB"><path class="d55cde18-ff55-492a-9eb6-2dab14132ea6" d="M67.8,122,53.5,132.4a2.24,2.24,0,0,0,0,3.8l20.4,15.4a4.52,4.52,0,0,0,5.1.1l14.3-10.4a2.24,2.24,0,0,0,0-3.8L72.9,122A4.52,4.52,0,0,0,67.8,122Zm24.5,16.2a1.4,1.4,0,0,1,0,2.3L78,150.8a2.89,2.89,0,0,1-3.1,0L54.5,135.4a1.4,1.4,0,0,1,0-2.3l14.3-10.4a2.89,2.89,0,0,1,3.1,0Z" transform="translate(-15.5 -17.8)"/><path class="d55cde18-ff55-492a-9eb6-2dab14132ea6" d="M69.3,125.4l-11.2,8.1a.85.85,0,0,0,0,1.5l8.2,6.2a1.81,1.81,0,0,0,2,0l11.2-8.1a.85.85,0,0,0,0-1.5l-8.2-6.2A1.81,1.81,0,0,0,69.3,125.4Zm9.2,6.9-11.2,8.1-8.2-6.2,11.2-8.1Z" transform="translate(-15.5 -17.8)"/><path class="d55cde18-ff55-492a-9eb6-2dab14132ea6" d="M77,142.5l-1.5,1.1L74,142.4a.91.91,0,0,0-1,0c-.3.2-.3.5,0,.8l1.5,1.2L73,145.5c-.3.2-.3.5,0,.8a.76.76,0,0,0,1,0l1.5-1.1,1.5,1.2a.91.91,0,0,0,1,0c.3-.2.3-.5,0-.8l-1.5-1.2,1.5-1.1c.3-.2.3-.5,0-.8A.76.76,0,0,0,77,142.5Z" transform="translate(-15.5 -17.8)"/><path class="d55cde18-ff55-492a-9eb6-2dab14132ea6" d="M82.6,139.9a.85.85,0,0,0,0,1.5,1.81,1.81,0,0,0,2,0,.85.85,0,0,0,0-1.5A1.81,1.81,0,0,0,82.6,139.9Z" transform="translate(-15.5 -17.8)"/><path class="d55cde18-ff55-492a-9eb6-2dab14132ea6" d="M82.6,135.4a.85.85,0,0,0,0,1.5,1.81,1.81,0,0,0,2,0,.89.89,0,0,0,0-1.5A1.81,1.81,0,0,0,82.6,135.4Z" transform="translate(-15.5 -17.8)"/></g><g id="2c7b44ef-1bde-4d49-92ba-ca7340910f8a" data-name="5"><path class="9086f052-2ff6-4ab2-8729-518767ca4fb6" d="M52.3,123.6v4l-15.1,11v-3.8Z" transform="translate(-15.5 -17.8)"/><polygon class="9086f052-2ff6-4ab2-8729-518767ca4fb6" points="21.7 117 5.2 104.1 5.1 108.7 6.1 108 21.7 120.8 21.7 117"/><path class="927e1355-001f-4e22-a2f4-297b2e150f34" d="M35.7,110.7,20.6,121.9l16.5,12.9,15.1-11.2Z" transform="translate(-15.5 -17.8)"/></g><text class="c24eadc3-62d7-4a77-9598-5602e6c538e9" transform="matrix(0.8, -0.6, 0.8, 0.6, 21.69, 111.31)">5</text><line class="f5ac36c2-1bef-4491-92be-49a744da2679" x1="5" y1="104" x2="21.6" y2="116.9"/><line class="f5ac36c2-1bef-4491-92be-49a744da2679" x1="21.5" y1="120.9" x2="21.6" y2="116.9"/><line class="f5ac36c2-1bef-4491-92be-49a744da2679" x1="36.7" y1="105.7" x2="21.6" y2="116.9"/></g><g id="9f59c4da-3134-42f0-945c-80afc30b34b6" data-name="presse"><g id="b56cbe4e-c0e6-4587-8662-7fdf02ffe44b" data-name="presse"><path class="c00720de-b830-4150-b12e-b6649b77076c" d="M194,115.8l-51.9,36.8v13.7L194,129Z" transform="translate(-15.5 -17.8)"/><path class="c00720de-b830-4150-b12e-b6649b77076c" d="M134.8,147.3l7.3,5.3v13.7l-7.1-5.4Z" transform="translate(-15.5 -17.8)"/><path class="d0c79dc4-fbab-4884-84eb-22706fa6d4e5" d="M186.3,110.8l7.7,5-51.9,36.8-7.3-5.3Z" transform="translate(-15.5 -17.8)"/></g><path class="6a276bec-6dbb-45cd-a3ee-2a4422e5a008" d="M164.8,139.9a3.43,3.43,0,0,1,3.2,3.5,3.28,3.28,0,0,1-3.1,3.5,3.43,3.43,0,0,1-3.2-3.5A3.28,3.28,0,0,1,164.8,139.9Z" transform="translate(-15.5 -17.8)"/><path class="6a276bec-6dbb-45cd-a3ee-2a4422e5a008" d="M172.8,133.4a3.43,3.43,0,0,1,3.2,3.5,3.28,3.28,0,0,1-3.1,3.5,3.43,3.43,0,0,1-3.2-3.5A3.35,3.35,0,0,1,172.8,133.4Z" transform="translate(-15.5 -17.8)"/></g><g id="70779d8c-c5e8-437e-805d-0b98836d4fae" data-name="tuyau2"><g id="00fee173-02d4-4dd1-b21c-6e1fd8d97ba3" data-name="tuyau"><g id="4f2df359-1804-4de5-b5a7-df15470c9a27" data-name="2"><line class="b4d45e6d-0823-4219-ab92-dae9de621651" x1="149.6" y1="125.7" x2="208.5" y2="164.9"/><path class="f7b2e5df-c454-41d3-9ce0-97f55de61207" d="M224,184.7a2,2,0,0,1-1.1-.3L164,145.1a2,2,0,0,1,2.2-3.4l58.9,39.2a2.07,2.07,0,0,1,.6,2.8A2,2,0,0,1,224,184.7Z" transform="translate(-15.5 -17.8)"/></g><g id="918b196d-3b93-49b1-bc65-116fea50a073" data-name="1"><line class="b4d45e6d-0823-4219-ab92-dae9de621651" x1="157.6" y1="119.1" x2="216.5" y2="158.3"/><path class="f7b2e5df-c454-41d3-9ce0-97f55de61207" d="M232,178.1a2,2,0,0,1-1.1-.3L172,138.6a2,2,0,0,1,2.2-3.4l58.9,39.2a2,2,0,0,1-1.1,3.7Z" transform="translate(-15.5 -17.8)"/></g></g></g><g id="72bc9d3b-5692-422c-b536-d85acb26a023" data-name="beezup"><g id="8a61121f-2589-49fc-996f-3cc51ddbab6b" data-name="boite-beezup"><path id="8cff6155-420e-4b7b-8fb1-eb7c5524c9a7" data-name="shade" class="8c8eefab-64ab-4b81-82ab-96ef2a64c4aa" d="M249.5,141.2l64.5,49L210,266.8l-64.5-49Z" transform="translate(-15.5 -17.8)"/><path class="05a8a08f-a8c0-4f65-baee-d9505502ef1d" d="M314.8,169.6,209.9,246.2v17.3l104.9-76.6Z" transform="translate(-15.5 -17.8)"/><path class="27796982-ebee-4eda-a474-0c3234cd86e7" d="M146.1,198.1l63.7,48.1v17.3l-63.7-49.2Z" transform="translate(-15.5 -17.8)"/><path class="05a8a08f-a8c0-4f65-baee-d9505502ef1d" d="M251.1,121.5l63.7,48.1L209.9,246.2l-63.7-48.1Z" transform="translate(-15.5 -17.8)"/><path class="6a276bec-6dbb-45cd-a3ee-2a4422e5a008" d="M261.6,214.1a3.43,3.43,0,0,1,3.2,3.5,3.28,3.28,0,0,1-3.1,3.5,3.43,3.43,0,0,1-3.2-3.5A3.28,3.28,0,0,1,261.6,214.1Z" transform="translate(-15.5 -17.8)"/><path class="6a276bec-6dbb-45cd-a3ee-2a4422e5a008" d="M269.6,207.6a3.43,3.43,0,0,1,3.2,3.5,3.28,3.28,0,0,1-3.1,3.5,3.43,3.43,0,0,1-3.2-3.5A3.35,3.35,0,0,1,269.6,207.6Z" transform="translate(-15.5 -17.8)"/></g><g id="1365b4d3-26fe-449e-bd3f-13682b2783f0" data-name="logo"><path class="2127a55c-3621-4482-b594-96638fac7e8d" d="M254.7,154.7c-3.5.9-9.5,7.6-13.5,14.9s-4.3,12.6-.8,11.7c1-.2,2,.6,3.3-.4-3.4.8-3.2-5.3.2-11.7s9.1-12.5,12.6-13.4c.1,0,.3-.1.4-.1C256.6,154.8,255.9,154.4,254.7,154.7Z" transform="translate(-15.5 -17.8)"/><path class="2127a55c-3621-4482-b594-96638fac7e8d" d="M236.3,172.7c-1.4-.3-2.9-.7-4.4-1.1-10.1-2.8-17.3-6.9-16.2-9.3.9-1.9,6.8-2,14.3-.6,1.5,1.9,4.9,4.2,9.4,6.4-3-2-4.8-3.9-5.2-5.4.6.2,1.3.3,1.9.5,1.6.4,3.1.9,4.6,1.4a58.58,58.58,0,0,0-6.5-2.6,1.33,1.33,0,0,1,.3-.8c1.2-1.6,5.4-1.8,10.8-.7-7.8-2.6-14.6-3.2-15.9-1.4a1.39,1.39,0,0,0-.1,1.4c-9.4-2.3-17.7-2.2-19,.3-1.4,2.7,5.7,7.2,15.8,9.9A52.3,52.3,0,0,0,236.3,172.7Z" transform="translate(-15.5 -17.8)"/><path class="2127a55c-3621-4482-b594-96638fac7e8d" d="M214.4,213.9c1.2-2,.9-3.7-.9-5q-3.6-2.7-8.1.6l-7.3,5.4,15.6,11.6,7.1-5.3c3.3-2.4,3.3-4.8.3-7.1A6.43,6.43,0,0,0,214.4,213.9Zm3.7,5.6-4.1,3-10.6-7.9,4.2-3.1c1.1-.8,2.1-.9,2.9-.2,1.6,1.2,1.4,2.8-.6,4.9l1.9,1.4.9-.6c1.9-1.4,3.7-1.5,5.3-.3C219.4,217.6,219.4,218.6,218.1,219.5Z" transform="translate(-15.5 -17.8)"/><path class="2127a55c-3621-4482-b594-96638fac7e8d" d="M221.3,203.9c-3.8,2.8-3.8,5.6-.1,8.4,3.9,2.9,7.9,2.8,12.1-.3a25.18,25.18,0,0,0,3.6-3.1l-2.3-1.7a20.64,20.64,0,0,1-3.1,2.8c-2.5,1.9-4.5,2.2-6.1,1.1l7.5-5.6C228.9,201.6,225.1,201.1,221.3,203.9ZM228,206l-4.8,3.6c-1.5-1.3-1.5-2.5,0-3.7A3.44,3.44,0,0,1,228,206Z" transform="translate(-15.5 -17.8)"/><path class="2127a55c-3621-4482-b594-96638fac7e8d" d="M233.1,195.1c-3.8,2.8-3.8,5.6-.1,8.4,3.9,2.9,7.9,2.8,12.1-.3a25.18,25.18,0,0,0,3.6-3.1l-2.3-1.7a20.64,20.64,0,0,1-3.1,2.8c-2.5,1.9-4.5,2.2-6.1,1.1l7.5-5.6C240.8,192.8,236.9,192.3,233.1,195.1Zm6.7,2.1-4.8,3.6c-1.5-1.3-1.5-2.5,0-3.7A3.44,3.44,0,0,1,239.8,197.2Z" transform="translate(-15.5 -17.8)"/><path class="2127a55c-3621-4482-b594-96638fac7e8d" d="M242.2,191.8l5.7-4.3,1,9.6,2.2,1.6,8.8-6.6-2.2-1.6-5.6,4.2-1.1-9.5-2.3-1.7-8.8,6.6Z" transform="translate(-15.5 -17.8)"/><path class="2127a55c-3621-4482-b594-96638fac7e8d" d="M256.4,185.7l-9.5-7,2.9-2.1,9.5,7a5.76,5.76,0,0,0,7.5-.1c2.5-1.9,2.6-3.8.1-5.6l-9.5-7,2.9-2.1,9.5,7c4.2,3.1,4,6.3-.5,9.6S260.5,188.8,256.4,185.7Z" transform="translate(-15.5 -17.8)"/><path class="2127a55c-3621-4482-b594-96638fac7e8d" d="M279.2,177.9l-15.6-11.6,7.3-5.4c3-2.2,5.8-2.3,8.4-.4,3.1,2.3,2.8,5.3-.8,9l-3-1.6c2.1-2.2,2.3-3.9.8-5.1a2.42,2.42,0,0,0-3.1.1L269,166l13.1,9.7Z" transform="translate(-15.5 -17.8)"/></g></g><g id="3ed616bb-97c2-4900-9c3d-1fb4ba863912" data-name="tuyau1"><g id="3bf3aab7-0f31-4e48-94d4-5fe77db71cb0" data-name="tuyau"><g id="3d6b9bdf-acc2-4fdc-a822-322e2aedc3d5" data-name="2"><line class="b4d45e6d-0823-4219-ab92-dae9de621651" x1="246.8" y1="199.9" x2="305.7" y2="239.2"/><path class="f7b2e5df-c454-41d3-9ce0-97f55de61207" d="M321.2,259a2,2,0,0,1-1.1-.3l-58.9-39.2a2,2,0,0,1,2.2-3.4l58.9,39.2a2.07,2.07,0,0,1,.6,2.8A2,2,0,0,1,321.2,259Z" transform="translate(-15.5 -17.8)"/></g><g id="da1a3c3b-257e-4ef9-aaf0-715c90364775" data-name="1"><line class="b4d45e6d-0823-4219-ab92-dae9de621651" x1="254.8" y1="193.4" x2="313.7" y2="232.6"/><path class="f7b2e5df-c454-41d3-9ce0-97f55de61207" d="M329.2,252.4a2,2,0,0,1-1.1-.3l-58.9-39.2a2,2,0,0,1,2.2-3.4l58.9,39.2a2.07,2.07,0,0,1,.6,2.8A2,2,0,0,1,329.2,252.4Z" transform="translate(-15.5 -17.8)"/></g></g></g><g id="634d57cc-7b95-4843-ae7d-620ffcb0c12c" data-name="etagère"><path id="7c14457f-be81-48cc-bf29-f585b001d26a" data-name="shade" class="29cb18f8-62d6-4146-9ac0-2c0d728d2df9" d="M381.2,242.9,422,275.7,286.8,371.3,246,338.5Z" transform="translate(-15.5 -17.8)"/><path id="90e601c8-14da-494a-8f47-67446d92e406" data-name="bas" class="4b1efdba-8135-4014-b905-2c6a37bdaa7a" d="M381.2,216.9,422,249.7,286.8,345.3,246,312.4Z" transform="translate(-15.5 -17.8)"/><path id="e6fc7d23-537d-4dd5-810b-3b39d34c076e" data-name="shade" class="f6de54b8-bf9a-4270-bf03-fbee1711aaa6" d="M374.1,210.9l40.8,32.8L286.8,333.3l-33.1-26.5,9.5-6.8-6.8-6.2Z" transform="translate(-15.5 -17.8)"/><path id="8fb5c1e7-026e-450b-b6a5-b14a5ed94e54" data-name="cote-bas-long" class="1b4dbba2-a83a-4cc6-88e6-d0a3a3190b2b" d="M421.3,248.8,286.8,344.4l-.2,4.2,134.5-95.5Z" transform="translate(-15.5 -17.8)"/><path id="8e7062a9-c0d3-47f6-9f6e-a99bb1f5583c" data-name="cote-bas" class="4b1efdba-8135-4014-b905-2c6a37bdaa7a" d="M246.8,311.6l40.8,32.8-.2,4.2-40.8-32.7Z" transform="translate(-15.5 -17.8)"/><path id="03c87a20-c6c3-4737-a1f2-3e4db3321849" data-name="poteau-haute" class="4b1efdba-8135-4014-b905-2c6a37bdaa7a" d="M374.1,254.6v-82l7-5.7v82Zm3-3.6,1-.8V249l-1,.8Zm1-78.2-1,.8v1.2l1-.8Zm0,4.2-1,.8V179l1-.8Zm0,4.3-1,.8v1.2l1-.8Zm-1,5v1.2l1-.8v-1.2Zm1,3.4-1,.8v1.2l1-.8Zm0,4.3-1,.8V196l1-.8Zm-1,5v1.2l1-.8v-1.2Zm1,3.4-1,.8v1.2l1-.8Zm0,4.3-1,.8v1.2l1-.8Zm-1,5v1.2l1-.8v-1.2Zm1,3.5-1,.8v1.2l1-.8Zm0,4.2-1,.8v1.2l1-.8Zm-1,5v1.2l1-.8v-1.2Zm1,3.5-1,.8v1.2l1-.8Zm0,4.2-1,.8v1.2l1-.8Zm-1,5v1.2l1-.8v-1.2Zm1,3.5-1,.8v1.2l1-.8Zm0,4.2-1,.8v1.2l1-.8Z" transform="translate(-15.5 -17.8)"/><path id="d6f5b6c7-8243-4b67-ad82-8dad35948ac6" data-name="poteau-haut" class="4b1efdba-8135-4014-b905-2c6a37bdaa7a" d="M381.1,249V167l6.7,5.7v82Zm2.9,1.3.9.8v-1.2l-.9-.8Zm.9-76.6-.9-.8v1.2l.9.8Zm.1,4.2-1-.8v1.2l1,.8Zm0,4.2-1-.8v1.2l1,.8Zm-1,3.5v1.2l.9.8v-1.2Zm1,5-1-.8V191l1,.8Zm0,4.2-1-.8v1.2l1,.8Zm-1,3.5v1.2l.9.8v-1.2Zm1,5-1-.8v1.2l1,.8Zm0,4.3-1-.8V208l1,.8Zm-1,3.4v1.2l.9.8v-1.2Zm1,5-1-.8v1.2l1,.8Zm0,4.3-1-.8v1.2l1,.8Zm-1,3.4v1.2l.9.8v-1.2Zm1,5-1-.8v1.2l1,.8Zm0,4.3-1-.8v1.2l1,.8Zm-1,3.4v1.2l.9.8v-1.2Zm1,5-1-.8v1.2l1,.8Zm0,4.3-1-.8v1.2l1,.8Z" transform="translate(-15.5 -17.8)"/><path id="03b21817-5a4d-4a34-a4b1-20d404e1a3f9" data-name="haut1" class="4b1efdba-8135-4014-b905-2c6a37bdaa7a" d="M381.2,193.9,422,226.7,286.8,322.3,246,289.4Z" transform="translate(-15.5 -17.8)"/><path id="4d6ed149-7cba-4e70-8372-7a8db595dae0" data-name="haut2" class="1b4dbba2-a83a-4cc6-88e6-d0a3a3190b2b" d="M421.3,225.8,286.8,321.4l-.2,4.2,134.5-95.5Z" transform="translate(-15.5 -17.8)"/><path id="13be768b-0a49-4a9c-8fe0-7fdb093f206f" data-name="cote-haut" class="4b1efdba-8135-4014-b905-2c6a37bdaa7a" d="M246.8,288.6l40.8,32.8-.2,4.2-40.8-32.7Z" transform="translate(-15.5 -17.8)"/><path id="ede11ae7-b44f-4ca0-8754-ec999bd81b98" data-name="poteau-gauche" class="4b1efdba-8135-4014-b905-2c6a37bdaa7a" d="M246.1,339.6v-82l7-5.7v82Zm3-3.6,1-.8V334l-1,.8Zm1-78.2-1,.8v1.2l1-.8Zm0,4.2-1,.8V264l1-.8Zm0,4.3-1,.8v1.2l1-.8Zm-1,5v1.2l1-.8v-1.2Zm1,3.4-1,.8v1.2l1-.8Zm0,4.3-1,.8V281l1-.8Zm-1,5v1.2l1-.8v-1.2Zm1,3.4-1,.8v1.2l1-.8Zm0,4.3-1,.8v1.2l1-.8Zm-1,5v1.2l1-.8v-1.2Zm1,3.5-1,.8v1.2l1-.8Zm0,4.2-1,.8v1.2l1-.8Zm-1,5v1.2l1-.8v-1.2Zm1,3.5-1,.8v1.2l1-.8Zm0,4.2-1,.8v1.2l1-.8Zm-1,5v1.2l1-.8v-1.2Zm1,3.5-1,.8v1.2l1-.8Zm0,4.2-1,.8v1.2l1-.8Z" transform="translate(-15.5 -17.8)"/><path id="bbbae34c-6780-4285-b1f8-690540d00dd9" data-name="poteau-gauche" class="4b1efdba-8135-4014-b905-2c6a37bdaa7a" d="M246.2,340V258l6.7,5.7v82Zm2.9,1.3.9.8v-1.2l-.9-.8Zm1-76.6-.9-.8v1.2l.9.8Zm0,4.2-1-.8v1.2l1,.8Zm0,4.2-1-.8v1.2l1,.8Zm-1,3.5v1.2l.9.8v-1.2Zm1,5-1-.8V282l1,.8Zm0,4.2-1-.8v1.2l1,.8Zm-1,3.5v1.2l.9.8v-1.2Zm1,5-1-.8v1.2l1,.8Zm0,4.3-1-.8V299l1,.8Zm-1,3.4v1.2l.9.8v-1.2Zm1,5-1-.8v1.2l1,.8Zm0,4.3-1-.8v1.2l1,.8Zm-1,3.4v1.2l.9.8v-1.2Zm1,5-1-.8v1.2l1,.8Zm0,4.3-1-.8v1.2l1,.8Zm-1,3.4v1.2l.9.8v-1.2Zm1,5-1-.8v1.2l1,.8Zm0,4.3-1-.8v1.2l1,.8Z" transform="translate(-15.5 -17.8)"/><path id="7032d0da-e6f7-4a61-99ba-8ac59c922671" data-name="poteau-droite" class="4b1efdba-8135-4014-b905-2c6a37bdaa7a" d="M416.2,276V194l6.7,5.7v82Zm2.9,1.3.9.8v-1.2l-.9-.8Zm1-76.6-.9-.8v1.2l.9.8Zm0,4.2-1-.8v1.2l1,.8Zm0,4.2-1-.8v1.2l1,.8Zm-1,3.5v1.2l.9.8v-1.2Zm1,5-1-.8V218l1,.8Zm0,4.2-1-.8v1.2l1,.8Zm-1,3.5v1.2l.9.8v-1.2Zm1,5-1-.8v1.2l1,.8Zm0,4.3-1-.8V235l1,.8Zm-1,3.4v1.2l.9.8v-1.2Zm1,5-1-.8v1.2l1,.8Zm0,4.3-1-.8v1.2l1,.8Zm-1,3.4v1.2l.9.8v-1.2Zm1,5-1-.8v1.2l1,.8Zm0,4.3-1-.8v1.2l1,.8Zm-1,3.4v1.2l.9.8v-1.2Zm1,5-1-.8v1.2l1,.8Zm0,4.3-1-.8v1.2l1,.8Z" transform="translate(-15.5 -17.8)"/><path id="c52c606c-ace5-4012-8013-16af6cbaffd8" data-name="poteau-droite" class="4b1efdba-8135-4014-b905-2c6a37bdaa7a" d="M416.2,287.3v-82l7-5.7v82Zm3-3.6,1-.8v-1.2l-1,.8Zm1-78.1-1,.8v1.2l1-.8Zm0,4.2-1,.8v1.2l1-.8Zm0,4.2-1,.8V216l1-.8Zm-1,5.1v1.2l1-.8v-1.2Zm1,3.4-1,.8v1.2l1-.8Zm0,4.2-1,.8v1.2l1-.8Zm-1,5.1V233l1-.8V231Zm1,3.4-1,.8v1.2l1-.8Zm0,4.2-1,.8v1.2l1-.8Zm-1,5.1v1.2l1-.8v-1.2Zm1,3.4-1,.8v1.2l1-.8Zm0,4.2-1,.8v1.2l1-.8Zm-1,5.1v1.2l1-.8v-1.2Zm1,3.4-1,.8v1.2l1-.8Zm0,4.2-1,.8v1.2l1-.8Zm-1,5.1v1.2l1-.8v-1.2Zm1,3.4-1,.8v1.2l1-.8Zm0,4.2-1,.8v1.2l1-.8Z" transform="translate(-15.5 -17.8)"/><g id="8f408c5d-d64d-41d0-a37e-2deb3131d7c4" data-name="objet"><g id="14d7a432-7230-4cb5-9f18-ac83a610fff9" data-name="manette"><g id="701e1281-ecb1-440f-8f41-94c4ec7f726b" data-name="manette"><path class="d55cde18-ff55-492a-9eb6-2dab14132ea6" d="M374.3,214.9l-6.5,4.7-1.4-.9a1.08,1.08,0,0,0-1.1,0,.47.47,0,0,0,0,.8l1.4.9-6.5,4.7c-3,2.1-3,5.7-.1,7.9l5.3,4,3.2,2.4,2.6,2a4.67,4.67,0,0,0,5.3.1l.9-.6a2.31,2.31,0,0,0,.8-3.1l-1.5-2.8a1.25,1.25,0,0,1,.5-1.8l7.5-5.4a2.73,2.73,0,0,1,2.5-.3l3.7,1.2a4.74,4.74,0,0,0,4.2-.5l.9-.6a2.38,2.38,0,0,0,.1-4l-2.6-2-3.2-2.4-5.3-4A9.51,9.51,0,0,0,374.3,214.9Zm14.8,5,3.2,2.4,2.6,2a1.4,1.4,0,0,1,0,2.4l-.9.6a2.73,2.73,0,0,1-2.5.3l-3.7-1.2a4.78,4.78,0,0,0-4.2.5l-7.5,5.4a2.31,2.31,0,0,0-.8,3.1l1.5,2.8a1.25,1.25,0,0,1-.5,1.8l-.9.6a3.07,3.07,0,0,1-3.2,0l-2.6-2-3.2-2.4-5.3-4c-2.3-1.8-2.3-4.6.1-6.3l14-10.1a7.54,7.54,0,0,1,8.5.1Z" transform="translate(-15.5 -17.8)"/></g><path class="2127a55c-3621-4482-b594-96638fac7e8d" d="M376.9,216.4a.47.47,0,0,0,0,.8,1.08,1.08,0,0,0,1.1,0,.47.47,0,0,0,0-.8A1.08,1.08,0,0,0,376.9,216.4Z" transform="translate(-15.5 -17.8)"/><path class="2127a55c-3621-4482-b594-96638fac7e8d" d="M383.2,218.1a.47.47,0,0,0,0,.8,1.08,1.08,0,0,0,1.1,0,.47.47,0,0,0,0-.8A1.08,1.08,0,0,0,383.2,218.1Z" transform="translate(-15.5 -17.8)"/><path class="2127a55c-3621-4482-b594-96638fac7e8d" d="M394.9,221.4l-2.6-2-3.2-2.4-5.3-4a7.54,7.54,0,0,0-8.5-.1l-14,10.1a3.7,3.7,0,0,0-.1,6.3l5.3,4,3.2,2.4,2.6,2a2.7,2.7,0,0,0,3.2,0l.9-.6a1.27,1.27,0,0,0,.5-1.8l-1.5-2.8a2.31,2.31,0,0,1,.8-3.1l7.5-5.4a4.7,4.7,0,0,1,4.2-.5l3.7,1.2a2.73,2.73,0,0,0,2.5-.3l.9-.6A1.45,1.45,0,0,0,394.9,221.4Zm-24.6,6.8a.47.47,0,0,1,0,.8,1.08,1.08,0,0,1-1.1,0l-1.6-1.2L366,229a1.08,1.08,0,0,1-1.1,0,.47.47,0,0,1,0-.8l1.6-1.2-1.6-1.2a.47.47,0,0,1,0-.8,1.08,1.08,0,0,1,1.1,0l1.6,1.2,1.6-1.2a1.08,1.08,0,0,1,1.1,0,.47.47,0,0,1,0,.8l-1.6,1.2Zm6.4-2.3-1.1.8a1.08,1.08,0,0,1-1.1,0,.47.47,0,0,1,0-.8l1.1-.8a1.08,1.08,0,0,1,1.1,0A.47.47,0,0,1,376.7,225.9Zm-.9-7.9a1.4,1.4,0,0,1,0-2.4,3.07,3.07,0,0,1,3.2,0,1.4,1.4,0,0,1,0,2.4A2.87,2.87,0,0,1,375.8,218Zm4.2,5.6-1.1.8a1.08,1.08,0,0,1-1.1,0,.47.47,0,0,1,0-.8l1.1-.8a1.08,1.08,0,0,1,1.1,0A.47.47,0,0,1,380,223.6Zm5.4-3.9a3.07,3.07,0,0,1-3.2,0,1.4,1.4,0,0,1,0-2.4,2.87,2.87,0,0,1,3.2,0A1.45,1.45,0,0,1,385.4,219.7Z" transform="translate(-15.5 -17.8)"/><path class="d55cde18-ff55-492a-9eb6-2dab14132ea6" d="M396,220.6l-2.6-2-3.2-2.4-5.3-4a9.68,9.68,0,0,0-10.7-.2l-6.5,4.7-3.7-2.8a1.08,1.08,0,0,0-1.1,0,.47.47,0,0,0,0,.8l3.7,2.8-6.5,4.7c-3,2.1-3,5.7-.1,7.9l5.3,4,3.2,2.4,2.6,2a4.67,4.67,0,0,0,5.3.1l.9-.6a2.31,2.31,0,0,0,.8-3.1l-1.5-2.8a1.25,1.25,0,0,1,.5-1.8l7.5-5.4a2.73,2.73,0,0,1,2.5-.3l3.7,1.2a4.74,4.74,0,0,0,4.2-.5l.9-.6C397.4,223.5,397.5,221.7,396,220.6Zm-1.1,3.2-.9.6a2.73,2.73,0,0,1-2.5.3l-3.7-1.2a4.78,4.78,0,0,0-4.2.5l-7.5,5.4a2.31,2.31,0,0,0-.8,3.1l1.5,2.8a1.25,1.25,0,0,1-.5,1.8l-.9.6a3.07,3.07,0,0,1-3.2,0l-2.6-2-3.2-2.4-5.3-4c-2.3-1.8-2.3-4.6.1-6.3l14-10.1a7.54,7.54,0,0,1,8.5.1l5.3,4,3.2,2.4,2.6,2A1.37,1.37,0,0,1,394.9,223.8Z" transform="translate(-15.5 -17.8)"/><path class="d55cde18-ff55-492a-9eb6-2dab14132ea6" d="M370.4,225a1.08,1.08,0,0,0-1.1,0l-1.6,1.2-1.6-1.2a1.08,1.08,0,0,0-1.1,0,.47.47,0,0,0,0,.8l1.6,1.2-1.6,1.2a.47.47,0,0,0,0,.8,1.08,1.08,0,0,0,1.1,0l1.6-1.2,1.6,1.2a1.08,1.08,0,0,0,1.1,0,.47.47,0,0,0,0-.8l-1.6-1.2,1.6-1.2A.61.61,0,0,0,370.4,225Z" transform="translate(-15.5 -17.8)"/><path class="d55cde18-ff55-492a-9eb6-2dab14132ea6" d="M379,215.6a2.7,2.7,0,0,0-3.2,0,1.4,1.4,0,0,0,0,2.4,2.7,2.7,0,0,0,3.2,0A1.4,1.4,0,0,0,379,215.6Zm-1.1,1.6a1.08,1.08,0,0,1-1.1,0,.47.47,0,0,1,0-.8,1.08,1.08,0,0,1,1.1,0A.47.47,0,0,1,377.9,217.2Z" transform="translate(-15.5 -17.8)"/><path class="d55cde18-ff55-492a-9eb6-2dab14132ea6" d="M385.4,217.3a2.7,2.7,0,0,0-3.2,0,1.4,1.4,0,0,0,0,2.4,2.7,2.7,0,0,0,3.2,0A1.45,1.45,0,0,0,385.4,217.3Zm-1.1,1.6a1.08,1.08,0,0,1-1.1,0,.47.47,0,0,1,0-.8,1.08,1.08,0,0,1,1.1,0A.47.47,0,0,1,384.3,218.9Z" transform="translate(-15.5 -17.8)"/><path class="d55cde18-ff55-492a-9eb6-2dab14132ea6" d="M375.7,225.1l-1.1.8a.47.47,0,0,0,0,.8,1.08,1.08,0,0,0,1.1,0l1.1-.8a.47.47,0,0,0,0-.8A1.08,1.08,0,0,0,375.7,225.1Z" transform="translate(-15.5 -17.8)"/><path class="d55cde18-ff55-492a-9eb6-2dab14132ea6" d="M378.9,222.8l-1.1.8a.47.47,0,0,0,0,.8,1.08,1.08,0,0,0,1.1,0l1.1-.8a.47.47,0,0,0,0-.8A.9.9,0,0,0,378.9,222.8Z" transform="translate(-15.5 -17.8)"/><line class="fac71265-0ae0-40a0-970c-9575a680291d" x1="343" y1="208.1" x2="343" y2="211.2"/><line class="fac71265-0ae0-40a0-970c-9575a680291d" x1="362.6" y1="218.1" x2="362.6" y2="221.2"/><line class="fac71265-0ae0-40a0-970c-9575a680291d" x1="381.1" y1="204.9" x2="381.1" y2="207.8"/></g><g id="8f2d1090-d788-4511-95c2-4ff0aa643051" data-name="clavier"><polygon class="2127a55c-3621-4482-b594-96638fac7e8d" points="319.7 231.5 318.8 230.7 317.8 231.4 318.7 232.2 319.7 231.5"/><polygon class="2127a55c-3621-4482-b594-96638fac7e8d" points="317.6 238.8 318.5 239.5 324.4 235.3 323.5 234.5 317.6 238.8"/><polygon class="2127a55c-3621-4482-b594-96638fac7e8d" points="312.6 242.3 313.6 243 314.6 242.3 313.6 241.6 312.6 242.3"/><path class="d55cde18-ff55-492a-9eb6-2dab14132ea6" d="M316.2,257.1a1.36,1.36,0,0,0-.1,2.2l12.3,9.8a2.56,2.56,0,0,0,2.9.1L352,254.4a1.36,1.36,0,0,0,.1-2.2l-12.3-9.8a2.56,2.56,0,0,0-2.9-.1m14.2,11.4-20.7,14.8a.91.91,0,0,1-1,0l-12.3-9.8a.38.38,0,0,1,0-.7l20.7-14.8a.91.91,0,0,1,1,0l12.3,9.8C351.4,253.1,351.4,253.5,351.1,253.7Z" transform="translate(-15.5 -17.8)"/><polygon class="2127a55c-3621-4482-b594-96638fac7e8d" points="327.4 231.7 328.4 232.5 329.4 231.7 328.4 231 327.4 231.7"/><polygon class="2127a55c-3621-4482-b594-96638fac7e8d" points="324.6 228 323.7 227.2 322.7 227.9 323.6 228.7 324.6 228"/><polygon class="2127a55c-3621-4482-b594-96638fac7e8d" points="314.8 235 313.8 234.3 312.8 235 313.8 235.7 314.8 235"/><path class="2127a55c-3621-4482-b594-96638fac7e8d" d="M338.8,240.2a.91.91,0,0,0-1,0L317.2,255a.38.38,0,0,0,0,.7l12.3,9.8a.91.91,0,0,0,1,0l20.7-14.8a.38.38,0,0,0,0-.7Zm-2,5.1,2-1.4a.91.91,0,0,1,1,0l1.9,1.5a.38.38,0,0,1,0,.7l-2,1.4a.91.91,0,0,1-1,0l-1.9-1.5A.38.38,0,0,1,336.8,245.3Zm-5,3.5,2-1.4a.91.91,0,0,1,1,0l1.9,1.5a.38.38,0,0,1,0,.7l-2,1.4a.91.91,0,0,1-1,0l-1.9-1.5C331.5,249.4,331.6,249,331.8,248.8Zm-4.9,3.6,2-1.4a.91.91,0,0,1,1,0l1.9,1.5a.38.38,0,0,1,0,.7l-2,1.4a.91.91,0,0,1-1,0l-1.9-1.5A.38.38,0,0,1,326.9,252.4Zm-3.1,5.7-1.9-1.5a.38.38,0,0,1,0-.7l2-1.4a.91.91,0,0,1,1,0l1.9,1.5a.38.38,0,0,1,0,.7l-2,1.4A.76.76,0,0,1,323.8,258.1Zm7.7,2.4-2,1.4a.91.91,0,0,1-1,0l-1.9-1.5a.38.38,0,0,1,0-.7l2-1.4a.91.91,0,0,1,1,0l1.9,1.5A.38.38,0,0,1,331.5,260.5Zm9.9-7-6.9,4.9a.91.91,0,0,1-1,0l-1.9-1.5a.38.38,0,0,1,0-.7l6.9-4.9a.91.91,0,0,1,1,0l1.9,1.5C341.7,253,341.6,253.3,341.4,253.5Zm4.9-3.5-2,1.4a.91.91,0,0,1-1,0l-1.9-1.5a.38.38,0,0,1,0-.7l2-1.4a.91.91,0,0,1,1,0l1.9,1.5C346.6,249.4,346.6,249.8,346.3,250Z" transform="translate(-15.5 -17.8)"/><polygon class="2127a55c-3621-4482-b594-96638fac7e8d" points="307.9 238.5 308.9 239.3 309.8 238.5 308.9 237.8 307.9 238.5"/><path class="d55cde18-ff55-492a-9eb6-2dab14132ea6" d="M352.1,249.4l-12.3-9.8a2.56,2.56,0,0,0-2.9-.1l-9.4,6.7-1.4-1.1a.38.38,0,0,1,0-.7l1-.7a1.36,1.36,0,0,0,.1-2.2l-2.8-2.3a.91.91,0,0,0-1,0,.38.38,0,0,0,0,.7l2.8,2.3a.38.38,0,0,1,0,.7l-1,.7a1.36,1.36,0,0,0-.1,2.2l1.4,1.1-10.4,7.4a1.36,1.36,0,0,0-.1,2.2l12.3,9.8a2.56,2.56,0,0,0,2.9.1l20.7-14.8A1.24,1.24,0,0,0,352.1,249.4Zm-1,1.4-20.7,14.8a.91.91,0,0,1-1,0l-12.3-9.8a.38.38,0,0,1,0-.7l20.7-14.8a.91.91,0,0,1,1,0l12.3,9.8A.38.38,0,0,1,351.1,250.8Z" transform="translate(-15.5 -17.8)"/><path class="d55cde18-ff55-492a-9eb6-2dab14132ea6" d="M326.8,256l-1.9-1.5a.91.91,0,0,0-1,0l-2,1.4a.38.38,0,0,0,0,.7l1.9,1.5a.91.91,0,0,0,1,0l2-1.4C327.1,256.6,327.1,256.2,326.8,256Zm-2.4,1.1-.9-.8,1-.7.9.8Z" transform="translate(-15.5 -17.8)"/><path class="d55cde18-ff55-492a-9eb6-2dab14132ea6" d="M328.8,254.6a.91.91,0,0,0,1,0l2-1.4a.38.38,0,0,0,0-.7l-1.9-1.5a.91.91,0,0,0-1,0l-2,1.4a.38.38,0,0,0,0,.7Zm.5-2.5.9.8-1,.7-.9-.8Z" transform="translate(-15.5 -17.8)"/><path class="d55cde18-ff55-492a-9eb6-2dab14132ea6" d="M333.7,251.1a.91.91,0,0,0,1,0l2-1.4a.38.38,0,0,0,0-.7l-1.9-1.5a.91.91,0,0,0-1,0l-2,1.4a.38.38,0,0,0,0,.7Zm.6-2.6.9.8-1,.7-.9-.8Z" transform="translate(-15.5 -17.8)"/><path class="d55cde18-ff55-492a-9eb6-2dab14132ea6" d="M338.6,247.6a.91.91,0,0,0,1,0l2-1.4a.38.38,0,0,0,0-.7l-1.9-1.5a.91.91,0,0,0-1,0l-2,1.4a.38.38,0,0,0,0,.7Zm.6-2.6.9.8-1,.7-.9-.8Z" transform="translate(-15.5 -17.8)"/><path class="d55cde18-ff55-492a-9eb6-2dab14132ea6" d="M329.6,258.3a.91.91,0,0,0-1,0l-2,1.4a.38.38,0,0,0,0,.7l1.9,1.5a.91.91,0,0,0,1,0l2-1.4a.38.38,0,0,0,0-.7Zm-.5,2.5-.9-.8,1-.7.9.8Z" transform="translate(-15.5 -17.8)"/><path class="d55cde18-ff55-492a-9eb6-2dab14132ea6" d="M339.5,251.2a.91.91,0,0,0-1,0l-6.9,4.9a.38.38,0,0,0,0,.7l1.9,1.5a.91.91,0,0,0,1,0l6.9-4.9a.38.38,0,0,0,0-.7Zm-5.5,6.1-.9-.8,5.9-4.2.9.8Z" transform="translate(-15.5 -17.8)"/><path class="d55cde18-ff55-492a-9eb6-2dab14132ea6" d="M344.4,247.7a.91.91,0,0,0-1,0l-2,1.4a.38.38,0,0,0,0,.7l1.9,1.5a.91.91,0,0,0,1,0l2-1.4a.38.38,0,0,0,0-.7Zm-.5,2.6-.9-.8,1-.7.9.8Z" transform="translate(-15.5 -17.8)"/><line class="fac71265-0ae0-40a0-970c-9575a680291d" x1="300.6" y1="237.6" x2="300.6" y2="240.6"/><line class="fac71265-0ae0-40a0-970c-9575a680291d" x1="336.7" y1="232.8" x2="336.7" y2="235.6"/></g><g id="25866198-d002-4d75-aff5-0d19b342b234" data-name="gameboy"><g id="59a35fbb-c793-40ce-84f6-2b088fdaf5ef" data-name="gameboy"><path class="2127a55c-3621-4482-b594-96638fac7e8d" d="M314,286.9l-20.4-15.4a2.71,2.71,0,0,0-3.1,0l-14.3,10.4a1.4,1.4,0,0,0,0,2.3l20.4,15.4a2.71,2.71,0,0,0,3.1,0L314,289.2A1.4,1.4,0,0,0,314,286.9Zm-14.3,7.4a.47.47,0,0,1,0,.8.91.91,0,0,1-1,0l-1.5-1.2-1.5,1.1a.91.91,0,0,1-1,0,.47.47,0,0,1,0-.8l1.5-1.1-1.5-1.2a.47.47,0,0,1,0-.8.91.91,0,0,1,1,0l1.5,1.2,1.5-1.1a.91.91,0,0,1,1,0,.47.47,0,0,1,0,.8l-1.5,1.1Zm1.5-12.5L290,290a1.81,1.81,0,0,1-2,0l-8.2-6.2a.85.85,0,0,1,0-1.5l11.2-8.1a1.81,1.81,0,0,1,2,0l8.2,6.2A.77.77,0,0,1,301.2,281.8Zm5.1,8.4a1.81,1.81,0,0,1-2,0,.85.85,0,0,1,0-1.5,1.81,1.81,0,0,1,2,0A.85.85,0,0,1,306.3,290.2Zm0-4.5a1.81,1.81,0,0,1-2,0,.85.85,0,0,1,0-1.5,1.81,1.81,0,0,1,2,0A.85.85,0,0,1,306.3,285.7Z" transform="translate(-15.5 -17.8)"/><polygon class="2127a55c-3621-4482-b594-96638fac7e8d" points="265.3 265.2 273.5 271.4 284.7 263.3 276.5 257.1 265.3 265.2"/><path class="d55cde18-ff55-492a-9eb6-2dab14132ea6" d="M315,286.2l-20.4-15.4a4.52,4.52,0,0,0-5.1-.1l-14.3,10.4a2.24,2.24,0,0,0,0,3.8l20.4,15.4a4.52,4.52,0,0,0,5.1.1L315,290A2.24,2.24,0,0,0,315,286.2Zm-1,3-14.3,10.4a2.89,2.89,0,0,1-3.1,0l-20.4-15.4a1.4,1.4,0,0,1,0-2.3l14.3-10.4a2.89,2.89,0,0,1,3.1,0L314,286.9A1.4,1.4,0,0,1,314,289.2Z" transform="translate(-15.5 -17.8)"/><path class="d55cde18-ff55-492a-9eb6-2dab14132ea6" d="M293.1,274.2a1.81,1.81,0,0,0-2,0l-11.2,8.1a.85.85,0,0,0,0,1.5l8.2,6.2a1.81,1.81,0,0,0,2,0l11.2-8.1a.85.85,0,0,0,0-1.5Zm-4.1,15-8.2-6.2,11.2-8.1,8.2,6.2Z" transform="translate(-15.5 -17.8)"/><path class="d55cde18-ff55-492a-9eb6-2dab14132ea6" d="M299.7,291.2a.91.91,0,0,0-1,0l-1.5,1.1-1.5-1.2a.91.91,0,0,0-1,0c-.3.2-.3.5,0,.8l1.5,1.2-1.5,1.1c-.3.2-.3.5,0,.8a.91.91,0,0,0,1,0l1.5-1.1,1.5,1.2a.91.91,0,0,0,1,0c.3-.2.3-.5,0-.8l-1.5-1.2,1.5-1.1C300,291.8,300,291.5,299.7,291.2Z" transform="translate(-15.5 -17.8)"/><path class="d55cde18-ff55-492a-9eb6-2dab14132ea6" d="M304.3,288.7a.85.85,0,0,0,0,1.5,1.81,1.81,0,0,0,2,0,.85.85,0,0,0,0-1.5A1.81,1.81,0,0,0,304.3,288.7Z" transform="translate(-15.5 -17.8)"/><path class="d55cde18-ff55-492a-9eb6-2dab14132ea6" d="M304.3,284.1a.85.85,0,0,0,0,1.5,1.81,1.81,0,0,0,2,0,.85.85,0,0,0,0-1.5A1.81,1.81,0,0,0,304.3,284.1Z" transform="translate(-15.5 -17.8)"/></g><g id="2c52c5af-787f-4334-958c-b555528b549b" data-name="gameboy"><path class="2127a55c-3621-4482-b594-96638fac7e8d" d="M314,283.8l-20.4-15.4a2.71,2.71,0,0,0-3.1,0l-14.3,10.4a1.4,1.4,0,0,0,0,2.3l20.4,15.4a2.71,2.71,0,0,0,3.1,0L314,286.1A1.4,1.4,0,0,0,314,283.8Zm-14.3,7.4a.47.47,0,0,1,0,.8.91.91,0,0,1-1,0l-1.5-1.2-1.5,1.1a.91.91,0,0,1-1,0,.47.47,0,0,1,0-.8l1.5-1.1-1.5-1.2a.47.47,0,0,1,0-.8.91.91,0,0,1,1,0l1.5,1.2,1.5-1.1a.91.91,0,0,1,1,0,.47.47,0,0,1,0,.8l-1.5,1.1Zm1.5-12.4L290,286.9a1.81,1.81,0,0,1-2,0l-8.2-6.2a.85.85,0,0,1,0-1.5l11.2-8.1a1.81,1.81,0,0,1,2,0l8.2,6.2C301.8,277.7,301.8,278.3,301.2,278.8Zm5.1,8.3a1.81,1.81,0,0,1-2,0,.85.85,0,0,1,0-1.5,1.81,1.81,0,0,1,2,0A.85.85,0,0,1,306.3,287.1Zm0-4.5a1.81,1.81,0,0,1-2,0,.85.85,0,0,1,0-1.5,1.81,1.81,0,0,1,2,0A.85.85,0,0,1,306.3,282.6Z" transform="translate(-15.5 -17.8)"/><polygon class="2127a55c-3621-4482-b594-96638fac7e8d" points="265.3 262.2 273.5 268.3 284.7 260.2 276.5 254 265.3 262.2"/><path class="d55cde18-ff55-492a-9eb6-2dab14132ea6" d="M315,283.1l-20.4-15.4a4.52,4.52,0,0,0-5.1-.1L275.2,278a2.24,2.24,0,0,0,0,3.8l20.4,15.4a4.52,4.52,0,0,0,5.1.1L315,286.9A2.24,2.24,0,0,0,315,283.1Zm-1,3-14.3,10.4a2.89,2.89,0,0,1-3.1,0L276.2,281a1.4,1.4,0,0,1,0-2.3l14.3-10.4a2.89,2.89,0,0,1,3.1,0L314,283.7A1.5,1.5,0,0,1,314,286.1Z" transform="translate(-15.5 -17.8)"/><path class="d55cde18-ff55-492a-9eb6-2dab14132ea6" d="M293.1,271.1a1.81,1.81,0,0,0-2,0l-11.2,8.1a.85.85,0,0,0,0,1.5l8.2,6.2a1.81,1.81,0,0,0,2,0l11.2-8.1a.85.85,0,0,0,0-1.5Zm-4.1,15-8.2-6.2,11.2-8.1,8.2,6.2Z" transform="translate(-15.5 -17.8)"/><path class="d55cde18-ff55-492a-9eb6-2dab14132ea6" d="M299.7,288.2a.91.91,0,0,0-1,0l-1.5,1.1-1.5-1.2a.91.91,0,0,0-1,0c-.3.2-.3.5,0,.8l1.5,1.2-1.5,1.1c-.3.2-.3.5,0,.8a.91.91,0,0,0,1,0l1.5-1.1,1.5,1.2a.91.91,0,0,0,1,0c.3-.2.3-.5,0-.8l-1.5-1.2,1.5-1.1C300,288.7,300,288.4,299.7,288.2Z" transform="translate(-15.5 -17.8)"/><path class="d55cde18-ff55-492a-9eb6-2dab14132ea6" d="M304.3,285.6a.85.85,0,0,0,0,1.5,1.81,1.81,0,0,0,2,0,.85.85,0,0,0,0-1.5A1.81,1.81,0,0,0,304.3,285.6Z" transform="translate(-15.5 -17.8)"/><path class="d55cde18-ff55-492a-9eb6-2dab14132ea6" d="M304.3,281.1a.85.85,0,0,0,0,1.5,1.81,1.81,0,0,0,2,0,.85.85,0,0,0,0-1.5A1.81,1.81,0,0,0,304.3,281.1Z" transform="translate(-15.5 -17.8)"/></g><line class="fac71265-0ae0-40a0-970c-9575a680291d" x1="259.1" y1="262.3" x2="259.1" y2="265.2"/><line class="fac71265-0ae0-40a0-970c-9575a680291d" x1="300.1" y1="267.1" x2="300.1" y2="270.1"/></g></g><path id="2dd04b95-c9e9-4205-8274-c0a898101876" data-name="poteau-bas" class="4b1efdba-8135-4014-b905-2c6a37bdaa7a" d="M289.8,374.7v-82l7-5.7v82Zm3-3.6,1-.8v-1.2l-1,.8Zm1-78.2-1,.8v1.2l1-.8Zm0,4.3-1,.8v1.2l1-.8Zm0,4.2-1,.8v1.2l1-.8Zm-1,5v1.2l1-.8v-1.2Zm1,3.5-1,.8v1.2l1-.8Zm0,4.2-1,.8v1.2l1-.8Zm-1,5v1.2l1-.8v-1.2Zm1,3.5-1,.8v1.2l1-.8Zm0,4.2-1,.8v1.2l1-.8Zm-1,5V333l1-.8V331Zm1,3.5-1,.8v1.2l1-.8Zm0,4.2-1,.8v1.2l1-.8Zm-1,5.1v1.2l1-.8v-1.2Zm1,3.4-1,.8V350l1-.8Zm0,4.2-1,.8v1.2l1-.8Zm-1,5.1v1.2l1-.8v-1.2Zm1,3.4-1,.8v1.2l1-.8Zm0,4.2-1,.8v1.2l1-.8Z" transform="translate(-15.5 -17.8)"/><path id="62c27a20-854a-41ed-9caa-6db34e0c0539" data-name="poteau-bas" class="4b1efdba-8135-4014-b905-2c6a37bdaa7a" d="M283.2,369V287l6.7,5.7v82Zm2.9,1.3.9.8v-1.2l-.9-.8Zm1-76.6-.9-.8v1.2l.9.8Zm0,4.2-1-.8v1.2l1,.8Zm0,4.2-1-.8v1.2l1,.8Zm-1,3.5v1.2l.9.8v-1.2Zm1,5-1-.8V311l1,.8Zm0,4.2-1-.8v1.2l1,.8Zm-1,3.5v1.2l.9.8v-1.2Zm1,5-1-.8v1.2l1,.8Zm0,4.3-1-.8V328l1,.8Zm-1,3.4v1.2l.9.8v-1.2Zm1,5-1-.8v1.2l1,.8Zm0,4.3-1-.8v1.2l1,.8Zm-1,3.4v1.2l.9.8v-1.2Zm1,5-1-.8v1.2l1,.8Zm0,4.3-1-.8v1.2l1,.8Zm-1,3.4v1.2l.9.8v-1.2Zm1,5-1-.8v1.2l1,.8Zm0,4.3-1-.8v1.2l1,.8Z" transform="translate(-15.5 -17.8)"/></g></svg>