<?xml version="1.0" encoding="utf-8"?>
<!-- Generator: Adobe Illustrator 21.0.2, SVG Export Plug-In . SVG Version: 6.00 Build 0)  -->
<svg version="1.1" xmlns="http://www.w3.org/2000/svg" xmlns:xlink="http://www.w3.org/1999/xlink" x="0px" y="0px"
	 viewBox="0 0 445.5 408" style="enable-background:new 0 0 445.5 408;" xml:space="preserve">
<style type="text/css">
	.st0{fill:#FFFFFF;stroke:#E1EEF5;stroke-linejoin:round;stroke-miterlimit:10;}
	.st1{fill:#EFF6FB;stroke:#E1EEF5;stroke-linecap:round;stroke-linejoin:round;stroke-miterlimit:10;}
	.st2{fill:#FBFDFE;stroke:#E1EEF5;stroke-linecap:round;stroke-linejoin:round;stroke-miterlimit:10;}
	.st3{font-family:'FiraSans-Medium';}
	.st4{font-size:18.8901px;}
	.st5{font-size:17.6608px;}
	.st6{opacity:0.8;fill:none;stroke:#FFFFFF;stroke-width:4;stroke-linecap:round;stroke-linejoin:round;stroke-miterlimit:10;}
	.st7{opacity:0.4;fill:none;stroke:#009EE6;stroke-miterlimit:10;}
	.st8{fill:#FFCE87;}
	.st9{fill:#FFD393;}
	.st10{fill:#F4C686;}
	.st11{fill:#009AE1;}
	.st12{font-size:18.7213px;}
</style>
<g id="Information">
	<polygon class="st0" points="374.4,86.6 260.1,172.5 212,136.5 326.3,50.5 	"/>
	<polygon class="st1" points="374.2,100.7 260.1,186.3 260.1,172.5 374.2,86.9 	"/>
	<polygon class="st2" points="260.1,186.3 212,149.1 212,136.5 260.1,172.5 	"/>
	<text transform="matrix(0.8 -0.6 0.8 0.6 253.1274 151.2371)" class="st3 st4">INFORMATION</text>
	<ellipse transform="matrix(0.9625 -0.2711 0.2711 0.9625 -34.422 69.1478)" class="st2" cx="233.1" cy="159.2" rx="3.5" ry="3.8"/>
</g>
<g id="name">
	<polygon class="st0" points="430.4,127.9 316.1,213.8 268,177.8 382.3,91.9 	"/>
	<polygon class="st1" points="430.2,142.1 316.1,227.6 316.1,213.8 430.2,128.3 	"/>
	<polygon class="st2" points="316.1,227.6 268,190.4 268,177.8 316.1,213.8 	"/>
	<text transform="matrix(0.8625 -0.6628 0.8076 0.5897 332.7016 170.7353)" class="st3 st5">NAME</text>
	
		<ellipse transform="matrix(0.9625 -0.2711 0.2711 0.9625 -43.6211 85.8909)" class="st2" cx="289.1" cy="200.8" rx="3.5" ry="3.8"/>
</g>
<g id="tuyau1">
	<path id="trace" class="st6" d="M210.1,259.4l9.6-6.9c1.4-1,2.3-2.6,2.3-4.4l0.3-78.1c0-1.7,0.8-3.3,2.1-4.3l8.3-6.4"/>
	<path id="bordure" class="st7" d="M210.9,261.4c0,0-1.4,0.3-2.3-1c-0.9-1.3,0-2.3,0-2.3l10.7-7.7c0.6-0.4,1-1.1,1-1.9l-0.3-78.4
		c0-2.2,1.6-5,3.1-6.1l8.5-6.4c0,0,1.4-0.7,2.4,0.6c1,1.3,0,2.6,0,2.6l-8.5,6.3c-0.6,0.5-1.6,2.3-1.6,3l0.3,78.4c0,2-1,4-2.6,5.2
		L210.9,261.4z"/>
</g>
<g id="Calque_6">
	<polygon class="st8" points="213,204.4 198.7,216.9 198.7,200.9 213,188.4 	"/>
	<polygon class="st9" points="213,188.4 229.7,188.4 229.7,204.3 213,204.4 	"/>
	<polygon class="st8" points="229.7,188.4 244.6,201.7 244.6,216.9 229.7,204.3 	"/>
	<path class="st10" d="M198.7,216.9h16c0,0-0.4-11.1,7.5-11.1c7.9,0,8.2,11.1,8.2,11.1h14.1l-14.8-12.6l-16.8,0.1L198.7,216.9z"/>
</g>
<g id="tuyau2">
	<path id="trace_1_" class="st6" d="M155,216.9l7.2-4.3c0.8-0.5,1.7-0.7,2.7-0.7c5.4-0.1,22.4-0.4,28.6-0.7c1.3-0.1,2.4-0.7,3.3-1.6
		l11.6-11.9c0.8-0.8,2-1.3,3.1-1.3l19.5-0.7c1.1,0,2.1,0.3,2.9,1l15.3,13.7c1.1,0.9,2.5,1.4,3.9,1.4l19.6-0.7c1,0,2-0.3,2.8-0.9
		l12.8-8.8"/>
	<path id="bordure_1_" class="st7" d="M156.1,218.6c0,0-1.4,0.2-2.1-0.9s0-2.5,0-2.5l7-4.3c1-0.6,2.2-1,3.4-1l29.2-0.9
		c0.5,0,1-0.2,1.4-0.6l12.4-12.3c1-1,2.3-1.5,3.7-1.6l20.4-0.9c1.3-0.1,2.6,0.4,3.5,1.3l16.2,14.5c0.3,0.2,0.6,0.4,0.9,0.3l20.7-0.7
		c0.4,0,0.8-0.1,1.1-0.3l13.9-9.3c0,0,1.3-0.5,2.2,0.8s0,2.6,0,2.6l-13.9,9.3c-0.9,0.6-2,1-3.1,1l-20.7,0.7c-1.4,0-2.7-0.4-3.7-1.4
		l-16.2-14.5c-0.2-0.2-0.4-0.3-0.7-0.2l-20.4,0.9c-0.4,0-0.8,0.2-1.1,0.5l-12.3,12.3c-1.1,1.1-2.6,1.7-4.1,1.8l-29.2,0.9
		c-0.5,0-1,0.2-1.5,0.4L156.1,218.6z"/>
</g>
<g id="title">
	<polygon class="st0" points="179.1,232.3 64.8,318.2 16.7,282.1 131,196.2 	"/>
	<polygon class="st1" points="178.8,246.4 64.8,332 64.8,318.2 178.8,232.6 	"/>
	<polygon class="st2" points="64.8,332 16.7,294.8 16.7,282.1 64.8,318.2 	"/>
	<text transform="matrix(0.8 -0.6 0.8 0.6 89.3461 273.7075)" class="st11 st3 st12">TITLE</text>
</g>
<g id="description">
	<polygon class="st0" points="234.4,275.2 120.1,361.1 72,325.1 186.3,239.2 	"/>
	<polygon class="st1" points="234.2,289.3 120.1,374.9 120.1,361.1 234.2,275.6 	"/>
	<polygon class="st2" points="120.1,374.9 72,337.7 72,325.1 120.1,361.1 	"/>
	<text transform="matrix(0.8 -0.6 0.8 0.6 112.7091 336.0705)" class="st11 st3 st12">DESCRIPTION</text>
</g>
</svg>
