<svg xmlns="http://www.w3.org/2000/svg" viewBox="0 0 62 69">
    <path class="st0" d="M47.4 19.1c-.3-.7-.7-1.4-1.1-2L45 15.8c-.5-.5-1.1-.8-1.8-.8s-1.3.2-1.7.7l-4.8 4.8c-1 1-.9 2.5.1 3.5l2.4 2.4-.3.5c-.8 1.5-2 3.6-4.2 5.8-2.2 2.2-4.3 3.4-5.8 4.2l-.5.3-2.4-2.4c-1-1-2.6-1-3.5-.1l-4.8 4.8c-.9 1-.9 2.5.1 3.5l1.1 1.1.3.3c.6.5 1.2.8 2 1.1.7.3 1.3.4 2 .5h.5c1.8 0 8.3-.6 16-8.3 6.5-6.5 8.9-11.3 8.3-16.6-.2-.6-.3-1.3-.6-2zm-9.2 17.2C30 44.5 23.6 44 23.3 44c-.5-.1-1-.2-1.5-.4s-1-.5-1.4-.8l-1.2-1.2c-.2-.2-.2-.6-.1-.7l4.8-4.8c.2-.2.5-.2.7.1l3.5 3.5 1.8-1c1.5-.8 3.8-2.1 6.2-4.5 2.4-2.4 3.7-4.7 4.5-6.2l.1-.2.9-1.6-3.5-3.5c-.2-.2-.2-.5-.1-.7l4.8-4.8c.1-.1.2-.1.3-.1.1 0 .2 0 .4.2l1 1 .2.3c.3.4.6.9.8 1.4.2.5.3 1 .4 1.5.6 4.4-1.7 8.7-7.7 14.8zM22.2 5.7c.3-.2.4-.7.2-.9-.2-.3-.6-.3-.9-.1-.3.2-.4.7-.2.9.2.3.6.3.9.1zM23.8 15.9c.3-.2.4-.7.1-.9-.2-.3-.6-.3-.9-.1-.3.2-.4.7-.1.9.2.3.6.3.9.1zM17.8 12.3c-.4-.6-1.3-.6-1.9-.1-.6.5-.7 1.3-.3 1.9.4.6 1.3.6 1.9.1.6-.5.8-1.3.3-1.9zM29.8 18.1c.3-.2.4-.7.2-.9-.2-.3-.6-.3-.9-.1-.3.2-.4.7-.2.9.2.3.6.3.9.1zM12.2 6.7c.3-.2.4-.7.1-.9-.2-.3-.6-.3-.9-.1-.3.2-.4.7-.1.9.2.3.6.3.9.1zM17.5 21.3c.4.6 1.3.6 1.9.1.6-.5.7-1.3.3-1.9-.4-.6-1.3-.6-1.9-.1-.6.6-.7 1.4-.3 1.9zM11.4 14.8c-.3.2-.4.7-.2.9.2.3.6.3.9.1.3-.2.4-.7.2-.9-.1-.3-.6-.3-.9-.1zM40.6 47.8c-.6.5-.7 1.3-.3 1.9.4.6 1.3.6 1.9.1.6-.5.7-1.3.3-1.9-.5-.5-1.3-.6-1.9-.1zM34.7 47.8c-.3.2-.4.7-.1.9.2.3.6.3.9.1.3-.2.4-.7.1-.9-.2-.3-.6-.3-.9-.1zM49.2 49.6c-.3.2-.4.7-.1.9.2.3.6.3.9.1.3-.2.4-.7.1-.9-.1-.3-.6-.3-.9-.1zM29.8 51.2c-.3.2-.4.7-.1.9.2.3.6.3.9.1.3-.2.4-.7.1-.9-.2-.3-.6-.3-.9-.1zM54.9 58.6c-.2-.3-.6-.3-.9-.1-.3.2-.4.7-.1.9.2.3.6.3.9.1.2-.2.3-.6.1-.9zM41.5 57.5c-.3.2-.4.7-.1.9.2.3.6.3.9.1.3-.2.4-.7.1-.9-.2-.3-.6-.3-.9-.1z" />
</svg>