<svg id="Calque_1" data-name="Calque 1" xmlns="http://www.w3.org/2000/svg" viewBox="0 0 175.42 137.71">
  <defs>
    <style>
      .cls-1, .cls-5 {
        fill: #009ee6;
      }

      .cls-1 {
        opacity: 0.12;
      }

      .cls-2 {
        fill: #fcfefe;
      }

      .cls-2, .cls-3, .cls-4 {
        stroke: #c6ddeb;
        stroke-linejoin: round;
      }

      .cls-3 {
        fill: #eef6fb;
      }

      .cls-4 {
        fill: #fff;
      }
    </style>
  </defs>
  <title>404</title>
  <polygon id="ombre" class="cls-1" points="175.42 74 117.04 137.71 2.39 79.04 61.1 13.49 175.42 74"/>
  <g id="devant">
    <polygon class="cls-2" points="172.43 57.59 113.22 122.23 115.18 132.25 174.46 67.84 172.43 57.59"/>
    <polygon class="cls-3" points="0.5 65.01 2.42 75.02 115.18 132.25 113.22 122.23 0.5 65.01"/>
  </g>
  <polygon id="dessus" class="cls-4" points="172.43 57.59 113.22 122.23 0.5 65.01 59.98 0.5 172.43 57.59"/>
  <g>
    <path class="cls-5" d="M670.74,656l-4.5,4.82-6.78-3.56,4.45-4.84-12.55-6.59,3.23-3.47,22.08-10.15L681,637l-18.87,8.75,5.46,2.86,5.68-4.89,6,3.14-4.93,5.28,3.35,1.76-3.63,3.89Z" transform="translate(-604.23 -597.5)"/>
    <path class="cls-5" d="M705,664.6c-7,7.46-14.83,9.63-22.14,5.79s-7.29-10.13-.32-17.59,14.81-9.6,22.12-5.76S712,657.11,705,664.6Zm-15.33-8c-5.52,5.91-6.12,8.45-3.21,10s5.76.37,11.4-5.67,6-8.44,3.18-9.95S695.22,650.65,689.7,656.56Z" transform="translate(-604.23 -597.5)"/>
    <path class="cls-5" d="M721.37,682.59l-4.5,4.82-6.78-3.56,4.45-4.84L702,672.41l3.23-3.47,22.08-10.15,4.36,4.75-18.86,8.75,5.46,2.86,5.68-4.89,6,3.15L725,678.69l3.35,1.76-3.63,3.89Z" transform="translate(-604.23 -597.5)"/>
  </g>
</svg>
