<svg xmlns="http://www.w3.org/2000/svg" viewBox="0 0 43 32">
  <path fill="#e6006c" d="M41.775 14.507L27.809.759c-.357-.478-.922-.784-1.557-.784s-1.2.306-1.554.779c-.485.353-.794.913-.794 1.546s.309 1.192.785 1.537L34.84 13.939H2.191c-.018-.001-.04-.001-.062-.001-.583 0-1.111.236-1.493.617-.403.38-.654.917-.654 1.513v.014c0 1.199.972 2.171 2.171 2.171h32.688L24.696 28.256c-.489.363-.803.939-.803 1.588s.314 1.225.798 1.584c.431.358.984.573 1.587.573h.026c.018.001.04.001.062.001.559 0 1.067-.217 1.445-.571l13.965-13.747c.489-.363.803-.939.803-1.588s-.314-1.225-.798-1.584l-.005-.004z"/>
</svg>