<svg xmlns="http://www.w3.org/2000/svg" viewBox="0 0 26.31 21.97"><path fill="#fff" d="M17.71 6.41a1.516 1.516 0 1 0 2.04.66 1.51 1.51 0 0 0-2.04-.66zm-2.19 6.79a1.522 1.522 0 0 0-.65 2.04 1.51 1.51 0 1 0 .65-2.04zM3.81 14.66a.505.505 0 1 0 .68.22.5.5 0 0 0-.68-.22zm18.08 4.36a.51.51 0 0 0-.22.68.505.505 0 0 0 .9-.46.51.51 0 0 0-.68-.22zM21.26.06a.505.505 0 0 0 .46.9.505.505 0 1 0-.46-.9zm2.84 14.43a1.516 1.516 0 1 0 2.04.66 1.52 1.52 0 0 0-2.04-.66zM.27 21.01a.5.5 0 0 0-.22.68.505.505 0 0 0 .9-.46.5.5 0 0 0-.68-.22z"/></svg>