<svg xmlns="http://www.w3.org/2000/svg" width="20.78" height="34.47">
  <path fill='#e6016c' id="puce-alt-rose.svg" d="M6.22 26.03a1.7 1.7 0 1 1 2.23.88 1.687 1.687 0 0 1-2.23-.88zm2.94-7.48a1.718 1.718 0 0 1 .88-2.25 1.7 1.7 0 1 1-.88 2.25zM.05 8.88a.573.573 0 0 1 .3-.75.562.562 0 0 1 .74.3.553.553 0 0 1-.29.74.564.564 0 0 1-.75-.29zm18.77 9.18a.564.564 0 1 1 .74.29.55.55 0 0 1-.74-.29zM4.77 34.1a.567.567 0 1 1 1.04-.45.565.565 0 0 1-.3.74.553.553 0 0 1-.74-.29zM17.5 23.59a1.7 1.7 0 1 1 2.23.88 1.687 1.687 0 0 1-2.23-.88zM1.5.81a.573.573 0 0 1 .3-.75.567.567 0 0 1 .45 1.04.572.572 0 0 1-.75-.29z" class="cls-1"/>
</svg>