<?xml version="1.0" encoding="utf-8"?>
<!-- Generator: Adobe Illustrator 21.1.0, SVG Export Plug-In . SVG Version: 6.00 Build 0)  -->
<!DOCTYPE svg PUBLIC "-//W3C//DTD SVG 1.1//EN" "http://www.w3.org/Graphics/SVG/1.1/DTD/svg11.dtd">
<svg version="1.1" id="Calque_1" xmlns="http://www.w3.org/2000/svg" xmlns:xlink="http://www.w3.org/1999/xlink" x="0px" y="0px"
	 viewBox="0 0 13 5" style="enable-background:new 0 0 13 5;" xml:space="preserve">
<style type="text/css">
	.st0{fill:#FFFFFF;}
</style>
<path class="st0" d="M12,1c0.6,0,1,0.4,1,1s-0.4,1-1,1s-1-0.4-1-1S11.4,1,12,1z M3,3c0.6,0,1,0.4,1,1S3.6,5,3,5S2,4.6,2,4S2.4,3,3,3
	z M0.5,0C0.8,0,1,0.2,1,0.5S0.8,1,0.5,1S0,0.8,0,0.5S0.2,0,0.5,0z"/>
</svg>
