<?xml version="1.0" encoding="utf-8"?>
<!-- Generator: Adobe Illustrator 23.0.6, SVG Export Plug-In . SVG Version: 6.00 Build 0)  -->
<svg version="1.1" id="Calque_1" xmlns="http://www.w3.org/2000/svg" xmlns:xlink="http://www.w3.org/1999/xlink" x="0px" y="0px"
	 viewBox="0 0 684.2 422.4" style="enable-background:new 0 0 684.2 422.4;" xml:space="preserve">
<style type="text/css">
	.st0{fill:none;}
	.st1{display:none;}
	.st2{display:inline;fill:#009EE6;}
	.st3{font-family:'FiraSans-Bold';}
	.st4{font-size:50px;}
	.st5{opacity:0.12;fill:#009EE6;}
	.st6{fill:#FCFEFE;stroke:#C6DDEB;stroke-linejoin:round;stroke-miterlimit:10;}
	.st7{fill:#EEF6FB;stroke:#C6DDEB;stroke-linejoin:round;stroke-miterlimit:10;}
	.st8{fill:#FFFFFF;stroke:#C6DDEB;stroke-linejoin:round;stroke-miterlimit:10;}
	.st9{fill:#DE0C20;}
	.st10{fill:#BE091A;}
	.st11{fill:#BE091A;stroke:#FFFFFF;stroke-width:0.75;stroke-miterlimit:10;}
	.st12{fill:none;stroke:#FFFFFF;stroke-miterlimit:10;}
	.st13{fill:#009EE6;}
	.st14{fill:#FFFFFF;}
</style>
<polygon class="st0" points="267.7,355.9 67.4,250.7 155.6,156.3 355.9,261.5 "/>
<text transform="matrix(0.9746 0.5118 -0.6824 0.7309 140.8438 188.0149)" class="st1"><tspan x="0" y="0" class="st2 st3 st4">MARKET</tspan><tspan x="8.1" y="44" class="st2 st3 st4">PLACES</tspan></text>
<g>
	<polygon id="ombre_1_" class="st5" points="684.2,226.8 546.9,369.1 247,217 384.9,74.9 	"/>
	<g id="devant_2_">
		<polygon class="st6" points="674.2,171.8 536.3,315.8 540.1,339.2 678.1,195.7 		"/>
		<polygon class="st7" points="236.5,163.4 240.2,186.8 540.1,338.9 536.3,315.5 		"/>
	</g>
	<polygon id="face_1_" class="st8" points="674.2,171.8 537.1,315.8 237.2,163.7 374.9,19.9 	"/>
	<polygon id="dessus_1_" class="st9" points="441.5,37.5 403.6,78 354.7,52.9 392.2,12.6 	"/>
	<g id="devant_1_">
		<polygon class="st10" points="441.5,37.5 403.6,78 404.4,85.4 436.7,50.7 444.9,54.8 		"/>
		<polygon class="st11" points="354.7,52.9 355.4,60.3 404.4,85.4 403.6,78 		"/>
	</g>
	<line id="line_2_" class="st12" x1="441.5" y1="37.5" x2="403.4" y2="78.1"/>
	<g>
		<path class="st13" d="M379.1,106.2c-6.2,6.6-14.5,8.2-22.1,4.2c-7.6-4-8.5-10.3-2.2-17c6.2-6.6,14.5-8.2,22.1-4.2
			C384.5,93.2,385.4,99.4,379.1,106.2z M361.5,96.9c-4.8,5.1-4.7,8.2-1.2,10c3.7,1.9,7.4,0.9,12.2-4.2c4.8-5.1,4.8-8.1,1.1-10
			C370,90.8,366.2,91.8,361.5,96.9z"/>
		<path class="st13" d="M386.1,125l6.9-19.8c-1.4,2-3.4,5-6.9,8.7l-6.9,7.4l-5.7-3l18.9-20.3l8,4.2l-6.7,19.9c1.2-1.8,3.2-4.7,6.2-8
			l7.6-8.2l5.7,3l-18.9,20.3L386.1,125z"/>
		<path class="st13" d="M425.3,136.8c-4.3,4.6-10.5,3.3-17.3-0.3l-8.7-4.6l18.9-20.3l7.6,4c7.3,3.8,10.4,7.5,6.9,11.3
			c-2.4,2.6-6.1,2.6-9,1.8C426.3,130.8,428.4,133.5,425.3,136.8z M419,133c1.9-2,0.7-3.8-2.1-5.3l-2.8-1.5l-5.1,5.5l2.3,1.2
			C414.3,134.6,416.9,135.3,419,133z M417.1,123.1l2.4,1.2c2.7,1.4,4.8,1.4,6.3-0.3c1.6-1.7,0.6-3-2.5-4.6l-1.9-1L417.1,123.1z"/>
		<path class="st13" d="M456,146.5c-6.2,6.6-14.5,8.2-22.1,4.2c-7.6-4-8.5-10.3-2.2-17c6.2-6.6,14.5-8.2,22.1-4.2
			C461.3,133.5,462.3,139.8,456,146.5z M438.3,137.3c-4.8,5.1-4.7,8.2-1.2,10c3.7,1.9,7.4,0.9,12.2-4.2c4.8-5.1,4.8-8.1,1.1-10
			C446.8,131.1,443.1,132.1,438.3,137.3z"/>
		<path class="st13" d="M458.2,156.3l-5.4,3.6l-6.6-3.5l27.1-16l7.8,4.1l-10.8,24.5l-6.8-3.6l2.7-5.1L458.2,156.3z M473.7,146
			l-11.2,7.5l5.7,3L473.7,146z"/>
		<path class="st13" d="M485.8,165.8l-7.2,7.7l-6.4-3.4l18.9-20.3l8.8,4.6c7.3,3.8,9.3,7.8,5.4,12c-2.5,2.7-5.7,3.4-10.3,2.7
			l-1.2,12.2l-7.2-3.8l1.7-10.7L485.8,165.8z M491.5,163.9c2.8,1.5,5.1,1.3,7.1-0.8c1.8-2,1.1-3.6-2.1-5.3l-2.3-1.2l-5.5,5.8
			L491.5,163.9z"/>
		<path class="st13" d="M527.3,183.9c-7.6,8.2-16.1,6.8-23,3.2l-8.1-4.3l18.9-20.3l7.5,4C529.8,170.3,535.1,175.5,527.3,183.9z
			 M505.8,182.7l2.1,1.1c3.9,2,7.7,2,12.7-3.4c5.1-5.4,3.3-8-0.4-10l-2-1.1L505.8,182.7z"/>
		<path class="st13" d="M521.6,196.1l18.9-20.3l6.4,3.4L528,199.5L521.6,196.1z"/>
		<path class="st13" d="M545.7,208.8l6.9-19.8c-1.4,2-3.4,5-6.9,8.7l-6.9,7.4l-5.7-3l18.9-20.3l8,4.2l-6.7,19.9
			c1.2-1.8,3.2-4.7,6.2-8l7.6-8.2l5.7,3l-18.9,20.3L545.7,208.8z"/>
		<path class="st13" d="M596.6,208.3l-5.7,0.9c-0.7-2-1.7-3.3-3.9-4.5c-3.8-2-8.6-1.4-13.2,3.7c-5,5.3-4.8,8.1-1,10.1
			c1.3,0.7,2.7,1.1,4.3,1.3l4.3-4.6l-3.5-1.8l2.5-3.7l10.3,5.4l-9.4,10c-4-0.1-8.3-1.2-11.8-3c-8.1-4.3-8.8-10.2-2.3-17.1
			c6.4-6.9,15.6-7.6,22.8-3.8C593.8,203.1,595.8,205.7,596.6,208.3z"/>
		<path class="st13" d="M360.2,139.5c-6.2,6.6-15.2,6.4-24,1.8l-4.1-2.1l-8.8,9.5l-9-4.7l26.5-28.4L353,122
			C362.8,127.1,366,133.3,360.2,139.5z M350.9,134.7c2.8-3,1.9-5.6-2.5-8l-3.2-1.7l-8.7,9.3l3.3,1.7
			C344,138.2,347.6,138.2,350.9,134.7z"/>
		<path class="st13" d="M366.1,155L356,165.8l-9-4.7l26.5-28.4l12.4,6.5c10.3,5.4,13,10.9,7.5,16.8c-3.5,3.7-7.9,4.7-14.4,3.8
			l-1.7,17.1l-10.1-5.3l2.4-14.9L366.1,155z M374.2,152.3c3.9,2.1,7.2,1.9,10-1.1c2.6-2.7,1.5-5-2.9-7.4l-3.2-1.7l-7.6,8.2
			L374.2,152.3z"/>
		<path class="st13" d="M411.7,159.9l-6.3,6.8l11.6,6.1l-4.4,4.7l-11.6-6.1l-6.8,7.2l14.2,7.5l-4.5,4.8l-23.2-12.2l26.5-28.4
			l23.2,12.2l-5.4,4.3L411.7,159.9z"/>
		<path class="st13" d="M438.2,209l9.7-11.4c3.4-4.1,7.1-8.3,10.7-11.6l-24.2,16.6l-8.5-4.4l12.2-23c-3.5,4.4-6.8,7.9-10.7,11.8
			l-10.9,10.7l-8.7-4.6l29.3-26.9l11.3,5.9L436,194.2l23.3-16.5l11.4,6L447,213.6L438.2,209z"/>
		<path class="st13" d="M452.7,216.6l26.5-28.4l9,4.7l-26.5,28.4L452.7,216.6z"/>
		<path class="st13" d="M482.3,233.2c-9.9-5.2-10.9-11.9-5.3-17.8l17.7-19l9,4.7l-17.4,18.7c-3.4,3.6-3.3,6.3,0.7,8.4
			c4.1,2.1,7.5,1.3,10.9-2.3l17.4-18.7l9,4.7l-17.7,19C501.2,236.6,492.2,238.4,482.3,233.2z"/>
		<path class="st13" d="M532.8,258.6l9.7-11.4c3.4-4.1,7.1-8.3,10.7-11.6L529,252.2l-8.5-4.4l12.2-23c-3.5,4.4-6.8,7.9-10.7,11.8
			L511,247.2l-8.7-4.6l29.3-26.9l11.3,5.9l-12.3,22.2l23.3-16.5l11.4,6l-23.6,29.9L532.8,258.6z"/>
	</g>
</g>
<polygon id="ombre" class="st5" points="454,280.1 316.7,422.4 16.8,270.3 154.7,128.3 "/>
<g id="devant_5_">
	<polygon class="st6" points="444,225.1 306.1,369.1 309.9,392.5 447.9,249 	"/>
	<polygon class="st7" points="6.3,216.7 10,240.1 309.9,392.2 306.1,368.8 	"/>
</g>
<polygon id="face_2_" class="st8" points="444,225.1 306.9,369.1 7,217 144.7,73.3 "/>
<g>
	<path class="st13" d="M148.9,159.5c-6.2,6.6-14.5,8.2-22.1,4.2c-7.6-4-8.5-10.3-2.2-17c6.2-6.6,14.5-8.2,22.1-4.2
		C154.3,146.5,155.2,152.8,148.9,159.5z M131.3,150.2c-4.8,5.1-4.7,8.2-1.2,10c3.7,1.9,7.4,0.9,12.2-4.2c4.8-5.1,4.8-8.1,1.1-10
		C139.8,144.1,136,145.1,131.3,150.2z"/>
	<path class="st13" d="M155.9,178.3l6.9-19.8c-1.4,2-3.4,5-6.9,8.7l-6.9,7.4l-5.7-3l18.9-20.3l8,4.2l-6.7,19.9
		c1.2-1.8,3.2-4.7,6.2-8l7.6-8.2l5.7,3l-18.9,20.3L155.9,178.3z"/>
	<path class="st13" d="M195.1,190.1c-4.3,4.6-10.5,3.3-17.3-0.3l-8.7-4.6L188,165l7.6,4c7.3,3.8,10.4,7.5,6.9,11.3
		c-2.4,2.6-6.1,2.6-9,1.8C196.1,184.1,198.2,186.8,195.1,190.1z M188.8,186.3c1.9-2,0.7-3.8-2.1-5.3l-2.8-1.5l-5.1,5.5l2.3,1.2
		C184.1,187.9,186.7,188.6,188.8,186.3z M186.9,176.4l2.4,1.2c2.7,1.4,4.8,1.4,6.3-0.3c1.6-1.7,0.6-3-2.5-4.6l-1.9-1L186.9,176.4z"
		/>
	<path class="st13" d="M225.8,199.9c-6.2,6.6-14.5,8.2-22.1,4.2c-7.6-4-8.5-10.3-2.2-17c6.2-6.6,14.5-8.2,22.1-4.2
		C231.1,186.8,232.1,193.1,225.8,199.9z M208.1,190.6c-4.8,5.1-4.7,8.2-1.2,10c3.7,1.9,7.4,0.9,12.2-4.2c4.8-5.1,4.8-8.1,1.1-10
		C216.6,184.5,212.9,185.5,208.1,190.6z"/>
	<path class="st13" d="M228,209.6l-5.4,3.6l-6.6-3.5l27.1-16l7.8,4.1L240,222.4l-6.8-3.6l2.7-5.1L228,209.6z M243.5,199.3l-11.2,7.5
		l5.7,3L243.5,199.3z"/>
	<path class="st13" d="M255.6,219.1l-7.2,7.7l-6.4-3.4l18.9-20.3l8.8,4.6c7.3,3.8,9.3,7.8,5.4,12c-2.5,2.7-5.7,3.4-10.3,2.7
		l-1.2,12.2l-7.2-3.8l1.7-10.7L255.6,219.1z M261.3,217.2c2.8,1.5,5.1,1.3,7.1-0.8c1.8-2,1.1-3.6-2.1-5.3l-2.3-1.2l-5.5,5.8
		L261.3,217.2z"/>
	<path class="st13" d="M297.1,237.2c-7.6,8.2-16.1,6.8-23,3.2l-8.1-4.3l18.9-20.3l7.5,4C299.6,223.6,304.9,228.8,297.1,237.2z
		 M275.6,236l2.1,1.1c3.9,2,7.7,2,12.7-3.4c5.1-5.4,3.3-8-0.4-10l-2-1.1L275.6,236z"/>
	<path class="st13" d="M291.4,249.4l18.9-20.3l6.4,3.4l-18.9,20.3L291.4,249.4z"/>
	<path class="st13" d="M315.5,262.1l6.9-19.8c-1.4,2-3.4,5-6.9,8.7l-6.9,7.4l-5.7-3l18.9-20.3l8,4.2l-6.7,19.9
		c1.2-1.8,3.2-4.7,6.2-8l7.6-8.2l5.7,3l-18.9,20.3L315.5,262.1z"/>
	<path class="st13" d="M366.4,261.6l-5.7,0.9c-0.7-2-1.7-3.3-3.9-4.5c-3.8-2-8.6-1.4-13.2,3.7c-5,5.3-4.8,8.1-1,10.1
		c1.3,0.7,2.7,1.1,4.3,1.3l4.3-4.6l-3.5-1.8l2.5-3.7l10.3,5.4l-9.4,10c-4-0.1-8.3-1.2-11.8-3c-8.1-4.3-8.8-10.2-2.3-17.1
		c6.4-6.9,15.6-7.6,22.8-3.8C363.6,256.4,365.6,259,366.4,261.6z"/>
	<path class="st13" d="M136.6,185.4l-6.4,1.2c-0.9-2.5-2.5-4.3-5.1-5.6c-2.6-1.4-5-1.4-6.4,0.1c-1.4,1.5-0.8,2.8,3.1,6.5
		c4.7,4.6,6.4,8.3,2.3,12.7c-4.1,4.4-11.7,5.1-19.6,0.9c-5.5-2.9-8-6.5-8.9-9.7l6.8-1.1c0.8,2.7,2.6,4.9,5.8,6.6
		c3.1,1.6,6.1,1.5,7.8-0.3c1.6-1.8,1.2-3.2-2.5-6.7c-5.6-5.4-6.1-8.9-2.8-12.5c3.9-4.2,11.3-4.3,17.9-0.9
		C133.3,179.1,135.7,181.9,136.6,185.4z"/>
	<path class="st13" d="M152.6,196.5L134.4,216l-7.5-3.9l18.2-19.5l-8.2-4.3l4-4.3l24.3,12.8l-4.8,3.9L152.6,196.5z"/>
	<path class="st13" d="M153.8,218.6l-6.4,4.3l-7.8-4.1l31.8-18.8l9.1,4.8l-12.7,28.8l-8-4.2l3.1-6L153.8,218.6z M172.1,206.4
		l-13.2,8.8l6.7,3.5L172.1,206.4z"/>
	<path class="st13" d="M185.1,242.6l8.1-23.3c-1.7,2.4-4,5.8-8.1,10.2l-8.1,8.7l-6.7-3.5l22.2-23.8l9.3,4.9l-7.9,23.4
		c1.4-2.1,3.7-5.6,7.3-9.4l9-9.6l6.7,3.5l-22.2,23.8L185.1,242.6z"/>
	<path class="st13" d="M237.2,252.1c-8.9,9.6-18.9,8-27,3.7l-9.5-5l22.2-23.8l8.8,4.6C240.1,236.1,246.3,242.2,237.2,252.1z
		 M211.9,250.6l2.5,1.3c4.5,2.4,9.1,2.4,15-4c6-6.4,3.9-9.4-0.5-11.7l-2.4-1.3L211.9,250.6z"/>
	<path class="st13" d="M239.6,263.7l-6.4,4.3l-7.8-4.1l31.8-18.8l9.1,4.8l-12.7,28.8l-8-4.2l3.1-6L239.6,263.7z M257.9,251.5
		l-13.2,8.8l6.7,3.5L257.9,251.5z"/>
	<path class="st13" d="M272.1,274.8l-8.5,9.1l-7.5-3.9l22.2-23.8l10.4,5.5c8.6,4.5,10.9,9.2,6.3,14.1c-2.9,3.1-6.7,4-12.1,3.2
		l-1.4,14.4l-8.5-4.5l2-12.5L272.1,274.8z M278.9,272.5c3.3,1.7,6,1.6,8.4-0.9c2.1-2.3,1.3-4.2-2.4-6.2l-2.7-1.4l-6.4,6.9
		L278.9,272.5z"/>
	<path class="st13" d="M320.9,296c-8.9,9.6-18.9,8-27,3.7l-9.5-5l22.2-23.8l8.8,4.6C323.9,280,330.1,286.2,320.9,296z M295.7,294.6
		l2.5,1.3c4.5,2.4,9.1,2.4,15-4c6-6.4,3.9-9.4-0.5-11.7l-2.4-1.3L295.7,294.6z"/>
</g>
<g class="st1">
	<path class="st2" d="M132.9,205.7l11.2-13.2c4-4.8,8.3-9.5,12.4-13.5l-28,19.2l-9.8-5.1l14.1-26.5c-4.1,5.1-7.9,9.1-12.4,13.6
		l-12.6,12.3l-10.1-5.3l33.9-31.1l13.1,6.9l-14.2,25.7l26.9-19l13.1,6.9L143.1,211L132.9,205.7z"/>
	<path class="st2" d="M164.3,211.6l-8.8,5.9l-10.7-5.6l43.8-25.9l12.5,6.6l-17.4,39.7l-11-5.8l4.3-8.2L164.3,211.6z M189.4,194.9
		l-18.1,12.1l9.2,4.8L189.4,194.9z"/>
	<path class="st2" d="M208.9,226.9l-11.7,12.5l-10.3-5.4l30.6-32.8l14.3,7.5c11.9,6.2,15,12.6,8.7,19.4c-4,4.3-9.2,5.5-16.6,4.4
		l-1.9,19.8l-11.7-6.1L213,229L208.9,226.9z M218.3,223.9c4.5,2.4,8.3,2.2,11.5-1.3c3-3.2,1.8-5.8-3.3-8.5l-3.7-2l-8.8,9.5
		L218.3,223.9z"/>
	<path class="st2" d="M225.8,254.5l30.6-32.8l10.3,5.4l-30.6,32.8L225.8,254.5z M262.4,273.7l-12-6.3l2.4-24.8l28.1-8l10.9,5.7
		l-27.7,7.4L262.4,273.7z"/>
	<path class="st2" d="M301.5,253.6l-7.3,7.9l13.4,7.1l-5.1,5.4l-13.4-7.1l-7.8,8.4l16.5,8.6l-5.2,5.6l-26.8-14.1l30.6-32.8
		l26.8,14.1l-6.2,5L301.5,253.6z"/>
	<path class="st2" d="M342,275.5l-25,26.8l-10.3-5.4l25-26.8l-11.3-5.9l5.6-6l33.4,17.6l-6.6,5.4L342,275.5z"/>
	<path class="st2" d="M124.9,230.6c-7.1,7.6-17.6,7.4-27.7,2.1l-4.7-2.5l-10.2,10.9L72,235.7l30.6-32.8l14.1,7.4
		C128,216.3,131.6,223.4,124.9,230.6z M114.3,225c3.3-3.5,2.2-6.5-2.9-9.2l-3.7-1.9l-10,10.7l3.8,2
		C106.2,229.1,110.4,229.1,114.3,225z"/>
	<path class="st2" d="M142.9,263.8l-6.8,5.6l-26.3-13.8l30.6-32.8l10.3,5.4l-24.9,26.6L142.9,263.8z"/>
	<path class="st2" d="M156.7,269.7l-8.8,5.9l-10.7-5.6l43.8-25.9l12.5,6.6l-17.4,39.7l-11-5.8l4.3-8.2L156.7,269.7z M181.9,253
		L163.7,265l9.2,4.8L181.9,253z"/>
	<path class="st2" d="M236.6,277.5l-9.2,1.8c-0.9-2.7-2.6-4.9-5.6-6.5c-5.5-2.9-12.6-1.6-20.1,6.4c-7.4,7.9-6.7,13.3-0.9,16.3
		c3.5,1.8,7.2,1.9,11.1,1.7l0.4,7c-4.9,0.7-11.6,0.2-17.6-3c-12-6.3-14.3-16.6-3.9-27.8c10.2-11,24.4-12.7,35.7-6.8
		C232.4,269.9,235.1,273.3,236.6,277.5z"/>
	<path class="st2" d="M249.5,288.3l-7.3,7.9l13.4,7.1l-5.1,5.4l-13.4-7.1l-7.8,8.4l16.5,8.6l-5.2,5.6l-26.8-14.1l30.6-32.8
		l26.8,14.1l-6.2,5L249.5,288.3z"/>
	<path class="st2" d="M303.5,313.5l-8.8,1.7c-1.2-3.4-3.4-5.9-7-7.7c-3.6-1.9-6.9-1.9-8.9,0.1c-1.9,2.1-1.1,3.8,4.2,9
		c6.4,6.3,8.8,11.4,3.1,17.4c-5.7,6.1-16.1,7-27,1.3c-7.6-4-11-8.9-12.2-13.4l9.4-1.6c1.1,3.7,3.6,6.7,7.9,9
		c4.3,2.3,8.3,2.1,10.7-0.4c2.3-2.4,1.6-4.4-3.4-9.2c-7.7-7.4-8.4-12.3-3.9-17.2c5.4-5.8,15.5-5.9,24.6-1.2
		C299,304.9,302.2,308.8,303.5,313.5z"/>
</g>
<path class="st14" d="M401,49.8l6.9-1.9l-5.7-4.3l0.3-7.1l-5.8,4.1l-6.7-2.5L392,45l-4.4,5.6l7.2,0.1l4,5.9L401,49.8z M411.6,48.8
	c-0.1,0.2-0.4,0.4-0.8,0.5l-8.2,2.3l-2.7,8c0,0.1-0.1,0.2-0.1,0.3c-0.3,0.5-0.6,0.6-1,0.4c-0.2-0.1-0.4-0.3-0.5-0.5l-4.7-7.1
	l-8.5-0.1c-0.3,0-0.5,0-0.7-0.1c-0.2-0.1-0.3-0.3-0.3-0.5c0-0.2,0-0.4,0.1-0.6c0-0.1,0.1-0.2,0.2-0.3l5.3-6.7l-2.5-8.1
	c-0.1-0.4-0.1-0.7,0-0.9c0.2-0.4,0.6-0.4,1.2-0.2l8,2.9l6.9-4.9c0.4-0.3,0.8-0.4,1-0.2c0.3,0.2,0.4,0.5,0.4,1l-0.3,8.5l6.8,5.1
	C411.7,48,411.8,48.4,411.6,48.8z"/>
</svg>
