<svg xmlns="http://www.w3.org/2000/svg" width="30.28" height="18.34" viewBox="0 0 30.28 18.34"><defs><style>.cls-1 { fill: #fff; fill-rule: evenodd; }</style></defs><path id="puce-right-white.svg" class="cls-1" d="M7.4 5.5a1.5 1.5 0 1 1-.78 1.97A1.508 1.508 0 0 1 7.4 5.5zm6.58 2.59a1.5 1.5 0 1 1-.78 1.98 1.5 1.5 0 0 1 .78-1.98zm8.5-8.04a.5.5 0 1 1-.26.65.5.5 0 0 1 .26-.65zm-8.07 16.58a.5.5 0 1 1-.26.65.5.5 0 0 1 .26-.65zM.31 4.21a.5.5 0 1 1-.26.66.5.5 0 0 1 .26-.66zm9.24 11.26a1.5 1.5 0 1 1-.78 1.97 1.5 1.5 0 0 1 .78-1.97zM29.58 1.33a.5.5 0 1 1-.26.66.5.5 0 0 1 .26-.66z"/></svg>