<svg xmlns="http://www.w3.org/2000/svg" width="25.531" height="19">
  <path fill="#1a0000" d="M25.011 16.59a.447.447 0 0 1-.343-.52.447.447 0 1 1 .343.52zm-4.492-4.51a1.286 1.286 0 1 1 .553-2.51 1.327 1.327 0 0 1 1.031 1.55 1.31 1.31 0 0 1-1.584.96zM21.172.83A.426.426 0 1 1 21.7.51a.432.432 0 0 1-.528.32zm-1.951 3.22A.428.428 0 0 1 19 3.48a.441.441 0 0 1 .589-.2.426.426 0 0 1 .22.57.432.432 0 0 1-.588.2zm1.249 12.4a1.286 1.286 0 1 1-1.584.96 1.317 1.317 0 0 1 1.584-.96zm-3.387-9.52a1.282 1.282 0 1 1 1.584-.96 1.312 1.312 0 0 1-1.584.96zM13 13.04a.447.447 0 0 1-.344-.52.447.447 0 1 1 .344.52zm-6.236-4.9a.426.426 0 1 1 .529-.32.432.432 0 0 1-.534.32zm.344.52a.439.439 0 0 1-.528.32.447.447 0 0 1-.343-.52.438.438 0 0 1 .527-.32.447.447 0 0 1 .336.52zM.345 4.08a.426.426 0 1 1 .528-.32.432.432 0 0 1-.533.32z"/>
</svg>