<svg xmlns="http://www.w3.org/2000/svg" viewBox="0 0 23 20.969">
  <defs>
    <style>
      .cls-1 { fill: #009ae1; fill-rule: evenodd; }
    </style>
  </defs>
  <path id="star.svg" d="M17.264 20.829a.8.8 0 0 0 .489-1l-1.168-6.227 5.95-3.742a.847.847 0 0 0 .442-1.01.91.91 0 0 0-.866-.748l-6.557-1.11L13.26.645a.912.912 0 0 0-.875-.66.926.926 0 0 0-1 .469L7.777 6.193l-6.653-.241a1.012 1.012 0 0 0-1.008.556.819.819 0 0 0 .214 1.076l5.054 4.911-2.532 5.849a.97.97 0 0 0 .308 1.086 1.074 1.074 0 0 0 1.171.12l6.24-2.921 5.472 4.119a.916.916 0 0 0 .543.232 1.2 1.2 0 0 0 .68-.151z" class="cls-1"/>
</svg>